<?xml version="1.0" encoding="UTF-8" standalone="no"?>
<!-- Created with Inkscape (http://www.inkscape.org/) -->

<svg
   version="1.1"
   id="svg198"
   width="1291.5782"
   height="857.3996"
   viewBox="0 0 1291.5783 857.39959"
   sodipodi:docname="Boat36.svg"
   inkscape:version="1.3.2 (091e20ef0f, 2023-11-25)"
   xmlns:inkscape="http://www.inkscape.org/namespaces/inkscape"
   xmlns:sodipodi="http://sodipodi.sourceforge.net/DTD/sodipodi-0.dtd"
   xmlns="http://www.w3.org/2000/svg"
   xmlns:svg="http://www.w3.org/2000/svg">
  <defs
     id="defs202" />
  <sodipodi:namedview
     id="namedview200"
     pagecolor="#ffffff"
     bordercolor="#000000"
     borderopacity="0.25"
     inkscape:showpageshadow="2"
     inkscape:pageopacity="0.0"
     inkscape:pagecheckerboard="0"
     inkscape:deskcolor="#d1d1d1"
     showgrid="false"
     inkscape:zoom="0.74792023"
     inkscape:cx="590.30359"
     inkscape:cy="384.39928"
     inkscape:window-width="1920"
     inkscape:window-height="1011"
     inkscape:window-x="0"
     inkscape:window-y="0"
     inkscape:window-maximized="1"
     inkscape:current-layer="layer1" />
  <g
     inkscape:groupmode="layer"
     id="layer1"
     inkscape:label="Layer 1">
    <path
       style="fill:#ff6600"
       d="m 549.65327,24.405009 3.19339,22.013019 7.26007,-0.196844 22.39939,-1.508325 34.42517,8.015149 c 0,0 22.24216,7.775037 23.48173,7.619024 1.23957,-0.156013 29.7783,-0.826379 31.01239,-1.124997 1.23408,-0.298618 14.80657,-1.546719 16.09551,-1.858745 1.28893,-0.312025 7.51968,-2.642464 7.51968,-2.642464 l 17.76716,-3.499924 19.88552,-0.878181 -2.44074,-6.364219 -10.97696,-1.544891 -37.63988,0.483883 -30.15005,-4.606639 c 0,0 -35.98468,-13.448777 -37.04447,-13.60479 -1.05979,-0.156013 -34.1558,-5.49518 -34.1558,-5.49518 l -14.02834,0.256568 z"
       id="path4" />
    <path
       id="path3"
       style="fill:#c8c4b7"
       d="M 483.59766 49.158203 L 482.83203 66.220703 L 466.03125 110.7832 L 438.79297 158.10742 L 419.21094 183.4043 C 419.21094 183.4043 416.86328 178.66636 416.86328 176.94727 C 416.86328 175.22817 414.33203 103.5625 414.33203 103.5625 L 396.32031 101.58203 L 363.60742 82.576172 L 338.69922 66.095703 L 336.1875 85.609375 L 323.96484 122.08984 L 275.67578 201.99805 L 268.54883 212.37305 L 270.63477 219.79102 L 269.4043 219.26562 L 263.07031 243.96289 L 222.30859 380.07422 L 179.26758 469.33008 L 113.05664 561.02148 L 72.830078 618.1582 L 41.726562 657.49414 C 41.726562 657.49414 43.73835 660.39453 45.212891 660.39453 C 46.687431 660.39453 221.12695 674.6582 221.12695 674.6582 L 297.70703 674.4707 C 297.70703 674.4707 452.60744 676.51645 453.9707 676.29688 C 455.33395 676.07729 459.58074 674.66672 460.33789 673.54492 C 461.09503 672.42311 461.0957 657.67578 461.0957 657.67578 L 587.92773 658.3418 L 605.86914 657.50977 L 606.60742 649.64844 L 587.45898 432.81836 L 584.83789 350.50586 L 566.38281 339.83789 L 543.41602 319.41016 L 537.97461 313.21484 C 536.01702 313.14939 534.3125 313.06055 534.3125 313.06055 L 437.53125 218.85156 L 433.85352 216.17188 C 435.24234 213.15818 437.38988 208.43642 437.51562 208.26367 C 438.41638 207.02624 443.57812 208.82227 443.57812 208.82227 L 470.92383 227.2207 C 470.92383 227.2207 508.68623 258.17511 509.99219 258.68359 C 511.29815 259.19208 538.31445 287.5625 538.31445 287.5625 L 553.44727 306.9082 L 567.60938 326.10742 L 574.96875 330.78906 C 574.96875 330.78906 573.61914 309.10062 573.61914 307.40039 C 573.61914 305.70016 565.75781 208.41211 565.75781 208.41211 C 565.75781 208.41211 562.95825 91.380539 563.17773 90.228516 C 563.39721 89.07649 559.28408 84.269531 557.94336 84.269531 C 556.60264 84.269531 543.62109 84.03125 543.62109 84.03125 L 521.63477 72.78125 L 483.59766 49.158203 z M 645.49805 175.69531 C 645.49805 175.69531 642.71697 176.78931 641.42969 177.06055 C 640.1424 177.33178 643.43555 198.95795 643.43555 201.2793 C 643.43555 203.60065 634.54662 277.00034 634.27539 278.21875 C 634.00416 279.43717 624.58323 325.6003 623.32031 327.46289 C 622.05739 329.32548 625.71094 333.30273 625.71094 333.30273 L 641.83398 331.70898 L 657.56055 329.32812 L 716.71094 313.63672 L 754.94336 312.01953 C 754.94336 312.01953 855.36101 320.77773 856.6875 321.52148 C 858.01398 322.26525 902.46094 330.50391 902.46094 330.50391 L 904.60938 311.12695 L 903.97266 264.70703 C 903.97266 264.70703 897.49356 218.49083 896.16602 216.25 C 894.83847 214.00917 889.17773 183.59961 889.17773 183.59961 L 882.02734 176.20898 C 882.02734 176.20898 859.72332 183.54633 857.04492 184.86328 C 854.36652 186.18023 822.86232 197.67788 821.40234 198.1875 C 819.94237 198.69712 805.23959 198.49609 803.73828 198.49609 C 802.23698 198.49609 780.17969 193.46484 780.17969 193.46484 L 754.07031 184.82812 C 754.07031 184.82813 733.08643 189.68993 730.41016 190.19531 C 727.73388 190.70068 699.53516 194.63086 699.53516 194.63086 L 673.61328 188.5918 L 645.49805 175.69531 z M 292.2168 224.46289 L 300.89453 226.89062 L 338.4043 249.61719 C 338.4043 249.61719 380.96116 286.32778 382.21875 286.6875 C 382.85571 286.86969 386.83743 289.11401 390.66406 291.3125 L 390.38086 292.19922 L 382.59961 312.50195 L 291.28125 233.68164 L 291.30078 233.48242 C 291.0101 233.34298 290.85766 233.21369 290.50781 233.01562 L 288.12891 230.96289 L 290.45508 227.84766 L 291.69531 229.58789 L 292.2168 224.46289 z M 887.83984 330.20312 C 887.83984 330.20312 874.01294 337.76418 870.3418 338.30664 C 866.67065 338.8491 839.63867 349.37695 839.63867 349.37695 L 811.12109 356.4082 L 786.80664 352.07227 L 758.50195 340.44141 L 733.51953 346.3125 C 733.51953 346.3125 711.82078 352.76732 710.33008 352.49609 C 708.83937 352.22486 693.87815 351.93634 692.39062 350.89062 C 690.9031 349.84491 665.48047 344.15039 665.48047 344.15039 L 650.5625 337.18359 L 645.03906 339.10938 L 641.72266 389.55078 L 631.18164 455.44141 L 622.84375 493.29297 C 622.84375 493.29297 637.5421 495.14031 639.02539 494.63281 C 640.50869 494.12532 664.35937 485.46094 664.35938 485.46094 L 730.07812 471.38672 L 791.86328 470.73633 L 855.40234 481.45312 C 855.40234 481.45312 898.83432 487.45533 901.5 487.72656 C 904.16569 487.99779 906.66406 487.72656 906.66406 487.72656 L 901.13281 403.47266 L 887.83984 330.20312 z M 947.09375 455.67383 L 945.66406 463.19531 C 948.04537 462.42608 986.42969 512.91992 986.42969 512.91992 L 1016.1953 562.48828 L 1043.8652 612.39648 L 1059.5508 656.19336 C 1059.5508 656.19336 1063.5165 658.06535 1065.3945 656.19336 C 1067.2725 654.32136 1072.5312 650.52344 1072.5312 650.52344 C 1072.5312 650.52344 1102.189 640.90971 1103.3008 639.0918 C 1104.4126 637.27389 1133.6324 633.13476 1135.877 632.80273 C 1138.1216 632.4707 1172.0547 628.66797 1172.0547 628.66797 L 1168.7168 621.52344 L 1085.4141 554.59961 L 995.17969 490.32422 L 947.09375 455.67383 z M 614.81641 497.98828 L 616.39844 526.32031 L 626.66797 553.20508 C 626.66797 553.20508 632.71704 561.39674 635.7832 561.66797 C 638.84938 561.9392 656.47852 565.73828 656.47852 565.73828 C 656.47852 565.73828 680.22553 563.30419 683.38281 562.3125 C 686.5401 561.32082 700.05273 554.97852 700.05273 554.97852 L 722.375 574.0957 L 747.45508 586.27148 C 747.45508 586.27148 760.22157 586.21158 763.08008 585.49219 C 765.9386 584.77279 783.69922 579.41797 783.69922 579.41797 L 813.94727 554.33984 C 813.94727 554.33984 847.1214 547.07001 848.62695 546.27539 C 850.13249 545.48077 879.99414 517.65039 879.99414 517.65039 L 892.07031 502.86914 L 878.15234 505.22461 L 862.71875 499.20898 L 844.72656 508.77344 L 831.5332 509.27148 L 812.83789 500.28125 L 796.84375 508.11523 L 778.28516 511.34961 L 757.2168 500.17578 L 739.42578 511.17773 L 727.50195 512.26953 L 709.17578 504.76953 L 689.48633 512.86133 L 680.125 514.07422 L 662.86914 504.16992 L 648.71094 510.4043 L 638.31055 511.4668 L 614.81641 497.98828 z M 901.87891 517.91602 L 918.53906 563.99023 L 933.93164 633.99414 L 942.48633 637.06055 L 1038.6465 666.12695 L 1030.6074 649.74609 L 982.23047 592.24805 L 915.08203 527.37305 L 901.87891 517.91602 z " />
    <path
       style="fill:#a05a2c"
       d="m 1005.3816,699.36679 c 0,0 -36.99275,53.82498 -38.94514,55.32962 -1.9524,1.50465 -21.62865,36.93935 -21.62865,36.93935 l -13.81126,30.28298 c 0,0 -9.67087,8.37188 -11.24711,8.03867 -1.57623,-0.33321 -9.50427,-11.63759 -9.50427,-11.63759 l -23.37279,-11.61416 -6.78263,-15.95759 -5.48233,7.11454 -21.57398,28.04032 -16.08385,10.40367 c 0,0 -17.02184,3.94385 -19.06092,3.45813 -2.03908,-0.48573 -40.1188,-4.12867 -41.00769,-4.31061 -0.88889,-0.18195 -13.38148,6.32805 -14.30163,6.32805 -0.92016,0 -22.43633,3.31431 -22.43633,3.31431 l -74.1524,-10.46874 -16.30946,-5.33495 -11.68305,14.41464 -33.83242,7.86699 -58.74226,-5.9321 -18.97293,-7.1392 -14.58778,5.24279 -27.29919,2.46389 -73.50076,-30.2504 -34.0825,25.15029 -44.1625,-24.66457 -9.57984,8.35511 c 0,0 -38.99987,18.85911 -40.99326,18.71243 -1.9934,-0.14668 -21.30698,-3.01694 -23.51438,-3.40648 -2.2074,-0.38955 -18.49602,-7.9287 -19.26869,-9.14061 -0.77268,-1.21191 -4.68412,-9.20152 -4.68412,-9.20152 0,0 -18.50083,-0.28454 -19.70072,-0.46248 -1.19988,-0.17794 -19.34724,-6.58133 -19.34724,-6.58133 l -57.54638,-93.19106 196.52303,1.08446 c 0,0 80.23118,2.81656 82.11877,2.81656 1.8876,0 63.52657,-2.68992 63.52657,-2.68992 l 265.07918,-9.42034 254.90381,-15.66823 z"
       id="path2" />
    <path
       id="path1"
       style="fill:#000000;stroke-width:1.06667"
       d="M 547.23426 49.356726 C 546.61977 49.332708 545.91901 49.624658 545.08387 50.163367 C 543.80404 50.988905 545.191 70.481309 550.48621 126.06376 C 550.81897 129.5564 548.78928 129.23015 539.0077 124.22391 C 521.43839 115.23212 503.57938 102.63678 491.64246 90.817664 C 484.06342 83.313371 482.40039 82.504653 478.66981 84.501257 C 475.65153 86.116571 476.12447 89.257221 480.46082 96.395789 C 484.31333 102.73754 484.31526 102.74544 483.8534 113.06766 C 483.43893 122.33085 482.92023 124.49653 478.80652 134.06376 C 472.59694 148.50565 459.70283 174.19777 453.55067 184.38993 C 447.95027 193.66773 435.50766 212.99564 431.45692 218.86063 L 427.61707 195.35673 L 427.5702 195.30009 C 427.5512 194.14838 427.56111 193.12008 427.34363 191.22391 C 426.9003 187.35862 426.25225 176.51666 425.90418 167.13016 C 425.20522 148.28134 425.20645 148.28557 417.78895 146.28837 L 413.83973 145.22587 L 413.14832 138.04423 C 412.26484 128.87508 411.89765 127.83041 409.84363 128.61844 C 408.92061 128.97264 406.96233 129.26298 405.49207 129.26298 C 403.00781 129.26298 402.86183 129.54567 403.41785 133.26298 C 403.74692 135.46281 404.13776 139.18193 404.28504 141.5286 C 404.61551 146.79462 403.58832 146.7733 392.87488 141.29032 C 375.30574 132.29853 357.44657 119.70319 345.50965 107.88407 C 337.93061 100.37983 336.26774 99.57112 332.53699 101.56766 C 329.51888 103.18299 329.99149 106.32367 334.32801 113.46219 C 338.18052 119.80411 338.18244 119.81381 337.72059 130.13602 C 337.30611 139.39921 336.7853 141.56293 332.67176 151.13016 C 326.44732 165.60676 313.55923 191.28547 307.41199 201.45634 C 298.30463 216.52501 283.27527 239.53028 277.7577 246.84891 C 273.15067 252.95974 271.72939 254.13743 268.24988 254.73173 C 265.99978 255.11607 263.92408 256.04044 263.63856 256.78446 C 262.91322 258.67469 265.98705 264.26748 268.85535 266.27665 L 271.24988 267.95438 L 268.98231 276.20829 C 267.73449 280.74805 262.80633 298.86253 258.03309 316.46219 C 247.36644 355.79129 243.71932 367.4587 229.55457 407.54423 C 203.10223 482.40349 191.35281 504.6055 143.12879 570.86259 C 131.38659 586.99559 115.37854 609.55558 107.55457 620.9954 C 91.093526 645.06376 79.987632 659.76862 60.831915 682.86259 L 47.119025 699.39579 L 29.060431 699.01102 L 11.001837 698.62626 L 8.0721496 701.55594 C 4.4983208 705.12984 4.3769715 707.37395 7.5955871 710.39774 C 10.378436 713.01214 23.205592 714.81231 39.28504 714.84501 C 44.278005 714.85518 62.998006 716.2925 80.88465 718.04032 C 156.03279 725.38337 213.97571 728.60505 272.33973 728.68485 C 296.39255 728.71774 335.27379 729.27901 358.74012 729.93094 C 382.20628 730.58303 411.10495 730.80742 422.95692 730.43094 C 443.90541 729.76566 444.53861 729.8075 445.66981 731.92118 C 446.90792 734.23492 448.77807 751.94689 448.83777 761.92509 L 448.87293 767.92118 L 439.5409 768.56766 C 402.06215 771.16239 385.53624 771.69625 380.74402 770.46805 C 371.1964 768.02119 241.67745 764.56841 227.5409 766.38407 C 223.43424 766.91152 212.3942 767.0419 203.0077 766.67313 C 170.00033 765.37636 129.39349 764.32969 128.15613 764.74344 C 126.04395 765.45005 125.54764 768.38062 127.13856 770.74735 C 127.97029 771.9847 131.8203 776.49217 135.6952 780.76493 C 139.56993 785.03753 142.74012 789.19794 142.74012 790.01102 C 142.74012 790.82408 145.14726 794.28958 148.08777 797.71024 C 151.02846 801.13108 154.23889 805.72548 155.22254 807.92118 C 156.2062 810.11688 157.85901 812.18374 158.89637 812.51298 C 159.93373 812.84223 162.32859 815.84524 164.21668 819.1868 C 171.46622 832.01787 181.28917 845.79392 190.47059 856.8411 C 180.50961 857.19117 164.5912 855.94395 156.18543 853.63798 C 145.54304 850.71824 143.13757 850.79864 141.62488 854.11844 C 140.95546 855.58758 140.60554 856.96327 140.84754 857.17509 C 141.08954 857.3869 150.16627 860.385 161.01942 863.83719 C 180.15835 869.92528 181.10832 870.11454 192.53309 870.11454 C 198.14818 870.11454 201.33584 870.37627 203.53699 870.85282 C 204.08193 871.33729 204.76714 872.14467 205.28504 872.57157 C 211.06867 877.33906 218.29142 879.48543 226.30457 878.81962 C 229.91768 878.51941 233.88101 877.95033 235.11121 877.55399 C 236.91541 876.97273 237.60844 877.46502 238.70106 880.10282 C 242.01236 888.09724 252.73669 893.71558 269.57996 896.2786 C 289.51771 899.3125 311.25979 892.31238 330.93152 876.52665 C 334.99619 873.2649 338.96774 870.59696 339.7577 870.59696 C 342.81681 870.59696 367.26542 884.19805 380.26551 893.13212 C 386.59458 897.48164 392.33973 897.13305 392.33973 892.39969 C 392.33973 890.62692 393.77257 888.91277 397.2577 886.51493 C 399.96182 884.65433 405.75796 880.00732 410.13856 876.1868 L 418.1034 869.23954 L 438.02137 878.9329 C 472.41745 895.67103 481.8693 899.33165 494.27723 900.71805 C 506.84737 902.12274 517.22006 900.79375 525.19715 896.75516 L 530.02137 894.3118 L 540.91395 897.83719 C 546.90499 899.7754 558.04721 902.54285 565.67371 903.98759 C 576.51623 906.04136 583.31805 906.64029 596.85926 906.73759 C 614.09001 906.86145 618.16932 906.34324 630.83973 902.41532 C 634.41378 901.3073 638.0719 900.68254 638.96863 901.02665 C 639.86536 901.37076 642.40827 900.42529 644.61902 898.92509 C 646.82994 897.42471 649.42372 896.19657 650.38465 896.19657 C 653.15453 896.19657 657.08585 892.9537 656.41981 891.21805 C 656.09123 890.36193 656.52718 888.29783 657.38856 886.63212 L 658.95496 883.60477 L 670.4784 888.23173 C 685.46457 894.24908 705.69908 898.08654 730.86121 899.68485 C 752.79245 901.07793 757.43251 900.35712 772.60731 893.19852 C 780.74176 889.36128 781.33401 889.23948 785.28895 890.57352 C 787.57061 891.34319 796.72067 892.50761 805.62098 893.16141 C 827.07433 894.73732 839.09098 893.43644 847.65418 888.61454 C 861.38926 880.88035 876.19897 866.76461 881.99402 855.88407 L 885.23817 849.79618 L 884.70106 854.59696 C 884.40644 857.23696 882.92161 862.4461 881.40027 866.17313 C 878.79337 872.56031 878.74186 873.02736 880.50379 874.31571 C 882.08224 875.46991 883.04394 875.26718 886.68934 873.01298 C 889.06368 871.54455 892.56799 868.86552 894.47449 867.05985 L 897.94129 863.7786 L 897.94129 866.78641 C 897.94129 869.61292 898.15194 869.75369 901.40809 869.10087 C 912.75842 866.82521 912.49334 866.77622 913.23817 871.28446 C 913.61155 873.54558 913.92357 877.51879 913.92957 880.11259 C 913.94233 885.23685 916.17106 888.72977 919.42957 888.72977 C 921.54606 888.72977 935.22194 882.95046 939.49402 880.25126 C 941.45391 879.01292 945.08418 878.59696 953.89442 878.59696 C 965.31903 878.59696 966.26915 878.40754 985.40809 872.31962 C 996.26125 868.86725 1005.338 865.86932 1005.58 865.65751 C 1005.822 865.44569 1005.472 864.07001 1004.8026 862.60087 C 1003.2899 859.28089 1000.8846 859.20065 990.24207 862.1204 C 978.06433 865.46119 950.10444 866.5824 947.36121 863.83915 C 946.45793 862.93587 953.72738 843.31489 958.49207 833.79618 C 963.74122 823.31 969.77828 814.66472 977.48231 806.59696 C 980.08943 803.86654 981.75877 801.92056 982.86902 800.20243 L 982.94324 800.20634 C 983.78743 798.98335 1005.2339 778.28451 1016.2304 767.67118 C 1019.9485 765.86056 1045.7169 753.83648 1062.8729 745.83524 C 1067.3703 744.23113 1072.7055 742.0679 1077.8886 739.49149 C 1080.3536 738.26619 1083.0175 737.26298 1083.8085 737.26298 C 1084.5996 737.26298 1085.7039 736.86206 1086.2596 736.37235 C 1086.8169 735.88266 1089.674 734.61769 1092.6073 733.5618 C 1095.5407 732.50608 1100.3939 730.31901 1103.3925 728.70243 C 1106.3911 727.08583 1110.4382 725.41356 1112.3866 724.98563 C 1114.3348 724.55771 1117.5721 723.28526 1119.58 722.15751 C 1126.5487 718.24343 1182.6247 697.32352 1183.5819 698.28055 C 1183.846 698.54468 1184.7592 698.06425 1185.6112 697.21219 C 1186.4633 696.36029 1189.1278 695.66337 1191.5331 695.66337 C 1193.9383 695.66337 1196.6636 695.01481 1197.5897 694.22196 C 1198.5159 693.42913 1212.7141 687.8394 1229.1405 681.80204 C 1245.567 675.7645 1264.7663 668.31644 1271.8065 665.2493 C 1278.8467 662.18233 1286.1539 659.33541 1288.0448 658.92313 C 1291.7394 658.11751 1296.8823 652.8997 1296.8593 649.98173 C 1296.8247 645.73607 1295.5139 643.39579 1293.1679 643.39579 C 1289.3859 643.39579 1214.045 671.32317 1203.1464 676.76493 C 1201.7558 677.45922 1197.867 678.02665 1194.5057 678.02665 C 1189.4911 678.02665 1187.7086 677.50469 1184.5721 675.11259 C 1182.4715 673.50903 1180.41 672.19657 1179.996 672.19657 C 1179.582 672.19657 1174.3907 667.28448 1168.4589 661.28251 C 1162.527 655.28038 1157.3757 650.45949 1157.0116 650.56962 C 1156.6477 650.67975 1154.4889 649.18647 1152.2128 647.2493 C 1143.5271 639.85676 1092.9273 600.79536 1079.0253 590.75126 C 1071.0228 584.96942 1060.2443 576.64925 1055.0741 572.26298 C 1049.904 567.87655 1037.994 559.08271 1028.6073 552.72196 C 1019.2207 546.36122 1003.0574 534.75721 992.68934 526.93485 C 982.32151 519.11249 966.80873 508.45953 958.21668 503.26298 C 944.99101 495.26376 932.28556 486.14438 916.60731 473.39969 C 913.47138 470.85072 913.40419 470.5927 913.27137 460.44266 C 913.19683 454.74616 912.67315 449.78004 912.10731 449.40751 C 911.54149 449.03497 910.48848 444.17012 909.76746 438.59696 C 908.65137 429.97006 902.40276 396.52958 900.46082 388.79227 C 899.84962 386.35725 899.94864 386.32938 909.39832 386.32938 C 918.329 386.32938 926.21981 384.82517 925.42176 383.27469 C 925.2296 382.90155 924.42221 381.30022 923.62684 379.7161 C 922.83147 378.13196 920.8786 376.38164 919.28895 375.82743 L 916.39832 374.81962 L 915.56238 357.3743 C 915.10274 347.77949 914.59751 334.40987 914.43934 327.66337 C 914.28118 320.9167 913.64487 314.10006 913.02527 312.51493 C 912.40583 310.9298 911.98243 305.74095 912.08387 300.98563 C 912.19273 295.87983 911.80659 292.03704 911.14051 291.60087 C 910.52017 291.19465 909.42209 286.3031 908.70106 280.72977 C 907.58498 272.10287 901.33619 238.66223 899.39442 230.92509 C 898.78322 228.4899 898.88206 228.46219 908.33192 228.46219 C 917.19069 228.46219 924.63997 227.07037 924.58387 225.42509 C 924.51135 223.29776 920.2733 219.70264 917.08777 219.06571 C 913.90826 218.42994 840.31817 218.38102 805.67371 218.99149 C 792.12931 219.23015 770.53127 217.67769 769.2284 216.37235 C 768.73971 215.88272 768.37666 201.63762 768.42176 184.7161 C 768.51396 150.12253 769.18572 152.77954 760.33973 152.74344 L 756.60731 152.72782 L 756.53699 178.0618 C 756.49809 191.99533 756.08168 206.10701 755.61317 209.41923 L 754.7616 215.44071 L 748.21863 216.09305 C 744.61971 216.45149 730.87354 216.68072 717.67371 216.60282 C 704.47406 216.52499 683.35329 216.77269 670.74012 217.1536 C 654.90727 217.63175 643.19048 217.40986 632.89637 216.4368 C 614.29579 214.67872 612.69488 215.13752 613.59559 221.97782 C 613.9371 224.57145 614.39027 226.8682 614.6034 227.08134 C 614.81655 227.29449 620.75892 227.87079 627.80848 228.36063 C 634.85788 228.85047 641.16152 229.58096 641.81629 229.98563 C 643.37608 230.94963 643.27931 244.53415 641.47449 277.5286 C 640.10765 302.51626 639.78401 304.87505 634.12293 331.29423 C 630.86663 346.49065 627.69295 359.23943 627.0702 359.6243 C 626.44746 360.00918 625.73457 362.93456 625.48621 366.12626 C 624.77069 375.32097 624.26665 376.0158 618.84559 375.27274 C 613.73949 374.57287 613.4884 374.99592 614.87488 381.92899 C 615.39698 384.53952 616.0901 385.26298 618.0741 385.26298 C 619.46743 385.26298 620.60731 385.68902 620.60731 386.21024 C 620.60731 386.73145 625.41651 387.18982 631.29481 387.22782 C 637.17294 387.26583 642.45415 387.58728 643.02918 387.94266 C 644.42541 388.80557 644.27135 403.76088 642.5409 435.39579 C 641.17405 460.38328 640.85221 462.74045 635.19129 489.15946 C 631.93499 504.35604 628.75324 517.10975 628.12293 517.4993 C 627.49264 517.88884 626.80915 520.57451 626.6034 523.46805 C 626.39765 526.36175 625.35751 531.48926 624.2909 534.86259 C 622.38553 540.88842 622.28196 540.9954 618.36707 540.9954 C 616.17551 540.9954 613.62318 541.28774 612.6952 541.64384 C 610.40848 542.52117 610.56255 546.87862 612.96277 549.22196 C 614.55016 550.77164 614.94035 552.93373 615.03895 560.72977 C 615.32766 583.55567 628.4077 612.72914 639.37684 615.01102 C 641.19332 615.38893 644.79332 616.73562 647.37684 618.00321 C 653.27355 620.89648 668.29007 621.87864 677.01942 619.94266 C 683.71239 618.45843 695.77731 613.30202 698.65613 610.69657 C 699.69014 609.76081 701.71475 608.9954 703.15418 608.9954 C 705.68956 608.9954 707.75433 610.80678 719.11512 622.98954 C 721.37487 625.4128 723.69497 627.39579 724.26942 627.39579 C 725.17444 627.39579 735.70369 632.42181 741.77332 635.75126 C 742.8915 636.36461 745.12679 637.14568 746.74012 637.48563 C 748.35345 637.82558 749.67371 638.65734 749.67371 639.33329 C 749.67371 640.00926 750.38282 641.34582 751.24988 642.30399 C 752.60936 643.8062 752.68457 647.41671 751.7909 668.52079 C 751.22087 681.98197 750.5388 695.39621 750.27527 698.32938 C 750.01173 701.26271 749.49864 711.10341 749.13465 720.19657 C 748.29213 741.24418 747.11578 755.94657 746.1991 758.23368 L 674.07606 760.88602 C 670.01083 760.91552 669.46898 760.94758 664.93934 760.97782 L 622.33582 761.26298 L 622.57996 750.59696 C 622.71384 744.73047 622.32182 738.24991 621.70887 736.19657 C 621.09593 734.14324 620.28339 727.06219 619.90418 720.46219 C 619.35771 710.95102 618.89212 708.46219 617.65418 708.46219 C 616.66038 708.46219 616.27933 707.74571 616.60731 706.49149 C 616.89081 705.40741 616.45996 699.76737 615.65027 693.95829 C 609.76648 651.74357 608.63584 640.97227 607.26942 614.06376 C 606.43517 597.63727 603.99422 561.63659 601.84363 534.06376 C 598.40206 489.93694 597.95734 480.12783 598.1366 452.19657 C 598.2766 430.38277 597.98573 420.46219 597.20692 420.46219 C 597.16792 420.46219 597.14885 420.28726 597.11121 420.27079 L 573.47059 181.58915 C 573.49655 181.58491 573.50786 181.5286 573.53504 181.5286 C 573.96603 181.5286 573.94714 178.28938 573.49402 174.32938 C 573.04107 170.36955 572.38506 159.45026 572.03699 150.06376 C 571.33889 131.23793 571.33097 131.21628 563.99012 129.23954 L 560.10926 128.19462 L 558.89051 117.49149 C 557.18101 102.45815 556.99537 103.26955 562.74012 100.6536 C 577.90547 93.747836 591.52087 94.700271 622.15613 104.80985 C 634.85978 109.0021 640.5575 110.301 650.16004 111.19462 C 656.79043 111.81158 662.60436 112.07644 663.07996 111.78251 C 663.55555 111.48858 668.23444 111.16742 673.47645 111.06962 C 685.71718 110.84112 692.19579 109.64765 705.70301 105.13407 C 715.99402 101.69517 717.43176 101.48704 729.16981 101.71415 C 741.45816 101.95191 750.42251 100.40396 749.10535 98.272742 C 748.78198 97.749526 746.6188 96.751627 744.29676 96.055945 C 741.97472 95.360263 740.0741 94.445354 740.0741 94.022742 C 740.0741 92.797458 734.88866 91.111363 725.40223 89.249304 C 717.92332 87.781296 715.03384 87.707225 706.20301 88.764929 C 687.49497 91.00567 665.11195 88.371788 656.49402 82.91532 C 655.23626 82.118858 652.04792 81.124396 649.40809 80.704382 C 646.76809 80.284385 642.6864 78.954804 640.33973 77.749304 C 637.99307 76.543804 634.15319 75.212714 631.80652 74.792273 C 629.46002 74.371832 624.66051 72.962433 621.14051 71.65946 C 605.66442 65.930751 579.13164 64.513053 563.12879 68.559851 C 558.27923 69.786231 554.16556 70.624815 553.98621 70.425085 C 553.80687 70.22537 552.75327 65.508019 551.64637 59.940711 C 550.13539 52.341023 549.07773 49.428779 547.23426 49.356726 z M 577.74793 70.768835 C 579.99468 70.623913 582.99703 70.712985 587.48621 70.985632 C 598.86507 71.676745 612.92402 74.099695 616.42957 75.975867 C 616.68031 76.110054 617.29527 76.102377 617.66785 76.220007 L 617.76942 76.427039 L 627.89246 79.563757 C 627.99542 79.589453 627.97838 79.642151 628.08387 79.66532 C 629.84977 80.05316 632.85107 81.150022 634.75184 82.10282 C 639.44552 84.455727 654.30053 89.671341 659.5409 90.805945 C 661.88757 91.314017 668.36813 92.271488 673.94129 92.934851 C 683.42758 94.063983 690.80132 94.202859 720.52137 93.813757 C 728.93938 93.703546 732.92614 94.06625 734.10926 95.048132 C 735.03019 95.812431 735.56371 96.794685 735.29481 97.229773 C 735.02591 97.664862 729.87087 98.350096 723.83973 98.75321 C 708.86929 99.753826 700.08944 101.20857 693.14051 103.83915 C 688.21631 105.70321 684.36044 106.11551 669.14051 106.40555 C 659.16735 106.59561 649.56652 106.35288 647.80652 105.86649 C 646.04669 105.38011 643.03632 104.92417 641.11707 104.85477 C 639.19783 104.78536 635.83769 103.56728 633.65027 102.14774 C 630.97598 100.41214 625.65674 98.827482 617.40809 97.309851 C 610.66142 96.068593 601.54034 94.28826 597.14051 93.35282 C 591.1022 92.069032 586.13177 91.815622 576.87293 92.317664 C 570.12643 92.683463 563.61742 92.713103 562.40809 92.38407 C 559.70309 91.648121 557.6526 84.836122 558.65027 79.901648 C 559.24525 76.959413 560.03209 76.256972 564.10926 75.030554 C 566.72957 74.242365 570.52674 72.85495 572.54676 71.948523 C 574.01017 71.291862 575.50118 70.913774 577.74793 70.768835 z M 493.55457 108.23563 C 494.02112 107.36519 500.34219 110.97787 512.85145 119.26688 C 523.08304 126.04678 534.80881 133.28472 538.90809 135.34891 C 546.15512 138.99854 546.59507 139.08112 554.83387 138.36259 C 560.10831 137.90248 563.5558 138.02235 563.96277 138.68094 C 564.32248 139.26297 564.23157 146.86234 563.7616 155.56766 C 563.29162 164.273 563.22888 176.677 563.62293 183.13016 C 564.01698 189.58349 564.40099 208.54315 564.47449 225.26298 C 564.55476 243.5154 565.03326 256.30231 565.67371 257.26298 C 566.26051 258.14318 566.97992 269.51639 567.27332 282.54423 C 567.65414 299.45389 568.18844 306.60717 569.14051 307.5579 C 570.0609 308.47701 570.50214 313.20104 570.56434 322.80985 C 570.65107 336.22211 571.29956 343.02136 573.46863 353.26298 C 574.02779 355.90281 574.79965 360.58337 575.18348 363.66337 C 575.34137 364.93035 575.14814 365.10013 575.18348 365.88016 L 560.24207 341.13407 L 537.43543 319.35868 C 529.13267 310.54552 515.61101 298.10068 505.92176 290.8118 C 498.89177 285.52347 487.37956 277.66337 480.33973 273.34696 C 473.29973 269.03056 466.3396 264.71849 464.87293 263.76493 C 459.19723 260.07477 432.6794 249.46232 426.20692 248.29032 C 422.55281 247.62867 422.21064 247.27047 422.25574 244.14774 C 422.29492 241.43686 423.18644 240.06633 426.55652 237.5286 C 431.3475 233.9211 438.24829 224.2007 454.1952 198.59696 C 463.42406 183.77936 481.94129 150.64764 481.94129 148.95243 C 481.94129 148.67213 484.04976 143.50207 486.62879 137.46415 C 490.22584 129.04278 491.49828 124.51086 492.08973 118.00712 C 492.51378 113.34394 493.17296 108.94758 493.55457 108.23563 z M 347.42176 125.30204 C 347.88831 124.43161 354.20954 128.04624 366.71863 136.33524 C 376.95021 143.11498 388.67616 150.35096 392.77527 152.41532 C 400.02247 156.06496 400.46209 156.14768 408.70106 155.42899 C 413.9755 154.96888 417.42087 155.08859 417.82801 155.74735 C 418.18772 156.32938 418.10319 163.92875 417.63856 172.63407 C 417.17393 181.3394 417.05709 193.50337 417.38074 199.66337 C 419.32945 236.75337 419.33386 235.1863 417.30067 236.67313 C 416.25521 237.43759 414.27712 238.06376 412.90418 238.06376 C 411.53123 238.06376 410.14733 238.73866 409.82996 239.56571 C 409.05544 241.58411 412.02442 247.13298 414.99012 249.21024 L 417.3827 250.88798 L 415.11512 259.14188 C 413.86761 263.68181 408.68052 282.7556 403.58777 301.5286 C 398.49519 320.30159 394.00136 335.98059 393.60145 336.36844 C 393.20154 336.75645 388.12083 332.52749 382.31043 326.97196 C 369.46539 314.68998 351.36076 300.93086 334.20692 290.41337 C 327.16692 286.09696 320.20679 281.76775 318.74012 280.79227 C 315.16308 278.41332 311.02227 276.59554 295.38465 270.54227 C 288.11189 267.72718 281.05224 264.4279 279.69715 263.21024 L 277.23231 260.9954 L 283.8534 252.26298 C 295.53799 236.84859 318.71774 199.32591 329.19715 178.86259 C 340.31741 157.14788 345.0815 144.70199 345.95692 135.07548 C 346.3808 130.41231 347.04015 126.014 347.42176 125.30204 z M 887.93738 229.24344 C 888.66841 229.45379 889.03976 229.99784 889.45692 230.99149 C 891.61513 236.13275 895.86236 260.81229 900.56238 295.5286 C 900.83036 297.50803 901.80258 299.95933 902.72254 300.97587 C 904.36525 302.79082 904.47725 304.75879 904.30457 328.72977 C 904.28555 331.36977 904.76757 339.79485 905.37684 347.45243 C 905.98612 355.11 906.16803 364.40504 905.78113 368.10673 L 905.07801 374.83719 L 900.70887 374.27079 C 898.30602 373.95971 885.05982 371.78437 871.27332 369.4368 C 825.07519 361.57031 795.34303 358.67303 758.74012 358.47196 C 738.55529 358.36108 731.46539 358.7477 718.74012 360.64774 C 699.91302 363.45889 681.33862 367.66787 662.24988 373.44852 C 651.42553 376.72655 646.08079 377.79618 640.53504 377.79618 C 633.96522 377.79618 633.25548 377.59613 633.90027 375.92899 C 634.29745 374.90233 634.86807 372.62242 635.16785 370.86259 C 635.46765 369.10259 636.14046 366.70194 636.66199 365.5286 C 637.18354 364.35527 639.31687 354.7564 641.40223 344.19657 C 643.48759 333.63674 646.11688 321.59981 647.24598 317.44852 C 650.03373 307.19853 652.8894 274.70444 653.02723 251.66337 C 653.08951 241.25037 653.19139 232.72993 653.25379 232.72977 C 653.31619 232.72961 660.45667 235.38988 669.12098 238.64188 C 690.00893 246.48202 696.49375 247.92034 710.74012 247.86454 C 723.92149 247.81294 734.36991 245.57783 745.56629 240.41532 C 751.73349 237.57156 752.97181 237.35901 759.38856 238.05594 C 763.26504 238.47709 768.30638 239.83241 770.58973 241.06571 C 784.04764 248.33466 795.90972 251.38332 810.47449 251.31962 C 832.83912 251.22187 848.90473 246.75321 873.24402 233.85868 C 876.96792 231.88584 881.92546 229.92223 884.25965 229.4954 C 886.11603 229.15593 887.20636 229.03326 887.93738 229.24344 z M 815.9491 229.94266 C 844.80797 229.86337 859.18761 230.17565 857.97059 230.85673 C 854.04077 233.0558 838.61174 238.23017 831.90613 239.59696 C 812.69809 243.51213 793.95296 242.17376 780.0741 235.89774 C 777.72761 234.8366 774.96796 233.70438 773.94129 233.38212 C 772.91462 233.05985 772.07506 232.18074 772.07606 231.42899 C 772.07774 230.34183 781.05506 230.03856 815.9491 229.94266 z M 687.27332 230.76688 C 697.83315 230.81539 714.87402 231.16274 725.14051 231.53641 L 743.80652 232.21415 L 736.48817 234.60673 C 732.46273 235.92253 725.02285 237.47539 719.95496 238.05594 C 714.88723 238.63667 709.3009 239.05077 707.5409 238.97587 C 695.26718 238.45393 678.69093 235.30387 671.3202 232.09305 C 668.47781 230.85508 670.45816 230.68968 687.27332 230.76688 z M 447.19715 260.5911 C 447.68305 260.66384 448.28722 260.91557 448.99988 261.36063 C 450.18957 262.10361 453.1689 263.75045 455.61902 265.02079 C 458.06931 266.29112 462.67953 269.86634 465.86317 272.96415 C 469.04665 276.06179 472.29635 278.59696 473.08582 278.59696 C 473.87528 278.59696 476.55108 280.42013 479.03113 282.64969 C 481.51136 284.87941 487.1409 289.29787 491.5409 292.46805 C 510.62382 306.21802 524.54873 318.58984 533.44715 329.69657 C 536.45821 333.45486 540.43678 338.01434 542.28699 339.82938 C 544.13738 341.64442 546.49694 344.80925 547.53113 346.86259 C 548.56549 348.91575 551.91038 353.23569 554.96277 356.46219 C 558.01534 359.68885 561.77413 364.32872 563.31629 366.77274 C 564.85847 369.21676 566.6234 371.52756 567.23817 371.90751 C 568.60708 372.75364 572.60731 380.86554 572.60731 382.79618 C 572.60731 383.58951 572.29294 383.97294 571.86512 384.18094 L 572.40418 385.07157 L 569.07606 384.87821 L 445.8534 266.22977 L 445.46668 262.98563 L 446.08973 263.06766 C 445.82735 261.46903 446.07859 260.42366 447.19715 260.5911 z M 426.89832 261.3118 L 587.84754 413.12235 L 588.06434 438.7161 C 588.35132 472.67987 589.70949 496.60918 594.49207 552.05399 C 595.95285 568.9883 597.85613 597.30729 598.72254 614.98563 C 600.16581 644.43433 604.15465 684.86078 606.71082 695.93876 C 607.285 698.42704 607.76683 701.13065 607.78113 701.94657 C 607.80308 703.19546 603.29427 703.3103 579.27332 702.67899 C 563.58033 702.26655 550.02051 701.95483 549.14051 701.98563 C 548.26051 702.01648 541.77995 702.35499 534.74012 702.73759 C 519.03212 703.59112 512.8387 703.6812 505.94129 703.15751 C 503.00795 702.9348 490.28687 703.06138 477.67371 703.4368 C 465.06055 703.81221 452.82116 703.7184 450.47449 703.22977 C 448.128 702.74114 430.60723 702.0273 411.5409 701.64384 C 351.1252 700.42878 304.701 698.30022 256.87488 694.55204 C 209.39224 690.83059 200.33973 689.94689 200.33973 689.0286 C 200.33973 688.52867 206.97505 679.85584 215.08387 669.75712 C 233.88639 646.34047 240.95758 636.75393 261.66785 606.59696 C 270.93419 593.10379 284.52892 573.90215 291.87684 563.92899 C 327.8843 515.05593 338.46887 498.53396 353.37488 467.92899 C 363.54834 447.041 370.19861 430.93635 381.34754 400.19657 C 385.70945 388.17007 390.38423 375.92873 391.73621 372.9954 C 393.0882 370.06207 394.44921 365.64484 394.75965 363.17899 C 395.07008 360.71312 396.33345 357.27949 397.56629 355.54813 C 398.79913 353.81676 399.80652 350.79178 399.80652 348.82548 C 399.80652 346.859 401.75082 338.53299 404.12684 330.32352 C 406.50268 322.11406 410.75082 306.441 413.56629 295.49735 C 416.38176 284.55371 419.7185 273.61944 420.98035 271.19852 C 422.24221 268.77777 423.27332 265.8844 423.27332 264.76884 C 423.27332 263.59813 424.28867 262.42372 425.67371 261.99149 C 426.21411 261.82284 426.42115 261.55316 426.89832 261.3118 z M 277.84363 273.37821 C 278.34859 272.69777 309.72165 296.56422 324.09559 308.56376 C 336.47264 318.89641 371.93111 353.64213 380.12098 363.46219 L 383.73426 367.79227 L 374.12684 394.92704 C 349.31273 465.00774 336.69725 488.6225 289.2616 553.79618 C 277.5194 569.92917 261.51151 592.48916 253.68738 603.92899 C 237.22635 627.99751 226.12043 642.70221 206.96473 665.79618 L 193.25184 682.32938 L 175.19324 681.94462 L 157.13465 681.55985 L 154.20496 684.48954 C 150.63125 688.06344 150.50973 690.30576 153.7284 693.32938 C 156.5113 695.94378 169.34026 697.7459 185.41981 697.7786 C 190.41268 697.78876 209.13263 699.22626 227.01942 700.97391 C 301.40099 708.24222 359.87658 711.52354 417.36121 711.6536 C 440.80247 711.70664 460.07969 711.84913 460.1991 711.97196 C 460.31851 712.09481 460.76649 714.06482 461.19324 716.34891 L 461.96863 720.50321 L 433.28895 719.7493 C 417.51469 719.33519 403.8877 719.02334 403.0077 719.05594 C 402.1277 719.08856 396.12705 719.36884 389.67371 719.67899 C 383.22055 719.98915 375.30077 720.51971 372.0741 720.85673 C 368.84761 721.19376 365.86868 721.12387 365.45496 720.70243 C 365.04124 720.28099 354.96068 720.00891 343.05457 720.09891 C 320.17682 720.27186 253.33891 718.7588 205.14051 716.97587 C 147.04314 714.82656 54.206915 708.13391 54.206915 706.09501 C 54.206915 705.59509 60.842202 696.92224 68.951056 686.82352 C 87.753593 663.40705 94.824787 653.82034 115.53504 623.66337 C 124.80138 610.17021 138.39628 590.96856 145.74402 580.9954 C 172.12568 545.18757 178.55011 535.95264 188.40613 519.66337 C 218.8504 469.34724 245.05545 399.44327 270.77918 299.92899 C 274.49459 285.55599 277.67309 273.60801 277.84363 273.37821 z M 301.39051 277.16532 L 304.60145 279.38602 C 306.054 280.21958 307.67787 281.15163 309.48621 282.08915 C 311.42434 283.09396 314.72241 285.85891 317.58777 288.3704 L 341.31043 304.78251 L 365.85731 325.60673 C 367.67602 327.14456 369.55483 328.66725 371.21863 330.15555 L 379.54871 337.22196 L 389.03895 348.2493 L 388.66004 352.37235 C 388.63573 352.51909 388.70303 352.59303 388.67371 352.7493 C 388.57737 353.26285 388.41703 353.23709 388.2909 353.6829 C 388.17482 354.00737 388.05478 354.32467 387.90027 354.63407 C 387.62779 355.28915 387.37304 356.46219 387.14832 356.46219 C 386.69198 356.46219 378.05667 348.07734 367.96082 337.82938 C 358.66615 328.39468 350.14348 320.54677 347.14442 318.49149 L 336.81629 310.72001 C 335.99008 310.20563 335.1178 309.55927 333.87488 308.50516 L 300.65418 283.50516 L 300.65027 283.43876 L 300.47449 283.44071 C 300.47449 283.44071 296.0307 280.97586 296.6366 280.13993 C 297.24249 279.304 301.39051 277.16532 301.39051 277.16532 z M 744.91395 367.83329 L 749.67371 368.48563 L 749.67371 372.97977 L 749.67371 377.47587 L 727.0077 378.20243 C 714.5412 378.60241 700.73956 379.10459 696.33973 379.31962 C 691.93973 379.53465 685.70115 379.40083 682.47449 379.02079 L 676.60731 378.32938 L 686.74012 375.91141 C 709.50436 370.48025 736.68684 366.70564 744.91395 367.83329 z M 775.20496 368.02079 C 787.53728 366.8447 864.74889 375.41125 863.27723 377.79227 C 863.02787 378.19575 855.00491 378.86152 845.4491 379.27274 C 822.38212 380.26497 778.82599 380.88187 774.47449 380.27665 C 771.0573 379.80135 771.0077 379.71269 771.0077 374.10673 L 771.0077 368.42118 L 775.20496 368.02079 z M 888.40809 387.08329 C 890.77788 387.51245 891.42862 390.87668 894.09363 404.46219 C 898.71047 427.99644 901.16 448.02196 900.9452 460.46219 C 900.76052 471.15927 901.97369 480.12868 904.41004 486.06376 C 905.81955 489.49726 907.59909 518.78116 906.83973 526.04618 L 906.14442 532.70243 L 901.77527 532.13798 C 899.3726 531.82689 886.12605 529.65155 872.33973 527.30399 C 826.14142 519.43749 796.4096 516.54021 759.80652 516.33915 C 733.34959 516.19381 717.60945 517.86467 692.60731 523.47001 C 679.71118 526.36107 653.91591 533.81641 648.87293 536.11063 C 647.11293 536.9113 643.38677 538.09748 640.59168 538.74735 C 634.10504 540.25556 633.06527 540.23413 633.67371 538.59696 C 633.94624 537.86362 634.77732 534.62245 635.51942 531.39579 C 636.26135 528.16912 637.2761 524.56912 637.77332 523.39579 C 638.27053 522.22245 640.38343 512.62359 642.46863 502.06376 C 644.55398 491.50393 647.18345 479.46699 648.31238 475.31571 C 651.10029 465.06571 653.95581 432.57179 654.09363 409.53055 C 654.15591 399.11755 654.2578 390.59712 654.3202 390.59696 C 654.3826 390.5968 661.52307 393.2569 670.18738 396.50907 C 691.07534 404.34921 697.56032 405.78557 711.80652 405.72977 C 724.98788 405.67816 735.43632 403.44503 746.6327 398.28251 C 752.7999 395.43875 754.03838 395.22604 760.45496 395.92313 C 764.33161 396.34429 769.37295 397.69781 771.65613 398.93094 C 785.11421 406.20006 796.97596 409.2505 811.5409 409.1868 C 833.90553 409.08905 849.97114 404.62023 874.31043 391.72587 C 878.03433 389.75303 882.99187 387.78942 885.32606 387.36259 C 886.63633 387.12295 887.6181 386.94023 888.40809 387.08329 z M 854.91199 387.77469 C 858.75896 387.83414 859.90883 388.08657 859.16395 388.54423 C 855.58694 390.74182 840.13955 396.00149 832.97254 397.46219 C 813.76449 401.37737 795.01937 400.04078 781.14051 393.76493 C 778.79384 392.70379 776.03436 391.57156 775.0077 391.2493 C 769.8217 389.62161 774.80352 388.8754 790.47449 388.9329 C 800.00766 388.96785 819.80817 388.62167 834.47449 388.16337 C 844.52084 387.84943 851.06519 387.71525 854.91199 387.77469 z M 688.33973 388.63407 C 698.89956 388.68258 715.94042 389.02798 726.20692 389.40165 L 744.87293 390.08134 L 737.55457 392.47391 C 733.5293 393.78988 726.08909 395.34241 721.02137 395.92313 C 715.95346 396.50386 710.36714 396.91795 708.60731 396.84305 C 696.33359 396.32111 679.7575 393.17105 672.3866 389.96024 C 669.54438 388.72209 671.5244 388.55687 688.33973 388.63407 z M 915.51356 484.66923 C 916.33823 483.84455 941.46049 509.95182 955.11317 525.82157 C 979.90448 554.6391 996.15106 576.67496 1016.2421 608.72977 C 1029.5277 629.92692 1038.628 648.22269 1047.5487 671.66337 C 1058.2476 699.77673 1059.3159 703.48461 1058.7929 710.71415 C 1058.0015 721.65557 1057.3123 721.35285 1046.371 705.26884 C 1041.4045 697.96779 1032.9476 687.58358 1016.828 668.9954 C 1011.4861 662.8354 1001.8243 651.31562 995.35731 643.39579 C 988.87064 635.4519 977.90605 623.77707 970.90223 617.35477 C 963.91947 610.95209 946.15877 593.83256 931.43348 579.3118 L 904.66004 552.90946 L 909.30067 548.54227 C 911.8528 546.14063 913.94129 543.7542 913.94129 543.23954 C 913.94129 542.72487 917.08659 541.71115 920.93152 540.98563 C 927.88259 539.67405 927.92011 539.64707 927.59754 536.33134 C 927.29169 533.18738 926.99643 532.97894 922.42762 532.68094 L 917.57996 532.36454 L 916.3241 508.73954 C 915.63244 495.74641 915.26765 484.91513 915.51356 484.66923 z M 958.20692 515.0618 L 961.80067 517.09696 C 963.77696 518.21533 974.33742 525.86631 985.26746 534.09891 C 996.19748 542.33168 1010.4085 552.65016 1016.8475 557.03055 C 1023.2865 561.41112 1036.2473 570.78565 1045.6483 577.86259 C 1055.0493 584.93935 1071.8611 597.57562 1083.0077 605.94071 C 1094.1544 614.30578 1118.4417 633.23615 1136.9804 648.00712 L 1170.6874 674.86259 L 1160.4471 675.62626 C 1129.0709 677.96432 1110.4028 681.5174 1094.0253 688.27079 C 1089.7726 690.02445 1082.3148 693.57606 1077.4511 696.16337 C 1072.5874 698.75051 1068.6073 700.76059 1068.6073 700.63016 C 1068.6073 700.49973 1066.2684 693.68957 1063.41 685.4954 C 1051.3845 651.01623 1040.7863 628.50517 1026.246 606.54813 C 1020.4361 597.77473 1011.6386 584.1164 1006.6952 576.19657 C 995.5083 558.27367 990.59437 551.76084 974.98426 534.16532 C 968.16789 526.48197 961.60592 519.04186 960.40027 517.63016 L 958.20692 515.0618 z M 745.98035 525.70048 L 750.74012 526.35282 L 750.74012 532.67704 L 750.74012 539.00126 L 725.40809 538.82548 C 711.47493 538.72831 692.3942 538.9806 683.0077 539.38602 C 673.6212 539.79143 666.18115 539.89609 666.47449 539.61844 C 667.33766 538.80158 696.08261 531.6677 705.94129 529.82352 C 720.59228 527.0831 740.84709 524.99687 745.98035 525.70048 z M 776.0741 525.93485 C 789.51559 525.50685 809.90702 527.22357 838.20692 531.16532 L 859.0077 534.0618 L 839.80652 534.75712 C 829.24686 535.13926 809.68606 535.80585 796.33973 536.23759 L 772.0741 537.02274 L 772.0741 531.54227 L 772.0741 526.0618 L 776.0741 525.93485 z M 895.7909 542.20829 C 896.63508 542.35268 896.87293 542.74289 896.87293 543.44266 C 896.87293 544.3635 895.47916 546.11023 893.77527 547.32352 C 891.61796 548.85977 889.02729 549.5286 885.24207 549.5286 C 880.49586 549.5286 879.80652 549.25637 879.80652 547.3704 C 879.80652 544.78514 882.97088 543.40264 891.07215 542.45048 C 893.49706 542.16548 894.94672 542.0639 895.7909 542.20829 z M 864.33973 545.1243 L 860.88465 548.19657 C 858.98413 549.88535 854.86221 552.07468 851.72449 553.06376 C 844.94609 555.20052 840.17187 555.28014 834.74988 553.34501 C 829.63251 551.51854 825.01664 548.49749 825.93738 547.57743 C 826.33079 547.1843 831.29212 546.84728 836.96277 546.82938 C 842.6336 546.81144 851.11336 546.42212 855.80652 545.96219 L 864.33973 545.1243 z M 798.81043 547.4329 C 804.49819 547.49965 809.40809 547.83253 809.40809 548.38407 C 809.40809 548.92759 806.88652 550.6031 803.80652 552.10673 C 796.14338 555.84772 789.99702 556.38243 782.61512 553.95243 C 779.31906 552.86745 775.49237 551.18935 774.11121 550.22196 L 771.59949 548.46219 L 773.29481 548.46219 L 773.28309 548.45048 L 788.06238 547.81766 L 788.06824 547.88993 C 791.40251 547.65599 794.80913 547.38594 798.81043 547.4329 z M 750.18543 548.60087 C 750.71084 548.77938 750.74588 549.24397 750.58192 550.09501 C 750.3756 551.16596 748.01086 553.13887 745.32606 554.47782 C 742.64108 555.81679 738.50374 557.22169 736.1327 557.60087 C 732.52303 558.17808 731.56922 557.93176 730.27723 556.08719 C 729.34813 554.76088 726.98578 553.60437 724.33777 553.18094 C 721.91906 552.79431 719.68407 551.81402 719.37293 551.00321 C 718.91241 549.80312 721.03199 549.52688 730.77332 549.51688 C 737.35474 549.51042 744.59 549.20075 746.84949 548.82743 C 748.64514 548.53077 749.66002 548.42235 750.18543 548.60087 z M 690.04285 550.59696 C 705.07214 550.59696 705.18838 550.61436 703.29871 552.70243 C 702.25026 553.86096 699.38394 555.78188 696.92957 556.97001 C 694.47521 558.15815 691.02132 559.13016 689.25379 559.13016 C 686.3413 559.13016 676.97533 553.9857 675.4784 551.56376 C 675.13168 551.00277 681.24781 550.59696 690.04285 550.59696 z M 641.63465 550.8079 C 644.69323 550.63132 649.97443 550.63132 653.36902 550.8079 L 659.5409 551.13016 L 656.81824 552.97977 C 651.87337 556.34223 645.00683 556.21648 638.74012 552.64774 C 636.14975 551.17263 636.23286 551.11978 641.63465 550.8079 z M 624.87293 551.3704 L 630.23035 556.38016 C 636.6771 562.41034 641.21955 564.46219 648.12488 564.46219 C 652.98428 564.46219 658.32422 562.45325 665.04676 558.09501 C 667.13629 556.74034 667.7211 556.89464 671.26746 559.73173 C 673.4204 561.45383 676.94367 563.93505 679.09559 565.2454 C 686.24753 569.60028 698.32255 567.86685 706.69324 561.28251 C 708.79201 559.6316 711.02284 559.13016 716.27723 559.13016 C 722.53495 559.13016 723.38225 559.40637 726.06629 562.34501 C 727.6821 564.1141 730.65003 566.03501 732.66395 566.61259 C 737.15866 567.90154 744.33973 567.99096 744.33973 566.75712 C 744.33973 565.96678 761.75013 553.79618 762.88074 553.79618 C 763.11594 553.79618 767.80051 556.47404 773.2909 559.74735 C 782.89879 565.47538 783.49409 565.67729 789.14051 565.1204 C 796.49395 564.39512 806.0256 561.14712 812.50965 557.15751 L 817.49207 554.0911 L 821.95106 557.17899 C 828.52645 561.73425 834.29488 563.3988 843.40809 563.3704 C 852.04446 563.34352 860.14918 560.81319 866.82996 556.05594 L 870.15809 553.6868 L 874.16395 556.40751 C 876.36681 557.90451 879.13834 559.13679 880.32215 559.14579 C 885.48778 559.18499 885.23341 560.75742 878.83192 568.36259 C 871.32295 577.28307 860.66443 586.45281 854.74012 589.0911 C 849.88499 591.25322 841.85405 593.41581 835.34363 594.69462 L 825.06043 594.91532 L 824.53895 594.81571 C 824.10576 594.65684 823.55975 594.56317 822.81434 594.48368 L 816.42957 593.25516 C 816.40942 593.23148 816.31162 593.2167 816.29676 593.19266 C 815.28065 591.5487 813.29732 594.26396 811.76356 597.97977 L 802.8202 612.76493 L 802.58582 613.1536 C 801.53763 613.90439 800.77715 614.22693 799.49012 615.51298 C 795.73333 619.2667 788.18964 623.62165 778.00574 627.91532 C 771.22723 630.77325 761.06994 630.93974 751.27332 628.35282 C 748.85172 627.71336 747.9081 627.17193 746.04481 626.50712 L 741.97449 624.22587 L 728.46863 615.2786 L 714.65223 599.35087 C 714.39196 598.40662 713.80186 597.38334 712.68543 596.50516 C 707.85768 592.70769 706.19425 592.78468 701.5077 597.01884 C 695.47296 602.4707 681.38192 608.95589 672.20692 610.50321 C 658.37302 612.83623 642.77385 608.00926 636.16981 599.35087 C 630.3172 591.6777 624.87293 572.1905 624.87293 558.91337 L 624.87293 551.3704 z M 896.13074 564.03837 C 896.92415 563.85805 897.79334 564.88944 899.6366 567.79813 C 905.01768 576.28986 913.71402 594.70359 917.47449 605.57157 C 923.59912 623.27126 931.48275 660.13994 933.59754 680.96219 L 934.21863 687.0618 L 927.93152 694.29618 C 924.47412 698.27468 915.35193 707.73026 907.66004 715.3079 C 899.96815 722.88554 893.67371 729.72493 893.67371 730.50712 C 893.67371 731.28931 892.98683 731.92899 892.14637 731.92899 C 891.3059 731.92899 890.33757 732.76952 889.99598 733.79618 C 889.65439 734.82285 886.56868 738.66288 883.13856 742.32938 C 877.56248 748.28968 876.46162 748.99626 872.75379 749.00126 C 870.4728 749.00453 866.83633 749.49969 864.67176 750.10087 C 862.50719 750.70207 855.30702 751.38401 848.67176 751.61649 C 842.0365 751.84897 829.40714 752.55343 820.60731 753.18094 C 811.80731 753.80862 798.36662 754.7599 790.74012 755.29423 C 783.11362 755.82854 776.15332 756.50917 775.27332 756.8079 C 774.96489 756.9126 774.21447 757.07779 773.69129 757.22196 L 767.85535 757.4368 L 768.27332 710.34501 C 768.7267 659.3747 769.54734 639.45606 771.28113 637.26298 C 771.86089 636.52965 774.0768 635.92613 776.20496 635.92313 C 781.14061 635.91554 788.0741 634.00936 788.0741 632.65946 C 788.0741 632.0892 789.16537 631.89674 790.49988 632.23173 C 792.12753 632.64024 794.14854 631.94737 796.63465 630.12821 C 798.67331 628.63648 801.68881 626.77159 803.33582 625.98368 C 804.98282 625.19576 809.19481 620.5337 812.69715 615.6243 L 819.06629 606.69852 L 824.1034 606.54032 C 831.69455 606.30353 841.39742 604.80836 842.03504 603.77665 C 842.3458 603.27383 843.69678 602.86259 845.03699 602.86259 C 849.68793 602.86259 859.77242 598.61772 866.46082 593.84501 C 870.15929 591.20584 877.86386 583.87455 883.58192 577.55399 C 889.29981 571.23358 894.58682 565.40285 895.32996 564.59696 C 895.61079 564.29243 895.86628 564.09847 896.13074 564.03837 z M 919.49793 582.02665 C 919.66805 581.86176 933.78707 595.48186 950.87293 612.29423 C 977.12754 638.12835 985.78156 647.48861 1006.7499 672.72977 C 1020.3956 689.15626 1032.5392 703.6754 1033.7362 704.9954 C 1034.9367 706.3154 1035.468 707.37843 1034.9257 707.35673 C 1034.3834 707.3351 1025.7799 704.18108 1015.8065 700.34696 C 994.128 692.01276 984.01807 689.21112 961.44715 685.28837 L 944.41981 682.32938 L 943.66004 678.59696 C 943.24211 676.54363 941.84104 667.90229 940.54676 659.39579 C 936.81609 634.87636 930.48616 610.75444 922.52723 590.72782 C 920.69076 586.10682 919.32781 582.19154 919.49793 582.02665 z M 1158.5253 684.9954 C 1166.7595 684.9954 1173.297 685.19255 1173.0526 685.4329 C 1172.8081 685.67324 1150.0478 693.28415 1122.4745 702.34501 C 1094.9012 711.40589 1071.2613 719.16124 1069.9413 719.57938 C 1066.8581 720.55599 1066.8489 719.04977 1069.9081 713.60673 C 1077.9881 699.23058 1122.0762 684.9954 1158.5253 684.9954 z M 945.40809 691.7454 L 950.20692 692.67118 C 972.85617 697.03276 979.26552 698.57733 992.33973 702.82938 C 1013.9658 709.86288 1034.0065 717.61796 1041.7538 721.95048 C 1045.4649 724.0257 1048.2943 725.93145 1048.0409 726.18485 C 1047.7875 726.43825 1040.4393 729.03825 1031.7108 731.96219 C 1013.8804 737.93553 1010.7459 738.33588 936.33973 744.16923 C 917.2734 745.66382 899.1541 747.17633 896.0741 747.53055 C 892.58471 747.93186 890.47449 747.76936 890.47449 747.09696 C 890.47449 745.80014 897.58818 739.39579 899.02918 739.39579 C 899.58756 739.39579 900.70057 737.83565 901.50184 735.92899 C 902.30311 734.02232 905.31021 730.35421 908.18348 727.77665 C 911.05657 725.19911 920.60826 716.03662 929.40809 707.41727 L 945.40809 691.7454 z M 470.1991 711.38798 L 480.0702 712.17313 C 485.49884 712.6051 512.69116 713.09059 540.49598 713.25321 C 587.83891 713.53008 591.11961 713.67132 592.12293 715.46415 C 592.71219 716.51709 593.54685 724.37304 593.9784 732.92118 C 594.40995 741.46933 595.29721 749.81457 595.95106 751.4661 C 596.60492 753.11762 597.14051 756.34849 597.14051 758.64579 C 597.14051 762.92742 595.8797 763.34689 586.72254 764.09891 L 522.18934 766.47391 C 519.99898 766.04556 514.64959 765.9968 503.27332 766.24149 C 492.12682 766.48124 483.0077 766.34938 483.0077 765.94852 C 483.0077 764.81857 474.08973 764.14993 472.74598 765.17899 C 471.89853 765.82796 471.34771 763.53361 470.84754 757.2786 C 470.45985 752.43041 469.64177 744.97256 469.03113 740.70829 C 468.19424 734.86372 468.2469 731.97567 469.24207 728.97587 C 469.96819 726.78697 470.48044 721.93321 470.38074 718.19071 L 470.1991 711.38798 z M 986.45301 751.41141 C 988.92105 751.47818 989.7027 751.85882 990.23817 752.5911 C 991.96911 754.95854 990.91806 760.18929 988.1991 762.74344 C 985.18306 765.57702 973.6409 767.97687 956.66199 769.29813 C 940.68989 770.54107 906.22073 773.83964 878.20692 776.80594 C 867.06043 777.98628 849.05991 779.3997 838.20692 779.94657 C 827.35375 780.49343 812.88466 781.42967 806.05457 782.0286 C 755.16336 786.49118 705.34985 788.62181 590.20692 791.25712 C 526.39792 792.71754 509.43508 792.79019 489.92762 791.69462 C 466.48295 790.37793 447.65947 790.93871 416.33973 793.88212 C 400.64999 795.35663 318.28155 795.96255 302.74012 794.71805 C 295.12425 794.1082 271.33966 793.88371 247.27332 794.19462 C 199.83648 794.80747 166.85456 793.48403 163.82996 790.84696 C 162.1468 789.37947 157.18023 777.9342 157.91004 777.20438 C 158.08132 777.03312 165.8986 777.31792 175.28113 777.83719 C 184.66365 778.35662 212.61526 778.79927 237.39442 778.82157 C 267.85376 778.84902 289.76113 779.40833 305.02332 780.54813 C 321.39681 781.7709 328.79815 781.93184 331.96863 781.13407 C 334.99977 780.37141 337.81224 780.38256 341.14051 781.16727 C 347.11191 782.5752 414.93596 781.60338 433.45692 779.84501 C 442.4917 778.98724 449.24631 778.94628 456.36317 779.70634 C 464.81385 780.6087 466.96603 780.52115 469.59168 779.16337 C 472.18851 777.8205 481.53839 777.37937 523.99988 776.60087 C 552.20005 776.08383 579.5931 775.18246 584.87293 774.59696 C 590.15293 774.01145 615.5951 773.08463 641.40809 772.53837 C 708.71186 771.11404 751.24949 769.51033 785.40809 767.10673 C 801.83441 765.9508 822.71335 764.51984 831.80652 763.92704 C 840.89985 763.33424 861.30068 761.66346 877.14051 760.21415 C 916.87477 756.57853 952.98787 753.51197 972.55067 752.11259 C 979.83076 751.59175 983.98497 751.34464 986.45301 751.41141 z M 981.93543 775.03641 C 982.19758 775.29855 980.95453 777.63291 979.17176 780.22391 C 977.38899 782.81507 975.59538 786.32911 975.18738 788.03251 C 974.45899 791.07336 970.03827 797.66722 960.26356 810.29032 C 953.84205 818.58286 949.869 826.61643 940.59168 850.07157 C 933.51991 867.95059 932.65657 869.5667 928.80652 872.11454 C 926.52187 873.62658 924.16358 874.86259 923.56434 874.86259 C 921.98612 874.86259 922.2477 868.75186 924.08582 862.69266 C 924.95947 859.81293 925.67371 857.11337 925.67371 856.69266 C 925.67371 856.27196 922.6742 856.57006 919.0077 857.35673 C 915.34104 858.1434 911.96006 858.80488 911.49402 858.82548 C 911.02814 858.84609 912.70707 855.00331 915.22645 850.28641 C 919.59493 842.10738 919.716 841.64128 917.83387 840.22391 C 916.60311 839.29709 916.17805 838.20907 916.70496 837.33329 C 917.35999 836.24459 917.20403 836.19855 916.0116 837.1243 C 915.16565 837.78117 912.56991 838.9321 910.24207 839.6829 C 907.91424 840.43372 903.47371 843.44552 900.37488 846.37626 L 894.74012 851.70634 L 894.74012 846.86844 C 894.74012 835.15955 890.44959 820.46219 887.03113 820.46219 C 886.49297 820.46219 882.91614 827.06367 879.08192 835.13016 C 866.56247 861.46826 856.50586 874.03716 842.82996 880.4368 C 834.41551 884.37447 827.86185 884.62231 816.0741 881.45243 L 808.33973 879.3743 L 808.33973 881.91727 C 808.33973 885.01775 808.11371 885.02585 794.24598 882.33329 C 779.66732 879.50274 778.62936 879.57507 769.87488 884.03641 L 762.33973 887.87626 L 745.60731 887.86454 C 736.40431 887.85803 723.9087 887.30045 717.84168 886.62626 C 706.56119 885.37272 678.93501 878.75 668.86317 874.88407 C 658.22797 870.8019 648.33973 873.19108 648.33973 879.84305 C 648.33973 884.17558 645.01172 888.59763 639.82996 891.15165 C 635.56513 893.25381 632.84538 893.59216 616.33973 894.06376 C 584.32779 894.9784 563.96129 892.53999 543.80652 885.38212 C 530.33544 880.59778 529.58953 880.4192 527.06043 881.35477 C 525.78005 881.82841 523.91331 883.46541 522.91199 884.99344 C 520.07139 889.32899 515.42251 891.10645 505.44324 891.67509 C 490.82854 892.50772 477.86674 888.94961 464.35535 880.39384 C 454.03895 873.86106 419.61758 856.72977 416.80848 856.72977 C 414.55747 856.72977 412.18212 858.27993 407.64832 862.70634 C 404.28172 865.99302 397.65961 871.59055 392.93348 875.14579 C 388.20718 878.70103 383.82741 881.99768 383.20106 882.47196 C 382.52829 882.98141 379.0364 881.14366 374.66785 877.98173 C 359.92065 867.3071 346.3541 862.09798 333.24207 862.07548 L 325.87684 862.06376 L 327.88074 864.2786 C 329.85196 866.45677 329.84133 866.52742 327.24598 868.4993 C 323.0712 871.67145 297.25894 884.10742 290.98035 885.97196 C 283.82048 888.09748 279.18174 888.09876 268.82801 885.97782 C 258.36265 883.834 252.19802 881.12433 249.93543 877.67118 C 248.95325 876.17219 247.26602 871.51282 246.18738 867.31962 C 244.45653 860.58998 240.91691 854.59696 238.67371 854.59696 C 238.2546 854.59696 237.61528 856.1722 237.25379 858.09891 C 236.89231 860.02579 235.82129 862.71172 234.87293 864.06571 C 233.24644 866.38786 232.58535 866.50591 223.2284 866.16141 C 211.50124 865.72964 210.81699 865.27172 201.91395 851.92899 C 198.78227 847.23582 192.82002 839.07601 188.6659 833.79618 C 184.51179 828.51618 179.12704 820.35653 176.70106 815.66337 C 174.2749 810.97004 171.34942 805.78119 170.1991 804.13407 C 169.04878 802.48697 168.38468 800.86256 168.72254 800.52469 C 169.06041 800.187 184.11263 800.50943 202.17176 801.23954 C 225.69924 802.19073 240.75182 802.26678 255.27332 801.51102 C 267.14824 800.893 281.79938 800.82206 290.65613 801.33915 C 298.96977 801.82454 328.25001 802.36113 355.72254 802.53055 C 397.07898 802.78559 408.42679 802.52771 421.67371 801.03641 C 446.99967 798.1855 466.65212 797.7589 511.80652 799.07938 C 542.47656 799.97623 563.08245 800.00271 587.5409 799.17899 C 606.02056 798.55661 642.26127 797.57321 668.0741 796.99344 C 693.88709 796.41382 725.08826 795.21653 737.40809 794.33329 C 749.72775 793.45004 780.92713 791.30529 806.74012 789.56571 C 832.55294 787.82612 862.07323 785.46365 872.33973 784.31571 C 882.60622 783.16776 894.6077 781.91826 899.0077 781.54032 C 903.40753 781.16238 916.0351 779.92646 927.06824 778.79227 C 938.10138 777.65808 951.54225 776.71989 956.93543 776.70829 C 962.32879 776.69668 970.05193 776.20938 974.09949 775.6243 C 978.14724 775.03913 981.67329 774.77426 981.93543 775.03641 z "
       transform="translate(-5.281134,-49.354773)" />
  </g>
</svg>
