<svg width="100" height="450" viewBox="0 0 100 450" fill="none" xmlns="http://www.w3.org/2000/svg">
<path d="M0 0L0 450H100L100 0H0Z" fill="#1A1A1A"/>
<path d="M8.26 0L8.26 450H10.6628L10.6628 0H8.26Z" fill="#FFA800"/>
<path d="M87.9729 0L87.9729 450H90.3757L90.3757 0H87.9729Z" fill="#FFA800"/>
<path d="M48.7973 439.939V450H51.2001V439.939H48.7973Z" fill="white"/>
<path d="M51.2028 30.5304V51.0014H48.8V30.5304H51.2028ZM51.2028 71.4725V91.9435H48.8V71.4725H51.2028ZM51.2028 112.413L51.2028 132.883H48.8L48.8 112.413H51.2028ZM51.2028 153.354V173.825H48.8V153.354H51.2028ZM51.2028 194.294V214.764H48.8V194.294H51.2028ZM51.2028 235.235L51.2028 255.706H48.8L48.8 235.235H51.2028ZM51.2028 276.175V296.645H48.8V276.175H51.2028ZM51.2028 317.116V337.587H48.8V317.116H51.2028ZM51.2028 358.056V378.526H48.8L48.8 358.056H51.2028ZM51.2028 398.997V419.468H48.8V398.997H51.2028Z" fill="white"/>
<path d="M48.7973 -8.4877e-05V10.0608H51.2001V-8.4877e-05H48.7973Z" fill="white"/>
</svg>
