<svg width="947" height="402" viewBox="0 0 947 402" fill="none" xmlns="http://www.w3.org/2000/svg">
<path d="M930.191 164.973H862.051H817.482C811.808 164.973 807.209 158.726 807.209 151.02C807.209 143.314 811.808 137.067 817.482 137.067H862.051H885.931C895.214 137.067 902.739 126.846 902.739 114.239C902.739 101.631 895.214 91.4111 885.931 91.4111H828.289H651.385H202.651C193.868 91.4111 186.747 101.082 186.747 113.011V258.312C186.747 270.241 193.868 279.912 202.651 279.912H652.998C654.528 280.535 656.149 279.804 657.829 279.804H892.376C901.658 279.804 909.183 270.653 909.183 258.046C909.183 245.438 901.658 235.218 892.376 235.218H841.561C839.344 232.659 837.935 228.846 837.935 224.584C837.935 216.878 842.534 210.632 848.207 210.631H930.192C939.474 210.631 947 200.41 947 187.803C946.999 175.194 939.474 164.973 930.191 164.973Z" fill="#D8636C"/>
<path d="M413.433 130.522C421.701 122.254 426.351 119.498 433.93 118.121C435.308 117.433 438.752 117.433 441.508 117.433C452.36 118.121 459.938 122.772 462.005 131.729C464.071 137.241 463.9 142.752 462.522 146.886C461.489 154.637 447.537 153.087 444.781 147.575C442.715 146.197 442.715 146.197 443.403 139.308C444.093 133.796 444.093 132.418 442.715 132.418C441.337 132.418 435.997 137.241 431.175 142.064C419.635 155.671 416.19 164.627 420.323 169.45C421.012 170.828 425.663 173.411 431.863 176.856C448.226 185.124 453.738 189.774 458.56 198.731C465.967 226.117 448.226 233.524 438.064 236.968C430.485 239.035 423.768 238.346 417.567 235.59C408.438 231.801 403.099 219.916 403.099 216.471C403.099 210.959 405.855 209.064 412.745 209.754C419.635 210.443 423.596 213.715 423.596 218.538C424.286 223.361 433.242 219.916 437.375 213.026C440.131 208.203 440.131 204.242 437.375 199.419C434.619 195.975 431.863 194.08 418.257 187.19C402.583 179.611 397.76 174.1 396.382 163.937C395.003 154.98 402.582 140.684 413.433 130.522Z" fill="white"/>
<path d="M500.587 118.981C510.061 117.603 518.845 116.397 520.223 116.225C525.735 115.708 535.552 116.225 537.619 117.603C542.959 121.048 545.025 125.526 541.58 128.971C539.514 131.038 540.203 131.038 528.835 131.038C524.185 131.038 518.156 131.038 516.089 131.727C512.127 132.416 512.127 132.416 512.127 140.511C513.505 166.003 516.089 200.279 518.845 214.403C520.912 226.46 521.601 232.488 520.912 234.555C520.223 236.621 515.4 238.516 511.438 238.516C507.476 238.516 502.654 236.621 500.586 233.177C498.52 231.11 498.003 225.254 495.936 208.374C493.18 182.882 491.974 157.218 491.974 139.133C491.285 134.483 491.285 134.31 485.257 134.999C473.889 136.377 468.55 135.86 465.105 132.416C463.039 130.349 462.349 126.387 465.105 125.009C467.861 122.943 481.124 121.048 500.587 118.981Z" fill="white"/>
<path d="M547.264 165.659C554.67 130.866 557.599 121.048 560.7 117.948C561.905 117.259 563.111 117.087 565.522 116.742C574.996 115.709 576.029 123.46 575.34 129.488C574.651 133.794 575.34 134.483 576.545 138.789C577.234 141.201 582.746 155.841 587.052 168.759C593.77 188.394 594.975 192.011 596.181 192.011C599.282 193.217 603.587 191.322 604.62 196.317C607.031 202.345 599.281 202.862 599.281 202.862C599.281 203.55 605.309 224.219 605.309 224.909C605.136 235.071 586.879 233.693 586.363 226.804C585.673 225.598 579.129 206.652 579.129 206.652C577.923 205.963 563.799 211.475 562.594 211.475C560.182 212.681 560.699 211.475 558.287 225.599C557.598 230.422 557.082 235.245 556.392 235.934C549.158 244.029 535.206 235.073 537.446 228.011C538.135 216.987 541.752 190.806 547.264 165.659ZM574.823 192.012C574.823 192.012 572.928 186.5 571.034 180.989C569.139 174.961 567.417 170.482 567.417 170.482C566.728 170.482 562.422 195.629 563.111 195.629C563.111 196.318 574.823 192.701 574.823 192.012Z" fill="white"/>
<path d="M612.37 150.674C611.681 122.771 611.681 122.771 613.748 120.704C618.227 117.432 624.427 120.015 625.805 120.704C627.183 122.082 628.216 122.599 632.35 121.393C641.135 118.981 652.33 120.704 656.636 122.771C664.387 127.077 669.037 132.933 668.176 142.923C666.282 165.831 649.403 174.615 648.024 175.993C644.408 178.921 644.58 178.749 645.958 181.677C646.648 183.055 650.437 188.739 653.02 194.423C658.015 205.274 664.733 214.575 666.799 216.642C671.106 221.637 671.622 224.048 670.933 226.115C663.01 233.521 655.949 228.871 650.264 223.187C645.269 218.192 643.892 215.953 640.275 209.58C638.208 204.585 635.968 200.279 635.28 199.59C634.591 198.901 634.591 203.035 634.591 216.642C635.28 229.56 634.591 235.244 634.591 236.621C632.525 240.927 625.807 241.789 619.434 239.722C613.751 236.794 613.751 237.483 613.061 206.652C613.059 190.806 612.37 165.831 612.37 150.674ZM639.584 157.908C647.335 150.157 650.779 141.373 648.713 135C645.612 131.039 638.896 132.933 634.589 134.311C630.972 135.689 630.972 135.689 631.661 138.617C631.661 140.684 633.211 163.592 633.9 163.592C633.9 163.592 636.657 160.836 639.584 157.908Z" fill="white"/>
<path d="M713.3 118.981C722.774 117.603 731.558 116.397 732.936 116.225C738.448 115.708 748.265 116.225 750.332 117.603C755.672 121.048 757.738 125.526 754.293 128.971C752.227 131.038 752.916 131.038 741.548 131.038C736.898 131.038 730.869 131.038 728.802 131.727C724.84 132.416 724.84 132.416 724.84 140.511C726.218 166.003 728.802 200.279 731.558 214.403C733.625 226.46 734.314 232.488 733.625 234.555C732.936 236.621 728.113 238.516 724.151 238.516C720.189 238.516 715.367 236.621 713.299 233.177C711.233 231.11 710.716 225.254 708.649 208.374C705.893 182.882 704.687 157.218 704.687 139.133C703.999 134.483 703.999 134.31 697.97 134.999C686.602 136.377 681.263 135.86 677.818 132.416C675.752 130.349 675.062 126.387 677.818 125.009C680.574 122.943 693.837 121.048 713.3 118.981Z" fill="white"/>
<path d="M131.605 350.663L229.156 342.428L264.973 204.747L131.605 350.663Z" fill="#65A7DD"/>
<path d="M131.605 354.248C130.249 354.248 128.997 353.479 128.389 352.246C127.738 350.922 127.964 349.334 128.959 348.245L262.327 202.329C263.44 201.113 265.238 200.813 266.684 201.597C268.131 202.384 268.857 204.055 268.443 205.65L232.625 343.331C232.241 344.803 230.972 345.873 229.457 346.001L131.907 354.236C131.806 354.244 131.705 354.248 131.605 354.248ZM257.864 217.839L140.431 346.321L226.326 339.07L257.864 217.839Z" fill="#272425"/>
<path d="M38.273 265.547L37.51 167.652L171.317 119.335L38.273 265.547Z" fill="#65A7DD"/>
<path d="M38.272 269.131C37.842 269.131 37.41 269.054 36.993 268.894C35.615 268.367 34.7 267.049 34.688 265.574L33.925 167.679C33.913 166.159 34.863 164.796 36.292 164.28L170.1 115.964C171.65 115.404 173.382 115.973 174.297 117.342C175.213 118.712 175.077 120.529 173.969 121.748L40.924 267.959C40.232 268.72 39.262 269.131 38.272 269.131ZM41.114 170.162L41.786 256.359L158.933 127.618L41.114 170.162Z" fill="#272425"/>
<path d="M99.7791 270.224L1.28015 370.09L90.7242 262.039L99.7791 270.224Z" fill="#D8636C"/>
<path d="M1.2801 371.371C0.9731 371.371 0.666102 371.262 0.422102 371.04C-0.0868982 370.581 -0.1429 369.802 0.2941 369.274L89.7371 261.222C89.9601 260.953 90.2831 260.786 90.6311 260.761C90.9931 260.736 91.3231 260.855 91.5821 261.088L100.638 269.273C100.897 269.507 101.049 269.837 101.059 270.186C101.07 270.535 100.936 270.873 100.691 271.122L2.1921 370.989C1.9421 371.243 1.6121 371.371 1.2801 371.371ZM90.8581 263.885L21.0111 348.263L97.9291 270.277L90.8581 263.885Z" fill="#272425"/>
<path d="M132.752 300.748L34.2531 400.614L123.697 292.563L132.752 300.748Z" fill="#D8636C"/>
<path d="M34.2531 401.894C33.9461 401.894 33.6391 401.785 33.3951 401.564C32.8861 401.104 32.8311 400.326 33.2671 399.798L122.711 291.746C122.934 291.477 123.257 291.31 123.605 291.286C123.961 291.262 124.297 291.379 124.556 291.613L133.611 299.798C133.87 300.032 134.022 300.362 134.032 300.711C134.043 301.06 133.909 301.398 133.664 301.647L35.1651 401.514C34.9141 401.767 34.5841 401.894 34.2531 401.894ZM123.831 294.409L53.9851 378.785L130.901 300.801L123.831 294.409Z" fill="#272425"/>
<path d="M115.301 284.591L42.7761 355.723L106.246 276.406L115.301 284.591Z" fill="#D8636C"/>
<path d="M42.7771 357.003C42.4701 357.003 42.1631 356.893 41.9191 356.672C41.4161 356.218 41.3551 355.451 41.7771 354.922L105.247 275.605C105.468 275.329 105.792 275.157 106.145 275.129C106.5 275.099 106.845 275.219 107.106 275.455L116.161 283.64C116.423 283.877 116.575 284.211 116.583 284.564C116.59 284.917 116.451 285.257 116.199 285.504L43.6751 356.636C43.4251 356.881 43.1011 357.003 42.7771 357.003ZM106.397 278.268L57.0671 339.915L113.434 284.63L106.397 278.268Z" fill="#272425"/>
<path d="M147.957 283.466L107.114 245.495L91.1615 262.654L132.004 300.625L147.957 283.466Z" fill="white"/>
<path d="M131.995 304.198C131.121 304.198 130.246 303.88 129.556 303.238L88.7141 265.267C88.0181 264.62 87.6071 263.722 87.5721 262.772C87.5371 261.822 87.8811 260.897 88.5291 260.201L104.482 243.042C105.83 241.592 108.097 241.51 109.548 242.857L150.39 280.828C151.086 281.475 151.497 282.373 151.532 283.323C151.567 284.273 151.222 285.198 150.575 285.894L134.622 303.053C133.915 303.813 132.956 304.198 131.995 304.198ZM96.2211 262.457L131.812 295.546L142.883 283.638L107.292 250.549L96.2211 262.457Z" fill="#272425"/>
<path d="M297.554 123.33C316.954 115.294 326.167 93.0515 318.131 73.6505C310.095 54.2496 287.852 45.0367 268.451 53.073C249.051 61.1093 239.838 83.3516 247.874 102.753C255.91 122.153 278.153 131.366 297.554 123.33Z" fill="#D8636C"/>
<path d="M353.844 13.2073C328.081 -10.2877 264.061 17.9653 240.567 43.7273L80.813 218.901L174.107 303.983L333.861 128.809C357.356 103.047 379.606 36.7023 353.844 13.2073ZM319.266 104.527C312.022 124.401 290.039 134.64 270.164 127.396C250.29 120.152 240.051 98.1693 247.295 78.2943C254.539 58.4203 276.522 48.1813 296.397 55.4253C316.271 62.6703 326.51 84.6533 319.266 104.527Z" fill="white"/>
<path d="M174.107 307.568C173.215 307.568 172.353 307.236 171.691 306.632L78.397 221.549C76.935 220.215 76.831 217.948 78.165 216.485L237.919 41.3113C250.402 27.6233 272.897 13.9953 295.228 6.59328C322.035 -2.29472 343.71 -0.886723 356.261 10.5583C368.809 22.0023 372.203 43.4563 365.817 70.9683C360.498 93.8843 348.995 117.536 336.51 131.224L176.755 306.398C176.114 307.101 175.221 307.52 174.272 307.564C174.216 307.566 174.161 307.568 174.107 307.568ZM85.877 218.668L173.873 298.918L331.212 126.394C342.748 113.745 353.848 90.8193 358.832 69.3483C364.522 44.8343 361.823 25.3373 351.429 15.8573C341.032 6.37627 321.37 5.47928 297.483 13.3993C276.56 20.3353 254.752 33.4943 243.215 46.1433L85.877 218.668ZM283.306 133.319C278.468 133.319 273.617 132.47 268.937 130.764C247.238 122.854 236.019 98.7663 243.927 77.0673C247.759 66.5553 255.454 58.1653 265.596 53.4413C275.739 48.7173 287.114 48.2263 297.624 52.0573C308.136 55.8893 316.526 63.5843 321.25 73.7263C325.974 83.8683 326.465 95.2433 322.634 105.754C318.803 116.266 311.108 124.656 300.965 129.379C295.339 132.001 289.333 133.319 283.306 133.319ZM283.26 56.6763C278.264 56.6763 273.287 57.7683 268.623 59.9403C260.217 63.8563 253.839 70.8103 250.663 79.5223C244.108 97.5073 253.407 117.473 271.392 124.028C280.105 127.204 289.533 126.797 297.939 122.881C306.345 118.966 312.723 112.012 315.898 103.3C319.074 94.5883 318.666 85.1603 314.752 76.7543C310.837 68.3483 303.882 61.9703 295.17 58.7953C291.29 57.3803 287.269 56.6763 283.26 56.6763Z" fill="#272425"/>
</svg>
