<?xml version="1.0" encoding="utf-8"?>
<!-- Generator: Adobe Illustrator 27.5.0, SVG Export Plug-In . SVG Version: 6.00 Build 0)  -->
<svg version="1.1" xmlns="http://www.w3.org/2000/svg" xmlns:xlink="http://www.w3.org/1999/xlink" x="0px" y="0px"
	 viewBox="0 0 800 800" style="enable-background:new 0 0 800 800;" xml:space="preserve">
<g id="Layer_2">
	<rect style="fill:#FFFFFF;" width="800" height="800"/>
</g>
<g id="Layer_1">
	<g>
		<rect x="297.139" y="446.222" style="fill:#231F20;" width="5.556" height="5.556"/>
		<rect x="302.694" y="440.667" style="fill:#231F20;" width="5.556" height="5.556"/>
		<rect x="308.25" y="435.111" style="fill:#231F20;" width="5.556" height="5.556"/>
		<rect x="313.806" y="440.667" style="fill:#231F20;" width="5.556" height="5.556"/>
		<rect x="291.583" y="451.778" style="fill:#231F20;" width="5.556" height="5.556"/>
		<rect x="297.139" y="457.333" style="fill:#231F20;" width="5.556" height="5.556"/>
		<rect x="302.694" y="462.889" style="fill:#231F20;" width="5.556" height="5.556"/>
		<rect x="308.25" y="468.444" style="fill:#231F20;" width="5.556" height="5.556"/>
		<rect x="313.806" y="462.889" style="fill:#231F20;" width="5.556" height="5.556"/>
		<rect x="319.361" y="457.333" style="fill:#231F20;" width="5.556" height="5.556"/>
		<rect x="324.917" y="451.778" style="fill:#231F20;" width="5.556" height="5.556"/>
		<rect x="319.361" y="446.222" style="fill:#231F20;" width="5.556" height="5.556"/>
		<polygon style="fill:#231F20;" points="308.25,462.889 313.806,462.889 313.806,457.333 319.361,457.333 319.361,451.778 
			313.806,451.778 313.806,446.222 308.25,446.222 308.25,451.778 302.694,451.778 302.694,457.333 308.25,457.333 		"/>
		<rect x="297.139" y="490.667" style="fill:#231F20;" width="5.556" height="5.556"/>
		<rect x="302.694" y="485.111" style="fill:#231F20;" width="5.556" height="5.556"/>
		<rect x="308.25" y="479.556" style="fill:#231F20;" width="5.556" height="5.556"/>
		<rect x="313.806" y="485.111" style="fill:#231F20;" width="5.556" height="5.556"/>
		<rect x="291.583" y="496.222" style="fill:#231F20;" width="5.556" height="5.556"/>
		<rect x="297.139" y="501.778" style="fill:#231F20;" width="5.556" height="5.556"/>
		<rect x="302.694" y="507.333" style="fill:#231F20;" width="5.556" height="5.556"/>
		<rect x="308.25" y="512.889" style="fill:#231F20;" width="5.556" height="5.556"/>
		<rect x="313.806" y="507.333" style="fill:#231F20;" width="5.556" height="5.556"/>
		<rect x="319.361" y="501.778" style="fill:#231F20;" width="5.556" height="5.556"/>
		<rect x="324.917" y="496.222" style="fill:#231F20;" width="5.556" height="5.556"/>
		<rect x="319.361" y="490.667" style="fill:#231F20;" width="5.556" height="5.556"/>
		<polygon style="fill:#231F20;" points="319.361,501.778 319.361,496.222 313.806,496.222 313.806,490.667 308.25,490.667 
			308.25,496.222 302.694,496.222 302.694,501.778 308.25,501.778 308.25,507.333 313.806,507.333 313.806,501.778 		"/>
		<rect x="297.139" y="535.111" style="fill:#231F20;" width="5.556" height="5.556"/>
		<rect x="302.694" y="529.556" style="fill:#231F20;" width="5.556" height="5.556"/>
		<rect x="308.25" y="524" style="fill:#231F20;" width="5.556" height="5.556"/>
		<rect x="313.806" y="529.556" style="fill:#231F20;" width="5.556" height="5.556"/>
		<rect x="291.583" y="540.667" style="fill:#231F20;" width="5.556" height="5.556"/>
		<rect x="297.139" y="546.222" style="fill:#231F20;" width="5.556" height="5.556"/>
		<rect x="302.694" y="551.778" style="fill:#231F20;" width="5.556" height="5.556"/>
		<rect x="308.25" y="557.333" style="fill:#231F20;" width="5.556" height="5.556"/>
		<rect x="313.806" y="551.778" style="fill:#231F20;" width="5.556" height="5.556"/>
		<rect x="319.361" y="546.222" style="fill:#231F20;" width="5.556" height="5.556"/>
		<rect x="324.917" y="540.667" style="fill:#231F20;" width="5.556" height="5.556"/>
		<rect x="319.361" y="535.111" style="fill:#231F20;" width="5.556" height="5.556"/>
		<polygon style="fill:#231F20;" points="313.806,535.111 308.25,535.111 308.25,540.667 302.694,540.667 302.694,546.222 
			308.25,546.222 308.25,551.778 313.806,551.778 313.806,546.222 319.361,546.222 319.361,540.667 313.806,540.667 		"/>
		<polygon style="fill:#231F20;" points="274.917,485.111 280.472,485.111 280.472,490.667 286.028,490.667 286.028,485.111 
			291.583,485.111 291.583,479.556 297.139,479.556 297.139,474 291.583,474 291.583,468.444 286.028,468.444 286.028,462.889 
			280.472,462.889 280.472,468.444 274.917,468.444 274.917,474 269.361,474 269.361,479.556 274.917,479.556 		"/>
		<polygon style="fill:#231F20;" points="330.472,474 324.917,474 324.917,479.556 330.472,479.556 330.472,485.111 
			336.028,485.111 336.028,490.667 341.583,490.667 341.583,485.111 347.139,485.111 347.139,479.556 352.694,479.556 352.694,474 
			347.139,474 347.139,468.444 341.583,468.444 341.583,462.889 336.028,462.889 336.028,468.444 330.472,468.444 		"/>
		<polygon style="fill:#231F20;" points="291.583,524 297.139,524 297.139,518.444 291.583,518.444 291.583,512.889 
			286.028,512.889 286.028,507.333 280.472,507.333 280.472,512.889 274.917,512.889 274.917,518.444 269.361,518.444 269.361,524 
			274.917,524 274.917,529.556 280.472,529.556 280.472,535.111 286.028,535.111 286.028,529.556 291.583,529.556 		"/>
		<polygon style="fill:#231F20;" points="347.139,512.889 341.583,512.889 341.583,507.333 336.028,507.333 336.028,512.889 
			330.472,512.889 330.472,518.444 324.917,518.444 324.917,524 330.472,524 330.472,529.556 336.028,529.556 336.028,535.111 
			341.583,535.111 341.583,529.556 347.139,529.556 347.139,524 352.694,524 352.694,518.444 347.139,518.444 		"/>
		<rect x="258.25" y="485.111" style="fill:#231F20;" width="5.556" height="5.556"/>
		<rect x="263.806" y="490.667" style="fill:#231F20;" width="5.556" height="5.556"/>
		<rect x="269.361" y="496.222" style="fill:#231F20;" width="5.556" height="5.556"/>
		<rect x="263.806" y="501.778" style="fill:#231F20;" width="5.556" height="5.556"/>
		<rect x="258.25" y="507.333" style="fill:#231F20;" width="5.556" height="5.556"/>
		<rect x="247.139" y="496.222" style="fill:#231F20;" width="11.111" height="5.556"/>
		<rect x="358.25" y="485.111" style="fill:#231F20;" width="5.556" height="5.556"/>
		<rect x="352.694" y="490.667" style="fill:#231F20;" width="5.556" height="5.556"/>
		<rect x="347.139" y="496.222" style="fill:#231F20;" width="5.556" height="5.556"/>
		<rect x="352.694" y="501.778" style="fill:#231F20;" width="5.556" height="5.556"/>
		<rect x="358.25" y="507.333" style="fill:#231F20;" width="5.556" height="5.556"/>
		<rect x="363.806" y="496.222" style="fill:#231F20;" width="11.111" height="5.556"/>
	</g>
	<g>
		<rect x="125.917" y="496.222" style="fill:#231F20;" width="5.556" height="5.556"/>
		<rect x="120.361" y="490.667" style="fill:#231F20;" width="5.556" height="5.556"/>
		<rect x="131.472" y="490.667" style="fill:#231F20;" width="5.556" height="5.556"/>
		<rect x="120.361" y="501.778" style="fill:#231F20;" width="5.556" height="5.556"/>
		<rect x="131.472" y="501.778" style="fill:#231F20;" width="5.556" height="5.556"/>
		<g>
			<rect x="70.361" y="479.556" style="fill:#231F20;" width="5.556" height="5.556"/>
			<rect x="70.361" y="512.889" style="fill:#231F20;" width="5.556" height="5.556"/>
			<rect x="81.472" y="501.778" style="fill:#231F20;" width="5.556" height="5.556"/>
			<rect x="75.917" y="485.111" style="fill:#231F20;" width="5.556" height="5.556"/>
			<rect x="75.917" y="507.333" style="fill:#231F20;" width="5.556" height="5.556"/>
			<rect x="87.028" y="496.222" style="fill:#231F20;" width="5.556" height="5.556"/>
			<rect x="81.472" y="490.667" style="fill:#231F20;" width="5.556" height="5.556"/>
		</g>
		<g>
			<rect x="181.472" y="479.556" style="fill:#231F20;" width="5.556" height="5.556"/>
			<rect x="181.472" y="512.889" style="fill:#231F20;" width="5.556" height="5.556"/>
			<rect x="170.361" y="501.778" style="fill:#231F20;" width="5.556" height="5.556"/>
			<rect x="175.917" y="485.111" style="fill:#231F20;" width="5.556" height="5.556"/>
			<rect x="175.917" y="507.333" style="fill:#231F20;" width="5.556" height="5.556"/>
			<rect x="164.806" y="496.222" style="fill:#231F20;" width="5.556" height="5.556"/>
			<rect x="170.361" y="490.667" style="fill:#231F20;" width="5.556" height="5.556"/>
		</g>
		<g>
			<polygon style="fill:#231F20;" points="114.806,462.889 114.806,457.333 109.25,457.333 109.25,451.778 103.694,451.778 
				103.694,446.222 98.139,446.222 98.139,440.667 92.583,440.667 92.583,462.889 98.139,462.889 98.139,468.444 103.694,468.444 
				103.694,474 109.25,474 109.25,479.556 114.806,479.556 114.806,485.111 120.361,485.111 120.361,462.889 			"/>
			<polygon style="fill:#231F20;" points="109.25,479.556 103.694,479.556 103.694,474 98.139,474 98.139,468.444 92.583,468.444 
				92.583,462.889 70.361,462.889 70.361,468.444 75.917,468.444 75.917,474 81.472,474 81.472,479.556 87.028,479.556 
				87.028,485.111 92.583,485.111 92.583,490.667 114.806,490.667 114.806,485.111 109.25,485.111 			"/>
		</g>
		<g>
			<polygon style="fill:#231F20;" points="142.583,462.889 142.583,457.333 148.139,457.333 148.139,451.778 153.694,451.778 
				153.694,446.222 159.25,446.222 159.25,440.667 164.806,440.667 164.806,462.889 159.25,462.889 159.25,468.444 153.694,468.444 
				153.694,474 148.139,474 148.139,479.556 142.583,479.556 142.583,485.111 137.028,485.111 137.028,462.889 			"/>
			<polygon style="fill:#231F20;" points="148.139,479.556 153.694,479.556 153.694,474 159.25,474 159.25,468.444 164.806,468.444 
				164.806,462.889 187.028,462.889 187.028,468.444 181.472,468.444 181.472,474 175.917,474 175.917,479.556 170.361,479.556 
				170.361,485.111 164.806,485.111 164.806,490.667 142.583,490.667 142.583,485.111 148.139,485.111 			"/>
		</g>
		<g>
			<polygon style="fill:#231F20;" points="114.806,535.111 114.806,540.667 109.25,540.667 109.25,546.222 103.694,546.222 
				103.694,551.778 98.139,551.778 98.139,557.333 92.583,557.333 92.583,535.111 98.139,535.111 98.139,529.556 103.694,529.556 
				103.694,524 109.25,524 109.25,518.444 114.806,518.444 114.806,512.889 120.361,512.889 120.361,535.111 			"/>
			<polygon style="fill:#231F20;" points="109.25,518.444 103.694,518.444 103.694,524 98.139,524 98.139,529.556 92.583,529.556 
				92.583,535.111 70.361,535.111 70.361,529.556 75.917,529.556 75.917,524 81.472,524 81.472,518.444 87.028,518.444 
				87.028,512.889 92.583,512.889 92.583,507.333 114.806,507.333 114.806,512.889 109.25,512.889 			"/>
		</g>
		<g>
			<polygon style="fill:#231F20;" points="142.583,535.111 142.583,540.667 148.139,540.667 148.139,546.222 153.694,546.222 
				153.694,551.778 159.25,551.778 159.25,557.333 164.806,557.333 164.806,535.111 159.25,535.111 159.25,529.556 153.694,529.556 
				153.694,524 148.139,524 148.139,518.444 142.583,518.444 142.583,512.889 137.028,512.889 137.028,535.111 			"/>
			<polygon style="fill:#231F20;" points="148.139,518.444 153.694,518.444 153.694,524 159.25,524 159.25,529.556 164.806,529.556 
				164.806,535.111 187.028,535.111 187.028,529.556 181.472,529.556 181.472,524 175.917,524 175.917,518.444 170.361,518.444 
				170.361,512.889 164.806,512.889 164.806,507.333 142.583,507.333 142.583,512.889 148.139,512.889 			"/>
		</g>
		<g>
			<rect x="142.583" y="440.667" style="fill:#231F20;" width="5.556" height="5.556"/>
			<rect x="109.25" y="440.667" style="fill:#231F20;" width="5.556" height="5.556"/>
			<rect x="120.361" y="451.778" style="fill:#231F20;" width="5.556" height="5.556"/>
			<rect x="137.028" y="446.222" style="fill:#231F20;" width="5.556" height="5.556"/>
			<rect x="114.806" y="446.222" style="fill:#231F20;" width="5.556" height="5.556"/>
			<rect x="125.917" y="457.333" style="fill:#231F20;" width="5.556" height="5.556"/>
			<rect x="131.472" y="451.778" style="fill:#231F20;" width="5.556" height="5.556"/>
		</g>
		<g>
			<rect x="142.583" y="551.778" style="fill:#231F20;" width="5.556" height="5.556"/>
			<rect x="109.25" y="551.778" style="fill:#231F20;" width="5.556" height="5.556"/>
			<rect x="120.361" y="540.667" style="fill:#231F20;" width="5.556" height="5.556"/>
			<rect x="137.028" y="546.222" style="fill:#231F20;" width="5.556" height="5.556"/>
			<rect x="114.806" y="546.222" style="fill:#231F20;" width="5.556" height="5.556"/>
			<rect x="125.917" y="535.111" style="fill:#231F20;" width="5.556" height="5.556"/>
			<rect x="131.472" y="540.667" style="fill:#231F20;" width="5.556" height="5.556"/>
		</g>
	</g>
	<g>
		<g>
			<polygon style="fill:#231F20;" points="280.472,635.111 286.028,635.111 286.028,629.556 291.583,629.556 291.583,624 
				286.028,624 286.028,618.444 280.472,618.444 280.472,624 274.917,624 274.917,629.556 280.472,629.556 			"/>
			<rect x="269.361" y="635.111" style="fill:#231F20;" width="5.556" height="5.556"/>
			<rect x="274.917" y="640.667" style="fill:#231F20;" width="5.556" height="5.556"/>
			<rect x="286.028" y="640.667" style="fill:#231F20;" width="5.556" height="5.556"/>
			<rect x="291.583" y="635.111" style="fill:#231F20;" width="5.556" height="5.556"/>
			<rect x="263.806" y="646.222" style="fill:#231F20;" width="5.556" height="5.556"/>
			<rect x="269.361" y="651.778" style="fill:#231F20;" width="5.556" height="5.556"/>
			<rect x="291.583" y="651.778" style="fill:#231F20;" width="5.556" height="5.556"/>
			<rect x="297.139" y="646.222" style="fill:#231F20;" width="5.556" height="5.556"/>
			<rect x="258.25" y="657.333" style="fill:#231F20;" width="5.556" height="5.556"/>
			<rect x="263.806" y="662.889" style="fill:#231F20;" width="5.556" height="5.556"/>
			<rect x="269.361" y="668.444" style="fill:#231F20;" width="5.556" height="5.556"/>
			<rect x="291.583" y="668.444" style="fill:#231F20;" width="5.556" height="5.556"/>
			<rect x="297.139" y="662.889" style="fill:#231F20;" width="5.556" height="5.556"/>
			<rect x="302.694" y="657.333" style="fill:#231F20;" width="5.556" height="5.556"/>
			<rect x="258.25" y="674" style="fill:#231F20;" width="5.556" height="5.556"/>
			<rect x="263.806" y="679.556" style="fill:#231F20;" width="5.556" height="5.556"/>
			<rect x="269.361" y="685.111" style="fill:#231F20;" width="5.556" height="5.556"/>
			<rect x="291.583" y="685.111" style="fill:#231F20;" width="5.556" height="5.556"/>
			<rect x="297.139" y="679.556" style="fill:#231F20;" width="5.556" height="5.556"/>
			<rect x="302.694" y="674" style="fill:#231F20;" width="5.556" height="5.556"/>
			<rect x="258.25" y="690.667" style="fill:#231F20;" width="5.556" height="5.556"/>
			<rect x="263.806" y="696.222" style="fill:#231F20;" width="5.556" height="5.556"/>
			<rect x="269.361" y="701.778" style="fill:#231F20;" width="5.556" height="5.556"/>
			<rect x="291.583" y="701.778" style="fill:#231F20;" width="5.556" height="5.556"/>
			<rect x="297.139" y="696.222" style="fill:#231F20;" width="5.556" height="5.556"/>
			<rect x="302.694" y="690.667" style="fill:#231F20;" width="5.556" height="5.556"/>
			<polygon style="fill:#231F20;" points="286.028,679.556 291.583,679.556 291.583,674 286.028,674 286.028,662.889 
				291.583,662.889 291.583,657.333 286.028,657.333 286.028,646.222 280.472,646.222 280.472,657.333 274.917,657.333 
				274.917,662.889 280.472,662.889 280.472,674 274.917,674 274.917,679.556 280.472,679.556 280.472,690.667 274.917,690.667 
				274.917,696.222 280.472,696.222 280.472,707.333 274.917,707.333 274.917,712.889 280.472,712.889 280.472,724 274.917,724 
				274.917,729.556 291.583,729.556 291.583,724 286.028,724 286.028,712.889 291.583,712.889 291.583,707.333 286.028,707.333 
				286.028,696.222 291.583,696.222 291.583,690.667 286.028,690.667 			"/>
		</g>
		<g>
			<polygon style="fill:#231F20;" points="336.028,635.111 341.583,635.111 341.583,629.556 347.139,629.556 347.139,624 
				341.583,624 341.583,618.444 336.028,618.444 336.028,624 330.472,624 330.472,629.556 336.028,629.556 			"/>
			<rect x="324.917" y="635.111" style="fill:#231F20;" width="5.556" height="5.556"/>
			<rect x="330.472" y="640.667" style="fill:#231F20;" width="5.556" height="5.556"/>
			<rect x="341.583" y="640.667" style="fill:#231F20;" width="5.556" height="5.556"/>
			<rect x="347.139" y="635.111" style="fill:#231F20;" width="5.556" height="5.556"/>
			<rect x="319.361" y="646.222" style="fill:#231F20;" width="5.556" height="5.556"/>
			<rect x="324.917" y="651.778" style="fill:#231F20;" width="5.556" height="5.556"/>
			<rect x="347.139" y="651.778" style="fill:#231F20;" width="5.556" height="5.556"/>
			<rect x="352.694" y="646.222" style="fill:#231F20;" width="5.556" height="5.556"/>
			<rect x="313.806" y="657.333" style="fill:#231F20;" width="5.556" height="5.556"/>
			<rect x="319.361" y="662.889" style="fill:#231F20;" width="5.556" height="5.556"/>
			<rect x="324.917" y="668.444" style="fill:#231F20;" width="5.556" height="5.556"/>
			<rect x="347.139" y="668.444" style="fill:#231F20;" width="5.556" height="5.556"/>
			<rect x="352.694" y="662.889" style="fill:#231F20;" width="5.556" height="5.556"/>
			<rect x="358.25" y="657.333" style="fill:#231F20;" width="5.556" height="5.556"/>
			<rect x="313.806" y="674" style="fill:#231F20;" width="5.556" height="5.556"/>
			<rect x="319.361" y="679.556" style="fill:#231F20;" width="5.556" height="5.556"/>
			<rect x="324.917" y="685.111" style="fill:#231F20;" width="5.556" height="5.556"/>
			<rect x="347.139" y="685.111" style="fill:#231F20;" width="5.556" height="5.556"/>
			<rect x="352.694" y="679.556" style="fill:#231F20;" width="5.556" height="5.556"/>
			<rect x="358.25" y="674" style="fill:#231F20;" width="5.556" height="5.556"/>
			<rect x="313.806" y="690.667" style="fill:#231F20;" width="5.556" height="5.556"/>
			<rect x="319.361" y="696.222" style="fill:#231F20;" width="5.556" height="5.556"/>
			<rect x="324.917" y="701.778" style="fill:#231F20;" width="5.556" height="5.556"/>
			<rect x="347.139" y="701.778" style="fill:#231F20;" width="5.556" height="5.556"/>
			<rect x="352.694" y="696.222" style="fill:#231F20;" width="5.556" height="5.556"/>
			<rect x="358.25" y="690.667" style="fill:#231F20;" width="5.556" height="5.556"/>
			<polygon style="fill:#231F20;" points="341.583,679.556 347.139,679.556 347.139,674 341.583,674 341.583,662.889 
				347.139,662.889 347.139,657.333 341.583,657.333 341.583,646.222 336.028,646.222 336.028,657.333 330.472,657.333 
				330.472,662.889 336.028,662.889 336.028,674 330.472,674 330.472,679.556 336.028,679.556 336.028,690.667 330.472,690.667 
				330.472,696.222 336.028,696.222 336.028,707.333 330.472,707.333 330.472,712.889 336.028,712.889 336.028,724 330.472,724 
				330.472,729.556 347.139,729.556 347.139,724 341.583,724 341.583,712.889 347.139,712.889 347.139,707.333 341.583,707.333 
				341.583,696.222 347.139,696.222 347.139,690.667 341.583,690.667 			"/>
		</g>
	</g>
	<g>
		<g>
			<rect x="657.861" y="485.111" style="fill:#231F20;" width="5.556" height="5.556"/>
			<rect x="652.306" y="490.667" style="fill:#231F20;" width="5.556" height="5.556"/>
			<rect x="663.417" y="490.667" style="fill:#231F20;" width="5.556" height="5.556"/>
			<rect x="646.75" y="496.222" style="fill:#231F20;" width="5.556" height="5.556"/>
			<rect x="668.972" y="496.222" style="fill:#231F20;" width="5.556" height="5.556"/>
			<rect x="652.306" y="501.778" style="fill:#231F20;" width="5.556" height="5.556"/>
			<rect x="663.417" y="501.778" style="fill:#231F20;" width="5.556" height="5.556"/>
			<rect x="657.861" y="507.333" style="fill:#231F20;" width="5.556" height="5.556"/>
		</g>
		<g>
			<path style="fill:#231F20;" d="M652.306,451.778v-5.556h-5.556v-5.556h-5.556v-5.556h-5.556v5.556h-5.556v5.556h-5.556v11.111
				h5.556v5.556h5.556v5.556h5.556V474h5.556v5.556h5.556v5.556h5.555v-33.333H652.306z M652.306,468.444h-5.556v-5.556h-5.556
				v-5.556h-5.556v-11.111h5.556v5.556h5.556v5.556h5.556V468.444z"/>
		</g>
		<g>
			<path style="fill:#231F20;" d="M663.417,451.778v33.333h5.555v-5.556h5.556V474h5.556v-5.556h5.556v-5.556h5.556v-5.556h5.556
				v-11.111h-5.556v-5.556h-5.556v-5.556h-5.556v5.556h-5.556v5.556h-5.556v5.556H663.417z M668.972,457.333h5.556v-5.556h5.556
				v-5.556h5.556v11.111h-5.556v5.556h-5.556v5.556h-5.556V457.333z"/>
		</g>
		<g>
			<path style="fill:#231F20;" d="M668.972,546.222v5.556h5.556v5.556h5.556v5.556h5.556v-5.556h5.556v-5.556h5.556v-11.111h-5.556
				v-5.556h-5.556v-5.555h-5.556V524h-5.556v-5.556h-5.556v-5.555h-5.555v33.333H668.972z M668.972,529.556h5.556v5.555h5.556v5.556
				h5.556v11.111h-5.556v-5.556h-5.556v-5.556h-5.556V529.556z"/>
		</g>
		<g>
			<path style="fill:#231F20;" d="M657.861,546.222v-33.333h-5.555v5.555h-5.556V524h-5.556v5.556h-5.556v5.555h-5.556v5.556h-5.556
				v11.111h5.556v5.556h5.556v5.556h5.556v-5.556h5.556v-5.556h5.556v-5.556H657.861z M652.306,540.667h-5.556v5.556h-5.556v5.556
				h-5.556v-11.111h5.556v-5.556h5.556v-5.555h5.556V540.667z"/>
		</g>
		<g>
			<path style="fill:#231F20;" d="M707.861,490.667h5.556v-5.556h5.555v-5.556h5.556V474h-5.556v-5.556h-5.555v-5.556h-11.111v5.556
				h-5.556V474h-5.556v5.556h-5.556v5.556h-5.556v5.556h-5.556v5.556h33.333V490.667z M691.194,490.667v-5.556h5.556v-5.556h5.556
				V474h11.111v5.556h-5.556v5.556h-5.555v5.556H691.194z"/>
		</g>
		<g>
			<path style="fill:#231F20;" d="M707.861,501.778h-33.333v5.556h5.556v5.556h5.556v5.555h5.556V524h5.556v5.556h5.556v5.555
				h11.111v-5.555h5.555V524h5.556v-5.556h-5.556v-5.555h-5.555v-5.556h-5.556V501.778z M702.306,507.333v5.556h5.555v5.555h5.556
				V524h-11.111v-5.556h-5.556v-5.555h-5.556v-5.556H702.306z"/>
		</g>
		<g>
			<path style="fill:#231F20;" d="M613.417,507.333h-5.556v5.556h-5.555v5.555h-5.556V524h5.556v5.556h5.555v5.555h11.111v-5.555
				h5.556V524h5.556v-5.556h5.556v-5.555h5.556v-5.556h5.556v-5.556h-33.333V507.333z M630.083,507.333v5.556h-5.556v5.555h-5.556
				V524h-11.111v-5.556h5.556v-5.555h5.555v-5.556H630.083z"/>
		</g>
		<g>
			<path style="fill:#231F20;" d="M613.417,496.222h33.333v-5.556h-5.556v-5.556h-5.556v-5.556h-5.556V474h-5.556v-5.556h-5.556
				v-5.556h-11.111v5.556h-5.555V474h-5.556v5.556h5.556v5.556h5.555v5.556h5.556V496.222z M618.972,490.667v-5.556h-5.555v-5.556
				h-5.556V474h11.111v5.556h5.556v5.556h5.556v5.556H618.972z"/>
		</g>
	</g>
	<g>
		<rect x="466.417" y="468.444" style="fill:#231F20;" width="5.556" height="5.556"/>
		<rect x="460.861" y="474" style="fill:#231F20;" width="5.556" height="5.556"/>
		<rect x="455.306" y="479.556" style="fill:#231F20;" width="5.556" height="5.556"/>
		<rect x="499.75" y="468.444" style="fill:#231F20;" width="5.556" height="5.556"/>
		<rect x="505.306" y="474" style="fill:#231F20;" width="5.556" height="5.556"/>
		<rect x="510.861" y="479.556" style="fill:#231F20;" width="5.556" height="5.556"/>
		<rect x="466.417" y="524" style="fill:#231F20;" width="5.556" height="5.556"/>
		<rect x="460.861" y="518.444" style="fill:#231F20;" width="5.556" height="5.556"/>
		<rect x="455.306" y="512.889" style="fill:#231F20;" width="5.556" height="5.556"/>
		<rect x="499.75" y="524" style="fill:#231F20;" width="5.556" height="5.556"/>
		<rect x="505.306" y="518.444" style="fill:#231F20;" width="5.556" height="5.556"/>
		<rect x="510.861" y="512.889" style="fill:#231F20;" width="5.556" height="5.556"/>
		<polygon style="fill:#231F20;" points="483.083,462.889 471.972,462.889 471.972,468.444 499.75,468.444 499.75,462.889 
			488.639,462.889 488.639,446.222 494.194,446.222 494.194,440.667 488.639,440.667 488.639,435.111 483.083,435.111 
			483.083,440.667 477.528,440.667 477.528,446.222 483.083,446.222 		"/>
		<polygon style="fill:#231F20;" points="488.639,535.111 499.75,535.111 499.75,529.556 471.972,529.556 471.972,535.111 
			483.083,535.111 483.083,551.778 477.528,551.778 477.528,557.333 483.083,557.333 483.083,562.889 488.639,562.889 
			488.639,557.333 494.194,557.333 494.194,551.778 488.639,551.778 		"/>
		<polygon style="fill:#231F20;" points="521.972,496.222 521.972,485.111 516.417,485.111 516.417,512.889 521.972,512.889 
			521.972,501.778 538.639,501.778 538.639,507.333 544.194,507.333 544.194,501.778 549.75,501.778 549.75,496.222 
			544.194,496.222 544.194,490.667 538.639,490.667 538.639,496.222 		"/>
		<polygon style="fill:#231F20;" points="449.75,501.778 449.75,512.889 455.306,512.889 455.306,485.111 449.75,485.111 
			449.75,496.222 433.083,496.222 433.083,490.667 427.528,490.667 427.528,496.222 421.972,496.222 421.972,501.778 
			427.528,501.778 427.528,507.333 433.083,507.333 433.083,501.778 		"/>
		<rect x="444.194" y="474" style="fill:#231F20;" width="5.556" height="5.556"/>
		<rect x="438.639" y="479.556" style="fill:#231F20;" width="5.556" height="5.556"/>
		<rect x="433.083" y="485.111" style="fill:#231F20;" width="5.556" height="5.556"/>
		<rect x="460.861" y="457.333" style="fill:#231F20;" width="5.556" height="5.556"/>
		<rect x="466.417" y="451.778" style="fill:#231F20;" width="5.556" height="5.556"/>
		<rect x="471.972" y="446.222" style="fill:#231F20;" width="5.556" height="5.556"/>
		<rect x="521.972" y="474" style="fill:#231F20;" width="5.556" height="5.556"/>
		<rect x="527.528" y="479.556" style="fill:#231F20;" width="5.556" height="5.556"/>
		<rect x="533.083" y="485.111" style="fill:#231F20;" width="5.556" height="5.556"/>
		<rect x="505.306" y="457.333" style="fill:#231F20;" width="5.556" height="5.556"/>
		<rect x="499.75" y="451.778" style="fill:#231F20;" width="5.556" height="5.556"/>
		<rect x="494.194" y="446.222" style="fill:#231F20;" width="5.556" height="5.556"/>
		<rect x="444.194" y="518.444" style="fill:#231F20;" width="5.556" height="5.556"/>
		<rect x="438.639" y="512.889" style="fill:#231F20;" width="5.556" height="5.556"/>
		<rect x="433.083" y="507.333" style="fill:#231F20;" width="5.556" height="5.556"/>
		<rect x="460.861" y="535.111" style="fill:#231F20;" width="5.556" height="5.556"/>
		<rect x="466.417" y="540.667" style="fill:#231F20;" width="5.556" height="5.556"/>
		<rect x="471.972" y="546.222" style="fill:#231F20;" width="5.556" height="5.556"/>
		<rect x="521.972" y="518.444" style="fill:#231F20;" width="5.556" height="5.556"/>
		<rect x="527.528" y="512.889" style="fill:#231F20;" width="5.556" height="5.556"/>
		<rect x="533.083" y="507.333" style="fill:#231F20;" width="5.556" height="5.556"/>
		<rect x="505.306" y="535.111" style="fill:#231F20;" width="5.556" height="5.556"/>
		<rect x="499.75" y="540.667" style="fill:#231F20;" width="5.556" height="5.556"/>
		<rect x="494.194" y="546.222" style="fill:#231F20;" width="5.556" height="5.556"/>
		<path style="fill:#231F20;" d="M471.972,512.889h27.778v-27.778h-27.778V512.889z M494.194,490.667v16.667h-16.667v-16.667
			H494.194z"/>
		<rect x="483.083" y="496.222" style="fill:#231F20;" width="5.556" height="5.556"/>
		<rect x="466.417" y="479.556" style="fill:#231F20;" width="5.556" height="5.556"/>
		<rect x="449.75" y="462.889" style="fill:#231F20;" width="11.111" height="11.111"/>
		<rect x="444.194" y="457.333" style="fill:#231F20;" width="5.556" height="5.556"/>
		<rect x="438.639" y="451.778" style="fill:#231F20;" width="5.556" height="5.556"/>
		<rect x="433.083" y="446.222" style="fill:#231F20;" width="5.556" height="5.556"/>
		<rect x="427.528" y="440.667" style="fill:#231F20;" width="5.556" height="5.556"/>
		<rect x="499.75" y="479.556" style="fill:#231F20;" width="5.556" height="5.556"/>
		<rect x="510.861" y="462.889" style="fill:#231F20;" width="11.111" height="11.111"/>
		<rect x="521.972" y="457.333" style="fill:#231F20;" width="5.556" height="5.556"/>
		<rect x="527.528" y="451.778" style="fill:#231F20;" width="5.556" height="5.556"/>
		<rect x="533.083" y="446.222" style="fill:#231F20;" width="5.556" height="5.556"/>
		<rect x="538.639" y="440.667" style="fill:#231F20;" width="5.556" height="5.556"/>
		<rect x="466.417" y="512.889" style="fill:#231F20;" width="5.556" height="5.556"/>
		<rect x="449.75" y="524" style="fill:#231F20;" width="11.111" height="11.111"/>
		<rect x="444.194" y="535.111" style="fill:#231F20;" width="5.556" height="5.556"/>
		<rect x="438.639" y="540.667" style="fill:#231F20;" width="5.556" height="5.556"/>
		<rect x="433.083" y="546.222" style="fill:#231F20;" width="5.556" height="5.556"/>
		<rect x="427.528" y="551.778" style="fill:#231F20;" width="5.556" height="5.556"/>
		<rect x="499.75" y="512.889" style="fill:#231F20;" width="5.556" height="5.556"/>
		<rect x="510.861" y="524" style="fill:#231F20;" width="11.111" height="11.111"/>
		<rect x="521.972" y="535.111" style="fill:#231F20;" width="5.556" height="5.556"/>
		<rect x="527.528" y="540.667" style="fill:#231F20;" width="5.556" height="5.556"/>
		<rect x="533.083" y="546.222" style="fill:#231F20;" width="5.556" height="5.556"/>
		<rect x="538.639" y="551.778" style="fill:#231F20;" width="5.556" height="5.556"/>
		<rect x="421.972" y="435.111" style="fill:#231F20;" width="5.556" height="5.556"/>
		<rect x="544.194" y="435.111" style="fill:#231F20;" width="5.556" height="5.556"/>
		<rect x="544.194" y="557.333" style="fill:#231F20;" width="5.556" height="5.556"/>
		<rect x="421.972" y="557.333" style="fill:#231F20;" width="5.556" height="5.556"/>
	</g>
	<g>
		<path style="fill:#231F20;" d="M75.917,662.889h44.444v-44.445H98.139v22.222H75.917V662.889z M81.472,646.222h22.222V624h11.111
			v33.333H81.472V646.222z"/>
		<path style="fill:#231F20;" d="M181.472,640.667H159.25v-22.222h-22.222v44.445h44.444V640.667z M175.917,657.333h-33.333V624
			h11.111v22.222h22.222V657.333z"/>
		<path style="fill:#231F20;" d="M75.917,701.778h22.222V724h22.222v-44.444H75.917V701.778z M81.472,685.111h33.333v33.333h-11.111
			v-22.222H81.472V685.111z"/>
		<path style="fill:#231F20;" d="M181.472,679.556h-44.444V724h22.222v-22.222h22.222V679.556z M175.917,696.222h-22.222v22.222
			h-11.111v-33.333h33.333V696.222z"/>
		<rect x="125.917" y="624" style="fill:#231F20;" width="5.556" height="44.444"/>
		<rect x="125.917" y="674" style="fill:#231F20;" width="5.556" height="44.444"/>
		<rect x="81.472" y="668.444" style="fill:#231F20;" width="44.444" height="5.556"/>
		<rect x="131.472" y="668.444" style="fill:#231F20;" width="44.444" height="5.556"/>
		<rect x="87.028" y="629.556" style="fill:#231F20;" width="5.556" height="5.556"/>
		<rect x="81.472" y="624" style="fill:#231F20;" width="5.556" height="5.556"/>
		<rect x="75.917" y="618.444" style="fill:#231F20;" width="5.556" height="5.556"/>
		<rect x="70.361" y="612.889" style="fill:#231F20;" width="5.556" height="5.556"/>
		<rect x="64.806" y="607.333" style="fill:#231F20;" width="5.556" height="5.556"/>
		<rect x="164.806" y="629.556" style="fill:#231F20;" width="5.556" height="5.556"/>
		<rect x="170.361" y="624" style="fill:#231F20;" width="5.556" height="5.556"/>
		<rect x="175.917" y="618.444" style="fill:#231F20;" width="5.556" height="5.556"/>
		<rect x="181.472" y="612.889" style="fill:#231F20;" width="5.556" height="5.556"/>
		<rect x="187.028" y="607.333" style="fill:#231F20;" width="5.556" height="5.556"/>
		<rect x="87.028" y="707.333" style="fill:#231F20;" width="5.556" height="5.556"/>
		<rect x="81.472" y="712.889" style="fill:#231F20;" width="5.556" height="5.556"/>
		<rect x="75.917" y="718.444" style="fill:#231F20;" width="5.556" height="5.556"/>
		<rect x="70.361" y="724" style="fill:#231F20;" width="5.556" height="5.556"/>
		<rect x="64.806" y="729.556" style="fill:#231F20;" width="5.556" height="5.556"/>
		<rect x="164.806" y="707.333" style="fill:#231F20;" width="5.556" height="5.556"/>
		<rect x="170.361" y="712.889" style="fill:#231F20;" width="5.556" height="5.556"/>
		<rect x="175.917" y="718.444" style="fill:#231F20;" width="5.556" height="5.556"/>
		<rect x="181.472" y="724" style="fill:#231F20;" width="5.556" height="5.556"/>
		<rect x="187.028" y="729.556" style="fill:#231F20;" width="5.556" height="5.556"/>
	</g>
	<g>
		<g>
			<polygon style="fill:#231F20;" points="274.917,78.333 274.917,95 269.361,95 269.361,100.556 252.694,100.556 252.694,106.111 
				280.472,106.111 280.472,78.333 			"/>
			<polygon style="fill:#231F20;" points="286.028,78.333 286.028,106.111 280.472,106.111 280.472,111.667 252.694,111.667 
				252.694,117.222 291.583,117.222 291.583,78.333 			"/>
			<polygon style="fill:#231F20;" points="297.139,78.333 297.139,117.222 291.583,117.222 291.583,122.778 252.694,122.778 
				252.694,128.333 302.694,128.333 302.694,78.333 			"/>
			<rect x="263.806" y="89.444" style="fill:#231F20;" width="5.556" height="5.556"/>
			<rect x="258.25" y="83.889" style="fill:#231F20;" width="5.556" height="5.556"/>
			<rect x="252.694" y="78.333" style="fill:#231F20;" width="5.556" height="5.556"/>
		</g>
		<g>
			<polygon style="fill:#231F20;" points="347.139,195 347.139,178.333 352.694,178.333 352.694,172.778 369.361,172.778 
				369.361,167.222 341.583,167.222 341.583,195 			"/>
			<polygon style="fill:#231F20;" points="336.028,195 336.028,167.222 341.583,167.222 341.583,161.667 369.361,161.667 
				369.361,156.111 330.472,156.111 330.472,195 			"/>
			<polygon style="fill:#231F20;" points="324.917,195 324.917,156.111 330.472,156.111 330.472,150.556 369.361,150.556 
				369.361,145 319.361,145 319.361,195 			"/>
			<rect x="352.694" y="178.333" style="fill:#231F20;" width="5.556" height="5.556"/>
			<rect x="358.25" y="183.889" style="fill:#231F20;" width="5.556" height="5.556"/>
			<rect x="363.806" y="189.444" style="fill:#231F20;" width="5.556" height="5.556"/>
		</g>
		<rect x="302.694" y="128.333" style="fill:#231F20;" width="16.667" height="16.667"/>
		<g>
			<polygon style="fill:#231F20;" points="347.139,78.333 347.139,95 352.694,95 352.694,100.556 369.361,100.556 369.361,106.111 
				341.583,106.111 341.583,78.333 			"/>
			<polygon style="fill:#231F20;" points="336.028,78.333 336.028,106.111 341.583,106.111 341.583,111.667 369.361,111.667 
				369.361,117.222 330.472,117.222 330.472,78.333 			"/>
			<polygon style="fill:#231F20;" points="324.917,78.333 324.917,117.222 330.472,117.222 330.472,122.778 369.361,122.778 
				369.361,128.333 319.361,128.333 319.361,78.333 			"/>
			<rect x="352.694" y="89.444" style="fill:#231F20;" width="5.556" height="5.556"/>
			<rect x="358.25" y="83.889" style="fill:#231F20;" width="5.556" height="5.556"/>
			<rect x="363.806" y="78.333" style="fill:#231F20;" width="5.556" height="5.556"/>
		</g>
		<g>
			<polygon style="fill:#231F20;" points="274.917,195 274.917,178.333 269.361,178.333 269.361,172.778 252.694,172.778 
				252.694,167.222 280.472,167.222 280.472,195 			"/>
			<polygon style="fill:#231F20;" points="286.028,195 286.028,167.222 280.472,167.222 280.472,161.667 252.694,161.667 
				252.694,156.111 291.583,156.111 291.583,195 			"/>
			<polygon style="fill:#231F20;" points="297.139,195 297.139,156.111 291.583,156.111 291.583,150.556 252.694,150.556 
				252.694,145 302.694,145 302.694,195 			"/>
			<rect x="263.806" y="178.333" style="fill:#231F20;" width="5.556" height="5.556"/>
			<rect x="258.25" y="183.889" style="fill:#231F20;" width="5.556" height="5.556"/>
			<rect x="252.694" y="189.444" style="fill:#231F20;" width="5.556" height="5.556"/>
		</g>
	</g>
	<g>
		<rect x="109.25" y="89.444" style="fill:#231F20;" width="5.556" height="27.778"/>
		<rect x="120.361" y="78.333" style="fill:#231F20;" width="5.556" height="5.556"/>
		<rect x="125.917" y="72.778" style="fill:#231F20;" width="5.556" height="5.556"/>
		<rect x="131.472" y="78.333" style="fill:#231F20;" width="5.556" height="5.556"/>
		<rect x="142.583" y="89.444" style="fill:#231F20;" width="5.556" height="27.778"/>
		<rect x="131.472" y="95" style="fill:#231F20;" width="5.556" height="5.556"/>
		<rect x="120.361" y="95" style="fill:#231F20;" width="5.556" height="5.556"/>
		<rect x="114.806" y="83.889" style="fill:#231F20;" width="5.556" height="5.556"/>
		<rect x="137.028" y="83.889" style="fill:#231F20;" width="5.556" height="5.556"/>
		<rect x="109.25" y="156.111" style="fill:#231F20;" width="5.556" height="27.778"/>
		<rect x="120.361" y="189.444" style="fill:#231F20;" width="5.556" height="5.556"/>
		<rect x="125.917" y="195" style="fill:#231F20;" width="5.556" height="5.556"/>
		<rect x="131.472" y="189.444" style="fill:#231F20;" width="5.556" height="5.556"/>
		<rect x="142.583" y="156.111" style="fill:#231F20;" width="5.556" height="27.778"/>
		<rect x="131.472" y="172.778" style="fill:#231F20;" width="5.556" height="5.556"/>
		<rect x="120.361" y="172.778" style="fill:#231F20;" width="5.556" height="5.556"/>
		<rect x="114.806" y="183.889" style="fill:#231F20;" width="5.556" height="5.556"/>
		<rect x="137.028" y="183.889" style="fill:#231F20;" width="5.556" height="5.556"/>
		<rect x="148.139" y="117.222" style="fill:#231F20;" width="27.778" height="5.556"/>
		<rect x="181.472" y="128.333" style="fill:#231F20;" width="5.556" height="5.556"/>
		<rect x="187.028" y="133.889" style="fill:#231F20;" width="5.556" height="5.556"/>
		<rect x="181.472" y="139.444" style="fill:#231F20;" width="5.556" height="5.556"/>
		<rect x="148.139" y="150.556" style="fill:#231F20;" width="27.778" height="5.556"/>
		<rect x="164.806" y="139.444" style="fill:#231F20;" width="5.556" height="5.556"/>
		<rect x="164.806" y="128.333" style="fill:#231F20;" width="5.556" height="5.556"/>
		<rect x="175.917" y="122.778" style="fill:#231F20;" width="5.556" height="5.556"/>
		<rect x="175.917" y="145" style="fill:#231F20;" width="5.556" height="5.556"/>
		<rect x="81.472" y="117.222" style="fill:#231F20;" width="27.778" height="5.556"/>
		<rect x="70.361" y="128.333" style="fill:#231F20;" width="5.556" height="5.556"/>
		<rect x="64.806" y="133.889" style="fill:#231F20;" width="5.556" height="5.556"/>
		<rect x="70.361" y="139.444" style="fill:#231F20;" width="5.556" height="5.556"/>
		<rect x="81.472" y="150.556" style="fill:#231F20;" width="27.778" height="5.556"/>
		<rect x="87.028" y="139.444" style="fill:#231F20;" width="5.556" height="5.556"/>
		<rect x="87.028" y="128.333" style="fill:#231F20;" width="5.556" height="5.556"/>
		<rect x="75.917" y="122.778" style="fill:#231F20;" width="5.556" height="5.556"/>
		<rect x="75.917" y="145" style="fill:#231F20;" width="5.556" height="5.556"/>
		<polygon style="fill:#231F20;" points="109.25,128.333 109.25,133.889 92.583,133.889 92.583,139.444 109.25,139.444 109.25,145 
			114.806,145 114.806,128.333 		"/>
		<rect x="114.806" y="145" style="fill:#231F20;" width="5.556" height="5.556"/>
		<polygon style="fill:#231F20;" points="120.361,156.111 125.917,156.111 125.917,172.778 131.472,172.778 131.472,156.111 
			137.028,156.111 137.028,150.556 120.361,150.556 		"/>
		<rect x="137.028" y="145" style="fill:#231F20;" width="5.556" height="5.556"/>
		<polygon style="fill:#231F20;" points="148.139,128.333 142.583,128.333 142.583,145 148.139,145 148.139,139.444 
			164.806,139.444 164.806,133.889 148.139,133.889 		"/>
		<rect x="137.028" y="122.778" style="fill:#231F20;" width="5.556" height="5.556"/>
		<polygon style="fill:#231F20;" points="137.028,117.222 131.472,117.222 131.472,100.556 125.917,100.556 125.917,117.222 
			120.361,117.222 120.361,122.778 137.028,122.778 		"/>
		<rect x="114.806" y="122.778" style="fill:#231F20;" width="5.556" height="5.556"/>
		<rect x="125.917" y="133.889" style="fill:#231F20;" width="5.556" height="5.556"/>
		<rect x="98.139" y="106.111" style="fill:#231F20;" width="5.555" height="5.556"/>
		<rect x="92.583" y="100.556" style="fill:#231F20;" width="5.556" height="5.556"/>
		<rect x="87.028" y="95" style="fill:#231F20;" width="5.556" height="5.556"/>
		<rect x="81.472" y="89.444" style="fill:#231F20;" width="5.556" height="5.556"/>
		<rect x="75.917" y="83.889" style="fill:#231F20;" width="5.556" height="5.556"/>
		<polygon style="fill:#231F20;" points="75.917,72.778 70.361,72.778 70.361,78.333 64.806,78.333 64.806,83.889 75.917,83.889 		
			"/>
		<rect x="153.694" y="106.111" style="fill:#231F20;" width="5.556" height="5.556"/>
		<rect x="159.25" y="100.556" style="fill:#231F20;" width="5.556" height="5.556"/>
		<rect x="164.806" y="95" style="fill:#231F20;" width="5.556" height="5.556"/>
		<rect x="170.361" y="89.444" style="fill:#231F20;" width="5.556" height="5.556"/>
		<rect x="175.917" y="83.889" style="fill:#231F20;" width="5.556" height="5.556"/>
		<polygon style="fill:#231F20;" points="187.028,78.333 187.028,72.778 181.472,72.778 181.472,83.889 192.583,83.889 
			192.583,78.333 		"/>
		<rect x="153.694" y="161.667" style="fill:#231F20;" width="5.556" height="5.556"/>
		<rect x="159.25" y="167.222" style="fill:#231F20;" width="5.556" height="5.556"/>
		<rect x="164.806" y="172.778" style="fill:#231F20;" width="5.556" height="5.556"/>
		<rect x="170.361" y="178.333" style="fill:#231F20;" width="5.556" height="5.556"/>
		<rect x="175.917" y="183.889" style="fill:#231F20;" width="5.556" height="5.556"/>
		<polygon style="fill:#231F20;" points="181.472,200.556 187.028,200.556 187.028,195 192.583,195 192.583,189.444 
			181.472,189.444 		"/>
		<rect x="98.139" y="161.667" style="fill:#231F20;" width="5.555" height="5.556"/>
		<rect x="92.583" y="167.222" style="fill:#231F20;" width="5.556" height="5.556"/>
		<rect x="87.028" y="172.778" style="fill:#231F20;" width="5.556" height="5.556"/>
		<rect x="81.472" y="178.333" style="fill:#231F20;" width="5.556" height="5.556"/>
		<rect x="75.917" y="183.889" style="fill:#231F20;" width="5.556" height="5.556"/>
		<polygon style="fill:#231F20;" points="64.806,195 70.361,195 70.361,200.556 75.917,200.556 75.917,189.444 64.806,189.444 		"/>
	</g>
	<path style="fill:#231F20;" d="M702.306,696.222v-5.556h-5.556v-5.556h-5.556v-5.555h-16.667v5.555h-5.556v5.556h-5.555v-11.111
		h5.555V674h5.556v-5.556h5.556v-27.778h-5.556v-5.556h-5.556v-5.555h-5.555V624h-5.556v5.556h-5.555v5.555h-5.556v5.556h-5.556
		v27.778h5.556V674h5.556v5.556h5.555v11.111h-5.555v-5.556h-5.556v-5.555h-16.667v5.555h-5.556v5.556h-5.556v5.556h-5.555v16.667
		h5.555v-5.556h5.556v-5.556h5.556v-5.556h11.111v5.556h5.556v5.556h5.556v5.556h5.555v16.667h5.556v-16.667h5.555v-5.556h5.556
		v-5.556h5.556v-5.556h11.111v5.556h5.556v5.556h5.556v5.556h5.555v-16.667H702.306z M657.861,662.889v-5.556h-5.555v-5.556h5.555
		v-5.556h5.556v5.556h5.555v5.556h-5.555v5.556H657.861z"/>
	<g>
		<g>
			<g>
				<rect x="449.75" y="629.556" style="fill:#231F20;" width="5.556" height="5.556"/>
				<rect x="455.306" y="624" style="fill:#231F20;" width="16.667" height="5.556"/>
				<rect x="471.972" y="629.556" style="fill:#231F20;" width="5.556" height="5.556"/>
				<polygon style="fill:#231F20;" points="477.528,635.111 477.528,651.778 471.972,651.778 471.972,657.333 477.528,657.333 
					477.528,662.889 483.083,662.889 483.083,635.111 				"/>
				<rect x="455.306" y="635.111" style="fill:#231F20;" width="5.556" height="5.556"/>
				<rect x="460.861" y="640.667" style="fill:#231F20;" width="5.556" height="5.556"/>
				<rect x="466.417" y="646.222" style="fill:#231F20;" width="5.556" height="5.556"/>
			</g>
			<g>
				<rect x="444.194" y="635.111" style="fill:#231F20;" width="5.556" height="5.556"/>
				<rect x="438.639" y="640.667" style="fill:#231F20;" width="5.556" height="16.667"/>
				<rect x="444.194" y="657.333" style="fill:#231F20;" width="5.556" height="5.556"/>
				<polygon style="fill:#231F20;" points="449.75,662.889 466.417,662.889 466.417,657.333 471.972,657.333 471.972,662.889 
					477.528,662.889 477.528,668.444 449.75,668.444 				"/>
				<rect x="449.75" y="640.667" style="fill:#231F20;" width="5.556" height="5.556"/>
				<rect x="455.306" y="646.222" style="fill:#231F20;" width="5.556" height="5.556"/>
				<rect x="460.861" y="651.778" style="fill:#231F20;" width="5.556" height="5.556"/>
			</g>
		</g>
		<g>
			<g>
				<rect x="516.417" y="629.556" style="fill:#231F20;" width="5.556" height="5.556"/>
				<rect x="499.75" y="624" style="fill:#231F20;" width="16.667" height="5.556"/>
				<rect x="494.194" y="629.556" style="fill:#231F20;" width="5.556" height="5.556"/>
				<polygon style="fill:#231F20;" points="494.194,635.111 494.194,651.778 499.75,651.778 499.75,657.333 494.194,657.333 
					494.194,662.889 488.639,662.889 488.639,635.111 				"/>
				<rect x="510.861" y="635.111" style="fill:#231F20;" width="5.556" height="5.556"/>
				<rect x="505.306" y="640.667" style="fill:#231F20;" width="5.556" height="5.556"/>
				<rect x="499.75" y="646.222" style="fill:#231F20;" width="5.556" height="5.556"/>
			</g>
			<g>
				<rect x="521.972" y="635.111" style="fill:#231F20;" width="5.556" height="5.556"/>
				<rect x="527.528" y="640.667" style="fill:#231F20;" width="5.556" height="16.667"/>
				<rect x="521.972" y="657.333" style="fill:#231F20;" width="5.556" height="5.556"/>
				<polygon style="fill:#231F20;" points="521.972,662.889 505.306,662.889 505.306,657.333 499.75,657.333 499.75,662.889 
					494.194,662.889 494.194,668.444 521.972,668.444 				"/>
				<rect x="516.417" y="640.667" style="fill:#231F20;" width="5.556" height="5.556"/>
				<rect x="510.861" y="646.222" style="fill:#231F20;" width="5.556" height="5.556"/>
				<rect x="505.306" y="651.778" style="fill:#231F20;" width="5.556" height="5.556"/>
			</g>
		</g>
		<g>
			<g>
				<rect x="449.75" y="707.333" style="fill:#231F20;" width="5.556" height="5.556"/>
				<rect x="455.306" y="712.889" style="fill:#231F20;" width="16.667" height="5.556"/>
				<rect x="471.972" y="707.333" style="fill:#231F20;" width="5.556" height="5.556"/>
				<polygon style="fill:#231F20;" points="477.528,707.333 477.528,690.667 471.972,690.667 471.972,685.111 477.528,685.111 
					477.528,679.556 483.083,679.556 483.083,707.333 				"/>
				<rect x="455.306" y="701.778" style="fill:#231F20;" width="5.556" height="5.556"/>
				<rect x="460.861" y="696.222" style="fill:#231F20;" width="5.556" height="5.556"/>
				<rect x="466.417" y="690.667" style="fill:#231F20;" width="5.556" height="5.556"/>
			</g>
			<g>
				<rect x="444.194" y="701.778" style="fill:#231F20;" width="5.556" height="5.556"/>
				<rect x="438.639" y="685.111" style="fill:#231F20;" width="5.556" height="16.667"/>
				<rect x="444.194" y="679.556" style="fill:#231F20;" width="5.556" height="5.556"/>
				<polygon style="fill:#231F20;" points="449.75,679.556 466.417,679.556 466.417,685.111 471.972,685.111 471.972,679.556 
					477.528,679.556 477.528,674 449.75,674 				"/>
				<rect x="449.75" y="696.222" style="fill:#231F20;" width="5.556" height="5.556"/>
				<rect x="455.306" y="690.667" style="fill:#231F20;" width="5.556" height="5.556"/>
				<rect x="460.861" y="685.111" style="fill:#231F20;" width="5.556" height="5.556"/>
			</g>
		</g>
		<g>
			<g>
				<rect x="516.417" y="707.333" style="fill:#231F20;" width="5.556" height="5.556"/>
				<rect x="499.75" y="712.889" style="fill:#231F20;" width="16.667" height="5.556"/>
				<rect x="494.194" y="707.333" style="fill:#231F20;" width="5.556" height="5.556"/>
				<polygon style="fill:#231F20;" points="494.194,707.333 494.194,690.667 499.75,690.667 499.75,685.111 494.194,685.111 
					494.194,679.556 488.639,679.556 488.639,707.333 				"/>
				<rect x="510.861" y="701.778" style="fill:#231F20;" width="5.556" height="5.556"/>
				<rect x="505.306" y="696.222" style="fill:#231F20;" width="5.556" height="5.556"/>
				<rect x="499.75" y="690.667" style="fill:#231F20;" width="5.556" height="5.556"/>
			</g>
			<g>
				<rect x="521.972" y="701.778" style="fill:#231F20;" width="5.556" height="5.556"/>
				<rect x="527.528" y="685.111" style="fill:#231F20;" width="5.556" height="16.667"/>
				<rect x="521.972" y="679.556" style="fill:#231F20;" width="5.556" height="5.556"/>
				<polygon style="fill:#231F20;" points="521.972,679.556 505.306,679.556 505.306,685.111 499.75,685.111 499.75,679.556 
					494.194,679.556 494.194,674 521.972,674 				"/>
				<rect x="516.417" y="696.222" style="fill:#231F20;" width="5.556" height="5.556"/>
				<rect x="510.861" y="690.667" style="fill:#231F20;" width="5.556" height="5.556"/>
				<rect x="505.306" y="685.111" style="fill:#231F20;" width="5.556" height="5.556"/>
			</g>
		</g>
		<rect x="483.083" y="668.444" style="fill:#231F20;" width="5.556" height="5.556"/>
	</g>
	<g>
		<g>
			<rect x="630.083" y="100.556" style="fill:#231F20;" width="5.556" height="5.556"/>
			<rect x="624.528" y="106.111" style="fill:#231F20;" width="5.556" height="5.556"/>
			<rect x="635.639" y="106.111" style="fill:#231F20;" width="5.556" height="5.556"/>
			<rect x="630.083" y="111.667" style="fill:#231F20;" width="5.556" height="5.556"/>
			<rect x="618.972" y="95" style="fill:#231F20;" width="5.556" height="5.556"/>
			<rect x="641.194" y="95" style="fill:#231F20;" width="5.556" height="5.556"/>
			<rect x="618.972" y="117.222" style="fill:#231F20;" width="5.556" height="5.556"/>
			<rect x="641.194" y="117.222" style="fill:#231F20;" width="5.556" height="5.556"/>
			<polygon style="fill:#231F20;" points="618.972,78.333 613.417,78.333 613.417,89.444 602.306,89.444 602.306,95 618.972,95 			
				"/>
			<polygon style="fill:#231F20;" points="663.417,95 663.417,89.444 652.306,89.444 652.306,78.333 646.75,78.333 646.75,95 			"/>
			<rect x="618.972" y="72.778" style="fill:#231F20;" width="27.778" height="5.556"/>
			<rect x="596.75" y="95" style="fill:#231F20;" width="5.556" height="27.778"/>
			<polygon style="fill:#231F20;" points="646.75,139.444 652.306,139.444 652.306,128.333 663.417,128.333 663.417,122.778 
				646.75,122.778 			"/>
			<polygon style="fill:#231F20;" points="602.306,122.778 602.306,128.333 613.417,128.333 613.417,139.444 618.972,139.444 
				618.972,122.778 			"/>
			<rect x="663.417" y="95" style="fill:#231F20;" width="5.556" height="27.778"/>
			<rect x="618.972" y="139.444" style="fill:#231F20;" width="27.778" height="5.556"/>
		</g>
		<g>
			<rect x="685.639" y="156.111" style="fill:#231F20;" width="5.556" height="5.556"/>
			<rect x="680.083" y="161.667" style="fill:#231F20;" width="5.556" height="5.556"/>
			<rect x="691.194" y="161.667" style="fill:#231F20;" width="5.556" height="5.556"/>
			<rect x="685.639" y="167.222" style="fill:#231F20;" width="5.556" height="5.556"/>
			<rect x="674.528" y="150.556" style="fill:#231F20;" width="5.556" height="5.556"/>
			<rect x="696.75" y="150.556" style="fill:#231F20;" width="5.556" height="5.556"/>
			<rect x="674.528" y="172.778" style="fill:#231F20;" width="5.556" height="5.556"/>
			<rect x="696.75" y="172.778" style="fill:#231F20;" width="5.556" height="5.556"/>
			<polygon style="fill:#231F20;" points="674.528,133.889 668.972,133.889 668.972,145 657.861,145 657.861,150.556 
				674.528,150.556 			"/>
			<polygon style="fill:#231F20;" points="718.972,150.556 718.972,145 707.861,145 707.861,133.889 702.306,133.889 
				702.306,150.556 			"/>
			<rect x="674.528" y="128.333" style="fill:#231F20;" width="27.778" height="5.556"/>
			<rect x="652.306" y="150.556" style="fill:#231F20;" width="5.556" height="27.778"/>
			<polygon style="fill:#231F20;" points="702.306,195 707.861,195 707.861,183.889 718.972,183.889 718.972,178.333 
				702.306,178.333 			"/>
			<polygon style="fill:#231F20;" points="657.861,178.333 657.861,183.889 668.972,183.889 668.972,195 674.528,195 
				674.528,178.333 			"/>
			<rect x="718.972" y="150.556" style="fill:#231F20;" width="5.556" height="27.778"/>
			<rect x="674.528" y="195" style="fill:#231F20;" width="27.778" height="5.556"/>
		</g>
		<g>
			<polygon style="fill:#231F20;" points="691.194,89.444 685.639,89.444 685.639,111.667 707.861,111.667 707.861,106.111 
				691.194,106.111 			"/>
			<rect x="691.194" y="83.889" style="fill:#231F20;" width="5.556" height="5.556"/>
			<polygon style="fill:#231F20;" points="702.306,72.778 702.306,78.333 718.972,78.333 718.972,95 724.528,95 724.528,72.778 			
				"/>
			<rect x="707.861" y="100.556" style="fill:#231F20;" width="5.556" height="5.556"/>
			<rect x="696.75" y="95" style="fill:#231F20;" width="5.556" height="5.556"/>
			<rect x="702.306" y="89.444" style="fill:#231F20;" width="5.556" height="5.556"/>
			<rect x="707.861" y="83.889" style="fill:#231F20;" width="5.556" height="5.556"/>
			<rect x="696.75" y="78.333" style="fill:#231F20;" width="5.556" height="5.556"/>
			<rect x="713.417" y="95" style="fill:#231F20;" width="5.556" height="5.556"/>
			<rect x="680.083" y="111.667" style="fill:#231F20;" width="5.556" height="5.556"/>
			<rect x="674.528" y="117.222" style="fill:#231F20;" width="5.556" height="5.556"/>
		</g>
		<g>
			<polygon style="fill:#231F20;" points="602.306,178.333 596.75,178.333 596.75,200.556 618.972,200.556 618.972,195 602.306,195 
							"/>
			<rect x="602.306" y="172.778" style="fill:#231F20;" width="5.556" height="5.556"/>
			<polygon style="fill:#231F20;" points="613.417,167.222 630.083,167.222 630.083,183.889 635.639,183.889 635.639,161.667 
				613.417,161.667 			"/>
			<rect x="618.972" y="189.444" style="fill:#231F20;" width="5.556" height="5.556"/>
			<rect x="607.861" y="183.889" style="fill:#231F20;" width="5.556" height="5.556"/>
			<rect x="613.417" y="178.333" style="fill:#231F20;" width="5.556" height="5.556"/>
			<rect x="618.972" y="172.778" style="fill:#231F20;" width="5.556" height="5.556"/>
			<rect x="607.861" y="167.222" style="fill:#231F20;" width="5.556" height="5.556"/>
			<rect x="624.528" y="183.889" style="fill:#231F20;" width="5.556" height="5.556"/>
			<rect x="635.639" y="156.111" style="fill:#231F20;" width="5.556" height="5.556"/>
			<rect x="641.194" y="150.556" style="fill:#231F20;" width="5.556" height="5.556"/>
		</g>
	</g>
	<g>
		<rect x="444.194" y="95" style="fill:#231F20;" width="5.556" height="5.556"/>
		<rect x="449.75" y="89.444" style="fill:#231F20;" width="27.778" height="5.556"/>
		<rect x="438.639" y="100.556" style="fill:#231F20;" width="5.556" height="27.778"/>
		<rect x="444.194" y="128.333" style="fill:#231F20;" width="5.556" height="5.556"/>
		<rect x="477.528" y="95" style="fill:#231F20;" width="5.556" height="5.556"/>
		<rect x="527.528" y="100.556" style="fill:#231F20;" width="5.556" height="27.778"/>
		<rect x="488.639" y="95" style="fill:#231F20;" width="5.556" height="5.556"/>
		<rect x="494.194" y="89.444" style="fill:#231F20;" width="27.778" height="5.556"/>
		<path style="fill:#231F20;" d="M499.75,133.889v-5.556h11.111v-5.555H499.75v-11.111h-5.556v11.111h-5.556v-22.222h-5.556v22.222
			h-5.555v-11.111h-5.556v11.111h-11.111v5.555h11.111v5.556H449.75v5.555h22.222V145h-11.111v5.556h11.111v11.111h5.556v-11.111
			h5.555v22.222h5.556v-22.222h5.556v11.111h5.556v-11.111h11.111V145H499.75v-5.556h22.222v-5.555H499.75z M488.639,139.444V145
			h-5.556v-5.556h-5.555v-5.555h5.555v-5.556h5.556v5.556h5.556v5.555H488.639z"/>
		<rect x="521.972" y="95" style="fill:#231F20;" width="5.556" height="5.556"/>
		<rect x="521.972" y="128.333" style="fill:#231F20;" width="5.556" height="5.556"/>
		<rect x="444.194" y="139.444" style="fill:#231F20;" width="5.556" height="5.556"/>
		<rect x="438.639" y="145" style="fill:#231F20;" width="5.556" height="27.778"/>
		<rect x="444.194" y="172.778" style="fill:#231F20;" width="5.556" height="5.556"/>
		<rect x="449.75" y="178.333" style="fill:#231F20;" width="27.778" height="5.556"/>
		<rect x="527.528" y="145" style="fill:#231F20;" width="5.556" height="27.778"/>
		<rect x="477.528" y="172.778" style="fill:#231F20;" width="5.556" height="5.556"/>
		<rect x="488.639" y="172.778" style="fill:#231F20;" width="5.556" height="5.556"/>
		<rect x="494.194" y="178.333" style="fill:#231F20;" width="27.778" height="5.556"/>
		<rect x="521.972" y="139.444" style="fill:#231F20;" width="5.556" height="5.556"/>
		<rect x="521.972" y="172.778" style="fill:#231F20;" width="5.556" height="5.556"/>
		<rect x="466.417" y="106.111" style="fill:#231F20;" width="5.556" height="5.556"/>
		<rect x="499.75" y="106.111" style="fill:#231F20;" width="5.556" height="5.556"/>
		<rect x="455.306" y="117.222" style="fill:#231F20;" width="5.556" height="5.556"/>
		<rect x="455.306" y="150.556" style="fill:#231F20;" width="5.556" height="5.556"/>
		<rect x="510.861" y="150.556" style="fill:#231F20;" width="5.556" height="5.556"/>
		<rect x="466.417" y="161.667" style="fill:#231F20;" width="5.556" height="5.556"/>
		<rect x="499.75" y="161.667" style="fill:#231F20;" width="5.556" height="5.556"/>
		<rect x="510.861" y="117.222" style="fill:#231F20;" width="5.556" height="5.556"/>
	</g>
	<g>
		<polygon style="fill:#231F20;" points="324.917,272.778 324.917,267.222 319.361,267.222 319.361,261.667 313.806,261.667 
			313.806,256.111 308.25,256.111 308.25,261.667 302.694,261.667 302.694,267.222 297.139,267.222 297.139,272.778 
			291.583,272.778 291.583,295 297.139,295 297.139,300.556 302.694,300.556 302.694,306.111 319.361,306.111 319.361,300.556 
			324.917,300.556 324.917,295 330.472,295 330.472,272.778 		"/>
		<polygon style="fill:#231F20;" points="297.139,356.111 297.139,361.667 302.694,361.667 302.694,367.222 308.25,367.222 
			308.25,372.778 313.806,372.778 313.806,367.222 319.361,367.222 319.361,361.667 324.917,361.667 324.917,356.111 
			330.472,356.111 330.472,333.889 324.917,333.889 324.917,328.333 319.361,328.333 319.361,322.778 302.694,322.778 
			302.694,328.333 297.139,328.333 297.139,333.889 291.583,333.889 291.583,356.111 		"/>
		<polygon style="fill:#231F20;" points="352.694,328.333 358.25,328.333 358.25,322.778 363.806,322.778 363.806,317.222 
			369.361,317.222 369.361,311.667 363.806,311.667 363.806,306.111 358.25,306.111 358.25,300.556 352.694,300.556 352.694,295 
			330.472,295 330.472,300.556 324.917,300.556 324.917,306.111 319.361,306.111 319.361,322.778 324.917,322.778 324.917,328.333 
			330.472,328.333 330.472,333.889 352.694,333.889 		"/>
		<polygon style="fill:#231F20;" points="269.361,300.556 263.806,300.556 263.806,306.111 258.25,306.111 258.25,311.667 
			252.694,311.667 252.694,317.222 258.25,317.222 258.25,322.778 263.806,322.778 263.806,328.333 269.361,328.333 
			269.361,333.889 291.583,333.889 291.583,328.333 297.139,328.333 297.139,322.778 302.694,322.778 302.694,306.111 
			297.139,306.111 297.139,300.556 291.583,300.556 291.583,295 269.361,295 		"/>
		<rect x="308.25" y="311.667" style="fill:#231F20;" width="5.556" height="5.556"/>
		<g>
			<polygon style="fill:#231F20;" points="280.472,272.778 280.472,283.889 269.361,283.889 269.361,289.444 286.028,289.444 
				286.028,272.778 			"/>
			<polygon style="fill:#231F20;" points="274.917,267.222 274.917,261.667 258.25,261.667 258.25,278.333 263.806,278.333 
				263.806,267.222 			"/>
			<rect x="263.806" y="278.333" style="fill:#231F20;" width="5.556" height="5.556"/>
			<rect x="274.917" y="267.222" style="fill:#231F20;" width="5.556" height="5.556"/>
		</g>
		<g>
			<polygon style="fill:#231F20;" points="352.694,283.889 341.583,283.889 341.583,272.778 336.028,272.778 336.028,289.444 
				352.694,289.444 			"/>
			<polygon style="fill:#231F20;" points="358.25,278.333 363.806,278.333 363.806,261.667 347.139,261.667 347.139,267.222 
				358.25,267.222 			"/>
			<rect x="341.583" y="267.222" style="fill:#231F20;" width="5.556" height="5.556"/>
			<rect x="352.694" y="278.333" style="fill:#231F20;" width="5.556" height="5.556"/>
		</g>
		<g>
			<polygon style="fill:#231F20;" points="341.583,356.111 341.583,345 352.694,345 352.694,339.444 336.028,339.444 
				336.028,356.111 			"/>
			<polygon style="fill:#231F20;" points="347.139,361.667 347.139,367.222 363.806,367.222 363.806,350.556 358.25,350.556 
				358.25,361.667 			"/>
			<rect x="352.694" y="345" style="fill:#231F20;" width="5.556" height="5.556"/>
			<rect x="341.583" y="356.111" style="fill:#231F20;" width="5.556" height="5.556"/>
		</g>
		<g>
			<polygon style="fill:#231F20;" points="269.361,345 280.472,345 280.472,356.111 286.028,356.111 286.028,339.444 
				269.361,339.444 			"/>
			<polygon style="fill:#231F20;" points="263.806,350.556 258.25,350.556 258.25,367.222 274.917,367.222 274.917,361.667 
				263.806,361.667 			"/>
			<rect x="274.917" y="356.111" style="fill:#231F20;" width="5.556" height="5.556"/>
			<rect x="263.806" y="345" style="fill:#231F20;" width="5.556" height="5.556"/>
		</g>
	</g>
	<g>
		<rect x="125.917" y="311.667" style="fill:#231F20;" width="5.556" height="5.556"/>
		<g>
			<polygon style="fill:#231F20;" points="120.361,283.889 120.361,278.333 114.806,278.333 114.806,272.778 109.25,272.778 
				109.25,267.222 103.694,267.222 103.694,261.667 98.139,261.667 98.139,283.889 103.694,283.889 103.694,289.444 109.25,289.444 
				109.25,295 114.806,295 114.806,300.556 120.361,300.556 120.361,306.111 125.917,306.111 125.917,283.889 			"/>
			<polygon style="fill:#231F20;" points="114.806,300.556 109.25,300.556 109.25,295 103.694,295 103.694,289.444 98.139,289.444 
				98.139,283.889 75.917,283.889 75.917,289.444 81.472,289.444 81.472,295 87.028,295 87.028,300.556 92.583,300.556 
				92.583,306.111 98.139,306.111 98.139,311.667 120.361,311.667 120.361,306.111 114.806,306.111 			"/>
		</g>
		<g>
			<polygon style="fill:#231F20;" points="137.028,283.889 137.028,278.333 142.583,278.333 142.583,272.778 148.139,272.778 
				148.139,267.222 153.694,267.222 153.694,261.667 159.25,261.667 159.25,283.889 153.694,283.889 153.694,289.444 
				148.139,289.444 148.139,295 142.583,295 142.583,300.556 137.028,300.556 137.028,306.111 131.472,306.111 131.472,283.889 			
				"/>
			<polygon style="fill:#231F20;" points="142.583,300.556 148.139,300.556 148.139,295 153.694,295 153.694,289.444 
				159.25,289.444 159.25,283.889 181.472,283.889 181.472,289.444 175.917,289.444 175.917,295 170.361,295 170.361,300.556 
				164.806,300.556 164.806,306.111 159.25,306.111 159.25,311.667 137.028,311.667 137.028,306.111 142.583,306.111 			"/>
		</g>
		<g>
			<polygon style="fill:#231F20;" points="120.361,345 120.361,350.556 114.806,350.556 114.806,356.111 109.25,356.111 
				109.25,361.667 103.694,361.667 103.694,367.222 98.139,367.222 98.139,345 103.694,345 103.694,339.444 109.25,339.444 
				109.25,333.889 114.806,333.889 114.806,328.333 120.361,328.333 120.361,322.778 125.917,322.778 125.917,345 			"/>
			<polygon style="fill:#231F20;" points="114.806,328.333 109.25,328.333 109.25,333.889 103.694,333.889 103.694,339.444 
				98.139,339.444 98.139,345 75.917,345 75.917,339.444 81.472,339.444 81.472,333.889 87.028,333.889 87.028,328.333 
				92.583,328.333 92.583,322.778 98.139,322.778 98.139,317.222 120.361,317.222 120.361,322.778 114.806,322.778 			"/>
		</g>
		<g>
			<polygon style="fill:#231F20;" points="137.028,345 137.028,350.556 142.583,350.556 142.583,356.111 148.139,356.111 
				148.139,361.667 153.694,361.667 153.694,367.222 159.25,367.222 159.25,345 153.694,345 153.694,339.444 148.139,339.444 
				148.139,333.889 142.583,333.889 142.583,328.333 137.028,328.333 137.028,322.778 131.472,322.778 131.472,345 			"/>
			<polygon style="fill:#231F20;" points="142.583,328.333 148.139,328.333 148.139,333.889 153.694,333.889 153.694,339.444 
				159.25,339.444 159.25,345 181.472,345 181.472,339.444 175.917,339.444 175.917,333.889 170.361,333.889 170.361,328.333 
				164.806,328.333 164.806,322.778 159.25,322.778 159.25,317.222 137.028,317.222 137.028,322.778 142.583,322.778 			"/>
		</g>
		<g>
			<rect x="125.917" y="272.778" style="fill:#231F20;" width="5.556" height="5.556"/>
			<rect x="120.361" y="267.222" style="fill:#231F20;" width="5.556" height="5.556"/>
			<rect x="114.806" y="261.667" style="fill:#231F20;" width="5.556" height="5.556"/>
			<rect x="109.25" y="256.111" style="fill:#231F20;" width="5.556" height="5.556"/>
			<polygon style="fill:#231F20;" points="87.028,250.556 87.028,272.778 64.806,272.778 64.806,295 70.361,295 70.361,278.333 
				92.583,278.333 92.583,256.111 109.25,256.111 109.25,250.556 			"/>
			<rect x="87.028" y="311.667" style="fill:#231F20;" width="5.556" height="5.556"/>
			<rect x="81.472" y="306.111" style="fill:#231F20;" width="5.556" height="5.556"/>
			<rect x="75.917" y="300.556" style="fill:#231F20;" width="5.556" height="5.556"/>
			<rect x="70.361" y="295" style="fill:#231F20;" width="5.556" height="5.556"/>
			<rect x="131.472" y="267.222" style="fill:#231F20;" width="5.556" height="5.556"/>
			<rect x="137.028" y="261.667" style="fill:#231F20;" width="5.556" height="5.556"/>
			<rect x="142.583" y="256.111" style="fill:#231F20;" width="5.556" height="5.556"/>
			<polygon style="fill:#231F20;" points="170.361,250.556 170.361,272.778 192.583,272.778 192.583,295 187.028,295 
				187.028,278.333 164.806,278.333 164.806,256.111 148.139,256.111 148.139,250.556 			"/>
			<rect x="164.806" y="311.667" style="fill:#231F20;" width="5.556" height="5.556"/>
			<rect x="170.361" y="306.111" style="fill:#231F20;" width="5.556" height="5.556"/>
			<rect x="175.917" y="300.556" style="fill:#231F20;" width="5.556" height="5.556"/>
			<rect x="181.472" y="295" style="fill:#231F20;" width="5.556" height="5.556"/>
			<rect x="125.917" y="350.556" style="fill:#231F20;" width="5.556" height="5.556"/>
			<rect x="131.472" y="356.111" style="fill:#231F20;" width="5.556" height="5.556"/>
			<rect x="137.028" y="361.667" style="fill:#231F20;" width="5.556" height="5.556"/>
			<rect x="142.583" y="367.222" style="fill:#231F20;" width="5.556" height="5.556"/>
			<polygon style="fill:#231F20;" points="170.361,378.333 170.361,356.111 192.583,356.111 192.583,333.889 187.028,333.889 
				187.028,350.556 164.806,350.556 164.806,372.778 148.139,372.778 148.139,378.333 			"/>
			<rect x="170.361" y="317.222" style="fill:#231F20;" width="5.556" height="5.556"/>
			<rect x="175.917" y="322.778" style="fill:#231F20;" width="5.556" height="5.556"/>
			<rect x="181.472" y="328.333" style="fill:#231F20;" width="5.556" height="5.556"/>
			<rect x="120.361" y="356.111" style="fill:#231F20;" width="5.556" height="5.556"/>
			<rect x="114.806" y="361.667" style="fill:#231F20;" width="5.556" height="5.556"/>
			<rect x="109.25" y="367.222" style="fill:#231F20;" width="5.556" height="5.556"/>
			<polygon style="fill:#231F20;" points="87.028,378.333 87.028,356.111 64.806,356.111 64.806,333.889 70.361,333.889 
				70.361,350.556 92.583,350.556 92.583,372.778 109.25,372.778 109.25,378.333 			"/>
			<rect x="81.472" y="317.222" style="fill:#231F20;" width="5.556" height="5.556"/>
			<rect x="75.917" y="322.778" style="fill:#231F20;" width="5.556" height="5.556"/>
			<rect x="70.361" y="328.333" style="fill:#231F20;" width="5.556" height="5.556"/>
		</g>
	</g>
	<g>
		<g>
			<rect x="596.75" y="300.556" style="fill:#231F20;" width="5.556" height="5.556"/>
			<rect x="591.194" y="306.111" style="fill:#231F20;" width="5.556" height="5.556"/>
			<rect x="596.75" y="317.222" style="fill:#231F20;" width="5.556" height="5.556"/>
			<rect x="591.194" y="322.778" style="fill:#231F20;" width="5.556" height="5.556"/>
			<path style="fill:#231F20;" d="M668.972,295v-5.556h-5.555v-11.111h5.555v-11.111h-5.555v5.556h-5.556v-5.556h-5.555v11.111
				h5.555v11.111h-33.333v-11.111h5.556v-11.111h-5.556v5.556h-5.556v-5.556h-5.555v11.111h5.555v11.111h-5.555V295h-11.111v5.556
				h11.111v11.111h-11.111v5.556h11.111v5.556h55.555v-5.556h11.111v-5.556h-11.111v-11.111h11.111V295H668.972z M657.861,317.222
				h-33.333v-5.556h33.333V317.222z"/>
			<rect x="680.083" y="300.556" style="fill:#231F20;" width="5.556" height="5.556"/>
			<rect x="685.639" y="306.111" style="fill:#231F20;" width="5.556" height="5.556"/>
			<rect x="680.083" y="317.222" style="fill:#231F20;" width="5.556" height="5.556"/>
			<rect x="685.639" y="322.778" style="fill:#231F20;" width="5.556" height="5.556"/>
		</g>
		<g>
			<rect x="646.75" y="367.222" style="fill:#231F20;" width="5.556" height="5.556"/>
			<rect x="641.194" y="372.778" style="fill:#231F20;" width="5.556" height="5.556"/>
			<rect x="646.75" y="383.889" style="fill:#231F20;" width="5.556" height="5.556"/>
			<rect x="641.194" y="389.444" style="fill:#231F20;" width="5.556" height="5.556"/>
			<path style="fill:#231F20;" d="M718.972,361.667v-5.556h-5.555V345h5.555v-11.111h-5.555v5.556h-5.556v-5.556h-5.555V345h5.555
				v11.111h-33.333V345h5.556v-11.111h-5.556v5.556h-5.556v-5.556h-5.555V345h5.555v11.111h-5.555v5.556h-11.111v5.556h11.111
				v11.111h-11.111v5.556h11.111v5.556h55.555v-5.556h11.111v-5.556h-11.111v-11.111h11.111v-5.556H718.972z M707.861,383.889
				h-33.333v-5.556h33.333V383.889z"/>
			<rect x="730.083" y="367.222" style="fill:#231F20;" width="5.556" height="5.556"/>
			<rect x="735.639" y="372.778" style="fill:#231F20;" width="5.556" height="5.556"/>
			<rect x="730.083" y="383.889" style="fill:#231F20;" width="5.556" height="5.556"/>
			<rect x="735.639" y="389.444" style="fill:#231F20;" width="5.556" height="5.556"/>
		</g>
	</g>
	<g>
		<rect x="444.194" y="295" style="fill:#231F20;" width="5.556" height="5.556"/>
		<rect x="449.75" y="289.444" style="fill:#231F20;" width="5.556" height="5.556"/>
		<rect x="455.306" y="283.889" style="fill:#231F20;" width="5.556" height="5.556"/>
		<rect x="460.861" y="278.333" style="fill:#231F20;" width="5.556" height="5.556"/>
		<rect x="466.417" y="272.778" style="fill:#231F20;" width="5.556" height="5.556"/>
		<rect x="471.972" y="267.222" style="fill:#231F20;" width="5.556" height="5.556"/>
		<rect x="477.528" y="261.667" style="fill:#231F20;" width="5.556" height="5.556"/>
		<rect x="483.083" y="256.111" style="fill:#231F20;" width="5.556" height="5.556"/>
		<rect x="521.972" y="295" style="fill:#231F20;" width="5.556" height="5.556"/>
		<rect x="516.417" y="289.444" style="fill:#231F20;" width="5.556" height="5.556"/>
		<rect x="510.861" y="283.889" style="fill:#231F20;" width="5.556" height="5.556"/>
		<rect x="505.306" y="278.333" style="fill:#231F20;" width="5.556" height="5.556"/>
		<rect x="499.75" y="272.778" style="fill:#231F20;" width="5.556" height="5.556"/>
		<rect x="494.194" y="267.222" style="fill:#231F20;" width="5.556" height="5.556"/>
		<rect x="488.639" y="261.667" style="fill:#231F20;" width="5.556" height="5.556"/>
		<rect x="438.639" y="300.556" style="fill:#231F20;" width="5.556" height="5.556"/>
		<rect x="433.083" y="306.111" style="fill:#231F20;" width="5.556" height="5.556"/>
		<rect x="527.528" y="300.556" style="fill:#231F20;" width="5.556" height="5.556"/>
		<rect x="533.083" y="306.111" style="fill:#231F20;" width="5.556" height="5.556"/>
		<rect x="427.528" y="311.667" style="fill:#231F20;" width="5.556" height="5.556"/>
		<rect x="538.639" y="311.667" style="fill:#231F20;" width="5.556" height="5.556"/>
		<rect x="521.972" y="328.333" style="fill:#231F20;" width="5.556" height="5.556"/>
		<rect x="516.417" y="333.889" style="fill:#231F20;" width="5.556" height="5.556"/>
		<rect x="510.861" y="339.444" style="fill:#231F20;" width="5.556" height="5.556"/>
		<rect x="505.306" y="345" style="fill:#231F20;" width="5.556" height="5.556"/>
		<rect x="499.75" y="350.556" style="fill:#231F20;" width="5.556" height="5.556"/>
		<rect x="494.194" y="356.111" style="fill:#231F20;" width="5.556" height="5.556"/>
		<rect x="488.639" y="361.667" style="fill:#231F20;" width="5.556" height="5.556"/>
		<rect x="483.083" y="367.222" style="fill:#231F20;" width="5.556" height="5.556"/>
		<rect x="444.194" y="328.333" style="fill:#231F20;" width="5.556" height="5.556"/>
		<rect x="449.75" y="333.889" style="fill:#231F20;" width="5.556" height="5.556"/>
		<rect x="455.306" y="339.444" style="fill:#231F20;" width="5.556" height="5.556"/>
		<rect x="460.861" y="345" style="fill:#231F20;" width="5.556" height="5.556"/>
		<rect x="466.417" y="350.556" style="fill:#231F20;" width="5.556" height="5.556"/>
		<rect x="471.972" y="356.111" style="fill:#231F20;" width="5.556" height="5.556"/>
		<rect x="477.528" y="361.667" style="fill:#231F20;" width="5.556" height="5.556"/>
		<rect x="527.528" y="322.778" style="fill:#231F20;" width="5.556" height="5.556"/>
		<rect x="533.083" y="317.222" style="fill:#231F20;" width="5.556" height="5.556"/>
		<rect x="438.639" y="322.778" style="fill:#231F20;" width="5.556" height="5.556"/>
		<rect x="433.083" y="317.222" style="fill:#231F20;" width="5.556" height="5.556"/>
		<path style="fill:#231F20;" d="M521.972,306.111h-5.555v5.556h-11.111v-11.111h5.556V295h-5.556v-5.556h-5.556V295h-11.111
			v-11.111h5.556v-5.556h-5.556v-5.556h-5.556v5.556h-5.555v5.556h5.555V295h-11.111v-5.556h-5.556V295h-5.556v5.556h5.556v11.111
			h-11.111v-5.556h-5.556v5.556h-5.556v5.556h5.556v5.556h5.556v-5.556h11.111v11.111h-5.556v5.556h5.556v5.556h5.556v-5.556h11.111
			V345h-5.555v5.556h5.555v5.556h5.556v-5.556h5.556V345h-5.556v-11.111h11.111v5.556h5.556v-5.556h5.556v-5.556h-5.556v-11.111
			h11.111v5.556h5.555v-5.556h5.556v-5.556h-5.556V306.111z M499.75,300.556v11.111h-5.556v-5.556h-5.556v-5.556H499.75z
			 M471.972,300.556h11.111v5.556h-5.555v5.556h-5.556V300.556z M471.972,328.333v-11.111h5.556v5.556h5.555v5.556H471.972z
			 M499.75,328.333h-11.111v-5.556h5.556v-5.556h5.556V328.333z"/>
	</g>
</g>
</svg>
