<svg width="21" height="20" viewBox="0 0 21 20" fill="none" xmlns="http://www.w3.org/2000/svg">
<path fill-rule="evenodd" clip-rule="evenodd" d="M10.5 0.25C5.11522 0.25 0.75 4.61522 0.75 10C0.75 15.3848 5.11522 19.75 10.5 19.75C15.8848 19.75 20.25 15.3848 20.25 10C20.25 4.61522 15.8848 0.25 10.5 0.25ZM11.25 4C11.25 3.58579 10.9142 3.25 10.5 3.25C10.0858 3.25 9.75 3.58579 9.75 4V10C9.75 10.4142 10.0858 10.75 10.5 10.75H15C15.4142 10.75 15.75 10.4142 15.75 10C15.75 9.58579 15.4142 9.25 15 9.25H11.25V4Z" fill="#999999"/>
</svg>
