<svg width="120" height="99" viewBox="0 0 120 99" fill="none" xmlns="http://www.w3.org/2000/svg">
<path d="M82.166 98.9391C86.2468 98.9391 89.555 95.631 89.555 91.5501C89.555 87.4693 86.2468 84.1611 82.166 84.1611C78.0852 84.1611 74.777 87.4693 74.777 91.5501C74.777 95.631 78.0852 98.9391 82.166 98.9391Z" fill="black"/>
<path d="M96.943 76.7731C101.024 76.7731 104.332 73.4649 104.332 69.3841C104.332 65.3033 101.024 61.9951 96.943 61.9951C92.8622 61.9951 89.554 65.3033 89.554 69.3841C89.554 73.4649 92.8622 76.7731 96.943 76.7731Z" fill="black"/>
<path d="M82.166 15.2011C86.2468 15.2011 89.555 11.8929 89.555 7.8121C89.555 3.73126 86.2468 0.423096 82.166 0.423096C78.0852 0.423096 74.777 3.73126 74.777 7.8121C74.777 11.8929 78.0852 15.2011 82.166 15.2011Z" fill="black"/>
<path d="M96.943 37.3671C101.024 37.3671 104.332 34.0589 104.332 29.9781C104.332 25.8973 101.024 22.5891 96.943 22.5891C92.8622 22.5891 89.554 25.8973 89.554 29.9781C89.554 34.0589 92.8622 37.3671 96.943 37.3671Z" fill="black"/>
<path d="M111.721 57.07C115.802 57.07 119.11 53.7618 119.11 49.681C119.11 45.6002 115.802 42.292 111.721 42.292C107.64 42.292 104.332 45.6002 104.332 49.681C104.332 53.7618 107.64 57.07 111.721 57.07Z" fill="black"/>
<path d="M57.537 98.9391C61.6178 98.9391 64.926 95.631 64.926 91.5501C64.926 87.4693 61.6178 84.1611 57.537 84.1611C53.4562 84.1611 50.148 87.4693 50.148 91.5501C50.148 95.631 53.4562 98.9391 57.537 98.9391Z" fill="black"/>
<path d="M72.314 76.7731C76.3948 76.7731 79.703 73.4649 79.703 69.3841C79.703 65.3033 76.3948 61.9951 72.314 61.9951C68.2332 61.9951 64.925 65.3033 64.925 69.3841C64.925 73.4649 68.2332 76.7731 72.314 76.7731Z" fill="black"/>
<path d="M57.537 15.2011C61.6178 15.2011 64.926 11.8929 64.926 7.8121C64.926 3.73126 61.6178 0.423096 57.537 0.423096C53.4562 0.423096 50.148 3.73126 50.148 7.8121C50.148 11.8929 53.4562 15.2011 57.537 15.2011Z" fill="black"/>
<path d="M72.314 37.3671C76.3948 37.3671 79.703 34.0589 79.703 29.9781C79.703 25.8973 76.3948 22.5891 72.314 22.5891C68.2332 22.5891 64.925 25.8973 64.925 29.9781C64.925 34.0589 68.2332 37.3671 72.314 37.3671Z" fill="black"/>
<path d="M87.092 57.07C91.1728 57.07 94.481 53.7618 94.481 49.681C94.481 45.6002 91.1728 42.292 87.092 42.292C83.0112 42.292 79.703 45.6002 79.703 49.681C79.703 53.7618 83.0112 57.07 87.092 57.07Z" fill="black"/>
<path d="M32.908 98.9391C36.9889 98.9391 40.297 95.631 40.297 91.5501C40.297 87.4693 36.9889 84.1611 32.908 84.1611C28.8272 84.1611 25.519 87.4693 25.519 91.5501C25.519 95.631 28.8272 98.9391 32.908 98.9391Z" fill="black"/>
<path d="M47.686 76.7731C51.7668 76.7731 55.075 73.4649 55.075 69.3841C55.075 65.3033 51.7668 61.9951 47.686 61.9951C43.6052 61.9951 40.297 65.3033 40.297 69.3841C40.297 73.4649 43.6052 76.7731 47.686 76.7731Z" fill="black"/>
<path d="M32.908 15.2011C36.9889 15.2011 40.297 11.8929 40.297 7.8121C40.297 3.73126 36.9889 0.423096 32.908 0.423096C28.8272 0.423096 25.519 3.73126 25.519 7.8121C25.519 11.8929 28.8272 15.2011 32.908 15.2011Z" fill="black"/>
<path d="M47.686 37.3671C51.7668 37.3671 55.075 34.0589 55.075 29.9781C55.075 25.8973 51.7668 22.5891 47.686 22.5891C43.6052 22.5891 40.297 25.8973 40.297 29.9781C40.297 34.0589 43.6052 37.3671 47.686 37.3671Z" fill="black"/>
<path d="M62.463 57.07C66.5439 57.07 69.852 53.7618 69.852 49.681C69.852 45.6002 66.5439 42.292 62.463 42.292C58.3822 42.292 55.074 45.6002 55.074 49.681C55.074 53.7618 58.3822 57.07 62.463 57.07Z" fill="black"/>
<path d="M8.27902 98.9391C12.3599 98.9391 15.668 95.631 15.668 91.5501C15.668 87.4693 12.3599 84.1611 8.27902 84.1611C4.19819 84.1611 0.890015 87.4693 0.890015 91.5501C0.890015 95.631 4.19819 98.9391 8.27902 98.9391Z" fill="black"/>
<path d="M23.057 76.7731C27.1379 76.7731 30.446 73.4649 30.446 69.3841C30.446 65.3033 27.1379 61.9951 23.057 61.9951C18.9762 61.9951 15.668 65.3033 15.668 69.3841C15.668 73.4649 18.9762 76.7731 23.057 76.7731Z" fill="black"/>
<path d="M8.27902 15.2011C12.3599 15.2011 15.668 11.8929 15.668 7.8121C15.668 3.73126 12.3599 0.423096 8.27902 0.423096C4.19819 0.423096 0.890015 3.73126 0.890015 7.8121C0.890015 11.8929 4.19819 15.2011 8.27902 15.2011Z" fill="black"/>
<path d="M23.057 37.3671C27.1379 37.3671 30.446 34.0589 30.446 29.9781C30.446 25.8973 27.1379 22.5891 23.057 22.5891C18.9762 22.5891 15.668 25.8973 15.668 29.9781C15.668 34.0589 18.9762 37.3671 23.057 37.3671Z" fill="black"/>
<path d="M37.834 57.07C41.9148 57.07 45.223 53.7618 45.223 49.681C45.223 45.6002 41.9148 42.292 37.834 42.292C33.7532 42.292 30.445 45.6002 30.445 49.681C30.445 53.7618 33.7532 57.07 37.834 57.07Z" fill="black"/>
</svg>
