<?xml version="1.0" encoding="utf-8"?>
<!-- Generator: Adobe Illustrator 27.5.0, SVG Export Plug-In . SVG Version: 6.00 Build 0)  -->
<svg version="1.1" xmlns="http://www.w3.org/2000/svg" xmlns:xlink="http://www.w3.org/1999/xlink" x="0px" y="0px"
	 viewBox="0 0 500 500" style="enable-background:new 0 0 500 500;" xml:space="preserve">
<g id="BACKGROUND">
	<rect style="fill:#FFFFFF;" width="500" height="500"/>
</g>
<g id="OBJECTS">
	<g>
		<g>
			<g>
				<g>
					<path style="fill:#E85D5D;" d="M226.621,221.354c10.682-8.245,20.496-17.427,30.379-26.614
						c10.151-9.437,20.571-18.632,30.506-28.295c4.21-4.095-2.068-10.23-6.398-6.398c-10.13,8.965-19.762,18.547-29.481,27.953
						c-9.753,9.439-19.456,18.885-28.079,29.373C221.887,219.392,224.158,223.255,226.621,221.354L226.621,221.354z"/>
				</g>
			</g>
			<g>
				<g>
					<path style="fill:#E85D5D;" d="M223.321,180.84c7.065,7.035,13.973,14.123,21.367,20.874c3.469,3.167,6.982,6.286,10.477,9.425
						c3.64,3.27,7.221,7.41,11.635,9.577c3.035,1.491,7.346-1.766,5.067-5.067c-2.842-4.115-7.219-6.995-11.048-10.164
						c-3.854-3.189-7.691-6.402-11.577-9.552c-7.742-6.277-15.731-12.051-23.692-17.981
						C223.848,176.683,221.876,179.401,223.321,180.84L223.321,180.84z"/>
				</g>
			</g>
		</g>
		<g>
			<g>
				<g>
					<g>
						<path style="fill:#404040;" d="M262.836,169.162c-15.715,0.023-31.421,0.54-47.128,0.981
							c-0.736,0.021-1.353,0.605-1.357,1.357c-0.054,10.592-0.003,21.184,0.173,31.775c0.091,5.456,0.213,10.911,0.366,16.365
							c0.067,2.391-0.493,6.163,1.59,7.978c2.484,2.165,7.724,0.998,10.64,0.978c5.564-0.038,11.127-0.076,16.691-0.115
							c11.127-0.076,22.255-0.112,33.382-0.205c0.851-0.007,1.667-0.74,1.628-1.628c-0.498-11.15,0.619-22.312,0.194-33.414
							c-0.059-1.539-2.527-2.05-2.824-0.382c-1.939,10.894-1.149,22.793-0.626,33.796c0.542-0.543,1.085-1.085,1.628-1.628
							c-9.164,0.102-18.328,0.255-27.491,0.371c-4.582,0.058-9.164,0.116-13.746,0.173c-4.504,0.057-10.346,1.147-14.727,0.186
							c-5.089-1.116-3.578-8.64-3.688-12.849c-0.117-4.492-0.213-8.985-0.287-13.478c-0.154-9.307-0.211-18.615-0.188-27.924
							c-0.452,0.452-0.905,0.905-1.357,1.357c15.714-0.483,31.431-0.889,47.128-1.788
							C264.051,170.999,264.073,169.161,262.836,169.162L262.836,169.162z"/>
					</g>
				</g>
			</g>
			<g>
				<g>
					<g>
						<path style="fill:#404040;" d="M225.905,219.728c20.1-18.144,39.693-36.913,59.408-55.477c1.338-1.26-0.664-3.242-2.011-2.011
							c-19.959,18.244-39.788,36.861-58.524,56.361C224.063,219.345,225.145,220.413,225.905,219.728L225.905,219.728z"/>
					</g>
				</g>
				<g>
					<g>
						<path style="fill:#404040;" d="M224.213,179.948c7.404,6.68,14.772,13.39,22.269,19.971
							c7.088,6.223,13.992,13.029,21.599,18.604c1.087,0.797,2.316-0.913,1.411-1.828c-6.757-6.835-14.692-12.772-22.031-18.982
							c-7.415-6.276-14.936-12.407-22.431-18.582C224.466,178.665,223.653,179.442,224.213,179.948L224.213,179.948z"/>
					</g>
				</g>
			</g>
		</g>
	</g>
	<g>
		<g>
			<path style="fill:#E85D5D;" d="M134.179,225.653c0.086-19.418-0.183-38.838-0.809-58.246c-0.039-1.206-0.139-2.549-1.028-3.366
				c-0.842-0.774-2.105-0.806-3.249-0.795c-21.266,0.207-42.533,0.415-63.799,0.622c0.62,12.472-0.431,63.336-0.431,63.336
				S116.579,226.171,134.179,225.653z"/>
		</g>
		<g>
			<g>
				<g>
					<path style="fill:#404040;" d="M135.132,225.653c0.278-11.975,0.319-23.946,0.122-35.922
						c-0.096-5.825-0.232-11.648-0.396-17.471c-0.075-2.652,0.656-7.413-1.835-9.382c-2.8-2.213-8.747-0.94-11.904-0.913
						c-5.981,0.052-11.962,0.105-17.944,0.157c-12.627,0.111-25.254,0.221-37.881,0.332c-0.739,0.007-1.45,0.643-1.415,1.415
						c0.951,21.041-0.08,42.287-0.559,63.336c-0.019,0.823,0.722,1.558,1.543,1.543c9.352-0.167,18.705-0.311,28.057-0.501
						c13.643-0.277,27.685,0.325,41.257-1.163c1.8-0.197,1.875-2.763,0-2.859c-13.651-0.704-27.594,0.469-41.257,0.776
						c-9.353,0.21-18.705,0.455-28.057,0.662c0.514,0.514,1.029,1.029,1.543,1.543c0.388-21.054,1.295-42.294,0.303-63.336
						c-0.472,0.472-0.943,0.943-1.415,1.415c10.633-0.114,21.266-0.228,31.9-0.343c5.316-0.057,10.633-0.114,15.95-0.171
						c4.62-0.05,10.444-1.09,14.953-0.161c5.808,1.197,4.152,9.781,4.273,14.445c0.134,5.177,0.236,10.354,0.338,15.531
						c0.204,10.355,0.356,20.712,0.518,31.068C133.245,226.881,135.104,226.881,135.132,225.653z"/>
				</g>
			</g>
			<g>
				<g>
					<path style="fill:#404040;" d="M134.276,223.871c-16.162-16.273-31.706-33.065-47.58-49.603
						c-1.015-1.057-2.524,0.505-1.591,1.591c14.852,17.297,31.425,33.565,48.199,48.984
						C133.953,225.44,134.903,224.502,134.276,223.871L134.276,223.871z"/>
				</g>
			</g>
			<g>
				<g>
					<path style="fill:#404040;" d="M121.071,177.403c-7.418,6.624-14.903,13.174-22.294,19.829
						c-7.305,6.578-15.432,12.82-22.02,20.103c-0.7,0.774,0.248,2.231,1.183,1.534c7.693-5.731,14.512-13.003,21.582-19.487
						c7.567-6.939,15.038-13.981,22.576-20.951C122.789,177.792,121.766,176.783,121.071,177.403L121.071,177.403z"/>
				</g>
			</g>
		</g>
	</g>
	<g>
		<g>
			<path style="fill:#E85D5D;" d="M375.489,182.049l0.367,29.82c0.068,8.511,7.003,15.365,15.514,15.335l28.854-0.103
				c8.53-0.03,15.423-6.963,15.404-15.493l-0.097-28.98c-0.018-8.373-6.698-15.209-15.068-15.421l-29.124-0.737
				C382.602,166.249,375.419,173.309,375.489,182.049z"/>
		</g>
		<g>
			<g>
				<g>
					<path style="fill:#404040;" d="M374.872,182.049c-0.215,6.442-0.264,12.878-0.193,19.324c0.07,6.407-0.867,13.901,2.87,19.502
						c4.378,6.563,11.154,7.405,18.33,7.385c7.544-0.021,15.09-0.003,22.634-0.063c7.883-0.063,15.097-3.779,17.508-11.781
						c1.819-6.039,0.692-13.601,0.675-19.79c-0.017-6.281,1.134-14.217-1.273-20.202c-3.016-7.503-9.982-10.229-17.498-10.426
						c-8.44-0.221-16.883-0.519-25.326-0.648c-9.988-0.152-17.897,6.427-18.259,16.701c-0.052,1.478,2.244,1.476,2.297,0
						c0.236-6.625,4.4-12.488,11.008-14.05c2.445-0.578,5.034-0.342,7.523-0.278c6.659,0.17,13.318,0.338,19.978,0.501
						c7.984,0.195,16.264,1.539,18.756,10.672c1.367,5.01,0.533,11.14,0.553,16.255c0.021,5.41,0.293,10.881,0.065,16.286
						c-0.402,9.524-7.563,14.549-16.533,14.587c-6.571,0.028-13.142,0.057-19.713,0.085c-7.101,0.031-14.299,0.481-18.897-6.302
						c-3.759-5.546-2.523-13.999-2.628-20.371c-0.095-5.802-0.308-11.592-0.644-17.385
						C376.061,181.26,374.899,181.25,374.872,182.049z"/>
				</g>
			</g>
			<g>
				<g>
					<path style="fill:#404040;" d="M373.5,163.35c7.976,8.934,17.713,16.482,26.17,24.991c4.044,4.069,8.007,8.221,11.888,12.445
						c4.255,4.632,8.123,9.846,12.685,14.161c0.813,0.769,2.278-0.239,1.607-1.24c-6.613-9.877-16.193-18.597-24.657-26.889
						c-8.457-8.285-17.337-17.522-27.513-23.702C373.531,163.027,373.39,163.228,373.5,163.35L373.5,163.35z"/>
				</g>
			</g>
			<g>
				<g>
					<path style="fill:#404040;" d="M392.131,208.121c5.401-5.03,10.658-10.202,15.723-15.571
						c4.624-4.901,9.736-9.872,13.446-15.519c0.591-0.899-0.705-1.816-1.448-1.117c-5.106,4.802-9.425,10.587-14.241,15.698
						c-4.849,5.146-9.848,10.146-14.972,15.018C389.652,207.568,391.139,209.046,392.131,208.121L392.131,208.121z"/>
				</g>
			</g>
		</g>
	</g>
	<g>
		<g>
			<g>
				<path style="fill:#E85D5D;" d="M127.896,77.592c-9.634-4.047-21.88-0.429-27.768,8.204c-1.034,1.515-1.893,3.179-2.268,4.975
					c-0.436,2.087-0.199,4.276,0.425,6.315c0.714,2.335,1.934,4.515,3.551,6.345c1.5,1.698,3.329,3.087,5.296,4.212
					c7.721,4.415,18.433,4.22,24.757-2.034c5.484-5.423,6.503-14.721,2.482-21.303c-4.021-6.581-12.609-9.921-20.071-7.971"/>
			</g>
			<g>
				<g>
					<path style="fill:#404040;" d="M128.039,77.072c-10.893-4.562-25.067-0.858-30.368,10.477
						c-5.618,12.013,7.209,22.927,18.141,24.232c12.095,1.444,23.139-7.109,22.338-19.782
						c-0.739-11.685-12.929-20.285-24.107-16.599c-0.975,0.321-0.886,2.031,0.257,1.903c9.777-1.098,20.266,3.82,21.091,14.696
						c0.828,10.917-8.495,18.228-18.876,17.275c-11.263-1.033-23.058-12.904-14.578-23.798c5.835-7.495,16.894-10.44,25.815-7.366
						C128.423,78.343,128.66,77.332,128.039,77.072L128.039,77.072z"/>
				</g>
			</g>
			<g>
				<g>
					<path style="fill:#404040;" d="M114.855,92.193c0.47-2.504,1.251-4.845,2.108-7.236c-0.886,0.116-1.773,0.232-2.659,0.348
						c0.021,0.086,0.042,0.173,0.063,0.26c0.105,0.538,0.718,0.786,1.201,0.682c0.635-0.136,0.899-0.421,1.248-0.942
						c1.067-1.593-1.788-3.164-2.512-1.468c-1.04,2.435-1.684,5.016-2.101,7.626C111.929,93.181,114.525,93.949,114.855,92.193
						L114.855,92.193z"/>
				</g>
			</g>
			<g>
				<g>
					<path style="fill:#404040;" d="M120.122,94.102c0.558-1.578,1.116-3.156,1.674-4.733c0.477-1.349,1.236-2.596,0.541-3.961
						c-0.261-0.513-0.911-0.585-1.379-0.362c-1.315,0.628-1.495,2.286-1.913,3.564c-0.52,1.588-1.04,3.177-1.56,4.765
						C116.934,95.059,119.54,95.746,120.122,94.102L120.122,94.102z"/>
				</g>
			</g>
			<g>
				<g>
					<path style="fill:#404040;" d="M105.707,99.487c3.136-0.365,6.273-0.474,9.34,0.428c3.523,1.036,5.849,3.136,8.571,5.438
						c0.76,0.643,2.025-0.17,1.448-1.117c-3.747-6.153-13.211-8.472-19.587-5.593C105.079,98.823,105.267,99.538,105.707,99.487
						L105.707,99.487z"/>
				</g>
			</g>
		</g>
		<g>
			<g>
				<g>
					<path style="fill:#404040;" d="M60.957,124.62c7.526-11.534,14.964-23.118,22.88-34.391
						c7.915-11.273,16.564-21.977,24.617-33.135c0.765-1.059-0.957-2.39-1.816-1.401C97.8,65.872,89.992,77.187,82.354,88.279
						c-7.977,11.583-15.668,23.398-22.53,35.679C59.409,124.7,60.497,125.325,60.957,124.62L60.957,124.62z"/>
				</g>
			</g>
			<g>
				<g>
					<path style="fill:#404040;" d="M58.439,58.165c16.183,22.037,30.398,45.367,45.981,67.788c0.849,1.221,2.805,0.134,2.024-1.183
						C92.545,101.338,75.57,79.468,59.33,57.644C58.939,57.119,58.045,57.627,58.439,58.165L58.439,58.165z"/>
				</g>
			</g>
		</g>
	</g>
	<g>
		<g>
			<g>
				<path style="fill:#404040;" d="M224.219,125.634c8.148-12.027,16.304-24.049,24.614-35.965
					c8.242-11.819,17.753-23.199,25.168-35.539c0.573-0.954-0.805-2.077-1.571-1.212c-9.358,10.583-17.039,23.165-25.088,34.762
					c-8.462,12.191-16.753,24.502-24.756,37C221.926,125.713,223.542,126.633,224.219,125.634L224.219,125.634z"/>
			</g>
		</g>
		<g>
			<g>
				<path style="fill:#404040;" d="M216.583,54.279c11.208,12.368,21.801,25.085,32.201,38.142
					c10.194,12.798,20.713,26.407,33.7,36.526c0.977,0.761,2.36-0.504,1.403-1.403c-12.19-11.459-23.226-23.45-33.779-36.446
					c-10.409-12.819-20.505-26.443-33.06-37.282C216.728,53.54,216.297,53.964,216.583,54.279L216.583,54.279z"/>
			</g>
		</g>
	</g>
	<g>
		<g>
			<g>
				<path style="fill:#404040;" d="M363.455,123.675c17.027-25.745,38.807-47.525,60.314-69.46
					c-0.393-0.393-0.785-0.785-1.178-1.178c-19.649,24.346-40.51,47.787-59.761,72.445c-0.621,0.795,0.443,1.934,1.138,1.138
					c20.564-23.572,39.621-48.499,59.801-72.405c0.683-0.809-0.395-1.935-1.178-1.178c-22.132,21.405-42.713,44.582-59.675,70.323
					C362.693,123.697,363.234,124.009,363.455,123.675L363.455,123.675z"/>
			</g>
		</g>
		<g>
			<g>
				<path style="fill:#404040;" d="M413.066,127.831c-16.025-20.139-30.201-41.745-42.311-64.453
					c-0.551,0.425-1.101,0.85-1.652,1.275c9.626,8.043,16.456,19.116,23.429,29.409c7.093,10.469,13.68,21.239,20.449,31.915
					c0.66,1.042,2.271,0.113,1.66-0.97c-6.517-11.539-13.86-22.651-21.325-33.593c-6.759-9.906-13.405-20.524-22.724-28.248
					c-0.895-0.742-2.245,0.173-1.652,1.275c12.291,22.83,26.749,44.265,43.298,64.219
					C412.723,129.245,413.529,128.412,413.066,127.831L413.066,127.831z"/>
			</g>
		</g>
	</g>
	<g>
		<g>
			<g>
				<path style="fill:#ACD964;" d="M219.874,408.529c0.704,4.78,4.117,9.378,6.541,13.472c2.74,4.627,5.479,9.254,8.219,13.882
					c1.704,2.878,5.168,2.897,7.541,0.972c5.093-4.131,8.873-10.472,12.976-15.578c4.442-5.527,8.971-10.984,13.585-16.368
					c4.414-5.151,8.918-10.221,13.469-15.251c4.651-5.14,9.43-9.977,12.673-16.156c1.749-3.333-1.821-7.223-5.246-5.246
					c-11.715,6.762-20.618,19.386-29.286,29.567c-4.398,5.165-8.717,10.397-12.956,15.693c-4.316,5.393-10.016,11.14-12.756,17.521
					c2.764,0,5.528,0,8.292,0c-3.208-4.72-6.415-9.44-9.623-14.16c-2.7-3.974-5.386-8.737-9.443-11.411
					C221.661,404.013,219.56,406.403,219.874,408.529L219.874,408.529z"/>
			</g>
		</g>
		<g>
			<g>
				<g>
					<path style="fill:#404040;" d="M255.655,387.788c-15.742,0.023-31.474,0.542-47.208,0.983
						c-0.736,0.021-1.353,0.605-1.357,1.357c-0.054,10.61-0.003,21.22,0.173,31.829c0.091,5.465,0.213,10.929,0.367,16.393
						c0.068,2.394-0.494,6.172,1.592,7.989c2.488,2.168,7.736,1,10.656,0.979c5.573-0.038,11.146-0.077,16.719-0.115
						c11.146-0.077,22.293-0.112,33.439-0.206c0.851-0.007,1.667-0.74,1.628-1.628c-0.499-11.169,0.619-22.349,0.195-33.471
						c-0.059-1.539-2.527-2.05-2.824-0.382c-1.94,10.913-1.151,22.83-0.626,33.853c0.543-0.543,1.085-1.085,1.628-1.628
						c-9.179,0.102-18.358,0.256-27.538,0.371c-4.59,0.058-9.179,0.116-13.769,0.174c-4.511,0.057-10.363,1.148-14.752,0.186
						c-5.1-1.118-3.587-8.656-3.697-12.873c-0.117-4.5-0.213-9-0.288-13.501c-0.154-9.323-0.211-18.647-0.188-27.971
						c-0.452,0.452-0.905,0.905-1.357,1.357c15.741-0.483,31.484-0.89,47.208-1.791C256.87,389.625,256.892,387.787,255.655,387.788
						L255.655,387.788z"/>
				</g>
			</g>
			<g>
				<g>
					<path style="fill:#404040;" d="M221.755,408.237c4.236,9.063,10.447,17.49,15.723,25.982c0.483,0.778,1.704,1.056,2.366,0.305
						c8.946-10.142,16.827-21.284,25.617-31.586c8.804-10.319,18.451-19.964,26.956-30.521c0.962-1.194-0.516-2.738-1.701-1.701
						c-10.39,9.083-19.375,19.987-28.298,30.484c-8.581,10.095-17.761,20.337-24.94,31.499c0.867,0,1.735,0,2.602,0
						c-5.497-8.472-10.52-17.725-16.988-25.493C222.433,406.412,221.374,407.422,221.755,408.237L221.755,408.237z"/>
				</g>
			</g>
		</g>
	</g>
	<g>
		<g>
			<path style="fill:#ACD964;" d="M72.562,390.129c-0.077,17.362,0.164,34.725,0.723,52.078c0.035,1.078,0.124,2.279,0.919,3.009
				c0.753,0.692,1.882,0.721,2.905,0.711c19.014-0.185,38.028-0.371,57.042-0.556c-0.555-11.151,0.385-56.628,0.385-56.628
				S88.298,389.666,72.562,390.129z"/>
		</g>
		<g>
			<g>
				<g>
					<path style="fill:#404040;" d="M71.609,390.129c-0.27,10.61-0.32,21.217-0.153,31.829c0.086,5.465,0.215,10.929,0.37,16.393
						c0.067,2.358-0.497,6.129,1.561,7.924c2.467,2.152,7.714,0.969,10.606,0.944c5.573-0.048,11.146-0.096,16.719-0.144
						c11.146-0.096,22.292-0.193,33.438-0.289c0.739-0.006,1.449-0.643,1.415-1.415c-0.841-18.814,0.081-37.808,0.513-56.628
						c0.019-0.823-0.722-1.557-1.543-1.543c-8.362,0.147-16.724,0.271-25.086,0.439c-12.176,0.245-24.788-0.381-36.888,1.061
						c-1.796,0.214-1.878,2.744,0,2.859c12.178,0.745,24.692-0.398,36.888-0.673c8.362-0.189,16.724-0.413,25.086-0.601
						c-0.514-0.514-1.029-1.029-1.543-1.543c-0.342,18.826-1.14,37.813-0.257,56.628c0.472-0.472,0.943-0.943,1.415-1.415
						c-9.179,0.1-18.358,0.199-27.538,0.299c-4.59,0.05-9.179,0.1-13.769,0.15c-4.519,0.049-10.354,1.121-14.752,0.16
						c-5.187-1.133-3.666-8.697-3.776-12.964c-0.116-4.5-0.203-9-0.296-13.501c-0.192-9.323-0.337-18.647-0.504-27.971
						C73.493,388.901,71.641,388.901,71.609,390.129z"/>
				</g>
			</g>
			<g>
				<g>
					<path style="fill:#404040;" d="M85.871,408.237c4.109,9.038,10.281,17.673,15.547,26.086c0.737,1.177,2.19,1.018,2.955,0
						c11.008-14.638,21.088-29.776,31.196-44.978c0.854-1.285-1.215-2.483-2.064-1.206c-2.814,4.232-6.994,9.4-10.158,13.97
						c-7.126,10.293-14.411,20.476-21.928,30.487c0.985,0,1.97,0,2.955,0c-5.435-8.437-10.655-17.742-17.164-25.39
						C86.535,406.415,85.5,407.422,85.871,408.237L85.871,408.237z"/>
				</g>
			</g>
		</g>
	</g>
	<g>
		<g>
			<path style="fill:#ACD964;" d="M353.23,405.632l0.327,26.611c0.061,7.595,6.249,13.712,13.844,13.685l25.748-0.092
				c7.612-0.027,13.763-6.214,13.746-13.825l-0.086-25.861c-0.016-7.471-5.977-13.572-13.447-13.761l-25.989-0.658
				C359.578,391.533,353.168,397.833,353.23,405.632z"/>
		</g>
		<g>
			<g>
				<g>
					<path style="fill:#404040;" d="M352.613,405.632c-0.236,6.064-0.286,12.122-0.216,18.191
						c0.069,5.886-0.671,12.271,3.101,17.263c4.064,5.38,9.93,5.922,16.114,5.905c6.79-0.019,13.587,0.045,20.376-0.055
						c7.003-0.103,13.402-3.645,15.439-10.759c1.545-5.397,0.564-12.073,0.549-17.594c-0.015-5.583,1.031-12.679-1.128-18.011
						c-2.717-6.713-8.94-9.216-15.697-9.393c-7.533-0.198-15.071-0.483-22.606-0.579c-9.038-0.116-16.098,5.738-16.473,15.034
						c-0.06,1.488,2.252,1.485,2.313,0c0.393-9.646,8.157-12.865,16.501-12.651c5.813,0.148,11.626,0.296,17.44,0.437
						c7.428,0.181,15.341,1.435,17.112,10.305c0.88,4.407,0.266,9.418,0.283,13.868c0.019,4.753,0.228,9.546,0.058,14.296
						c-0.306,8.572-6.905,12.827-14.821,12.861c-5.771,0.025-11.542,0.051-17.313,0.076c-6.365,0.028-13.094,0.419-17.02-5.836
						c-3.126-4.981-2.051-12.431-2.153-18.062c-0.092-5.105-0.302-10.2-0.626-15.295
						C353.797,404.843,352.644,404.833,352.613,405.632z"/>
				</g>
			</g>
			<g>
				<g>
					<path style="fill:#404040;" d="M361.641,408.176c4.833,8.682,10.208,17.256,14.588,26.17c0.37,0.753,1.576,0.9,2.126,0.274
						c8.965-10.221,17.22-21.14,25.758-31.72c4.174-5.172,8.348-10.344,12.522-15.516c3.998-4.954,8.43-9.817,11.621-15.348
						c0.539-0.934-0.687-1.829-1.46-1.127c-4.885,4.437-8.798,9.986-12.925,15.113c-4.377,5.436-8.754,10.872-13.131,16.309
						c-8.19,10.172-16.742,20.151-24.51,30.65c0.779,0,1.558,0,2.337,0c-5.665-8.16-10.55-17.023-15.792-25.467
						C362.329,406.796,361.228,407.435,361.641,408.176L361.641,408.176z"/>
				</g>
			</g>
		</g>
	</g>
	<g>
		<g>
			<path style="fill:#404040;" d="M214.532,295.612c6.99,14.32,15.261,27.766,23.036,41.638c0.496,0.886,1.843,0.876,2.342,0
				c7.22-12.681,13.77-25.668,21.447-38.105c7.663-12.414,16.094-24.281,24.292-36.338c0.753-1.108-1.022-2.511-1.877-1.449
				c-9.013,11.196-16.941,23.277-24.504,35.487c-7.78,12.561-15.683,25.517-21.7,39.035c0.781,0,1.561,0,2.342,0
				c-9.211-12.787-16.652-27.192-23.679-41.263C215.665,293.482,213.979,294.479,214.532,295.612L214.532,295.612z"/>
		</g>
	</g>
	<g>
		<g>
			<g>
				<path style="fill:#404040;" d="M71.638,306.624c1.608,8.816,4.506,17.545,6.836,26.196c0.372,1.382,2.235,1.243,2.667,0
					c9.307-26.768,30.34-45.694,44.115-69.844c0.827-1.45-1.307-3.269-2.403-1.854c-0.65,0.839-1.27,1.652-1.899,2.507
					c-0.897,1.218,0.978,2.456,2,1.543c0.702-0.613,1.39-1.241,2.063-1.887c-0.801-0.618-1.602-1.236-2.403-1.854
					c-14.599,23.167-36.494,43.743-44.139,70.653c0.889,0,1.778,0,2.667,0c-2.44-8.623-4.431-17.601-7.574-25.993
					C73.115,304.886,71.406,305.351,71.638,306.624L71.638,306.624z"/>
			</g>
		</g>
		<g>
			<g>
				<path style="fill:#ACD964;" d="M133.441,303.602c-9.601-4.033-21.804-0.427-27.672,8.176c-1.03,1.51-1.886,3.168-2.26,4.958
					c-0.435,2.08-0.198,4.261,0.423,6.293c0.712,2.327,1.927,4.499,3.539,6.323c1.495,1.692,3.318,3.077,5.278,4.197
					c7.695,4.399,18.369,4.205,24.672-2.027c5.465-5.404,6.481-14.67,2.473-21.229c-4.007-6.559-12.565-9.887-20.001-7.943"/>
			</g>
			<g>
				<g>
					<path style="fill:#404040;" d="M133.585,303.082c-10.857-4.548-24.983-0.857-30.267,10.441
						c-5.6,11.975,7.185,22.854,18.082,24.155c12.056,1.439,23.064-7.087,22.265-19.718c-0.736-11.646-12.888-20.223-24.029-16.545
						c-0.975,0.322-0.886,2.031,0.257,1.903c9.741-1.091,20.191,3.805,21.013,14.642c0.825,10.877-8.463,18.16-18.806,17.211
						c-11.22-1.029-22.973-12.855-14.524-23.709c5.813-7.467,16.834-10.403,25.722-7.341
						C133.969,304.353,134.205,303.342,133.585,303.082L133.585,303.082z"/>
				</g>
			</g>
			<g>
				<g>
					<path style="fill:#404040;" d="M120.45,318.154c0.469-2.495,1.248-4.828,2.101-7.211c-0.886,0.116-1.772,0.232-2.659,0.348
						c0.021,0.086,0.042,0.171,0.063,0.257c0.107,0.539,0.716,0.785,1.201,0.682c0.635-0.134,0.898-0.42,1.247-0.939
						c1.07-1.591-1.788-3.164-2.512-1.468c-1.036,2.427-1.679,5-2.094,7.601C117.524,319.141,120.121,319.91,120.45,318.154
						L120.45,318.154z"/>
				</g>
			</g>
			<g>
				<g>
					<path style="fill:#404040;" d="M125.699,320.056c0.556-1.572,1.113-3.145,1.669-4.717c0.475-1.344,1.235-2.591,0.538-3.95
						c-0.264-0.513-0.909-0.584-1.379-0.362c-1.314,0.622-1.493,2.281-1.91,3.553c-0.518,1.583-1.036,3.166-1.554,4.748
						C122.511,321.013,125.117,321.7,125.699,320.056L125.699,320.056z"/>
				</g>
			</g>
			<g>
				<g>
					<path style="fill:#404040;" d="M113.227,317.055c-2.808,6.214,1.115,13.26,7.861,14.328c5.102,0.808,13.025-3.67,11.64-9.707
						c-0.163-0.712-1.176-0.802-1.528-0.2c-0.925,1.586-1.199,3.413-2.434,4.855c-1.57,1.833-3.886,2.923-6.305,2.884
						c-6.221-0.099-9.106-6.084-7.82-11.564C114.831,316.841,113.604,316.221,113.227,317.055L113.227,317.055z"/>
				</g>
			</g>
		</g>
	</g>
	<g>
		<g>
			<path style="fill:#404040;" d="M381.642,336.093c-10.124-13.372-18.414-28.184-24.773-43.692
				c-0.714,0.416-1.427,0.831-2.141,1.247c10.29,11.247,18.373,24.108,23.93,38.308c0.395,1.01,1.908,1.466,2.503,0.327
				c13.76-26.343,32.314-49.758,54.889-69.094c-0.728-0.562-1.456-1.123-2.184-1.685c-8.962,12.45-18.034,24.819-27.117,37.181
				c-9.044,12.309-18.738,24.399-26.989,37.256c-0.747,1.165,1.057,2.617,1.951,1.505c9.462-11.772,17.953-24.445,26.897-36.619
				c9.263-12.608,18.519-25.221,27.659-37.919c0.977-1.357-1.06-2.648-2.184-1.685c-22.722,19.462-41.531,43.106-55.288,69.679
				c0.834,0.109,1.669,0.218,2.503,0.327c-5.775-14.601-14.071-27.883-24.759-39.392c-0.821-0.884-2.647,0.038-2.141,1.246
				c6.625,15.82,15.203,30.349,25.625,43.957C380.745,337.982,382.372,337.058,381.642,336.093L381.642,336.093z"/>
		</g>
	</g>
</g>
</svg>
