<svg width="73" height="78" viewBox="0 0 73 78" fill="none" xmlns="http://www.w3.org/2000/svg">
<path d="M0.637747 46.6239C2.24575 55.4399 5.14375 64.1689 7.47375 72.8199C7.84575 74.2019 9.70875 74.0629 10.1407 72.8199C19.4477 46.0519 40.4807 27.1259 54.2557 2.97594C55.0827 1.52594 52.9487 -0.29306 51.8527 1.12194C51.2027 1.96094 50.5828 2.77393 49.9538 3.62893C49.0568 4.84693 50.9318 6.08493 51.9538 5.17193C52.6558 4.55893 53.3437 3.93093 54.0167 3.28493C53.2157 2.66693 52.4147 2.04893 51.6137 1.43093C37.0147 24.5979 15.1197 45.1739 7.47474 72.0839C8.36374 72.0839 9.25274 72.0839 10.1417 72.0839C7.70174 63.4609 5.71075 54.4829 2.56775 46.0909C2.11475 44.8859 0.405747 45.3509 0.637747 46.6239Z" fill="#404040"/>
<path d="M62.4408 43.602C52.8398 39.569 40.6368 43.175 34.7688 51.778C33.7388 53.288 32.8828 54.946 32.5088 56.736C32.0738 58.816 32.3108 60.997 32.9318 63.029C33.6438 65.356 34.8588 67.528 36.4708 69.352C37.9658 71.044 39.7888 72.429 41.7488 73.549C49.4438 77.948 60.1178 77.754 66.4208 71.522C71.8858 66.118 72.9018 56.852 68.8938 50.293C64.8868 43.734 56.3288 40.406 48.8928 42.35" fill="#ACD964"/>
<path d="M62.5849 43.082C51.7279 38.534 37.6019 42.225 32.3179 53.523C26.7179 65.498 39.5029 76.377 50.3999 77.678C62.4559 79.117 73.4639 70.591 72.6649 57.96C71.9289 46.314 59.7769 37.737 48.6359 41.415C47.6609 41.737 47.7499 43.446 48.8929 43.318C58.6339 42.227 69.0839 47.123 69.9059 57.96C70.7309 68.837 61.4429 76.12 51.0999 75.171C39.8799 74.142 28.1269 62.316 36.5759 51.462C42.3889 43.995 53.4099 41.059 62.2979 44.121C62.9689 44.353 63.2049 43.342 62.5849 43.082Z" fill="#404040"/>
<path d="M49.4499 58.154C49.9189 55.659 50.6979 53.326 51.5509 50.943C50.6649 51.059 49.7789 51.175 48.8919 51.291C48.9129 51.377 48.9339 51.462 48.9549 51.548C49.0619 52.087 49.6709 52.333 50.1559 52.23C50.7909 52.096 51.0539 51.81 51.4029 51.291C52.4729 49.7 49.6149 48.127 48.8909 49.823C47.8549 52.25 47.2119 54.823 46.7969 57.424C46.5239 59.141 49.1209 59.91 49.4499 58.154Z" fill="#404040"/>
<path d="M54.6991 60.056C55.2551 58.484 55.8121 56.911 56.3681 55.339C56.8431 53.995 57.6031 52.748 56.9061 51.389C56.6421 50.876 55.9971 50.805 55.5271 51.027C54.2131 51.649 54.0341 53.308 53.6171 54.58C53.0991 56.163 52.5811 57.746 52.0631 59.328C51.5111 61.013 54.1171 61.7 54.6991 60.056Z" fill="#404040"/>
<path d="M42.2268 57.055C39.4188 63.269 43.3418 70.315 50.0878 71.383C55.1898 72.191 63.1128 67.713 61.7278 61.676C61.5648 60.964 60.5518 60.874 60.1998 61.476C59.2748 63.062 59.0008 64.889 57.7658 66.331C56.1958 68.164 53.8798 69.254 51.4608 69.215C45.2398 69.116 42.3548 63.131 43.6408 57.651C43.8308 56.841 42.6038 56.221 42.2268 57.055Z" fill="#404040"/>
</svg>
