<svg width="43" height="38" viewBox="0 0 43 38" fill="none" xmlns="http://www.w3.org/2000/svg">
<path d="M32.4408 3.60197C22.8398 -0.431034 10.6368 3.17499 4.76875 11.778C3.73875 13.288 2.88276 14.946 2.50876 16.736C2.07376 18.816 2.31076 20.997 2.93176 23.029C3.64376 25.356 4.85876 27.528 6.47076 29.352C7.96576 31.044 9.78876 32.429 11.7488 33.549C19.4438 37.948 30.1178 37.754 36.4208 31.522C41.8858 26.118 42.9018 16.852 38.8938 10.293C34.8868 3.73398 26.3288 0.405982 18.8928 2.34998" fill="#ACD964"/>
<path d="M32.5849 3.08198C21.7279 -1.46602 7.60189 2.22499 2.31789 13.523C-3.28211 25.498 9.50289 36.377 20.3999 37.678C32.4559 39.117 43.4639 30.591 42.6649 17.96C41.9289 6.31397 29.7769 -2.26301 18.6359 1.41499C17.6609 1.73699 17.7499 3.44597 18.8929 3.31797C28.6339 2.22697 39.0839 7.12297 39.9059 17.96C40.7309 28.837 31.4429 36.12 21.0999 35.171C9.87989 34.142 -1.87312 22.316 6.57588 11.462C12.3889 3.99499 23.4099 1.05898 32.2979 4.12098C32.9689 4.35298 33.2049 3.34198 32.5849 3.08198Z" fill="#404040"/>
<path d="M19.4499 18.154C19.9189 15.659 20.6979 13.326 21.5509 10.943C20.6649 11.059 19.7789 11.175 18.8919 11.291C18.9129 11.377 18.9339 11.462 18.9549 11.548C19.0619 12.087 19.6709 12.333 20.1559 12.23C20.7909 12.096 21.0539 11.81 21.4029 11.291C22.4729 9.69997 19.6149 8.12698 18.8909 9.82298C17.8549 12.25 17.2119 14.823 16.7969 17.424C16.5239 19.141 19.1209 19.91 19.4499 18.154Z" fill="#404040"/>
<path d="M24.6991 20.056C25.2551 18.484 25.8121 16.911 26.3681 15.339C26.8431 13.995 27.6031 12.748 26.9061 11.389C26.6421 10.876 25.9971 10.805 25.5271 11.027C24.2131 11.649 24.0341 13.308 23.6171 14.58C23.0991 16.163 22.5811 17.746 22.0631 19.328C21.5111 21.013 24.1171 21.7 24.6991 20.056Z" fill="#404040"/>
<path d="M12.2268 17.055C9.41879 23.269 13.3418 30.315 20.0878 31.383C25.1898 32.191 33.1128 27.713 31.7278 21.676C31.5648 20.964 30.5518 20.874 30.1998 21.476C29.2748 23.062 29.0008 24.889 27.7658 26.331C26.1958 28.164 23.8798 29.254 21.4608 29.215C15.2398 29.116 12.3548 23.131 13.6408 17.651C13.8308 16.841 12.6038 16.221 12.2268 17.055Z" fill="#404040"/>
</svg>
