<svg width="97" height="71" viewBox="0 0 97 71" fill="none" xmlns="http://www.w3.org/2000/svg">
<path d="M36.179 70.893L0 42.864L36.179 42.923V70.893Z" fill="#EFA1CA"/>
<path d="M0 42.864L25.075 8.95501H67.702V0L96.97 25.612L67.881 51.224V42.923L0 42.864Z" fill="#FED0EE"/>
<path d="M49.3402 34.7186C47.7756 34.7186 46.3748 34.3365 45.1377 33.5724C43.9006 32.7902 42.9273 31.6622 42.2178 30.1886C41.5083 28.7151 41.1536 26.9322 41.1536 24.8401C41.1536 22.7479 41.5083 20.9651 42.2178 19.4915C42.9273 18.0179 43.9006 16.899 45.1377 16.135C46.3748 15.3527 47.7756 14.9616 49.3402 14.9616C50.9229 14.9616 52.3237 15.3527 53.5426 16.135C54.7797 16.899 55.753 18.0179 56.4625 19.4915C57.172 20.9651 57.5268 22.7479 57.5268 24.8401C57.5268 26.9322 57.172 28.7151 56.4625 30.1886C55.753 31.6622 54.7797 32.7902 53.5426 33.5724C52.3237 34.3365 50.9229 34.7186 49.3402 34.7186ZM49.3402 30.98C50.0861 30.98 50.7319 30.7708 51.2777 30.3524C51.8416 29.934 52.2783 29.2699 52.5875 28.3603C52.915 27.4507 53.0787 26.2773 53.0787 24.8401C53.0787 23.4029 52.915 22.2294 52.5875 21.3198C52.2783 20.4102 51.8416 19.7462 51.2777 19.3277C50.7319 18.9093 50.0861 18.7001 49.3402 18.7001C48.6125 18.7001 47.9666 18.9093 47.4027 19.3277C46.8569 19.7462 46.4203 20.4102 46.0928 21.3198C45.7836 22.2294 45.6289 23.4029 45.6289 24.8401C45.6289 26.2773 45.7836 27.4507 46.0928 28.3603C46.4203 29.2699 46.8569 29.934 47.4027 30.3524C47.9666 30.7708 48.6125 30.98 49.3402 30.98ZM59.4044 34.3911V31.5258L66.7723 24.5672C67.3545 24.0396 67.782 23.5666 68.0549 23.1482C68.3278 22.7297 68.5097 22.3477 68.6007 22.002C68.7098 21.6564 68.7644 21.338 68.7644 21.0469C68.7644 20.2828 68.5006 19.7007 67.973 19.3005C67.4636 18.882 66.7087 18.6728 65.7081 18.6728C64.9076 18.6728 64.1617 18.8274 63.4704 19.1367C62.7973 19.446 62.2242 19.9281 61.7512 20.583L58.5311 18.5091C59.2588 17.4175 60.2776 16.5534 61.5875 15.9167C62.8973 15.2799 64.4073 14.9616 66.1174 14.9616C67.5364 14.9616 68.7735 15.1981 69.8287 15.6711C70.902 16.1259 71.7298 16.7717 72.3119 17.6086C72.9123 18.4454 73.2125 19.446 73.2125 20.6103C73.2125 21.2289 73.1306 21.8474 72.9669 22.4659C72.8213 23.0663 72.5121 23.703 72.039 24.3762C71.5842 25.0493 70.9111 25.8043 70.0197 26.6411L63.907 32.399L63.0611 30.789H73.8401V34.3911H59.4044Z" fill="white"/>
<path d="M45.1377 33.5724L45.0201 33.7584L45.0221 33.7597L45.1377 33.5724ZM42.2178 30.1886L42.0196 30.2841L42.2178 30.1886ZM42.2178 19.4915L42.4161 19.5869L42.4161 19.5869L42.2178 19.4915ZM45.1377 16.135L45.2534 16.3222L45.2553 16.3209L45.1377 16.135ZM53.5426 16.135L53.4238 16.3202L53.427 16.3222L53.5426 16.135ZM56.4625 19.4915L56.2643 19.5869L56.2643 19.5869L56.4625 19.4915ZM56.4625 30.1886L56.2643 30.0932L56.2643 30.0932L56.4625 30.1886ZM53.5426 33.5724L53.6595 33.7589L53.6602 33.7584L53.5426 33.5724ZM51.2777 30.3524L51.1465 30.1756L51.1438 30.1777L51.2777 30.3524ZM52.5875 28.3603L52.3805 28.2858L52.3792 28.2895L52.5875 28.3603ZM52.5875 21.3198L52.3792 21.3907L52.3805 21.3944L52.5875 21.3198ZM51.2777 19.3277L51.1438 19.5024L51.1466 19.5045L51.2777 19.3277ZM47.4027 19.3277L47.2715 19.151L47.2688 19.1531L47.4027 19.3277ZM46.0928 21.3198L45.8857 21.2453L45.8845 21.249L46.0928 21.3198ZM46.0928 28.3603L45.8845 28.4311L45.8858 28.4348L46.0928 28.3603ZM47.4027 30.3524L47.2688 30.527L47.2716 30.5291L47.4027 30.3524ZM49.3402 34.4985C47.8132 34.4985 46.453 34.1262 45.2534 33.3852L45.0221 33.7597C46.2966 34.5468 47.738 34.9386 49.3402 34.9386V34.4985ZM45.2553 33.3865C44.0571 32.6287 43.1099 31.5341 42.4161 30.0932L42.0196 30.2841C42.7448 31.7903 43.7442 32.9516 45.0201 33.7584L45.2553 33.3865ZM42.4161 30.0932C41.7244 28.6565 41.3736 26.9081 41.3736 24.8401H40.9335C40.9335 26.9563 41.2923 28.7736 42.0196 30.2841L42.4161 30.0932ZM41.3736 24.8401C41.3736 22.7721 41.7244 21.0236 42.4161 19.5869L42.0196 19.396C41.2923 20.9065 40.9335 22.7238 40.9335 24.8401H41.3736ZM42.4161 19.5869C43.1097 18.1463 44.0563 17.0615 45.2534 16.3222L45.0221 15.9477C43.7449 16.7366 42.7449 17.8894 42.0196 19.396L42.4161 19.5869ZM45.2553 16.3209C46.4548 15.5625 47.8143 15.1816 49.3402 15.1816V14.7415C47.737 14.7415 46.2948 15.1429 45.0201 15.949L45.2553 16.3209ZM49.3402 15.1816C50.8849 15.1816 52.2436 15.5627 53.4238 16.3202L53.6615 15.9498C52.4039 15.1426 50.961 14.7415 49.3402 14.7415V15.1816ZM53.427 16.3222C54.624 17.0615 55.5706 18.1463 56.2643 19.5869L56.6608 19.396C55.9354 17.8894 54.9354 16.7366 53.6583 15.9477L53.427 16.3222ZM56.2643 19.5869C56.956 21.0236 57.3067 22.7721 57.3067 24.8401H57.7468C57.7468 22.7238 57.3881 20.9065 56.6608 19.396L56.2643 19.5869ZM57.3067 24.8401C57.3067 26.9081 56.956 28.6565 56.2643 30.0932L56.6608 30.2841C57.3881 28.7736 57.7468 26.9563 57.7468 24.8401H57.3067ZM56.2643 30.0932C55.5705 31.5341 54.6233 32.6287 53.425 33.3865L53.6602 33.7584C54.9362 32.9516 55.9356 31.7903 56.6608 30.2841L56.2643 30.0932ZM53.4258 33.386C52.2454 34.126 50.8859 34.4985 49.3402 34.4985V34.9386C50.96 34.9386 52.4021 34.5471 53.6595 33.7589L53.4258 33.386ZM49.3402 31.2001C50.1301 31.2001 50.8241 30.9774 51.4116 30.527L51.1438 30.1777C50.6398 30.5642 50.042 30.76 49.3402 30.76V31.2001ZM51.4088 30.5291C52.0197 30.0759 52.4774 29.3679 52.7959 28.4311L52.3792 28.2895C52.0792 29.172 51.6636 29.792 51.1466 30.1757L51.4088 30.5291ZM52.7946 28.4348C53.1338 27.4927 53.2988 26.2915 53.2988 24.8401H52.8587C52.8587 26.263 52.6962 27.4087 52.3805 28.2858L52.7946 28.4348ZM53.2988 24.8401C53.2988 23.3886 53.1338 22.1874 52.7946 21.2453L52.3805 21.3944C52.6962 22.2714 52.8587 23.4171 52.8587 24.8401H53.2988ZM52.7959 21.249C52.4774 20.3122 52.0197 19.6043 51.4088 19.151L51.1466 19.5045C51.6636 19.8881 52.0792 20.5082 52.3792 21.3907L52.7959 21.249ZM51.4116 19.1531C50.8241 18.7027 50.1301 18.4801 49.3402 18.4801V18.9202C50.042 18.9202 50.6398 19.1159 51.1438 19.5024L51.4116 19.1531ZM49.3402 18.4801C48.5671 18.4801 47.8749 18.7034 47.2716 19.151L47.5338 19.5045C48.0584 19.1152 48.6579 18.9202 49.3402 18.9202V18.4801ZM47.2688 19.1531C46.6786 19.6056 46.222 20.3114 45.8858 21.2453L46.2999 21.3944C46.6186 20.509 47.0353 19.8867 47.5366 19.5024L47.2688 19.1531ZM45.8845 21.249C45.5646 22.1897 45.4089 23.3895 45.4089 24.8401H45.849C45.849 23.4162 46.0025 22.2691 46.3012 21.3907L45.8845 21.249ZM45.4089 24.8401C45.4089 26.2906 45.5646 27.4904 45.8845 28.4311L46.3012 28.2895C46.0025 27.411 45.849 26.2639 45.849 24.8401H45.4089ZM45.8858 28.4348C46.222 29.3687 46.6786 30.0745 47.2688 30.527L47.5366 30.1777C47.0353 29.7934 46.6186 29.1711 46.2999 28.2858L45.8858 28.4348ZM47.2716 30.5291C47.8749 30.9767 48.5671 31.2001 49.3402 31.2001V30.76C48.6579 30.76 48.0584 30.5649 47.5338 30.1757L47.2716 30.5291ZM59.4044 34.3911H59.1843V34.6112H59.4044V34.3911ZM59.4044 31.5258L59.2533 31.3658L59.1843 31.4309V31.5258H59.4044ZM66.7723 24.5672L66.6245 24.4041L66.6212 24.4072L66.7723 24.5672ZM68.0549 23.1482L68.2392 23.2684L68.2392 23.2684L68.0549 23.1482ZM68.6007 22.002L68.3906 21.9357L68.3879 21.946L68.6007 22.002ZM67.973 19.3005L67.8333 19.4706L67.84 19.4758L67.973 19.3005ZM63.4704 19.1367L63.3805 18.9358L63.3785 18.9368L63.4704 19.1367ZM61.7512 20.583L61.6321 20.768L61.8075 20.881L61.9296 20.7119L61.7512 20.583ZM58.5311 18.5091L58.348 18.387L58.224 18.573L58.412 18.6941L58.5311 18.5091ZM61.5875 15.9167L61.4913 15.7187L61.4913 15.7187L61.5875 15.9167ZM69.8287 15.6711L69.7386 15.8719L69.7428 15.8737L69.8287 15.6711ZM72.3119 17.6086L72.1313 17.7342L72.1331 17.7368L72.3119 17.6086ZM72.9669 22.4659L72.7541 22.4096L72.753 22.4141L72.9669 22.4659ZM72.039 24.3762L71.859 24.2496L71.8567 24.253L72.039 24.3762ZM70.0197 26.6411L69.8691 26.4807L69.8688 26.4809L70.0197 26.6411ZM63.907 32.399L63.7122 32.5014L63.847 32.7579L64.0579 32.5592L63.907 32.399ZM63.0611 30.789V30.5689H62.6969L62.8663 30.8913L63.0611 30.789ZM73.8401 30.789H74.0602V30.5689H73.8401V30.789ZM73.8401 34.3911V34.6112H74.0602V34.3911H73.8401ZM59.6244 34.3911V31.5258H59.1843V34.3911H59.6244ZM59.5555 31.6858L66.9234 24.7272L66.6212 24.4072L59.2533 31.3658L59.5555 31.6858ZM66.9201 24.7302C67.5092 24.1963 67.9519 23.7089 68.2392 23.2684L67.8706 23.028C67.6121 23.4243 67.1997 23.8829 66.6246 24.4041L66.9201 24.7302ZM68.2392 23.2684C68.5203 22.8374 68.7147 22.4335 68.8135 22.058L68.3879 21.946C68.3048 22.2618 68.1353 22.622 67.8706 23.028L68.2392 23.2684ZM68.8105 22.0683C68.9248 21.7062 68.9845 21.3652 68.9845 21.0469H68.5444C68.5444 21.3108 68.4948 21.6065 68.3908 21.9358L68.8105 22.0683ZM68.9845 21.0469C68.9845 20.226 68.6974 19.5737 68.106 19.1251L67.84 19.4758C68.3039 19.8276 68.5444 20.3397 68.5444 21.0469H68.9845ZM68.1127 19.1304C67.5481 18.6666 66.7344 18.4528 65.7081 18.4528V18.8929C66.683 18.8929 67.3792 19.0974 67.8334 19.4705L68.1127 19.1304ZM65.7081 18.4528C64.8784 18.4528 64.1017 18.6132 63.3805 18.9359L63.5603 19.3376C64.2217 19.0417 64.9368 18.8929 65.7081 18.8929V18.4528ZM63.3785 18.9368C62.6678 19.2633 62.066 19.7714 61.5728 20.4542L61.9296 20.7119C62.3824 20.0848 62.9267 19.6287 63.5623 19.3367L63.3785 18.9368ZM61.8704 20.398L58.6503 18.3241L58.412 18.6941L61.6321 20.768L61.8704 20.398ZM58.7142 18.6311C59.4179 17.5756 60.405 16.7361 61.6837 16.1146L61.4913 15.7187C60.1502 16.3707 59.0998 17.2594 58.348 18.387L58.7142 18.6311ZM61.6837 16.1146C62.9588 15.4947 64.4349 15.1816 66.1174 15.1816V14.7415C64.3798 14.7415 62.8359 15.0651 61.4913 15.7187L61.6837 16.1146ZM66.1174 15.1816C67.5123 15.1816 68.7175 15.4141 69.7387 15.8719L69.9187 15.4703C68.8295 14.982 67.5606 14.7415 66.1174 14.7415V15.1816ZM69.7428 15.8737C70.7836 16.3147 71.5761 16.9361 72.1313 17.7342L72.4926 17.4829C71.8835 16.6073 71.0205 15.9371 69.9145 15.4684L69.7428 15.8737ZM72.1331 17.7368C72.7032 18.5315 72.9924 19.4858 72.9924 20.6103H73.4325C73.4325 19.4062 73.1213 18.3593 72.4907 17.4803L72.1331 17.7368ZM72.9924 20.6103C72.9924 21.2092 72.9132 21.8088 72.7541 22.4096L73.1796 22.5223C73.348 21.886 73.4325 21.2485 73.4325 20.6103H72.9924ZM72.753 22.4141C72.6157 22.9804 72.3211 23.592 71.859 24.2496L72.2191 24.5027C72.703 23.8141 73.0269 23.1522 73.1807 22.5178L72.753 22.4141ZM71.8567 24.253C71.4144 24.9076 70.7539 25.65 69.8691 26.4807L70.1703 26.8015C71.0683 25.9585 71.7541 25.191 72.2214 24.4993L71.8567 24.253ZM69.8688 26.4809L63.7561 32.2389L64.0579 32.5592L70.1706 26.8013L69.8688 26.4809ZM64.1018 32.2967L63.2559 30.6866L62.8663 30.8913L63.7122 32.5014L64.1018 32.2967ZM63.0611 31.009H73.8401V30.5689H63.0611V31.009ZM73.6201 30.789V34.3911H74.0602V30.789H73.6201ZM73.8401 34.1711H59.4044V34.6112H73.8401V34.1711Z" fill="#EFA1CA"/>
</svg>
