<svg width="97" height="71" viewBox="0 0 97 71" fill="none" xmlns="http://www.w3.org/2000/svg">
<path d="M36.18 70.893L0 42.864L36.18 42.923V70.893Z" fill="#B7EDBA"/>
<path d="M0 42.864L25.075 8.95501H67.702V0L96.97 25.612L67.882 51.224V42.923L0 42.864Z" fill="#D9F3A4"/>
<path d="M52.0422 34.7186C50.4776 34.7186 49.0768 34.3365 47.8397 33.5725C46.6026 32.7902 45.6293 31.6622 44.9198 30.1887C44.2103 28.7151 43.8555 26.9322 43.8555 24.8401C43.8555 22.7479 44.2103 20.9651 44.9198 19.4915C45.6293 18.0179 46.6026 16.8991 47.8397 16.135C49.0768 15.3527 50.4776 14.9616 52.0422 14.9616C53.6249 14.9616 55.0257 15.3527 56.2446 16.135C57.4817 16.8991 58.455 18.0179 59.1645 19.4915C59.874 20.9651 60.2288 22.7479 60.2288 24.8401C60.2288 26.9322 59.874 28.7151 59.1645 30.1887C58.455 31.6622 57.4817 32.7902 56.2446 33.5725C55.0257 34.3365 53.6249 34.7186 52.0422 34.7186ZM52.0422 30.98C52.7881 30.98 53.4339 30.7708 53.9797 30.3524C54.5436 29.934 54.9802 29.2699 55.2895 28.3603C55.617 27.4507 55.7807 26.2773 55.7807 24.8401C55.7807 23.4029 55.617 22.2294 55.2895 21.3198C54.9802 20.4102 54.5436 19.7462 53.9797 19.3277C53.4339 18.9093 52.7881 18.7001 52.0422 18.7001C51.3145 18.7001 50.6686 18.9093 50.1047 19.3277C49.5589 19.7462 49.1223 20.4102 48.7948 21.3198C48.4855 22.2294 48.3309 23.4029 48.3309 24.8401C48.3309 26.2773 48.4855 27.4507 48.7948 28.3603C49.1223 29.2699 49.5589 29.934 50.1047 30.3524C50.6686 30.7708 51.3145 30.98 52.0422 30.98ZM65.2173 34.3911V16.9263L67.1275 18.8366H61.3969V15.289H69.638V34.3911H65.2173Z" fill="white"/>
<path d="M47.8397 33.5725L47.7221 33.7584L47.7241 33.7597L47.8397 33.5725ZM44.9198 30.1887L44.7215 30.2841L44.9198 30.1887ZM44.9198 19.4915L45.1181 19.5869L45.1181 19.5869L44.9198 19.4915ZM47.8397 16.135L47.9553 16.3222L47.9573 16.321L47.8397 16.135ZM56.2446 16.135L56.1257 16.3202L56.129 16.3222L56.2446 16.135ZM59.1645 19.4915L58.9662 19.5869L58.9662 19.5869L59.1645 19.4915ZM59.1645 30.1887L58.9662 30.0932L58.9662 30.0932L59.1645 30.1887ZM56.2446 33.5725L56.3615 33.7589L56.3622 33.7584L56.2446 33.5725ZM53.9797 30.3524L53.8485 30.1756L53.8458 30.1778L53.9797 30.3524ZM55.2895 28.3603L55.0824 28.2858L55.0812 28.2895L55.2895 28.3603ZM55.2895 21.3198L55.0811 21.3907L55.0825 21.3944L55.2895 21.3198ZM53.9797 19.3277L53.8458 19.5024L53.8485 19.5045L53.9797 19.3277ZM50.1047 19.3277L49.9735 19.151L49.9708 19.1531L50.1047 19.3277ZM48.7948 21.3198L48.5877 21.2453L48.5865 21.249L48.7948 21.3198ZM48.7948 28.3603L48.5864 28.4312L48.5878 28.4348L48.7948 28.3603ZM50.1047 30.3524L49.9708 30.527L49.9735 30.5291L50.1047 30.3524ZM52.0422 34.4985C50.5152 34.4985 49.155 34.1262 47.9553 33.3852L47.7241 33.7597C48.9986 34.5469 50.44 34.9386 52.0422 34.9386V34.4985ZM47.9573 33.3865C46.759 32.6287 45.8119 31.5341 45.1181 30.0932L44.7215 30.2841C45.4468 31.7903 46.4462 32.9516 47.7221 33.7584L47.9573 33.3865ZM45.1181 30.0932C44.4263 28.6565 44.0756 26.9081 44.0756 24.8401H43.6355C43.6355 26.9563 43.9943 28.7736 44.7215 30.2841L45.1181 30.0932ZM44.0756 24.8401C44.0756 22.7721 44.4263 21.0236 45.1181 19.5869L44.7215 19.396C43.9943 20.9065 43.6355 22.7238 43.6355 24.8401H44.0756ZM45.1181 19.5869C45.8117 18.1463 46.7583 17.0615 47.9553 16.3222L47.7241 15.9478C46.4469 16.7366 45.4469 17.8895 44.7215 19.396L45.1181 19.5869ZM47.9573 16.321C49.1568 15.5625 50.5162 15.1816 52.0422 15.1816V14.7415C50.439 14.7415 48.9968 15.1429 47.7221 15.949L47.9573 16.321ZM52.0422 15.1816C53.5868 15.1816 54.9456 15.5627 56.1258 16.3202L56.3635 15.9498C55.1058 15.1426 53.663 14.7415 52.0422 14.7415V15.1816ZM56.129 16.3222C57.326 17.0615 58.2726 18.1463 58.9662 19.5869L59.3628 19.396C58.6374 17.8895 57.6374 16.7366 56.3603 15.9478L56.129 16.3222ZM58.9662 19.5869C59.658 21.0236 60.0087 22.7721 60.0087 24.8401H60.4488C60.4488 22.7238 60.09 20.9065 59.3628 19.396L58.9662 19.5869ZM60.0087 24.8401C60.0087 26.9081 59.658 28.6565 58.9662 30.0932L59.3628 30.2841C60.09 28.7736 60.4488 26.9563 60.4488 24.8401H60.0087ZM58.9662 30.0932C58.2725 31.5341 57.3253 32.6287 56.127 33.3865L56.3622 33.7584C57.6381 32.9516 58.6376 31.7903 59.3628 30.2841L58.9662 30.0932ZM56.1277 33.386C54.9473 34.126 53.5879 34.4985 52.0422 34.4985V34.9386C53.662 34.9386 55.1041 34.5471 56.3615 33.7589L56.1277 33.386ZM52.0422 31.2001C52.8321 31.2001 53.526 30.9774 54.1135 30.527L53.8458 30.1778C53.3417 30.5642 52.744 30.76 52.0422 30.76V31.2001ZM54.1108 30.5291C54.7217 30.0759 55.1794 29.3679 55.4979 28.4311L55.0812 28.2895C54.7811 29.172 54.3656 29.7921 53.8485 30.1757L54.1108 30.5291ZM55.4966 28.4348C55.8357 27.4927 56.0008 26.2915 56.0008 24.8401H55.5607C55.5607 26.263 55.3982 27.4087 55.0825 28.2858L55.4966 28.4348ZM56.0008 24.8401C56.0008 23.3886 55.8357 22.1875 55.4966 21.2453L55.0825 21.3944C55.3982 22.2714 55.5607 23.4171 55.5607 24.8401H56.0008ZM55.4979 21.249C55.1794 20.3122 54.7217 19.6043 54.1108 19.151L53.8485 19.5045C54.3656 19.8881 54.7811 20.5082 55.0812 21.3907L55.4979 21.249ZM54.1135 19.1531C53.526 18.7027 52.8321 18.4801 52.0422 18.4801V18.9202C52.744 18.9202 53.3417 19.116 53.8458 19.5024L54.1135 19.1531ZM52.0422 18.4801C51.2691 18.4801 50.5769 18.7034 49.9735 19.151L50.2358 19.5045C50.7604 19.1153 51.3598 18.9202 52.0422 18.9202V18.4801ZM49.9708 19.1531C49.3805 19.6056 48.924 20.3114 48.5878 21.2453L49.0018 21.3944C49.3206 20.509 49.7372 19.8867 50.2385 19.5024L49.9708 19.1531ZM48.5865 21.249C48.2666 22.1898 48.1108 23.3895 48.1108 24.8401H48.5509C48.5509 23.4162 48.7045 22.2691 49.0031 21.3907L48.5865 21.249ZM48.1108 24.8401C48.1108 26.2906 48.2666 27.4904 48.5865 28.4311L49.0031 28.2895C48.7045 27.411 48.5509 26.2639 48.5509 24.8401H48.1108ZM48.5878 28.4348C48.924 29.3687 49.3805 30.0745 49.9708 30.527L50.2385 30.1778C49.7372 29.7934 49.3206 29.1711 49.0018 28.2858L48.5878 28.4348ZM49.9735 30.5291C50.5769 30.9767 51.2691 31.2001 52.0422 31.2001V30.76C51.3598 30.76 50.7604 30.5649 50.2358 30.1757L49.9735 30.5291ZM65.2173 34.3911H64.9972V34.6112H65.2173V34.3911ZM65.2173 16.9263L65.3729 16.7707L64.9972 16.3951V16.9263H65.2173ZM67.1275 18.8366V19.0566H67.6587L67.2831 18.681L67.1275 18.8366ZM61.3969 18.8366H61.1768V19.0566H61.3969V18.8366ZM61.3969 15.289V15.069H61.1768V15.289H61.3969ZM69.638 15.289H69.8581V15.069H69.638V15.289ZM69.638 34.3911V34.6112H69.8581V34.3911H69.638ZM65.4373 34.3911V16.9263H64.9972V34.3911H65.4373ZM65.0617 17.0819L66.9719 18.9922L67.2831 18.681L65.3729 16.7707L65.0617 17.0819ZM67.1275 18.6165H61.3969V19.0566H67.1275V18.6165ZM61.6169 18.8366V15.289H61.1768V18.8366H61.6169ZM61.3969 15.5091H69.638V15.069H61.3969V15.5091ZM69.418 15.289V34.3911H69.8581V15.289H69.418ZM69.638 34.1711H65.2173V34.6112H69.638V34.1711Z" fill="#B7EDBA"/>
</svg>
