<svg width="206" height="129" viewBox="0 0 206 129" fill="none" xmlns="http://www.w3.org/2000/svg">
<path d="M143.328 46.9072C163.953 46.0932 186.602 44.7792 193.18 42.8052C199.466 40.9192 203.857 36.3602 203.857 31.7192C203.857 27.7682 200.692 24.6382 195.173 23.1332C181.987 19.5372 112.12 19.8212 102.16 19.8802C102.704 23.5472 104.324 34.8342 105.493 46.6572C118.715 45.0102 134.905 44.4972 143.328 46.9072Z" fill="#FFDCAD"/>
<path d="M85.8178 122.547C81.8468 120.38 79.5688 116.837 79.5688 112.826V112.825C79.5688 109.452 81.2478 106.343 84.0598 104.509C85.5448 103.54 89.2178 102.548 93.9508 101.713C91.0968 101.06 88.7658 100.318 87.2868 99.5112C82.7998 97.0632 80.2268 93.0632 80.2268 88.5362C80.2268 84.7342 82.1199 81.2302 85.2899 79.1622C85.4169 79.0792 85.5818 78.9972 85.7358 78.9142C82.9328 76.5122 80.3629 73.4182 78.4149 69.8742C71.1549 56.6732 71.0709 41.1642 71.0709 40.5112C71.0709 39.9432 71.5309 39.4822 72.0999 39.4822C72.6679 39.4822 73.1288 39.9432 73.1288 40.5112C73.1288 40.6662 73.2188 56.1572 80.2178 68.8832C84.6258 76.8972 92.6118 82.6812 98.3988 82.0512C101.155 81.7512 103.011 80.0392 103.916 76.9622C106.95 66.6412 100.637 23.6162 100.001 19.3562C91.2859 10.7022 78.9688 1.88221 70.2408 2.82621C46.6248 5.38021 6.73986 30.0192 3.55786 44.0212C2.78686 47.4102 2.36285 52.7512 2.36285 59.0602C2.36285 79.4282 6.37885 105.594 13.8199 113.966C22.2779 123.481 23.9079 123.754 31.7379 125.064C33.3919 125.34 35.2648 125.654 37.5288 126.107C46.6088 127.923 74.1029 126.281 92.0269 124.565C89.3529 123.971 87.1788 123.29 85.8178 122.547ZM25.1089 52.4972C24.7439 52.3182 24.5319 51.9522 24.5319 51.5712C24.5319 51.4192 24.5648 51.2652 24.6358 51.1202C24.8858 50.6092 25.5018 50.3982 26.0128 50.6472C38.1408 56.5802 53.0588 56.2842 64.9428 49.8762C65.4428 49.6072 66.0679 49.7932 66.3369 50.2942C66.6089 50.7942 66.4199 51.4182 65.9199 51.6892C53.4629 58.4062 37.8249 58.7162 25.1089 52.4972ZM70.9539 106.349C68.0229 100.284 64.5829 92.1962 63.9889 83.4032C63.9239 82.4292 63.8929 81.4572 63.8929 80.4892C63.8929 73.1892 65.6418 66.0522 67.3388 59.1222C67.4748 58.5702 68.0319 58.2322 68.5839 58.3672C69.1359 58.5022 69.4728 59.0612 69.3388 59.6112C67.4518 67.3092 65.5059 75.2712 66.0439 83.2652C66.6129 91.7052 69.9579 99.5572 72.8079 105.454C73.0539 105.965 72.8398 106.581 72.3298 106.829C71.8158 107.076 71.2009 106.861 70.9539 106.349Z" fill="#FFDCAD"/>
<path d="M70.0188 0.779203C45.2528 3.4572 4.93783 28.6482 1.54883 43.5642C0.734828 47.1492 0.303833 52.5082 0.303833 59.0592C0.303833 59.0572 0.303833 59.0602 0.303833 59.0592C0.303833 79.8062 4.50183 106.581 12.2818 115.333C21.2228 125.391 23.3778 125.752 31.3978 127.093C33.0358 127.367 34.8928 127.678 37.1238 128.124C46.7988 130.059 82.5858 128.098 100.008 125.893C111.558 127.332 125.881 127.378 129.813 124.813C133.887 122.156 137.2 115.239 137.2 109.393C137.2 106.721 136.469 104.548 135.096 103.077C136.024 102.798 136.806 102.478 137.379 102.104C141.916 99.1452 145.748 91.1372 145.748 84.6182C145.748 81.4872 144.87 78.9592 143.21 77.3082C142.73 76.8312 142.077 76.4092 141.292 76.0342C141.427 75.9602 141.576 75.8892 141.695 75.8112C146.561 72.6382 150.672 64.0452 150.672 57.0472C150.672 53.6972 149.735 50.9942 147.962 49.2312C147.816 49.0862 147.652 48.9472 147.479 48.8122C167.036 47.9842 187.388 46.6922 193.77 44.7782C201.034 42.5982 205.914 37.3512 205.914 31.7202C205.914 26.7692 202.196 22.9162 195.713 21.1482C181.701 17.3262 108.39 17.7762 101.387 17.8272C96.6228 13.1132 81.7458 -0.488797 70.0188 0.779203ZM195.173 23.1342C200.691 24.6392 203.857 27.7682 203.857 31.7202C203.857 36.3612 199.466 40.9202 193.18 42.8062C186.602 44.7792 163.953 46.0932 143.328 46.9082C134.905 44.4982 118.715 45.0112 105.494 46.6602C104.325 34.8372 102.704 23.5492 102.161 19.8832C112.12 19.8222 181.987 19.5382 195.173 23.1342ZM148.613 57.0472C148.613 63.3302 144.855 71.2932 140.571 74.0882C136.496 76.7452 120.028 76.8542 106.362 75.2662C107.214 69.4392 106.661 59.0752 105.699 48.7882C121.584 46.8072 142.071 46.2742 146.511 50.6912C148.249 52.4202 148.613 55.1022 148.613 57.0472ZM143.689 84.6192C143.689 90.4322 140.215 97.7972 136.255 100.381C130.387 104.207 96.7538 102.332 88.2708 97.7042C84.4658 95.6282 82.2838 92.2872 82.2838 88.5372C82.2838 85.4332 83.8278 82.5732 86.4118 80.8872C86.6878 80.7072 87.0798 80.5242 87.5308 80.3392C91.2328 83.0252 95.1938 84.4712 98.6208 84.0982C102.179 83.7112 104.761 81.3832 105.889 77.5432C105.92 77.4382 105.948 77.3232 105.977 77.2122C117.697 78.6132 131.493 78.8432 138.456 77.0742C139.914 77.5202 141.06 78.0742 141.757 78.7682C143.354 80.3562 143.689 82.8262 143.689 84.6192ZM135.141 109.393C135.141 114.446 132.125 120.846 128.689 123.089C123.729 126.323 93.9788 124.655 86.8028 120.74C83.5138 118.945 81.6268 116.061 81.6268 112.826C81.6268 112.825 81.6268 112.825 81.6268 112.825C81.6268 110.15 82.9568 107.686 85.1828 106.233C87.1728 104.935 92.9518 103.687 99.8718 102.826C110.563 104.481 124.608 105.058 132.5 103.676C132.891 103.887 133.237 104.112 133.488 104.361C134.855 105.721 135.141 107.848 135.141 109.393ZM37.5278 126.106C35.2638 125.653 33.3908 125.34 31.7368 125.063C23.9068 123.753 22.2768 123.481 13.8188 113.965C6.37782 105.592 2.36182 79.4272 2.36182 59.0592C2.36182 52.7502 2.78582 47.4092 3.55682 44.0202C6.73782 30.0182 46.6228 5.3792 70.2398 2.8252C78.9678 1.8822 91.2838 10.7022 99.9998 19.3552C100.637 23.6162 106.95 66.6402 103.915 76.9612C103.009 80.0382 101.154 81.7502 98.3978 82.0502C92.6098 82.6802 84.6238 76.8962 80.2168 68.8822C73.2178 56.1562 73.1278 40.6652 73.1278 40.5102C73.1278 39.9422 72.6668 39.4812 72.0988 39.4812C71.5298 39.4812 71.0698 39.9422 71.0698 40.5102C71.0698 41.1642 71.1528 56.6722 78.4138 69.8732C80.3628 73.4172 82.9318 76.5102 85.7348 78.9132C85.5808 78.9962 85.4158 79.0792 85.2888 79.1612C82.1188 81.2292 80.2258 84.7332 80.2258 88.5352C80.2258 93.0612 82.7988 97.0622 87.2858 99.5102C88.7648 100.317 91.0958 101.059 93.9498 101.712C89.2168 102.547 85.5438 103.54 84.0588 104.508C81.2468 106.342 79.5678 109.45 79.5678 112.823V112.824C79.5678 116.836 81.8458 120.379 85.8168 122.545C87.1778 123.288 89.3518 123.969 92.0258 124.561C74.1018 126.28 46.6078 127.921 37.5278 126.106Z" fill="#D79054"/>
<path d="M99.8718 102.826C92.9518 103.687 87.1728 104.935 85.1828 106.233C82.9568 107.686 81.6268 110.15 81.6268 112.824C81.6268 116.059 83.5138 118.944 86.8028 120.739C93.9798 124.654 123.73 126.322 128.689 123.088C132.126 120.845 135.141 114.445 135.141 109.392C135.141 107.847 134.855 105.72 133.488 104.361C133.237 104.111 132.891 103.887 132.5 103.676C124.608 105.058 110.564 104.481 99.8718 102.826Z" fill="#FFDCAD"/>
<path d="M105.978 77.2122C105.949 77.3232 105.921 77.4372 105.89 77.5432C104.761 81.3832 102.18 83.7102 98.6218 84.0982C95.1948 84.4712 91.2338 83.0252 87.5318 80.3392C87.0808 80.5242 86.6878 80.7072 86.4128 80.8872C83.8288 82.5742 82.2848 85.4332 82.2848 88.5372C82.2848 92.2872 84.4668 95.6292 88.2718 97.7042C96.7548 102.331 130.388 104.207 136.256 100.381C140.216 97.7972 143.69 90.4322 143.69 84.6192C143.69 82.8262 143.355 80.3562 141.759 78.7682C141.062 78.0742 139.917 77.5202 138.458 77.0742C131.494 78.8432 117.698 78.6132 105.978 77.2122Z" fill="#FFDCAD"/>
<path d="M105.699 48.7882C106.661 59.0752 107.214 69.4392 106.362 75.2662C120.028 76.8542 136.497 76.7452 140.571 74.0882C144.855 71.2942 148.613 63.3312 148.613 57.0472C148.613 55.1022 148.248 52.4192 146.51 50.6902C142.071 46.2742 121.584 46.8072 105.699 48.7882Z" fill="#FFDCAD"/>
<path d="M66.3378 50.2942C66.0688 49.7932 65.4438 49.6072 64.9438 49.8762C53.0598 56.2842 38.1418 56.5802 26.0138 50.6472C25.5028 50.3972 24.8868 50.6092 24.6368 51.1202C24.5658 51.2662 24.5328 51.4192 24.5328 51.5712C24.5328 51.9522 24.7448 52.3182 25.1098 52.4972C37.8248 58.7162 53.4638 58.4062 65.9218 51.6882C66.4208 51.4172 66.6108 50.7942 66.3378 50.2942Z" fill="#D79054"/>
<path d="M72.8078 105.454C69.9578 99.5572 66.6128 91.7052 66.0438 83.2652C65.5058 75.2712 67.4518 67.3092 69.3388 59.6112C69.4728 59.0612 69.1358 58.5022 68.5838 58.3672C68.0308 58.2322 67.4738 58.5702 67.3388 59.1222C65.6418 66.0522 63.8928 73.1902 63.8928 80.4892C63.8928 81.4572 63.9238 82.4292 63.9888 83.4032C64.5828 92.1962 68.0228 100.284 70.9538 106.349C71.2008 106.861 71.8158 107.075 72.3288 106.828C72.8398 106.581 73.0538 105.965 72.8078 105.454Z" fill="#D79054"/>
<path d="M192.901 30.6192C196.577 30.9752 200.523 31.5912 203.674 33.3422C203.79 32.8052 203.856 32.2632 203.856 31.7192C203.856 27.7682 200.691 24.6382 195.172 23.1332C181.986 19.5372 112.119 19.8212 102.159 19.8802C102.45 21.8422 103.05 25.9972 103.723 31.2372C133.463 31.7172 163.294 27.7542 192.901 30.6192Z" fill="#FCCA92"/>
<path d="M148.509 58.8402C148.571 58.2332 148.614 57.6312 148.614 57.0482C148.614 55.1032 148.249 52.4202 146.511 50.6912C142.072 46.2752 121.584 46.8082 105.699 48.7882C106.001 52.0202 106.263 55.2602 106.454 58.3642C109.932 57.4772 113.416 56.6172 116.934 55.9362C127.511 53.8892 139.029 53.6092 148.463 58.8112C148.478 58.8192 148.493 58.8312 148.509 58.8402Z" fill="#FCCA92"/>
<path d="M143.214 88.5872C143.515 87.2342 143.689 85.8892 143.689 84.6192C143.689 82.8262 143.354 80.3562 141.758 78.7682C141.061 78.0742 139.916 77.5202 138.457 77.0742C131.494 78.8422 117.698 78.6132 105.978 77.2122C105.949 77.3232 105.921 77.4372 105.89 77.5432C104.761 81.3832 102.18 83.7102 98.6219 84.0982C95.1949 84.4712 91.2339 83.0252 87.5319 80.3392C87.0809 80.5242 86.6878 80.7072 86.4128 80.8872C83.8288 82.5742 82.2849 85.4332 82.2849 88.5372C82.2849 89.1702 82.3688 89.7842 82.4908 90.3902C84.4668 89.5262 86.5388 88.8672 88.6188 88.2842C105.572 83.5352 123.788 83.3752 140.821 87.8272C141.616 88.0352 142.433 88.2782 143.214 88.5872Z" fill="#FCCA92"/>
<path d="M83.0948 114.291C87.0328 109.262 94.1388 108.296 100.504 107.76C112.104 106.784 124.097 106.017 135.133 109.618C135.134 109.543 135.141 109.467 135.141 109.393C135.141 107.848 134.855 105.721 133.488 104.362C133.237 104.112 132.891 103.888 132.5 103.677C124.607 105.059 110.563 104.482 99.8718 102.827C92.9518 103.688 87.1728 104.936 85.1828 106.234C82.9568 107.687 81.6268 110.151 81.6268 112.825V112.826C81.6268 113.806 81.8198 114.747 82.1528 115.641C82.4498 115.178 82.7578 114.722 83.0948 114.291Z" fill="#FCCA92"/>
<path d="M85.8178 122.547C81.8468 120.38 79.5688 116.837 79.5688 112.826V112.825C79.5688 109.452 81.2478 106.343 84.0598 104.509C85.5448 103.54 89.2178 102.548 93.9508 101.713C91.0968 101.06 88.7658 100.318 87.2868 99.5112C82.7998 97.0632 80.2268 93.0632 80.2268 88.5362C80.2268 84.7342 82.1199 81.2302 85.2899 79.1622C85.4169 79.0792 85.5818 78.9972 85.7358 78.9142C82.9328 76.5122 80.3629 73.4182 78.4149 69.8742C71.1549 56.6732 71.0709 41.1642 71.0709 40.5112C71.0709 39.9432 71.5309 39.4822 72.0999 39.4822C72.6679 39.4822 73.1288 39.9432 73.1288 40.5112C73.1288 40.6662 73.2188 56.1572 80.2178 68.8832C84.6258 76.8972 92.6118 82.6812 98.3988 82.0512C99.8368 81.8942 101.024 81.3442 101.965 80.4252C97.7098 79.5202 94.1329 76.1222 91.3539 72.6192C82.1369 61.0012 77.1158 46.1232 77.4078 31.2962C77.4238 30.4642 77.3929 29.4932 76.7219 29.0012C76.0979 28.5442 75.2228 28.7372 74.4998 29.0122C69.0068 31.1012 65.5668 36.4522 61.0548 40.2192C51.6848 48.0432 38.3388 48.5802 26.1578 47.7792C23.2798 47.5902 19.2468 48.3902 19.4088 51.2692C19.4938 52.7782 20.8529 53.8662 22.1399 54.6592C26.2849 57.2152 30.9709 58.8902 35.7979 59.5392C42.1759 60.3972 49.7148 59.9242 53.7748 64.9182C58.6568 70.9242 54.6529 79.7642 54.9629 87.4972C55.1809 92.9272 57.6458 98.4702 55.8958 103.614C55.1468 105.817 53.6739 107.708 52.0149 109.338C44.2749 116.943 32.2869 119.222 21.7159 116.774C19.0579 116.158 16.4858 115.277 14.0078 114.175C22.2958 123.474 23.9689 123.764 31.7379 125.064C33.3919 125.34 35.2648 125.654 37.5288 126.107C46.6088 127.923 74.1029 126.281 92.0269 124.565C89.3529 123.971 87.1788 123.29 85.8178 122.547ZM25.1089 52.4972C24.7439 52.3182 24.5319 51.9522 24.5319 51.5712C24.5319 51.4192 24.5648 51.2652 24.6358 51.1202C24.8858 50.6092 25.5018 50.3982 26.0128 50.6472C38.1408 56.5802 53.0588 56.2842 64.9428 49.8762C65.4428 49.6072 66.0679 49.7932 66.3369 50.2942C66.6089 50.7942 66.4199 51.4182 65.9199 51.6892C53.4629 58.4062 37.8249 58.7162 25.1089 52.4972ZM70.9539 106.349C68.0229 100.284 64.5829 92.1962 63.9889 83.4032C63.9239 82.4292 63.8929 81.4572 63.8929 80.4892C63.8929 73.1892 65.6418 66.0522 67.3388 59.1222C67.4748 58.5702 68.0319 58.2322 68.5839 58.3672C69.1359 58.5022 69.4728 59.0612 69.3388 59.6112C67.4518 67.3092 65.5059 75.2712 66.0439 83.2652C66.6129 91.7052 69.9579 99.5572 72.8079 105.454C73.0539 105.965 72.8398 106.581 72.3298 106.829C71.8158 107.076 71.2009 106.861 70.9539 106.349Z" fill="#FCCA92"/>
<path d="M100.651 47.3812C101.192 44.1652 100.521 40.9272 100.033 37.7302C99.4228 33.7332 98.7728 29.3042 96.7918 25.7362C96.5678 25.3312 95.9138 25.5102 95.9228 25.9712C95.9858 29.0912 96.8618 32.2012 97.4408 35.2632C98.1928 39.2452 98.1138 43.5282 99.3788 47.3812C99.5648 47.9482 100.535 48.0702 100.651 47.3812Z" fill="#FFF9DF"/>
<path d="M101.19 56.8302C101.799 55.9692 102.022 54.9092 101.81 53.8622C101.583 52.7452 101.114 52.1292 100.369 51.3192C100.142 51.0722 99.6529 51.2522 99.6829 51.6032C99.7529 52.4242 99.6519 53.3222 99.6439 54.1552C99.6359 55.0062 99.6939 55.8172 99.8379 56.6532C99.9569 57.3472 100.861 57.2942 101.19 56.8302Z" fill="#FFF9DF"/>
<path d="M131.593 73.5962C134.887 73.0762 138.059 71.7742 141.021 70.2882C141.544 70.0252 141.177 69.1722 140.624 69.3472C137.879 70.2172 135.099 70.9162 132.259 71.3932C129.499 71.8572 126.265 71.4862 123.765 72.8312C123.525 72.9602 123.523 73.3412 123.765 73.4702C126.17 74.7482 129.002 74.0052 131.593 73.5962Z" fill="#FFF9DF"/>
<path d="M120.865 74.2852C122.13 74.1422 122.198 72.2102 120.865 72.2592C119.811 72.2982 118.771 72.2252 117.719 72.1732C116.733 72.1242 115.793 71.8082 114.967 72.4742C114.752 72.6472 114.764 72.9742 114.874 73.1952C115.329 74.1052 116.419 74.1822 117.328 74.3032C118.517 74.4612 119.676 74.4202 120.865 74.2852Z" fill="#FFF9DF"/>
<path d="M133.665 98.3452C134.231 98.1512 134.179 97.1612 133.515 97.2392C130.397 97.6062 127.3 97.9982 124.159 98.1032C121.025 98.2082 117.849 97.5182 114.744 97.9092C114.337 97.9602 114.041 98.5522 114.508 98.7782C119.972 101.423 128.118 100.241 133.665 98.3452Z" fill="#FFF9DF"/>
<path d="M121.895 122.52C122.568 122.467 122.588 121.463 121.895 121.459C118.987 121.44 116.1 121.278 113.202 121.05C110.688 120.852 108.177 120.348 105.687 120.856C105.378 120.919 105.319 121.391 105.599 121.532C110.238 123.872 116.888 122.918 121.895 122.52Z" fill="#FFF9DF"/>
<path d="M187.186 42.4742C191.413 41.6732 195.654 39.9262 198.991 37.2002C199.679 36.6382 198.803 35.7562 198.114 36.0632C194.761 37.5602 191.525 39.0802 187.953 40.0012C184.377 40.9232 180.413 40.1562 177.008 41.4012C176.602 41.5492 176.447 42.1362 176.881 42.3712C179.957 44.0352 183.885 43.1002 187.186 42.4742Z" fill="#FFF9DF"/>
<path d="M174.385 43.0792C175.483 43.1102 175.736 41.3852 174.646 41.1522C173.877 40.9872 173.094 40.8422 172.307 40.9112C171.497 40.9822 170.675 41.4332 170.019 41.9082C169.734 42.1142 169.706 42.6472 170.127 42.7312C170.37 42.7792 170.582 42.8062 170.83 42.8242C171.244 42.8532 171.589 43.1172 172.011 43.1132C172.802 43.1062 173.593 43.0572 174.385 43.0792Z" fill="#FFF9DF"/>
<path d="M38.2648 44.3582C38.7058 44.2482 38.6118 43.5582 38.1578 43.5682C34.9128 43.6412 31.6418 43.6722 28.3938 43.6332C25.5718 43.5992 22.5698 42.9962 19.8418 43.7922C19.3628 43.9322 19.2038 44.6652 19.6958 44.9092C24.8878 47.4832 32.8768 45.7072 38.2648 44.3582Z" fill="#FCCA92"/>
<path d="M16.9018 47.0222C17.3728 46.9722 17.5128 46.3162 17.0178 46.1692C15.6078 45.7502 13.9739 45.1152 12.4759 45.2792C11.4949 45.3862 11.2029 46.7462 12.2349 47.0572C13.7069 47.4992 15.4108 47.1802 16.9018 47.0222Z" fill="#FCCA92"/>
<path d="M93.5238 68.0052C89.6358 63.0322 86.5988 58.3912 84.8608 52.2422C84.7108 51.7102 83.8538 51.8022 83.8818 52.3752C84.1878 58.6952 87.4158 65.3952 93.0178 68.6622C93.4578 68.9192 93.8008 68.3592 93.5238 68.0052Z" fill="#FCCA92"/>
<path d="M95.3758 71.8492C95.2348 71.3202 95.0098 70.8412 94.7868 70.3432C94.5798 69.8782 93.8348 70.2882 94.0928 70.7492C94.3568 71.2212 94.6098 71.6742 94.9458 72.1002C95.1128 72.3122 95.4368 72.0802 95.3758 71.8492Z" fill="#FCCA92"/>
</svg>
