<svg width="129" height="206" viewBox="0 0 129 206" fill="none" xmlns="http://www.w3.org/2000/svg">
<path d="M46.211 62.586C45.397 41.961 44.083 19.312 42.109 12.734C40.223 6.44801 35.664 2.05701 31.023 2.05701C27.072 2.05701 23.942 5.222 22.437 10.741C18.841 23.927 19.125 93.794 19.184 103.754C22.851 103.21 34.138 101.59 45.961 100.421C44.314 87.199 43.801 71.009 46.211 62.586Z" fill="#FFDCAD"/>
<path d="M121.851 120.096C119.684 124.067 116.141 126.345 112.13 126.345H112.129C108.756 126.345 105.647 124.666 103.813 121.854C102.844 120.369 101.852 116.696 101.017 111.963C100.364 114.817 99.622 117.148 98.815 118.627C96.367 123.114 92.367 125.687 87.84 125.687C84.038 125.687 80.534 123.794 78.466 120.624C78.383 120.497 78.301 120.332 78.218 120.178C75.816 122.981 72.722 125.551 69.178 127.499C55.977 134.759 40.468 134.843 39.815 134.843C39.247 134.843 38.786 134.383 38.786 133.814C38.786 133.246 39.247 132.785 39.815 132.785C39.97 132.785 55.461 132.695 68.187 125.696C76.201 121.288 81.985 113.302 81.355 107.515C81.055 104.759 79.3431 102.903 76.2661 101.998C65.9451 98.964 22.92 105.277 18.66 105.913C10.006 114.628 1.18604 126.945 2.13004 135.673C4.68404 159.289 29.323 199.174 43.325 202.356C46.714 203.127 52.055 203.551 58.364 203.551C78.732 203.551 104.898 199.535 113.27 192.094C122.785 183.636 123.058 182.006 124.368 174.176C124.644 172.522 124.958 170.649 125.411 168.385C127.227 159.305 125.585 131.811 123.869 113.887C123.275 116.561 122.594 118.735 121.851 120.096ZM51.801 180.805C51.622 181.17 51.256 181.382 50.875 181.382C50.723 181.382 50.569 181.349 50.424 181.278C49.913 181.028 49.702 180.412 49.951 179.901C55.884 167.773 55.588 152.855 49.18 140.971C48.911 140.471 49.097 139.846 49.598 139.577C50.098 139.305 50.722 139.494 50.993 139.994C57.71 152.451 58.02 168.089 51.801 180.805ZM105.653 134.96C99.588 137.891 91.5 141.331 82.707 141.925C81.733 141.99 80.761 142.021 79.793 142.021C72.493 142.021 65.356 140.272 58.426 138.575C57.874 138.439 57.536 137.882 57.671 137.33C57.806 136.778 58.365 136.441 58.915 136.575C66.613 138.462 74.575 140.408 82.569 139.87C91.009 139.301 98.861 135.956 104.758 133.106C105.269 132.86 105.885 133.074 106.133 133.584C106.38 134.098 106.165 134.713 105.653 134.96Z" fill="#FFDCAD"/>
<path d="M0.0830365 135.895C2.76104 160.661 27.952 200.976 42.868 204.365C46.453 205.179 51.812 205.61 58.363 205.61C58.361 205.61 58.364 205.61 58.363 205.61C79.11 205.61 105.885 201.412 114.637 193.632C124.695 184.691 125.056 182.536 126.397 174.516C126.671 172.878 126.982 171.021 127.428 168.79C129.363 159.115 127.402 123.328 125.197 105.906C126.636 94.356 126.682 80.033 124.117 76.101C121.46 72.027 114.543 68.714 108.697 68.714C106.025 68.714 103.852 69.445 102.381 70.818C102.102 69.89 101.782 69.108 101.408 68.535C98.449 63.998 90.441 60.166 83.922 60.166C80.791 60.166 78.263 61.044 76.612 62.704C76.135 63.184 75.713 63.837 75.338 64.622C75.264 64.487 75.193 64.338 75.115 64.219C71.942 59.353 63.349 55.242 56.351 55.242C53.001 55.242 50.298 56.179 48.535 57.952C48.39 58.098 48.251 58.262 48.116 58.435C47.288 38.878 45.996 18.526 44.082 12.144C41.902 4.88001 36.655 0 31.024 0C26.073 0 22.22 3.71799 20.452 10.201C16.63 24.213 17.08 97.524 17.131 104.527C12.417 109.291 -1.18496 124.168 0.0830365 135.895ZM22.438 10.741C23.943 5.223 27.072 2.05701 31.024 2.05701C35.665 2.05701 40.224 6.44801 42.11 12.734C44.083 19.312 45.397 41.961 46.212 62.586C43.802 71.009 44.315 87.199 45.964 100.42C34.141 101.589 22.853 103.21 19.187 103.753C19.126 93.794 18.842 23.927 22.438 10.741ZM56.351 57.301C62.634 57.301 70.597 61.059 73.392 65.343C76.049 69.418 76.158 85.886 74.57 99.552C68.743 98.7 58.379 99.253 48.092 100.215C46.111 84.33 45.578 63.843 49.995 59.403C51.724 57.665 54.406 57.301 56.351 57.301ZM83.923 62.225C89.736 62.225 97.101 65.699 99.685 69.659C103.511 75.527 101.636 109.16 97.008 117.643C94.932 121.448 91.591 123.63 87.841 123.63C84.737 123.63 81.877 122.086 80.191 119.502C80.011 119.226 79.828 118.834 79.643 118.383C82.329 114.681 83.775 110.72 83.402 107.293C83.015 103.735 80.687 101.153 76.847 100.025C76.742 99.994 76.627 99.966 76.516 99.937C77.917 88.217 78.147 74.421 76.378 67.458C76.824 66 77.378 64.854 78.072 64.157C79.66 62.56 82.13 62.225 83.923 62.225ZM108.697 70.773C113.75 70.773 120.15 73.789 122.393 77.225C125.627 82.185 123.959 111.935 120.044 119.111C118.249 122.4 115.365 124.287 112.13 124.287C112.129 124.287 112.129 124.287 112.129 124.287C109.454 124.287 106.99 122.957 105.537 120.731C104.239 118.741 102.991 112.962 102.13 106.042C103.785 95.351 104.362 81.306 102.98 73.414C103.191 73.023 103.416 72.677 103.665 72.426C105.025 71.059 107.152 70.773 108.697 70.773ZM125.41 168.386C124.957 170.65 124.644 172.523 124.367 174.177C123.057 182.007 122.785 183.637 113.269 192.095C104.896 199.536 78.731 203.552 58.363 203.552C52.054 203.552 46.713 203.128 43.324 202.357C29.322 199.176 4.68303 159.291 2.12903 135.674C1.18603 126.946 10.006 114.63 18.659 105.914C22.92 105.277 65.944 98.964 76.265 101.999C79.342 102.905 81.054 104.76 81.354 107.516C81.984 113.304 76.2 121.29 68.186 125.697C55.46 132.696 39.969 132.786 39.814 132.786C39.246 132.786 38.785 133.247 38.785 133.815C38.785 134.384 39.246 134.844 39.814 134.844C40.468 134.844 55.976 134.761 69.177 127.5C72.721 125.551 75.814 122.982 78.217 120.179C78.3 120.333 78.383 120.498 78.465 120.625C80.533 123.795 84.037 125.688 87.839 125.688C92.365 125.688 96.366 123.115 98.814 118.628C99.621 117.149 100.363 114.818 101.016 111.964C101.851 116.697 102.844 120.37 103.812 121.855C105.646 124.667 108.754 126.346 112.127 126.346H112.128C116.14 126.346 119.683 124.068 121.849 120.097C122.592 118.736 123.273 116.562 123.865 113.888C125.584 131.812 127.225 159.306 125.41 168.386Z" fill="#D79054"/>
<path d="M102.13 106.042C102.991 112.962 104.239 118.741 105.537 120.731C106.99 122.957 109.454 124.287 112.128 124.287C115.363 124.287 118.248 122.4 120.043 119.111C123.958 111.934 125.626 82.1839 122.392 77.2249C120.149 73.7879 113.749 70.7729 108.696 70.7729C107.151 70.7729 105.024 71.0589 103.665 72.4259C103.415 72.6769 103.191 73.0229 102.98 73.4139C104.362 81.3059 103.785 95.3499 102.13 106.042Z" fill="#FFDCAD"/>
<path d="M76.5161 99.9361C76.6271 99.9651 76.741 99.9931 76.847 100.024C80.687 101.153 83.014 103.734 83.402 107.292C83.775 110.719 82.3291 114.68 79.6431 118.382C79.8281 118.833 80.011 119.226 80.191 119.501C81.878 122.085 84.737 123.629 87.841 123.629C91.591 123.629 94.933 121.447 97.008 117.642C101.635 109.159 103.511 75.5261 99.685 69.6581C97.101 65.6981 89.7361 62.2241 83.923 62.2241C82.13 62.2241 79.6601 62.5591 78.0721 64.1551C77.3781 64.8521 76.8241 65.9971 76.3781 67.4561C78.1471 74.4201 77.9171 88.2161 76.5161 99.9361Z" fill="#FFDCAD"/>
<path d="M48.092 100.215C58.379 99.253 68.743 98.7 74.57 99.552C76.158 85.886 76.049 69.417 73.392 65.343C70.598 61.059 62.635 57.301 56.351 57.301C54.406 57.301 51.723 57.666 49.994 59.404C45.578 63.843 46.111 84.33 48.092 100.215Z" fill="#FFDCAD"/>
<path d="M49.5981 139.576C49.0971 139.845 48.911 140.47 49.18 140.97C55.588 152.854 55.8841 167.772 49.9511 179.9C49.7011 180.411 49.913 181.027 50.424 181.277C50.57 181.348 50.7231 181.381 50.8751 181.381C51.2561 181.381 51.622 181.169 51.801 180.804C58.02 168.089 57.7101 152.45 50.9921 139.992C50.7211 139.493 50.0981 139.303 49.5981 139.576Z" fill="#D79054"/>
<path d="M104.758 133.106C98.861 135.956 91.0091 139.301 82.5691 139.87C74.5751 140.408 66.613 138.462 58.915 136.575C58.365 136.441 57.8061 136.778 57.6711 137.33C57.5361 137.883 57.874 138.44 58.426 138.575C65.356 140.272 72.4941 142.021 79.7931 142.021C80.7611 142.021 81.7331 141.99 82.7071 141.925C91.5001 141.331 99.588 137.891 105.653 134.96C106.165 134.713 106.379 134.098 106.132 133.585C105.885 133.074 105.269 132.86 104.758 133.106Z" fill="#D79054"/>
<path d="M29.923 13.013C30.279 9.33697 30.895 5.39096 32.646 2.23996C32.109 2.12396 31.567 2.05798 31.023 2.05798C27.072 2.05798 23.942 5.22297 22.437 10.742C18.841 23.928 19.125 93.795 19.184 103.755C21.146 103.464 25.301 102.864 30.541 102.191C31.021 72.451 27.058 42.62 29.923 13.013Z" fill="#FCCA92"/>
<path d="M58.144 57.4051C57.537 57.3431 56.935 57.3 56.352 57.3C54.407 57.3 51.724 57.6651 49.995 59.4031C45.579 63.8421 46.112 84.3301 48.092 100.215C51.324 99.9131 54.564 99.6511 57.668 99.4601C56.781 95.9821 55.921 92.4981 55.24 88.9801C53.193 78.4031 52.913 66.885 58.115 57.451C58.123 57.436 58.135 57.4211 58.144 57.4051Z" fill="#FCCA92"/>
<path d="M87.8911 62.7001C86.5381 62.3991 85.193 62.2251 83.923 62.2251C82.13 62.2251 79.6601 62.5601 78.0721 64.1561C77.3781 64.8531 76.8241 65.9981 76.3781 67.4571C78.1461 74.4201 77.9171 88.2161 76.5161 99.9361C76.6271 99.9651 76.741 99.9931 76.847 100.024C80.687 101.153 83.014 103.734 83.402 107.292C83.775 110.719 82.3291 114.68 79.6431 118.382C79.8281 118.833 80.011 119.226 80.191 119.501C81.878 122.085 84.737 123.629 87.841 123.629C88.474 123.629 89.088 123.545 89.694 123.423C88.83 121.447 88.171 119.375 87.588 117.295C82.839 100.342 82.679 82.1261 87.131 65.0931C87.339 64.2981 87.5821 63.4811 87.8911 62.7001Z" fill="#FCCA92"/>
<path d="M113.595 122.819C108.566 118.881 107.6 111.775 107.064 105.41C106.088 93.8099 105.321 81.8169 108.922 70.7809C108.847 70.7799 108.771 70.7729 108.697 70.7729C107.152 70.7729 105.025 71.0589 103.666 72.4259C103.416 72.6769 103.192 73.0229 102.981 73.4139C104.363 81.3069 103.786 95.3509 102.131 106.042C102.992 112.962 104.24 118.741 105.538 120.731C106.991 122.957 109.455 124.287 112.129 124.287H112.13C113.11 124.287 114.051 124.094 114.945 123.761C114.482 123.464 114.026 123.156 113.595 122.819Z" fill="#FCCA92"/>
<path d="M121.851 120.096C119.684 124.067 116.141 126.345 112.13 126.345H112.129C108.756 126.345 105.647 124.666 103.813 121.854C102.844 120.369 101.852 116.696 101.017 111.963C100.364 114.817 99.622 117.148 98.815 118.627C96.367 123.114 92.367 125.687 87.84 125.687C84.038 125.687 80.534 123.794 78.466 120.624C78.383 120.497 78.301 120.332 78.218 120.178C75.816 122.981 72.722 125.551 69.178 127.499C55.977 134.759 40.468 134.843 39.815 134.843C39.247 134.843 38.786 134.383 38.786 133.814C38.786 133.246 39.247 132.785 39.815 132.785C39.97 132.785 55.461 132.695 68.187 125.696C76.201 121.288 81.985 113.302 81.355 107.515C81.198 106.077 80.648 104.89 79.729 103.949C78.824 108.204 75.426 111.781 71.923 114.56C60.305 123.777 45.427 128.798 30.6 128.506C29.768 128.49 28.797 128.521 28.305 129.192C27.848 129.816 28.041 130.691 28.316 131.414C30.405 136.907 35.756 140.347 39.523 144.859C47.347 154.229 47.884 167.575 47.083 179.756C46.894 182.634 47.694 186.667 50.573 186.505C52.082 186.42 53.17 185.061 53.963 183.774C56.519 179.629 58.194 174.943 58.843 170.116C59.701 163.738 59.228 156.199 64.222 152.139C70.228 147.257 79.068 151.261 86.801 150.951C92.231 150.733 97.774 148.268 102.918 150.018C105.121 150.767 107.012 152.24 108.642 153.899C116.247 161.639 118.526 173.627 116.078 184.198C115.462 186.856 114.581 189.428 113.479 191.906C122.778 183.618 123.068 181.945 124.368 174.176C124.644 172.522 124.958 170.649 125.411 168.385C127.227 159.305 125.585 131.811 123.869 113.887C123.275 116.561 122.594 118.735 121.851 120.096ZM51.801 180.805C51.622 181.17 51.256 181.382 50.875 181.382C50.723 181.382 50.569 181.349 50.424 181.278C49.913 181.028 49.702 180.412 49.951 179.901C55.884 167.773 55.588 152.855 49.18 140.971C48.911 140.471 49.097 139.846 49.598 139.577C50.098 139.305 50.722 139.494 50.993 139.994C57.71 152.451 58.02 168.089 51.801 180.805ZM105.653 134.96C99.588 137.891 91.5 141.331 82.707 141.925C81.733 141.99 80.761 142.021 79.793 142.021C72.493 142.021 65.356 140.272 58.426 138.575C57.874 138.439 57.536 137.882 57.671 137.33C57.806 136.778 58.365 136.441 58.915 136.575C66.613 138.462 74.575 140.408 82.569 139.87C91.009 139.301 98.861 135.956 104.758 133.106C105.269 132.86 105.885 133.074 106.133 133.584C106.38 134.098 106.165 134.713 105.653 134.96Z" fill="#FCCA92"/>
<path d="M46.685 105.263C43.469 104.722 40.231 105.393 37.034 105.881C33.037 106.491 28.608 107.141 25.04 109.122C24.635 109.346 24.814 110 25.275 109.991C28.395 109.928 31.505 109.052 34.567 108.473C38.549 107.721 42.832 107.8 46.685 106.535C47.252 106.349 47.374 105.379 46.685 105.263Z" fill="#FFF9DF"/>
<path d="M56.134 104.724C55.273 104.115 54.213 103.892 53.166 104.104C52.049 104.331 51.433 104.8 50.623 105.545C50.376 105.772 50.556 106.261 50.907 106.231C51.728 106.161 52.626 106.262 53.459 106.27C54.31 106.278 55.121 106.22 55.957 106.076C56.651 105.957 56.598 105.053 56.134 104.724Z" fill="#FFF9DF"/>
<path d="M72.9 74.3211C72.38 71.0271 71.078 67.8551 69.592 64.8931C69.329 64.3701 68.476 64.7371 68.651 65.2901C69.521 68.0351 70.22 70.8151 70.697 73.6551C71.161 76.4151 70.79 79.6491 72.135 82.1491C72.264 82.3891 72.645 82.3911 72.774 82.1491C74.052 79.7441 73.309 76.9121 72.9 74.3211Z" fill="#FFF9DF"/>
<path d="M73.589 85.0491C73.446 83.7841 71.514 83.7161 71.563 85.0491C71.602 86.1031 71.529 87.1431 71.477 88.1951C71.428 89.1811 71.112 90.1211 71.778 90.9471C71.951 91.1621 72.278 91.1501 72.499 91.0401C73.409 90.5851 73.486 89.4951 73.607 88.5861C73.765 87.3971 73.724 86.2381 73.589 85.0491Z" fill="#FFF9DF"/>
<path d="M97.6491 72.249C97.4551 71.683 96.4651 71.735 96.5431 72.399C96.9101 75.517 97.3021 78.614 97.4071 81.755C97.5121 84.889 96.8221 88.065 97.2131 91.17C97.2641 91.577 97.8561 91.873 98.0821 91.406C100.727 85.942 99.5451 77.796 97.6491 72.249Z" fill="#FFF9DF"/>
<path d="M121.824 84.0191C121.771 83.3461 120.767 83.3261 120.763 84.0191C120.744 86.9271 120.582 89.8141 120.354 92.7121C120.156 95.2261 119.652 97.7371 120.16 100.227C120.223 100.536 120.695 100.595 120.836 100.315C123.176 95.6761 122.222 89.0261 121.824 84.0191Z" fill="#FFF9DF"/>
<path d="M41.778 18.728C40.977 14.501 39.23 10.26 36.504 6.923C35.942 6.235 35.06 7.11098 35.367 7.79998C36.864 11.153 38.384 14.389 39.305 17.961C40.227 21.537 39.46 25.501 40.705 28.906C40.853 29.312 41.44 29.467 41.675 29.033C43.339 25.957 42.404 22.029 41.778 18.728Z" fill="#FFF9DF"/>
<path d="M42.383 31.529C42.414 30.431 40.689 30.178 40.456 31.268C40.291 32.037 40.146 32.82 40.215 33.607C40.286 34.417 40.737 35.239 41.212 35.895C41.418 36.18 41.951 36.208 42.035 35.787C42.083 35.544 42.11 35.332 42.128 35.084C42.157 34.67 42.421 34.325 42.417 33.903C42.41 33.112 42.361 32.321 42.383 31.529Z" fill="#FFF9DF"/>
<path d="M43.662 167.649C43.552 167.208 42.862 167.302 42.872 167.756C42.945 171.001 42.976 174.272 42.937 177.52C42.903 180.342 42.3 183.344 43.096 186.072C43.236 186.551 43.969 186.71 44.213 186.218C46.787 181.026 45.011 173.037 43.662 167.649Z" fill="#FCCA92"/>
<path d="M46.326 189.012C46.276 188.541 45.62 188.401 45.473 188.896C45.054 190.306 44.419 191.94 44.583 193.438C44.69 194.419 46.05 194.711 46.361 193.679C46.803 192.207 46.484 190.503 46.326 189.012Z" fill="#FCCA92"/>
<path d="M67.309 112.39C62.336 116.278 57.695 119.315 51.546 121.053C51.014 121.203 51.106 122.06 51.679 122.032C57.999 121.726 64.699 118.498 67.966 112.896C68.223 112.456 67.663 112.113 67.309 112.39Z" fill="#FCCA92"/>
<path d="M71.153 110.538C70.624 110.679 70.145 110.904 69.647 111.127C69.182 111.334 69.592 112.079 70.053 111.821C70.525 111.557 70.978 111.304 71.404 110.968C71.616 110.801 71.384 110.477 71.153 110.538Z" fill="#FCCA92"/>
</svg>
