<svg width="338" height="192" viewBox="0 0 338 192" fill="none" xmlns="http://www.w3.org/2000/svg">
<path d="M300 16H38C34.6863 16 32 18.6863 32 22V186C32 189.314 34.6863 192 38 192H300C303.314 192 306 189.314 306 186V22C306 18.6863 303.314 16 300 16Z" fill="white"/>
<path d="M316 8H22C18.6863 8 16 10.6863 16 14V178C16 181.314 18.6863 184 22 184H316C319.314 184 322 181.314 322 178V14C322 10.6863 319.314 8 316 8Z" fill="white"/>
<path d="M332 0H6C2.68629 0 0 2.68629 0 6V170C0 173.314 2.68629 176 6 176H332C335.314 176 338 173.314 338 170V6C338 2.68629 335.314 0 332 0Z" fill="white"/>
<path d="M44 64C55.0457 64 64 55.0457 64 44C64 32.9543 55.0457 24 44 24C32.9543 24 24 32.9543 24 44C24 55.0457 32.9543 64 44 64Z" fill="#F7CC47"/>
<path d="M97 78H26C24.8954 78 24 78.8954 24 80V90C24 91.1046 24.8954 92 26 92H97C98.1046 92 99 91.1046 99 90V80C99 78.8954 98.1046 78 97 78Z" fill="#F5DED1"/>
<path d="M147 100H27C25.3431 100 24 101.343 24 103C24 104.657 25.3431 106 27 106H147C148.657 106 150 104.657 150 103C150 101.343 148.657 100 147 100Z" fill="#F5DED1"/>
<path fill-rule="evenodd" clip-rule="evenodd" d="M241.5 76.67C234.456 77.897 227.32 78.52 220.169 78.531C219.428 78.543 219.211 79.747 219.989 79.864C228.225 80.974 236.593 80.629 244.709 78.845C259.131 75.8586 272.693 69.6665 284.388 60.729C290.279 56.2616 295.639 51.1352 300.362 45.4502C302.869 42.3734 305.184 39.1495 307.295 35.7971L307.311 35.7192C307.728 33.641 308.151 31.5659 308.588 29.4933C308.873 29.4539 309.158 29.4172 309.444 29.383C310.916 29.212 311.002 26.9878 309.444 27.021C309.334 27.0227 309.224 27.0251 309.114 27.0279C309.213 26.5675 309.313 26.1072 309.415 25.647L312.292 26.857C310.783 29.9246 309.115 32.9086 307.295 35.7971L306.361 40.4845C306.504 40.2424 306.766 40.0874 307.057 40.0874C307.413 40.0874 307.727 40.3194 307.831 40.659C308.125 41.8426 308.29 43.0179 308.458 44.2071C308.514 44.6076 308.571 45.0098 308.633 45.4143L305.41 45.8509C305.436 46.5523 305.912 47.1829 306.621 47.3781C307.476 47.6133 308.364 47.1326 308.633 46.2893C309.112 44.6398 309.463 42.9561 309.685 41.253L310.622 36.4075C311.265 33.1053 311.874 29.7962 312.451 26.4804C312.642 25.7229 312.256 24.9387 311.539 24.6269C310.815 24.3166 309.973 24.5922 309.574 25.2699C309.301 25.8635 309.02 26.4536 308.733 27.0401C306.657 27.1183 304.593 27.3933 302.568 27.8615C301.401 28.1458 300.254 28.5096 299.136 28.9504C298.146 29.2017 297.251 29.7345 296.557 30.4842C296.399 30.7565 296.376 31.0866 296.495 31.3781C296.614 31.6697 296.861 31.8898 297.164 31.9742C298.148 32.0141 299.128 31.8237 300.026 31.4182C300.965 31.1309 301.917 30.8863 302.871 30.6413C302.951 30.6209 303.03 30.6006 303.109 30.5802C304.519 30.2134 305.945 29.9115 307.382 29.6755C304.346 35.3437 300.652 40.6419 296.371 45.4588C286.891 56.2339 275.132 64.7733 261.943 70.4605C255.383 73.2857 248.525 75.3685 241.5 76.67ZM305.896 42.5242C306.016 41.9352 306.152 41.3494 306.304 40.7673L306.361 40.4845C306.329 40.5386 306.303 40.597 306.284 40.659C306.126 41.2819 306.003 41.9026 305.896 42.5242ZM305.896 42.5242C305.672 43.6244 305.503 44.7355 305.392 45.8534L305.41 45.8509C305.405 45.7073 305.419 45.5607 305.453 45.4143C305.515 45.0215 305.572 44.631 305.63 44.242C305.714 43.667 305.798 43.0952 305.896 42.5242Z" fill="#EF6D58"/>
<path d="M310 144H27C25.3431 144 24 145.343 24 147C24 148.657 25.3431 150 27 150H310C311.657 150 313 148.657 313 147C313 145.343 311.657 144 310 144Z" fill="#F4E4FF"/>
<path d="M134 144H27C25.3431 144 24 145.343 24 147C24 148.657 25.3431 150 27 150H134C135.657 150 137 148.657 137 147C137 145.343 135.657 144 134 144Z" fill="#B550F8"/>
</svg>
