<svg width="409" height="58" viewBox="0 0 409 58" fill="none" xmlns="http://www.w3.org/2000/svg">
<g filter="url(#filter0_d_15_170)">
<path d="M404 25.0016L7.78554 25.0016" stroke="black" stroke-width="2" stroke-miterlimit="10" stroke-linecap="round" stroke-dasharray="10 10"/>
<path d="M29.3029 1.15037C29.7704 2.30567 29.5516 3.84354 28.8165 4.58144L8.50495 25.0017L28.8165 45.422C29.5516 46.1599 29.7689 47.6979 29.3029 48.8532C28.837 50.0085 27.8548 50.3438 27.126 49.6158L4.72882 27.0986C4.27706 26.6415 4.00001 25.8514 4.00001 25.0017C4.00001 24.152 4.27706 23.3619 4.72882 22.9048L27.126 0.387602C27.3905 0.126727 27.6832 2.32286e-06 27.9713 2.32286e-06C28.4907 2.32286e-06 29.0007 0.407495 29.3029 1.15037Z" fill="black"/>
</g>
<defs>
<filter id="filter0_d_15_170" x="0" y="0" width="409" height="58" filterUnits="userSpaceOnUse" color-interpolation-filters="sRGB">
<feFlood flood-opacity="0" result="BackgroundImageFix"/>
<feColorMatrix in="SourceAlpha" type="matrix" values="0 0 0 0 0 0 0 0 0 0 0 0 0 0 0 0 0 0 127 0" result="hardAlpha"/>
<feOffset dy="4"/>
<feGaussianBlur stdDeviation="2"/>
<feComposite in2="hardAlpha" operator="out"/>
<feColorMatrix type="matrix" values="0 0 0 0 0 0 0 0 0 0 0 0 0 0 0 0 0 0 0.25 0"/>
<feBlend mode="normal" in2="BackgroundImageFix" result="effect1_dropShadow_15_170"/>
<feBlend mode="normal" in="SourceGraphic" in2="effect1_dropShadow_15_170" result="shape"/>
</filter>
</defs>
</svg>
