<?xml version="1.0" encoding="utf-8"?>
<!-- Generator: Adobe Illustrator 27.5.0, SVG Export Plug-In . SVG Version: 6.00 Build 0)  -->
<svg version="1.1" xmlns="http://www.w3.org/2000/svg" xmlns:xlink="http://www.w3.org/1999/xlink" x="0px" y="0px"
	 viewBox="0 0 750 500" style="enable-background:new 0 0 750 500;" xml:space="preserve">
<g id="BACKGROUND">
	<rect style="fill:#7462D1;" width="750" height="500"/>
</g>
<g id="OBJECTS">
	<g>
		<defs>
			<rect id="SVGID_1_" width="750" height="500"/>
		</defs>
		<clipPath id="SVGID_00000145744923740233197080000000653493700769571764_">
			<use xlink:href="#SVGID_1_"  style="overflow:visible;"/>
		</clipPath>
		<g style="clip-path:url(#SVGID_00000145744923740233197080000000653493700769571764_);">
			<circle style="fill:#6359C1;" cx="624.774" cy="200.276" r="70.793"/>
			<g>
				<defs>
					<rect id="SVGID_00000034082356136734897250000001328534675676703656_" width="750" height="500"/>
				</defs>
				<clipPath id="SVGID_00000103235565003236539500000011568299819403396771_">
					<use xlink:href="#SVGID_00000034082356136734897250000001328534675676703656_"  style="overflow:visible;"/>
				</clipPath>
				<path style="clip-path:url(#SVGID_00000103235565003236539500000011568299819403396771_);fill:#6359C1;" d="M45.716,515.626
					c12.139-20.632,29.232-39.154,47.365-54.845c42.537-36.806,98.395-58.068,154.94-60.834
					c40.322-1.972,79.192,8.956,115.354,25.717c31.948,14.808,61.392,38.824,96.877,46.717
					c42.638,9.483,87.795-9.771,114.101-43.052c29.1-36.815,35.702-86,66.427-121.872c35.637-41.607,89.837-61.009,142.905-70.539
					c53.324-9.576,115.029-12.858,161.352,19.679c41.538,29.177,62.205,77.614,68.864,125.982
					c4.702,34.15,3.048,69.502-5.304,102.997c-10.607,42.539-29.248,83.227-49.934,121.883
					c-26.576,49.664-66.167,93.311-116.102,121.294c-57.105,32.001-123.883,42.956-188.479,49.332
					c-32.11,3.169-64.365,4.688-96.616,5.613c-13.267,0.381-26.538,0.632-39.809,0.823c-131.716,1.899-269.576-2.343-384.964-64.603
					c-46.396-25.034-89.807-68.485-102.101-120.297C23.407,569.341,30.845,540.9,45.716,515.626z"/>
				<path style="clip-path:url(#SVGID_00000103235565003236539500000011568299819403396771_);fill:#6359C1;" d="M363.072-55.715
					c-0.724,13.994-4.555,28.179-9.678,41.151c-12.017,30.43-35.029,56.198-63.335,72.448
					c-20.185,11.588-43.07,16.032-66.124,16.708c-20.367,0.598-41.906-4.287-62.242,0.863
					c-24.435,6.188-42.487,28.102-47.108,52.436c-5.113,26.918,4.636,54.433-1.563,81.282c-7.19,31.141-29.848,55.5-54.561,74.386
					c-24.832,18.977-55.651,36.848-88.137,31.913c-29.131-4.425-52.687-24.411-69.029-48.027
					c-11.538-16.674-20.133-35.641-24.791-55.389c-5.916-25.079-7.21-51.29-6.911-76.972c0.384-32.994,9.06-66.24,27.234-93.981
					C-82.39,9.38-51.015-13.842-19.538-34.091c15.647-10.066,31.81-19.305,48.129-28.231c6.713-3.672,13.463-7.277,20.228-10.851
					c67.15-35.47,139.097-69.328,215-66.887c30.519,0.982,64.426,12.401,84.582,36.347
					C360.182-89.717,363.959-72.858,363.072-55.715z"/>
				<path style="clip-path:url(#SVGID_00000103235565003236539500000011568299819403396771_);fill:#6359C1;" d="M871.868,158.085
					c-9.536,4.963-20.628,7.944-31.518,9.599c-42.258,6.423-85.7-11.156-112.726-43.89c-15.177-18.382-23.692-43.832-45.664-55.765
					c-28.545-15.502-58.991,3.969-83.55,18.254c-37.051,21.55-87.518,11.53-120.768-12.869
					c-19.158-14.058-33.682-35.424-36.115-59.062c-5.177-50.325,38.638-86.169,77.589-108.565
					c89.508-51.465,187.464,15.681,262.487,63.023c38.167,24.085,75.085,52.565,100.014,90.808
					c13.411,20.574,21.519,47.448,15.055,70.095C892.896,142.951,883.549,152.005,871.868,158.085z"/>
			</g>
			<path style="fill:#D335CE;" d="M689.813-20.891l-134.134,136.91c-5.032,5.136-13.274,5.22-18.411,0.189v0
				c-5.136-5.032-5.22-13.274-0.188-18.41l134.134-136.91c5.032-5.136,13.274-5.22,18.411-0.188l0,0
				C694.761-34.269,694.845-26.027,689.813-20.891z"/>
			<path style="fill:#E7A43F;" d="M170.491,460.32L36.357,597.23c-5.032,5.136-13.274,5.22-18.41,0.188l0,0
				c-5.136-5.032-5.22-13.274-0.188-18.411l134.134-136.909c5.032-5.136,13.275-5.22,18.411-0.188l0,0
				C175.438,446.942,175.523,455.184,170.491,460.32z"/>
			<path style="fill:#FFFFFF;" d="M764.096,290.616l-79.411,81.055c-2.979,3.041-7.859,3.091-10.9,0.112l0,0
				c-3.041-2.979-3.091-7.859-0.112-10.9l79.411-81.055c2.979-3.041,7.859-3.091,10.9-0.112l0,0
				C767.025,282.695,767.075,287.575,764.096,290.616z"/>
			<path style="fill:#FFFFFF;" d="M187.686,213.755l-79.411,81.055c-2.979,3.041-7.859,3.091-10.9,0.112v0
				c-3.041-2.979-3.091-7.859-0.112-10.9l79.411-81.055c2.979-3.041,7.859-3.091,10.9-0.112l0,0
				C190.615,205.835,190.665,210.714,187.686,213.755z"/>
			<g>
				<path style="fill:#D335CE;" d="M30.308,106.069c-39.75,0-72.09-32.339-72.09-72.089c0-39.75,32.34-72.089,72.09-72.089
					s72.089,32.339,72.089,72.089C102.396,73.73,70.058,106.069,30.308,106.069z M30.308-18.108
					c-28.723,0-52.09,23.367-52.09,52.089c0,28.722,23.367,52.089,52.09,52.089c28.722,0,52.089-23.367,52.089-52.089
					C82.396,5.259,59.029-18.108,30.308-18.108z"/>
			</g>
			<g>
				<path style="fill:#E7A43F;" d="M760.002,224.961c-29.781,0-54.009-24.228-54.009-54.009s24.229-54.008,54.009-54.008
					c29.78,0,54.008,24.228,54.008,54.008S789.782,224.961,760.002,224.961z M760.002,131.927
					c-21.519,0-39.025,17.507-39.025,39.025s17.506,39.025,39.025,39.025c21.518,0,39.025-17.507,39.025-39.025
					S781.52,131.927,760.002,131.927z"/>
			</g>
			<g>
				<g>
					<path style="fill:#6359C1;" d="M362.641,170.952c-35.227,0-63.886-28.659-63.886-63.885c0-35.227,28.66-63.885,63.886-63.885
						s63.885,28.659,63.885,63.885C426.527,142.293,397.868,170.952,362.641,170.952z M362.641,60.906
						c-25.454,0-46.162,20.708-46.162,46.161c0,25.453,20.708,46.161,46.162,46.161c25.453,0,46.161-20.708,46.161-46.161
						C408.803,81.614,388.095,60.906,362.641,60.906z"/>
				</g>
			</g>
			<g>
				
					<rect x="183.075" y="37.814" transform="matrix(-1 -1.224647e-16 1.224647e-16 -1 436.3192 145.7969)" style="fill:none;stroke:#FFFFFF;stroke-width:1.3;stroke-miterlimit:10;" width="70.168" height="70.168"/>
				<polyline style="fill:none;stroke:#FFFFFF;stroke-width:1.3;stroke-miterlimit:10;" points="253.244,107.983 226.757,134.469 
					155.954,134.469 155.954,64.012 182.614,37.353 				"/>
				
					<line style="fill:none;stroke:#FFFFFF;stroke-width:1.3;stroke-miterlimit:10;" x1="183.075" y1="107.983" x2="156.272" y2="134.786"/>
			</g>
			<g>
				
					<rect x="557.714" y="98.793" transform="matrix(0.9999 -0.0146 0.0146 0.9999 -1.9629 8.7238)" style="fill:none;stroke:#FFFFFF;stroke-width:1.3;stroke-miterlimit:10;" width="80.711" height="80.711"/>
				<polyline style="fill:none;stroke:#FFFFFF;stroke-width:1.3;stroke-miterlimit:10;" points="557.131,99.385 587.15,68.479 
					668.582,67.293 669.762,148.327 639.547,179.435 				"/>
				
					<line style="fill:none;stroke:#FFFFFF;stroke-width:1.3;stroke-miterlimit:10;" x1="637.833" y1="98.21" x2="668.211" y2="66.934"/>
			</g>
			<g>
				<g>
					<g>
						<path style="fill:#060000;" d="M629.477,192.608l-11.13,11.13l11.323,11.323l-10.615,10.615l-11.323-11.323l-11.13,11.13
							l-10.101-10.101l11.13-11.13l-11.387-11.387l10.615-10.615l11.387,11.387l11.13-11.13L629.477,192.608z"/>
					</g>
				</g>
				<g>
					<g>
						<path style="fill:#060000;" d="M685.439,192.608l-11.13,11.13l11.323,11.323l-10.615,10.615l-11.323-11.323l-11.13,11.13
							l-10.101-10.101l11.13-11.13l-11.387-11.387l10.615-10.615l11.387,11.387l11.13-11.13L685.439,192.608z"/>
					</g>
				</g>
				<g>
					<g>
						<path style="fill:#060000;" d="M740.405,192.608l-11.13,11.13l11.323,11.323l-10.615,10.615l-11.323-11.323l-11.13,11.13
							l-10.101-10.101l11.13-11.13l-11.387-11.387l10.615-10.615l11.387,11.387l11.13-11.13L740.405,192.608z"/>
					</g>
				</g>
			</g>
			
				<ellipse transform="matrix(0.223 -0.9748 0.9748 0.223 -342.7177 339.3877)" style="fill:#6359C1;" cx="41.533" cy="384.675" rx="70.793" ry="70.793"/>
			<g>
				<g>
					<g>
						<path style="fill:#060000;" d="M21.411,362.629l-11.13,11.13l11.323,11.323l-10.615,10.615l-11.323-11.323l-11.13,11.13
							l-10.101-10.101l11.13-11.13l-11.387-11.387l10.615-10.615l11.387,11.387l11.13-11.13L21.411,362.629z"/>
					</g>
				</g>
				<g>
					<g>
						<path style="fill:#060000;" d="M77.374,362.629l-11.13,11.13l11.323,11.323l-10.615,10.615l-11.323-11.323l-11.13,11.13
							l-10.101-10.101l11.13-11.13l-11.387-11.387l10.615-10.615l11.387,11.387l11.13-11.13L77.374,362.629z"/>
					</g>
				</g>
				<g>
					<g>
						<path style="fill:#060000;" d="M132.34,362.629l-11.13,11.13l11.323,11.323l-10.615,10.615l-11.323-11.323l-11.13,11.13
							l-10.101-10.101l11.13-11.13l-11.387-11.387l10.615-10.615l11.387,11.387l11.13-11.13L132.34,362.629z"/>
					</g>
				</g>
			</g>
			<g>
				<path style="fill:#FFFFFF;" d="M799.288,28.5c0,1.101,0.892,1.993,1.993,1.993c1.101,0,1.993-0.892,1.993-1.993
					c0-1.101-0.892-1.993-1.993-1.993C800.181,26.507,799.288,27.4,799.288,28.5z"/>
				<path style="fill:#FFFFFF;" d="M779.645,28.5c0,1.101,0.892,1.993,1.993,1.993c1.101,0,1.993-0.892,1.993-1.993
					c0-1.101-0.892-1.993-1.993-1.993C780.537,26.507,779.645,27.4,779.645,28.5z"/>
				<path style="fill:#FFFFFF;" d="M760.001,28.5c0,1.101,0.892,1.993,1.993,1.993c1.101,0,1.993-0.892,1.993-1.993
					c0-1.101-0.892-1.993-1.993-1.993C760.893,26.507,760.001,27.4,760.001,28.5z"/>
				<path style="fill:#FFFFFF;" d="M740.358,28.5c0,1.101,0.892,1.993,1.993,1.993c1.101,0,1.993-0.892,1.993-1.993
					c0-1.101-0.892-1.993-1.993-1.993C741.25,26.507,740.358,27.4,740.358,28.5z"/>
				<path style="fill:#FFFFFF;" d="M720.714,28.5c0,1.101,0.892,1.993,1.993,1.993s1.993-0.892,1.993-1.993
					c0-1.101-0.892-1.993-1.993-1.993S720.714,27.4,720.714,28.5z"/>
				<path style="fill:#FFFFFF;" d="M799.288,46.72c0,1.101,0.892,1.993,1.993,1.993c1.101,0,1.993-0.892,1.993-1.993
					c0-1.101-0.892-1.993-1.993-1.993C800.181,44.728,799.288,45.62,799.288,46.72z"/>
				<path style="fill:#FFFFFF;" d="M779.645,46.72c0,1.101,0.892,1.993,1.993,1.993c1.101,0,1.993-0.892,1.993-1.993
					c0-1.101-0.892-1.993-1.993-1.993C780.537,44.728,779.645,45.62,779.645,46.72z"/>
				<path style="fill:#FFFFFF;" d="M760.001,46.72c0,1.101,0.892,1.993,1.993,1.993c1.101,0,1.993-0.892,1.993-1.993
					c0-1.101-0.892-1.993-1.993-1.993C760.893,44.728,760.001,45.62,760.001,46.72z"/>
				<path style="fill:#FFFFFF;" d="M740.358,46.72c0,1.101,0.892,1.993,1.993,1.993c1.101,0,1.993-0.892,1.993-1.993
					c0-1.101-0.892-1.993-1.993-1.993C741.25,44.728,740.358,45.62,740.358,46.72z"/>
				<path style="fill:#FFFFFF;" d="M720.714,46.72c0,1.101,0.892,1.993,1.993,1.993s1.993-0.892,1.993-1.993
					c0-1.101-0.892-1.993-1.993-1.993S720.714,45.62,720.714,46.72z"/>
				<path style="fill:#FFFFFF;" d="M799.288,64.941c0,1.101,0.892,1.993,1.993,1.993c1.101,0,1.993-0.892,1.993-1.993
					c0-1.101-0.892-1.993-1.993-1.993C800.181,62.948,799.288,63.84,799.288,64.941z"/>
				<path style="fill:#FFFFFF;" d="M779.645,64.941c0,1.101,0.892,1.993,1.993,1.993c1.101,0,1.993-0.892,1.993-1.993
					c0-1.101-0.892-1.993-1.993-1.993C780.537,62.948,779.645,63.84,779.645,64.941z"/>
				<path style="fill:#FFFFFF;" d="M760.001,64.941c0,1.101,0.892,1.993,1.993,1.993c1.101,0,1.993-0.892,1.993-1.993
					c0-1.101-0.892-1.993-1.993-1.993C760.893,62.948,760.001,63.84,760.001,64.941z"/>
				<path style="fill:#FFFFFF;" d="M740.358,64.941c0,1.101,0.892,1.993,1.993,1.993c1.101,0,1.993-0.892,1.993-1.993
					c0-1.101-0.892-1.993-1.993-1.993C741.25,62.948,740.358,63.84,740.358,64.941z"/>
				<path style="fill:#FFFFFF;" d="M720.714,64.941c0,1.101,0.892,1.993,1.993,1.993s1.993-0.892,1.993-1.993
					c0-1.101-0.892-1.993-1.993-1.993S720.714,63.84,720.714,64.941z"/>
				<path style="fill:#FFFFFF;" d="M799.288,83.161c0,1.101,0.892,1.993,1.993,1.993c1.101,0,1.993-0.892,1.993-1.993
					c0-1.101-0.892-1.993-1.993-1.993C800.181,81.168,799.288,82.06,799.288,83.161z"/>
				<path style="fill:#FFFFFF;" d="M779.645,83.161c0,1.101,0.892,1.993,1.993,1.993c1.101,0,1.993-0.892,1.993-1.993
					c0-1.101-0.892-1.993-1.993-1.993C780.537,81.168,779.645,82.06,779.645,83.161z"/>
				<path style="fill:#FFFFFF;" d="M760.001,83.161c0,1.101,0.892,1.993,1.993,1.993c1.101,0,1.993-0.892,1.993-1.993
					c0-1.101-0.892-1.993-1.993-1.993C760.893,81.168,760.001,82.06,760.001,83.161z"/>
				<path style="fill:#FFFFFF;" d="M740.358,83.161c0,1.101,0.892,1.993,1.993,1.993c1.101,0,1.993-0.892,1.993-1.993
					c0-1.101-0.892-1.993-1.993-1.993C741.25,81.168,740.358,82.06,740.358,83.161z"/>
				<path style="fill:#FFFFFF;" d="M720.714,83.161c0,1.101,0.892,1.993,1.993,1.993s1.993-0.892,1.993-1.993
					c0-1.101-0.892-1.993-1.993-1.993S720.714,82.06,720.714,83.161z"/>
				<path style="fill:#FFFFFF;" d="M799.288,101.381c0,1.101,0.892,1.993,1.993,1.993c1.101,0,1.993-0.892,1.993-1.993
					c0-1.101-0.892-1.993-1.993-1.993C800.181,99.388,799.288,100.28,799.288,101.381z"/>
				<path style="fill:#FFFFFF;" d="M779.645,101.381c0,1.101,0.892,1.993,1.993,1.993c1.101,0,1.993-0.892,1.993-1.993
					c0-1.101-0.892-1.993-1.993-1.993C780.537,99.388,779.645,100.28,779.645,101.381z"/>
				<path style="fill:#FFFFFF;" d="M760.001,101.381c0,1.101,0.892,1.993,1.993,1.993c1.101,0,1.993-0.892,1.993-1.993
					c0-1.101-0.892-1.993-1.993-1.993C760.893,99.388,760.001,100.28,760.001,101.381z"/>
				<circle style="fill:#FFFFFF;" cx="742.35" cy="101.381" r="1.993"/>
				<path style="fill:#FFFFFF;" d="M720.714,101.381c0,1.101,0.892,1.993,1.993,1.993s1.993-0.892,1.993-1.993
					c0-1.101-0.892-1.993-1.993-1.993S720.714,100.28,720.714,101.381z"/>
			</g>
			<g>
				<path style="fill:#FFFFFF;" d="M45.364,434.207c0,1.101,0.892,1.993,1.993,1.993c1.101,0,1.993-0.892,1.993-1.993
					c0-1.101-0.892-1.993-1.993-1.993C46.256,432.214,45.364,433.106,45.364,434.207z"/>
				<path style="fill:#FFFFFF;" d="M25.72,434.207c0,1.101,0.892,1.993,1.993,1.993c1.101,0,1.993-0.892,1.993-1.993
					c0-1.101-0.892-1.993-1.993-1.993C26.612,432.214,25.72,433.106,25.72,434.207z"/>
				<path style="fill:#FFFFFF;" d="M6.077,434.207c0,1.101,0.892,1.993,1.993,1.993c1.101,0,1.993-0.892,1.993-1.993
					c0-1.101-0.892-1.993-1.993-1.993C6.969,432.214,6.077,433.106,6.077,434.207z"/>
				<path style="fill:#FFFFFF;" d="M-13.567,434.207c0,1.101,0.892,1.993,1.993,1.993s1.993-0.892,1.993-1.993
					c0-1.101-0.892-1.993-1.993-1.993S-13.567,433.106-13.567,434.207z"/>
				<path style="fill:#FFFFFF;" d="M-33.211,434.207c0,1.101,0.892,1.993,1.993,1.993c1.101,0,1.993-0.892,1.993-1.993
					c0-1.101-0.892-1.993-1.993-1.993C-32.318,432.214-33.211,433.106-33.211,434.207z"/>
				<path style="fill:#FFFFFF;" d="M45.364,452.427c0,1.101,0.892,1.993,1.993,1.993c1.101,0,1.993-0.892,1.993-1.993
					c0-1.101-0.892-1.993-1.993-1.993C46.256,450.434,45.364,451.326,45.364,452.427z"/>
				<path style="fill:#FFFFFF;" d="M25.72,452.427c0,1.101,0.892,1.993,1.993,1.993c1.101,0,1.993-0.892,1.993-1.993
					c0-1.101-0.892-1.993-1.993-1.993C26.612,450.434,25.72,451.326,25.72,452.427z"/>
				<path style="fill:#FFFFFF;" d="M6.077,452.427c0,1.101,0.892,1.993,1.993,1.993c1.101,0,1.993-0.892,1.993-1.993
					c0-1.101-0.892-1.993-1.993-1.993C6.969,450.434,6.077,451.326,6.077,452.427z"/>
				<path style="fill:#FFFFFF;" d="M-13.567,452.427c0,1.101,0.892,1.993,1.993,1.993s1.993-0.892,1.993-1.993
					c0-1.101-0.892-1.993-1.993-1.993S-13.567,451.326-13.567,452.427z"/>
				<path style="fill:#FFFFFF;" d="M-33.211,452.427c0,1.101,0.892,1.993,1.993,1.993c1.101,0,1.993-0.892,1.993-1.993
					c0-1.101-0.892-1.993-1.993-1.993C-32.318,450.434-33.211,451.326-33.211,452.427z"/>
				<path style="fill:#FFFFFF;" d="M45.364,470.647c0,1.101,0.892,1.993,1.993,1.993c1.101,0,1.993-0.892,1.993-1.993
					c0-1.101-0.892-1.993-1.993-1.993C46.256,468.654,45.364,469.546,45.364,470.647z"/>
				<path style="fill:#FFFFFF;" d="M25.72,470.647c0,1.101,0.892,1.993,1.993,1.993c1.101,0,1.993-0.892,1.993-1.993
					c0-1.101-0.892-1.993-1.993-1.993C26.612,468.654,25.72,469.546,25.72,470.647z"/>
				<path style="fill:#FFFFFF;" d="M6.077,470.647c0,1.101,0.892,1.993,1.993,1.993c1.101,0,1.993-0.892,1.993-1.993
					c0-1.101-0.892-1.993-1.993-1.993C6.969,468.654,6.077,469.546,6.077,470.647z"/>
				<path style="fill:#FFFFFF;" d="M-13.567,470.647c0,1.101,0.892,1.993,1.993,1.993s1.993-0.892,1.993-1.993
					c0-1.101-0.892-1.993-1.993-1.993S-13.567,469.546-13.567,470.647z"/>
				<path style="fill:#FFFFFF;" d="M-33.211,470.647c0,1.101,0.892,1.993,1.993,1.993c1.101,0,1.993-0.892,1.993-1.993
					c0-1.101-0.892-1.993-1.993-1.993C-32.318,468.654-33.211,469.546-33.211,470.647z"/>
				<path style="fill:#FFFFFF;" d="M45.364,488.867c0,1.101,0.892,1.993,1.993,1.993c1.101,0,1.993-0.892,1.993-1.993
					c0-1.101-0.892-1.993-1.993-1.993C46.256,486.874,45.364,487.767,45.364,488.867z"/>
				<path style="fill:#FFFFFF;" d="M25.72,488.867c0,1.101,0.892,1.993,1.993,1.993c1.101,0,1.993-0.892,1.993-1.993
					c0-1.101-0.892-1.993-1.993-1.993C26.612,486.874,25.72,487.767,25.72,488.867z"/>
				<path style="fill:#FFFFFF;" d="M6.077,488.867c0,1.101,0.892,1.993,1.993,1.993c1.101,0,1.993-0.892,1.993-1.993
					c0-1.101-0.892-1.993-1.993-1.993C6.969,486.874,6.077,487.767,6.077,488.867z"/>
				<path style="fill:#FFFFFF;" d="M-13.567,488.867c0,1.101,0.892,1.993,1.993,1.993s1.993-0.892,1.993-1.993
					c0-1.101-0.892-1.993-1.993-1.993S-13.567,487.767-13.567,488.867z"/>
				<path style="fill:#FFFFFF;" d="M-33.211,488.867c0,1.101,0.892,1.993,1.993,1.993c1.101,0,1.993-0.892,1.993-1.993
					c0-1.101-0.892-1.993-1.993-1.993C-32.318,486.874-33.211,487.767-33.211,488.867z"/>
				<path style="fill:#FFFFFF;" d="M45.364,507.087c0,1.101,0.892,1.993,1.993,1.993c1.101,0,1.993-0.892,1.993-1.993
					c0-1.101-0.892-1.993-1.993-1.993C46.256,505.095,45.364,505.987,45.364,507.087z"/>
				<path style="fill:#FFFFFF;" d="M25.72,507.087c0,1.101,0.892,1.993,1.993,1.993c1.101,0,1.993-0.892,1.993-1.993
					c0-1.101-0.892-1.993-1.993-1.993C26.612,505.095,25.72,505.987,25.72,507.087z"/>
				<path style="fill:#FFFFFF;" d="M6.077,507.087c0,1.101,0.892,1.993,1.993,1.993c1.101,0,1.993-0.892,1.993-1.993
					c0-1.101-0.892-1.993-1.993-1.993C6.969,505.095,6.077,505.987,6.077,507.087z"/>
				<circle style="fill:#FFFFFF;" cx="-11.574" cy="507.087" r="1.993"/>
				<path style="fill:#FFFFFF;" d="M-33.211,507.087c0,1.101,0.892,1.993,1.993,1.993c1.101,0,1.993-0.892,1.993-1.993
					c0-1.101-0.892-1.993-1.993-1.993C-32.318,505.095-33.211,505.987-33.211,507.087z"/>
			</g>
			<g>
				<path style="fill:#FFFFFF;" d="M342.276-48.661c0,1.101,0.892,1.993,1.993,1.993c1.101,0,1.993-0.892,1.993-1.993
					c0-1.101-0.892-1.993-1.993-1.993C343.168-50.653,342.276-49.761,342.276-48.661z"/>
				<path style="fill:#FFFFFF;" d="M322.632-48.661c0,1.101,0.892,1.993,1.993,1.993c1.101,0,1.993-0.892,1.993-1.993
					c0-1.101-0.892-1.993-1.993-1.993C323.524-50.653,322.632-49.761,322.632-48.661z"/>
				<path style="fill:#FFFFFF;" d="M302.988-48.661c0,1.101,0.892,1.993,1.993,1.993c1.101,0,1.993-0.892,1.993-1.993
					c0-1.101-0.892-1.993-1.993-1.993C303.88-50.653,302.988-49.761,302.988-48.661z"/>
				<path style="fill:#FFFFFF;" d="M283.345-48.661c0,1.101,0.892,1.993,1.993,1.993s1.993-0.892,1.993-1.993
					c0-1.101-0.892-1.993-1.993-1.993S283.345-49.761,283.345-48.661z"/>
				<path style="fill:#FFFFFF;" d="M263.701-48.661c0,1.101,0.892,1.993,1.993,1.993c1.101,0,1.993-0.892,1.993-1.993
					c0-1.101-0.892-1.993-1.993-1.993C264.593-50.653,263.701-49.761,263.701-48.661z"/>
				<path style="fill:#FFFFFF;" d="M342.276-30.441c0,1.101,0.892,1.993,1.993,1.993c1.101,0,1.993-0.892,1.993-1.993
					c0-1.101-0.892-1.993-1.993-1.993C343.168-32.433,342.276-31.541,342.276-30.441z"/>
				<path style="fill:#FFFFFF;" d="M322.632-30.441c0,1.101,0.892,1.993,1.993,1.993c1.101,0,1.993-0.892,1.993-1.993
					c0-1.101-0.892-1.993-1.993-1.993C323.524-32.433,322.632-31.541,322.632-30.441z"/>
				<path style="fill:#FFFFFF;" d="M302.988-30.441c0,1.101,0.892,1.993,1.993,1.993c1.101,0,1.993-0.892,1.993-1.993
					c0-1.101-0.892-1.993-1.993-1.993C303.88-32.433,302.988-31.541,302.988-30.441z"/>
				<path style="fill:#FFFFFF;" d="M283.345-30.441c0,1.101,0.892,1.993,1.993,1.993s1.993-0.892,1.993-1.993
					c0-1.101-0.892-1.993-1.993-1.993S283.345-31.541,283.345-30.441z"/>
				<path style="fill:#FFFFFF;" d="M263.701-30.441c0,1.101,0.892,1.993,1.993,1.993c1.101,0,1.993-0.892,1.993-1.993
					c0-1.101-0.892-1.993-1.993-1.993C264.593-32.433,263.701-31.541,263.701-30.441z"/>
				<path style="fill:#FFFFFF;" d="M342.276-12.22c0,1.101,0.892,1.993,1.993,1.993c1.101,0,1.993-0.892,1.993-1.993
					s-0.892-1.993-1.993-1.993C343.168-14.213,342.276-13.321,342.276-12.22z"/>
				<path style="fill:#FFFFFF;" d="M322.632-12.22c0,1.101,0.892,1.993,1.993,1.993c1.101,0,1.993-0.892,1.993-1.993
					s-0.892-1.993-1.993-1.993C323.524-14.213,322.632-13.321,322.632-12.22z"/>
				<path style="fill:#FFFFFF;" d="M302.988-12.22c0,1.101,0.892,1.993,1.993,1.993c1.101,0,1.993-0.892,1.993-1.993
					s-0.892-1.993-1.993-1.993C303.88-14.213,302.988-13.321,302.988-12.22z"/>
				<path style="fill:#FFFFFF;" d="M283.345-12.22c0,1.101,0.892,1.993,1.993,1.993s1.993-0.892,1.993-1.993
					s-0.892-1.993-1.993-1.993S283.345-13.321,283.345-12.22z"/>
				<path style="fill:#FFFFFF;" d="M263.701-12.22c0,1.101,0.892,1.993,1.993,1.993c1.101,0,1.993-0.892,1.993-1.993
					s-0.892-1.993-1.993-1.993C264.593-14.213,263.701-13.321,263.701-12.22z"/>
				<path style="fill:#FFFFFF;" d="M342.276,6c0,1.101,0.892,1.993,1.993,1.993c1.101,0,1.993-0.892,1.993-1.993
					s-0.892-1.993-1.993-1.993C343.168,4.007,342.276,4.899,342.276,6z"/>
				<path style="fill:#FFFFFF;" d="M322.632,6c0,1.101,0.892,1.993,1.993,1.993c1.101,0,1.993-0.892,1.993-1.993
					s-0.892-1.993-1.993-1.993C323.524,4.007,322.632,4.899,322.632,6z"/>
				<path style="fill:#FFFFFF;" d="M302.988,6c0,1.101,0.892,1.993,1.993,1.993c1.101,0,1.993-0.892,1.993-1.993
					s-0.892-1.993-1.993-1.993C303.88,4.007,302.988,4.899,302.988,6z"/>
				<path style="fill:#FFFFFF;" d="M283.345,6c0,1.101,0.892,1.993,1.993,1.993S287.33,7.101,287.33,6s-0.892-1.993-1.993-1.993
					S283.345,4.899,283.345,6z"/>
				<path style="fill:#FFFFFF;" d="M263.701,6c0,1.101,0.892,1.993,1.993,1.993c1.101,0,1.993-0.892,1.993-1.993
					s-0.892-1.993-1.993-1.993C264.593,4.007,263.701,4.899,263.701,6z"/>
				<path style="fill:#FFFFFF;" d="M342.276,24.22c0,1.101,0.892,1.993,1.993,1.993c1.101,0,1.993-0.892,1.993-1.993
					c0-1.101-0.892-1.993-1.993-1.993C343.168,22.227,342.276,23.119,342.276,24.22z"/>
				<path style="fill:#FFFFFF;" d="M322.632,24.22c0,1.101,0.892,1.993,1.993,1.993c1.101,0,1.993-0.892,1.993-1.993
					c0-1.101-0.892-1.993-1.993-1.993C323.524,22.227,322.632,23.119,322.632,24.22z"/>
				<path style="fill:#FFFFFF;" d="M302.988,24.22c0,1.101,0.892,1.993,1.993,1.993c1.101,0,1.993-0.892,1.993-1.993
					c0-1.101-0.892-1.993-1.993-1.993C303.88,22.227,302.988,23.119,302.988,24.22z"/>
				<circle style="fill:#FFFFFF;" cx="285.337" cy="24.22" r="1.993"/>
				<path style="fill:#FFFFFF;" d="M263.701,24.22c0,1.101,0.892,1.993,1.993,1.993c1.101,0,1.993-0.892,1.993-1.993
					c0-1.101-0.892-1.993-1.993-1.993C264.593,22.227,263.701,23.119,263.701,24.22z"/>
			</g>
			<g>
				<path style="fill:#E7A43F;" d="M340.302,192.026L480.228,53.493c6.048-5.988,6.048-15.696,0-21.684h0
					c-6.048-5.988-15.853-5.988-21.901,0L318.401,170.343c-6.048,5.988-6.048,15.696,0,21.683l0,0
					C324.449,198.014,334.255,198.014,340.302,192.026z"/>
				<path style="fill:#FFFFFF;" d="M458.326,53.493c6.048,5.988,15.853,5.988,21.901,0c6.048-5.988,6.048-15.696,0-21.684
					c-6.048-5.988-15.853-5.988-21.901,0C452.278,37.797,452.278,47.505,458.326,53.493z"/>
			</g>
			<g>
				<path style="fill:#D335CE;" d="M629.67,546.152l80.208-80.208c6.271-6.271,6.271-16.438,0-22.708v0
					c-6.271-6.271-16.438-6.271-22.708,0l-80.208,80.208c-6.271,6.271-6.271,16.437,0,22.708l0,0
					C613.232,552.422,623.399,552.422,629.67,546.152z"/>
				<path style="fill:#FFFFFF;" d="M687.169,465.944c6.271,6.271,16.437,6.271,22.708,0s6.271-16.438,0-22.708
					c-6.271-6.271-16.438-6.271-22.708,0C680.899,449.507,680.899,459.673,687.169,465.944z"/>
			</g>
			<g>
				<path style="fill:#D335CE;" d="M101.92,121.647l-80.208,80.208c-6.271,6.271-6.271,16.438,0,22.708v0
					c6.271,6.271,16.437,6.271,22.708,0l80.208-80.208c6.271-6.271,6.271-16.437,0-22.708l0,0
					C118.358,115.376,108.191,115.376,101.92,121.647z"/>
				<path style="fill:#FFFFFF;" d="M44.421,201.854c-6.271-6.271-16.437-6.271-22.708,0s-6.271,16.438,0,22.708
					c6.271,6.271,16.437,6.271,22.708,0C50.691,218.292,50.691,208.125,44.421,201.854z"/>
			</g>
			<polygon style="fill:#6359C1;" points="408.893,420.415 508.593,420.415 508.593,312.193 			"/>
			<g>
				<path style="fill:#D335CE;" d="M408.728,567.884c-39.75,0-72.09-32.339-72.09-72.089s32.34-72.089,72.09-72.089
					c39.75,0,72.089,32.339,72.089,72.089S448.478,567.884,408.728,567.884z M408.728,443.706c-28.723,0-52.09,23.367-52.09,52.089
					s23.367,52.089,52.09,52.089c28.722,0,52.089-23.367,52.089-52.089S437.45,443.706,408.728,443.706z"/>
			</g>
			<g>
				
					<rect x="375.173" y="366.766" style="fill:none;stroke:#FFFFFF;stroke-width:1.3;stroke-miterlimit:10;" width="70.168" height="70.168"/>
				<polyline style="fill:none;stroke:#FFFFFF;stroke-width:1.3;stroke-miterlimit:10;" points="375.173,436.934 401.659,463.42 
					472.462,463.42 472.462,392.964 445.803,366.304 				"/>
				
					<line style="fill:none;stroke:#FFFFFF;stroke-width:1.3;stroke-miterlimit:10;" x1="445.341" y1="436.934" x2="472.145" y2="463.738"/>
			</g>
			
				<line style="fill:none;stroke:#D335CE;stroke-width:3;stroke-miterlimit:10;" x1="393.756" y1="-3.105" x2="319.52" y2="71.066"/>
			
				<line style="fill:none;stroke:#E7A43F;stroke-width:2;stroke-miterlimit:10;" x1="599.504" y1="331.71" x2="525.269" y2="405.881"/>
			
				<line style="fill:none;stroke:#D335CE;stroke-width:3;stroke-miterlimit:10;" x1="201.914" y1="352.572" x2="127.679" y2="426.743"/>
			<g>
				<circle style="fill:none;stroke:#FFFFFF;stroke-width:1.3;stroke-miterlimit:10;" cx="212.906" cy="476.502" r="47.659"/>
				
					<ellipse transform="matrix(0.9725 -0.2329 0.2329 0.9725 -105.1161 62.6842)" style="fill:none;stroke:#FFFFFF;stroke-width:1.3;stroke-miterlimit:10;" cx="212.906" cy="476.502" rx="31.454" ry="31.454"/>
				<circle style="fill:none;stroke:#FFFFFF;stroke-width:1.3;stroke-miterlimit:10;" cx="212.906" cy="476.502" r="15.249"/>
			</g>
			<g>
				
					<ellipse transform="matrix(0.7071 -0.7071 0.7071 0.7071 166.6199 396.0457)" style="fill:none;stroke:#FFFFFF;stroke-width:2;stroke-miterlimit:10;" cx="561.379" cy="-3.105" rx="47.659" ry="47.659"/>
				
					<ellipse transform="matrix(0.9612 -0.2757 0.2757 0.9612 22.6102 154.6422)" style="fill:none;stroke:#FFFFFF;stroke-width:2;stroke-miterlimit:10;" cx="561.379" cy="-3.105" rx="31.454" ry="31.454"/>
				
					<ellipse transform="matrix(0.9239 -0.3827 0.3827 0.9239 43.9207 214.5942)" style="fill:none;stroke:#FFFFFF;stroke-width:2;stroke-miterlimit:10;" cx="561.379" cy="-3.105" rx="15.249" ry="15.249"/>
			</g>
			<g>
				<path style="fill:#FFFFFF;" d="M661.428,403.493c0,1.101,0.892,1.993,1.993,1.993s1.993-0.892,1.993-1.993
					c0-1.101-0.892-1.993-1.993-1.993S661.428,402.393,661.428,403.493z"/>
				<path style="fill:#FFFFFF;" d="M641.784,403.493c0,1.101,0.892,1.993,1.993,1.993s1.993-0.892,1.993-1.993
					c0-1.101-0.892-1.993-1.993-1.993S641.784,402.393,641.784,403.493z"/>
				<path style="fill:#FFFFFF;" d="M622.141,403.493c0,1.101,0.892,1.993,1.993,1.993c1.101,0,1.993-0.892,1.993-1.993
					c0-1.101-0.892-1.993-1.993-1.993C623.033,401.5,622.141,402.393,622.141,403.493z"/>
				<path style="fill:#FFFFFF;" d="M602.497,403.493c0,1.101,0.892,1.993,1.993,1.993s1.993-0.892,1.993-1.993
					c0-1.101-0.892-1.993-1.993-1.993S602.497,402.393,602.497,403.493z"/>
				<path style="fill:#FFFFFF;" d="M582.853,403.493c0,1.101,0.892,1.993,1.993,1.993c1.101,0,1.993-0.892,1.993-1.993
					c0-1.101-0.892-1.993-1.993-1.993C583.746,401.5,582.853,402.393,582.853,403.493z"/>
				<path style="fill:#FFFFFF;" d="M661.428,421.714c0,1.101,0.892,1.993,1.993,1.993s1.993-0.892,1.993-1.993
					c0-1.101-0.892-1.993-1.993-1.993S661.428,420.613,661.428,421.714z"/>
				<path style="fill:#FFFFFF;" d="M641.784,421.714c0,1.101,0.892,1.993,1.993,1.993s1.993-0.892,1.993-1.993
					c0-1.101-0.892-1.993-1.993-1.993S641.784,420.613,641.784,421.714z"/>
				<path style="fill:#FFFFFF;" d="M622.141,421.714c0,1.101,0.892,1.993,1.993,1.993c1.101,0,1.993-0.892,1.993-1.993
					c0-1.101-0.892-1.993-1.993-1.993C623.033,419.721,622.141,420.613,622.141,421.714z"/>
				<path style="fill:#FFFFFF;" d="M602.497,421.714c0,1.101,0.892,1.993,1.993,1.993s1.993-0.892,1.993-1.993
					c0-1.101-0.892-1.993-1.993-1.993S602.497,420.613,602.497,421.714z"/>
				<path style="fill:#FFFFFF;" d="M582.853,421.714c0,1.101,0.892,1.993,1.993,1.993c1.101,0,1.993-0.892,1.993-1.993
					c0-1.101-0.892-1.993-1.993-1.993C583.746,419.721,582.853,420.613,582.853,421.714z"/>
				<path style="fill:#FFFFFF;" d="M661.428,439.934c0,1.101,0.892,1.993,1.993,1.993s1.993-0.892,1.993-1.993
					c0-1.101-0.892-1.993-1.993-1.993S661.428,438.833,661.428,439.934z"/>
				<path style="fill:#FFFFFF;" d="M641.784,439.934c0,1.101,0.892,1.993,1.993,1.993s1.993-0.892,1.993-1.993
					c0-1.101-0.892-1.993-1.993-1.993S641.784,438.833,641.784,439.934z"/>
				<path style="fill:#FFFFFF;" d="M622.141,439.934c0,1.101,0.892,1.993,1.993,1.993c1.101,0,1.993-0.892,1.993-1.993
					c0-1.101-0.892-1.993-1.993-1.993C623.033,437.941,622.141,438.833,622.141,439.934z"/>
				<path style="fill:#FFFFFF;" d="M602.497,439.934c0,1.101,0.892,1.993,1.993,1.993s1.993-0.892,1.993-1.993
					c0-1.101-0.892-1.993-1.993-1.993S602.497,438.833,602.497,439.934z"/>
				<path style="fill:#FFFFFF;" d="M582.853,439.934c0,1.101,0.892,1.993,1.993,1.993c1.101,0,1.993-0.892,1.993-1.993
					c0-1.101-0.892-1.993-1.993-1.993C583.746,437.941,582.853,438.833,582.853,439.934z"/>
				<path style="fill:#FFFFFF;" d="M661.428,458.154c0,1.101,0.892,1.993,1.993,1.993s1.993-0.892,1.993-1.993
					s-0.892-1.993-1.993-1.993S661.428,457.053,661.428,458.154z"/>
				<path style="fill:#FFFFFF;" d="M641.784,458.154c0,1.101,0.892,1.993,1.993,1.993s1.993-0.892,1.993-1.993
					s-0.892-1.993-1.993-1.993S641.784,457.053,641.784,458.154z"/>
				<path style="fill:#FFFFFF;" d="M622.141,458.154c0,1.101,0.892,1.993,1.993,1.993c1.101,0,1.993-0.892,1.993-1.993
					s-0.892-1.993-1.993-1.993C623.033,456.161,622.141,457.053,622.141,458.154z"/>
				<path style="fill:#FFFFFF;" d="M602.497,458.154c0,1.101,0.892,1.993,1.993,1.993s1.993-0.892,1.993-1.993
					s-0.892-1.993-1.993-1.993S602.497,457.053,602.497,458.154z"/>
				<path style="fill:#FFFFFF;" d="M582.853,458.154c0,1.101,0.892,1.993,1.993,1.993c1.101,0,1.993-0.892,1.993-1.993
					s-0.892-1.993-1.993-1.993C583.746,456.161,582.853,457.053,582.853,458.154z"/>
				<path style="fill:#FFFFFF;" d="M661.428,476.374c0,1.101,0.892,1.993,1.993,1.993s1.993-0.892,1.993-1.993
					c0-1.101-0.892-1.993-1.993-1.993S661.428,475.273,661.428,476.374z"/>
				<path style="fill:#FFFFFF;" d="M641.784,476.374c0,1.101,0.892,1.993,1.993,1.993s1.993-0.892,1.993-1.993
					c0-1.101-0.892-1.993-1.993-1.993S641.784,475.273,641.784,476.374z"/>
				<path style="fill:#FFFFFF;" d="M622.141,476.374c0,1.101,0.892,1.993,1.993,1.993c1.101,0,1.993-0.892,1.993-1.993
					c0-1.101-0.892-1.993-1.993-1.993C623.033,474.381,622.141,475.273,622.141,476.374z"/>
				<circle style="fill:#FFFFFF;" cx="604.49" cy="476.374" r="1.993"/>
				<path style="fill:#FFFFFF;" d="M582.853,476.374c0,1.101,0.892,1.993,1.993,1.993c1.101,0,1.993-0.892,1.993-1.993
					c0-1.101-0.892-1.993-1.993-1.993C583.746,474.381,582.853,475.273,582.853,476.374z"/>
			</g>
			<g>
				<g>
					<path style="fill:#D335CE;" d="M432.728,184.683c-3.076,0-6.07-1.594-7.716-4.444c-1.187-2.057-1.502-4.452-0.888-6.747
						c0.616-2.294,2.087-4.212,4.143-5.399c2.055-1.186,4.45-1.503,6.747-0.888c2.294,0.615,4.211,2.086,5.399,4.143
						c2.45,4.246,0.991,9.694-3.254,12.146C435.763,184.3,434.235,184.683,432.728,184.683z M432.703,169.559
						c-1.08,0-2.145,0.283-3.106,0.837c-1.443,0.833-2.474,2.177-2.905,3.784c-0.43,1.608-0.209,3.288,0.623,4.729
						c1.718,2.976,5.537,3.999,8.514,2.281c2.975-1.718,3.998-5.537,2.28-8.513c-0.832-1.442-2.176-2.473-3.784-2.904
						C433.788,169.63,433.244,169.559,432.703,169.559z"/>
				</g>
				<g>
					<path style="fill:#E7A43F;" d="M23.259,287.194c-3.076,0-6.07-1.595-7.715-4.444c-1.187-2.057-1.502-4.452-0.888-6.747
						c0.615-2.294,2.087-4.212,4.143-5.399c2.056-1.186,4.45-1.503,6.747-0.888c2.294,0.615,4.211,2.086,5.399,4.143
						c2.45,4.246,0.991,9.694-3.254,12.146C26.295,286.811,24.767,287.194,23.259,287.194z M23.234,272.07
						c-1.08,0-2.145,0.283-3.106,0.837c-1.443,0.833-2.474,2.177-2.905,3.784c-0.43,1.608-0.209,3.288,0.623,4.729
						c1.718,2.976,5.537,3.999,8.514,2.281c2.975-1.718,3.998-5.537,2.28-8.513c-0.832-1.442-2.176-2.473-3.784-2.904
						C24.32,272.141,23.776,272.07,23.234,272.07z"/>
				</g>
				<g>
					<path style="fill:#D335CE;" d="M689.351,310.021c-3.076,0-6.07-1.595-7.715-4.444c-1.187-2.057-1.502-4.452-0.888-6.747
						c0.615-2.294,2.087-4.212,4.143-5.399c2.055-1.186,4.45-1.503,6.747-0.888c2.294,0.615,4.211,2.086,5.399,4.143
						c2.45,4.246,0.991,9.694-3.254,12.146C692.386,309.638,690.858,310.021,689.351,310.021z M689.326,294.896
						c-1.08,0-2.145,0.283-3.106,0.838c-1.443,0.833-2.474,2.177-2.905,3.784c-0.43,1.608-0.209,3.288,0.623,4.729
						c1.718,2.976,5.537,3.999,8.514,2.281c2.975-1.718,3.998-5.537,2.28-8.513c-0.832-1.442-2.176-2.473-3.784-2.904
						C690.411,294.968,689.867,294.896,689.326,294.896z"/>
				</g>
				<g>
					<path style="fill:#E7A43F;" d="M135.581,33.112c-3.076,0-6.07-1.594-7.715-4.444c-1.187-2.057-1.502-4.452-0.888-6.747
						c0.616-2.294,2.087-4.212,4.143-5.399c2.055-1.186,4.45-1.503,6.747-0.888c2.294,0.615,4.211,2.086,5.399,4.143
						c2.45,4.246,0.991,9.694-3.254,12.146C138.617,32.729,137.089,33.112,135.581,33.112z M135.556,17.988
						c-1.08,0-2.145,0.283-3.106,0.837c-1.442,0.833-2.473,2.177-2.904,3.784c-0.43,1.608-0.209,3.288,0.623,4.729
						c1.718,2.976,5.537,3.999,8.514,2.281c2.975-1.718,3.998-5.537,2.28-8.513c-0.832-1.442-2.176-2.473-3.784-2.904
						C136.642,18.059,136.098,17.988,135.556,17.988z"/>
				</g>
				<g>
					<path style="fill:#E7A43F;" d="M313.06,448.826c-3.076,0-6.07-1.594-7.716-4.444c-1.187-2.057-1.502-4.452-0.888-6.747
						c0.615-2.294,2.087-4.211,4.143-5.399c2.055-1.186,4.45-1.503,6.747-0.888c2.294,0.615,4.211,2.086,5.399,4.143
						c2.45,4.246,0.991,9.694-3.254,12.146C316.096,448.443,314.568,448.826,313.06,448.826z M313.036,433.702
						c-1.08,0-2.145,0.283-3.106,0.837c-1.442,0.833-2.473,2.177-2.905,3.784c-0.43,1.608-0.209,3.288,0.623,4.729
						c1.718,2.976,5.537,3.999,8.514,2.281c2.975-1.718,3.998-5.537,2.28-8.513c-0.832-1.442-2.176-2.473-3.784-2.904
						C314.121,433.773,313.577,433.702,313.036,433.702z"/>
				</g>
				<g>
					<path style="fill:#E7A43F;" d="M680.458,40.072c-3.076,0-6.07-1.595-7.716-4.444c-1.187-2.057-1.502-4.452-0.888-6.747
						c0.615-2.294,2.087-4.212,4.143-5.399c2.055-1.186,4.45-1.503,6.747-0.888c2.294,0.615,4.211,2.086,5.399,4.143
						c2.45,4.246,0.991,9.694-3.254,12.146C683.494,39.689,681.966,40.072,680.458,40.072z M680.434,24.947
						c-1.08,0-2.145,0.283-3.106,0.838c-1.443,0.833-2.474,2.177-2.904,3.784c-0.43,1.608-0.209,3.288,0.623,4.729
						c1.718,2.976,5.537,3.999,8.514,2.281c2.975-1.718,3.998-5.537,2.28-8.513c-0.832-1.442-2.176-2.473-3.784-2.904
						C681.519,25.019,680.975,24.947,680.434,24.947z"/>
				</g>
			</g>
		</g>
	</g>
</g>
</svg>
