<svg width="251" height="151" viewBox="0 0 251 151" fill="none" xmlns="http://www.w3.org/2000/svg">
<path opacity="0.7" d="M125.085 150.042C194.121 150.042 250.085 144.914 250.085 138.588C250.085 132.263 194.121 127.135 125.085 127.135C56.0494 127.135 0.0850067 132.263 0.0850067 138.588C0.0850067 144.914 56.0494 150.042 125.085 150.042Z" fill="url(#paint0_radial_18_123)"/>
<path d="M219.316 121.738C227.953 99.0327 236.144 82.6467 245.875 68.6048L246.002 68.4221L245.821 68.3C236.928 62.3009 233.502 58.7193 226.229 51.1099C224.091 48.8728 221.988 46.5309 219.955 44.2657C216.899 40.8614 213.738 37.3403 210.386 34.0992C206.562 30.401 202.386 26.9761 197.97 23.9177C188.345 17.2528 177.525 12.3182 166.681 9.64988L166.495 9.60449L166.44 9.7947C161.466 26.7708 151.218 43.0325 135.113 59.5104L134.848 59.7817L135.209 59.8703C146.007 62.5278 156.781 67.4408 166.365 74.0787C170.763 77.1242 174.923 80.536 178.731 84.2181C182.073 87.4505 185.23 90.9662 188.282 94.3661C190.317 96.6324 192.42 98.9754 194.562 101.217C201.499 108.475 209.216 115.063 217.499 120.8C218.003 121.149 218.509 121.495 219.017 121.837L219.224 121.978L219.316 121.738Z" fill="white"/>
<path d="M219.316 121.738C220.284 119.194 221.273 116.66 222.258 114.207L222.324 114.043L222.182 113.946C221.719 113.63 221.266 113.319 220.822 113.011C219.089 111.811 217.449 110.639 215.946 109.528L215.774 109.4L215.864 109.198C216.962 106.723 218.154 104.168 219.406 101.604L219.47 101.47L219.587 101.557C221.341 102.872 223.282 104.267 225.354 105.702L225.693 105.936L225.79 105.708C226.917 103.097 228.069 100.527 229.214 98.0686L229.292 97.9011L229.144 97.7974C227.153 96.4076 225.288 95.0556 223.601 93.7792L223.441 93.6582L223.537 93.4766C224.801 91.086 226.137 88.6371 227.508 86.1957L227.586 86.0574L227.71 86.1514C229.303 87.3629 231.055 88.6436 232.919 89.9567L233.105 90.0874L233.211 89.88C234.504 87.3586 235.822 84.9043 237.131 82.585L237.229 82.4121L237.07 82.2997C235.307 81.0525 233.632 79.8248 232.092 78.649L231.941 78.5345L232.04 78.368C233.443 76.0131 234.889 73.6463 236.337 71.3346L236.426 71.192L236.556 71.2914C238.077 72.4521 239.73 73.6647 241.469 74.8967L241.639 75.0178L241.753 74.8384C243.096 72.7082 244.483 70.6095 245.876 68.6004L246.003 68.4177L245.821 68.2956C243.927 67.0182 242.294 65.8607 240.791 64.727L240.623 64.6006L240.506 64.78C239.202 66.7588 237.856 68.8522 236.507 71.0018L236.417 71.1444L236.287 71.0439C233.871 69.1905 231.69 67.3986 229.621 65.5646L229.471 65.4306L229.58 65.2555C230.947 63.067 232.314 60.9294 233.643 58.8998L233.744 58.7463L233.613 58.6209C231.512 56.6118 229.387 54.4039 226.826 51.728L226.625 51.5173L226.501 51.7853C225.418 54.1045 224.216 56.5211 222.929 58.9678L222.87 59.0802L222.783 58.9894C221.323 57.4872 219.868 55.9418 218.312 54.2872L216.705 52.5796L216.822 52.3743C218.212 49.9556 219.51 47.5683 220.682 45.2772L220.751 45.1421L220.287 44.6255C218.008 42.0879 215.65 39.4639 213.24 36.9653L213.032 36.7502L212.911 37.029C211.793 39.6228 210.603 42.2597 209.374 44.8665L209.322 44.9756L209.237 44.8913C207.188 42.8563 205.129 40.8743 202.941 38.8306L202.755 38.6566L202.85 38.4145C203.94 35.6673 204.951 32.8887 205.853 30.1577L205.9 30.0172L205.789 29.9232C203.482 27.9595 201.043 26.0726 198.54 24.3121L198.318 24.1554L198.233 24.4212C197.418 26.9998 196.493 29.653 195.483 32.3084L195.437 32.4305L195.336 32.3538C192.978 30.5738 190.488 28.8868 187.946 27.3489L187.77 27.243L187.843 27.0452C188.808 24.4428 189.683 21.8653 190.445 19.3829L190.496 19.2143L190.348 19.13C187.809 17.6926 185.189 16.3611 182.564 15.1723L182.358 15.0794L182.289 15.3031C181.546 17.7218 180.696 20.2334 179.761 22.7688L179.703 22.9255L179.556 22.8563C176.962 21.6329 174.269 20.5057 171.546 19.5061L171.392 19.4488L171.45 19.2899C172.368 16.8313 173.212 14.378 173.958 11.9982L174.022 11.7951L173.828 11.7291C171.447 10.9272 169.044 10.2258 166.683 9.64549L166.497 9.6001L166.442 9.7903C165.756 12.129 164.948 14.5109 164.041 16.8669L163.955 17.0896L164.177 17.1522C166.543 17.8212 168.903 18.582 171.195 19.4142L171.349 19.4704L171.29 19.6293C170.345 22.1387 169.321 24.6579 168.245 27.1176L168.166 27.2949L167.988 27.2279C165.626 26.333 163.192 25.5149 160.751 24.7962L160.591 24.7487L160.514 24.9032C159.352 27.2625 158.05 29.6628 156.647 32.0371L156.506 32.2771L156.764 32.3549C159.341 33.1287 161.899 34.0095 164.367 34.9713L164.503 35.0243L164.435 35.1572C163.184 37.5986 161.858 40.0064 160.49 42.3149L160.377 42.504L160.176 42.4251C157.509 41.3746 154.74 40.4214 151.947 39.5936L151.811 39.5536L151.728 39.6736C150.137 41.9528 148.436 44.2353 146.672 46.4584L146.47 46.7124L146.775 46.7999C149.75 47.6612 152.702 48.6631 155.548 49.7806L155.661 49.8249L155.589 49.9275C153.954 52.2608 152.236 54.5141 150.483 56.6248L150.313 56.8291L150.066 56.735C147.018 55.5776 143.869 54.5541 140.706 53.6939L140.59 53.6625L140.507 53.7544C138.801 55.6565 136.988 57.5921 135.117 59.506L134.852 59.7773L135.213 59.8659C138.372 60.643 141.58 61.6286 144.747 62.7958L144.864 62.839L144.954 62.7493C146.736 60.965 148.485 59.0564 150.15 57.0766L150.323 56.8712L150.567 56.9652C153.32 58.0287 156.027 59.2153 158.613 60.4949L158.721 60.5479L158.641 60.6441C157.004 62.6164 155.302 64.5044 153.58 66.2574L153.369 66.4724L153.636 66.6032C156.195 67.8568 158.725 69.2359 161.155 70.7013L161.287 70.7813L161.397 70.67C163.123 68.9322 164.826 67.0647 166.46 65.1193L166.6 64.9518L166.78 65.0653C169.173 66.5729 171.507 68.207 173.709 69.9178L173.831 70.0129L173.728 70.1329C172.128 71.9874 170.449 73.7782 168.737 75.4565L168.555 75.6359L168.759 75.7872C170.972 77.4191 173.128 79.1516 175.168 80.9358L175.303 81.0536L175.434 80.9315C177.111 79.3666 178.772 77.6796 180.372 75.9169L180.495 75.7818L180.626 75.904C182.9 78.0319 185.029 80.0875 187.133 82.1884L187.272 82.3257L187.153 82.4834C185.745 84.3661 184.274 86.24 182.783 88.0546L182.661 88.2037L182.793 88.3431C184.657 90.322 186.506 92.3808 188.292 94.3715C189.061 95.2285 189.831 96.0855 190.604 96.9393L190.813 97.1684L190.937 96.8809C191.956 94.5357 193.092 92.1419 194.312 89.7643L194.368 89.6562L195.78 91.1552C197.758 93.2572 199.626 95.2436 201.558 97.1889L201.735 97.3672L201.628 97.5996C200.479 100.08 199.424 102.563 198.493 104.981L198.441 105.117L198.544 105.217C200.752 107.356 203.07 109.468 205.437 111.492L205.65 111.675L205.753 111.407C206.702 108.945 207.717 106.472 208.769 104.055L208.821 103.936L208.918 104.018C210.964 105.754 213.138 107.473 215.564 109.278L215.736 109.405L215.647 109.608C214.58 112.024 213.542 114.518 212.563 117.021L212.502 117.177L212.632 117.275C214.239 118.487 215.881 119.674 217.515 120.805C218.014 121.151 218.516 121.493 219.019 121.833L219.226 121.973L219.316 121.738ZM201.947 97.5434L201.77 97.3662L201.878 97.1349C203.002 94.7346 204.238 92.2684 205.655 89.5957L205.715 89.4822L205.804 89.5719C208.069 91.862 210.143 93.816 212.33 95.7202L212.5 95.8683L212.4 96.0758C211.143 98.6792 209.952 101.268 208.858 103.768L208.806 103.888L208.709 103.806C206.398 101.834 204.248 99.8443 201.947 97.5434ZM187.45 82.4651L187.312 82.3267L187.43 82.1679C188.998 80.0615 190.581 77.8277 192.133 75.5289L192.215 75.4068L192.319 75.5106C194.752 77.9563 196.847 80.1555 198.399 81.7993L198.559 81.969L198.441 82.1722C196.938 84.7616 195.62 87.1587 194.412 89.4984L194.356 89.6065L194.273 89.5179C192.397 87.5283 190.118 85.1355 187.45 82.4651ZM183.785 56.2866C182.336 58.6425 180.809 60.9391 179.25 63.1113L179.149 63.2529L179.015 63.1459C176.799 61.3822 174.443 59.693 172.013 58.1314L171.881 58.046L171.972 57.9163C173.512 55.7127 175.021 53.3794 176.458 50.9802L176.552 50.8245L176.698 50.9196C179.137 52.4986 181.509 54.2094 183.743 56.0012L183.891 56.1201L183.785 56.2866ZM166.59 64.914L166.408 64.8005C163.995 63.2983 161.461 61.8836 158.879 60.5965L158.77 60.5425L158.85 60.4463C160.574 58.3561 162.275 56.1093 163.905 53.7706L164.03 53.5912L164.217 53.6874C166.779 54.9962 169.297 56.4368 171.702 57.9714L171.834 58.0557L171.743 58.1854C170.142 60.4614 168.455 62.6693 166.729 64.7476L166.59 64.914ZM168.713 46.2768L168.791 46.1428C170.16 43.8182 171.492 41.3887 172.748 38.9192L172.833 38.7528L172.993 38.8338C175.59 40.1534 178.134 41.6005 180.553 43.1362L180.707 43.2346L180.621 43.4032C179.348 45.8813 178.006 48.3108 176.63 50.6224L176.539 50.777L176.391 50.683C173.97 49.13 171.432 47.671 168.848 46.346L168.713 46.2768ZM192.011 40.6797L191.919 40.8851C190.756 43.4594 189.523 45.9926 188.256 48.4124L188.188 48.542L188.076 48.4523C185.816 46.6497 183.405 44.9248 180.907 43.3221L180.753 43.2227L180.838 43.0541C182.074 40.63 183.273 38.1022 184.402 35.5387L184.466 35.3928L184.594 35.4728C187.092 37.0366 189.533 38.7463 191.839 40.5436L192.011 40.6797ZM205.381 52.9601L205.271 53.174C203.986 55.6597 202.654 58.1357 201.31 60.5327L201.245 60.6484L201.154 60.5565C199.263 58.6598 197.366 56.8139 195.357 54.9129L195.196 54.7595L195.304 54.5606C196.626 52.1376 197.908 49.6109 199.112 47.0517L199.165 46.9371L199.254 47.0214C201.334 48.9787 203.283 50.8667 205.213 52.7936L205.381 52.9601ZM218.634 66.7772L218.519 66.9793C217.174 69.3396 215.842 71.6243 214.366 74.151L214.298 74.2677L214.205 74.1726C212.599 72.531 211.007 70.8386 209.304 69.0283L207.664 67.2873L207.785 67.0982C209.269 64.7616 210.722 62.4726 212.161 60.1512L212.233 60.0356L213.785 61.6837C215.404 63.4042 216.932 65.0286 218.474 66.6108L218.634 66.7772ZM220.612 80.3479L220.505 80.537C219.132 82.9979 217.796 85.4641 216.536 87.8687L216.471 87.993L216.369 87.9022C214.294 86.0758 212.308 84.191 210.123 81.9712L209.961 81.808L210.077 81.6059C211.417 79.2639 212.792 76.9101 214.123 74.6319L214.304 74.3228L214.397 74.4179C216.533 76.5945 218.457 78.4339 220.452 80.2074L220.612 80.3479ZM223.304 93.8516C221.983 96.36 220.711 98.863 219.524 101.288L219.458 101.422L219.343 101.335C216.927 99.5157 214.758 97.7736 212.711 96.0077L212.541 95.8607L212.642 95.6532C213.827 93.2108 215.096 90.6927 216.416 88.1681L216.481 88.0449L216.584 88.1356C218.645 89.9394 220.822 91.7107 223.24 93.549L223.4 93.6701L223.304 93.8516ZM198.599 81.9625L198.717 81.7604C199.967 79.6163 201.362 77.3089 202.981 74.7076L203.054 74.5919L204.789 76.4357C206.504 78.2578 208.123 79.9783 209.76 81.6502L209.921 81.8145L209.805 82.0166C208.273 84.7043 206.951 87.0917 205.767 89.3158L205.706 89.4293L205.617 89.3396C203.863 87.5585 202.134 85.7213 200.294 83.7663L198.599 81.9625ZM207.623 67.2927L207.365 67.6969C205.973 69.8886 204.533 72.1549 203.121 74.4212L203.048 74.5368L202.956 74.4396C201.451 72.8455 199.417 70.7089 197.033 68.3086L196.879 68.154L196.995 67.9638C198.41 65.6532 199.82 63.2486 201.188 60.817L201.253 60.7013L201.344 60.7932C203.787 63.2486 205.902 65.4695 207.471 67.1295L207.623 67.2927ZM196.721 68.3475C195.271 70.7056 193.781 73.0227 192.294 75.2339L192.211 75.356L192.108 75.2523C190.14 73.2789 188.155 71.3498 186.039 69.3536L185.904 69.2261L186.018 69.0748C187.617 66.949 189.187 64.6914 190.683 62.3646L190.764 62.2381L190.869 62.3376C192.892 64.2515 194.795 66.105 196.686 68.0038L196.84 68.1584L196.721 68.3475ZM184.08 56.2325L183.933 56.1126L184.036 55.944C185.445 53.6377 186.822 51.2082 188.129 48.7236L188.197 48.5928L188.309 48.6825C189.77 49.8584 191.19 51.0807 192.53 52.3159C193.385 53.1049 194.201 53.8668 194.989 54.6114L195.152 54.7649L195.043 54.9627C193.704 57.3943 192.288 59.7827 190.833 62.0598L190.753 62.1852L190.648 62.0857C189.817 61.3022 188.954 60.4949 188.049 59.6606C186.795 58.5042 185.459 57.3511 184.08 56.2325ZM231.897 78.5463L231.798 78.7139C230.388 81.0871 228.994 83.4961 227.654 85.8737L227.576 86.012L227.453 85.918C225.052 84.0829 222.879 82.3051 220.813 80.4819L220.653 80.3414L220.759 80.1523C222.085 77.7844 223.474 75.3701 224.89 72.9763L224.965 72.8487L225.074 72.946C227.145 74.7822 229.327 76.5772 231.746 78.4329L231.897 78.5463ZM229.426 65.4425L229.317 65.6176C227.877 67.9303 226.435 70.3036 225.033 72.6704L224.957 72.7979L224.848 72.7007C222.874 70.9402 220.964 69.1083 218.834 66.9371L218.673 66.7718L218.788 66.5686C220.311 63.8895 221.627 61.4957 222.812 59.251L222.871 59.1386L222.96 59.2294C225.214 61.5421 227.22 63.4734 229.274 65.3074L229.426 65.4425ZM212.226 59.9837L212.134 59.8865C210.346 57.9919 208.17 55.7062 205.59 53.1222L205.422 52.9536L205.533 52.7385C206.808 50.2582 208.067 47.7045 209.277 45.1475L209.328 45.0372L209.413 45.1215C212.246 47.9422 214.585 50.3944 216.5 52.4197L216.659 52.5894L216.541 52.7936C215.277 54.9821 213.889 57.2959 212.297 59.867L212.226 59.9837ZM202.712 38.6728L202.615 38.9138C201.553 41.5648 200.406 44.2072 199.208 46.7664L199.154 46.8799L199.064 46.7967C198.414 46.185 197.749 45.5646 197.054 44.9227C195.529 43.5156 193.903 42.1301 192.224 40.8051L192.053 40.67L192.144 40.4647C193.296 37.8947 194.392 35.2534 195.402 32.6132L195.449 32.49L195.549 32.5667C197.639 34.1564 199.653 35.8435 201.535 37.5802C201.813 37.8363 202.083 38.0871 202.352 38.3367L202.712 38.6728ZM187.724 27.2657L187.65 27.4635C186.679 30.0594 185.623 32.6629 184.512 35.2026L184.449 35.3474L184.32 35.2674C181.866 33.7436 179.292 32.3127 176.669 31.0137L176.512 30.9359L176.583 30.7716C177.673 28.2621 178.706 25.6932 179.657 23.1352L179.716 22.9774L179.861 23.0465C182.495 24.3013 185.081 25.6857 187.547 27.1609L187.724 27.2657ZM164.546 35.0113L164.614 34.8773C165.826 32.4975 166.999 30.0226 168.101 27.5229L168.181 27.3435L168.357 27.4116C171.072 28.4534 173.748 29.6185 176.314 30.8753L176.471 30.9521L176.398 31.1163C175.301 33.628 174.124 36.1266 172.903 38.542L172.819 38.7074L172.658 38.6263C170.083 37.3327 167.399 36.1342 164.682 35.0643L164.546 35.0113ZM160.274 42.7439L160.389 42.5526L160.588 42.6315C163.298 43.7122 165.97 44.9205 168.53 46.2217L168.666 46.2909L168.587 46.4249C167.168 48.8187 165.673 51.1552 164.142 53.3707L164.018 53.5491L163.829 53.4529C161.24 52.1463 158.546 50.9369 155.821 49.8594L155.708 49.8151L155.78 49.7125C157.33 47.4862 158.842 45.1421 160.274 42.7439ZM180.609 75.6035L180.488 75.7386L180.357 75.6165C179.929 75.2166 179.493 74.8124 179.047 74.4006C177.454 72.9319 175.755 71.4881 173.998 70.1112L173.876 70.0161L173.979 69.8962C175.722 67.8622 177.429 65.6911 179.054 63.4453L179.157 63.3026L179.289 63.4096C180.754 64.5865 182.179 65.8132 183.528 67.0571C184.288 67.7596 185.014 68.4372 185.721 69.1029L185.857 69.2304L185.743 69.3807C184.088 71.5616 182.361 73.655 180.609 75.6035Z" fill="#231F20"/>
<path d="M219.316 121.738C227.953 99.0327 236.144 82.6467 245.875 68.6048L246.002 68.4221L245.821 68.3C236.928 62.3009 233.502 58.7193 226.229 51.1099C224.091 48.8728 221.988 46.5309 219.955 44.2657C216.899 40.8614 213.738 37.3403 210.386 34.0992C206.562 30.401 202.386 26.9761 197.97 23.9177C188.345 17.2528 177.525 12.3182 166.681 9.64988L166.495 9.60449L166.44 9.7947C161.466 26.7708 151.218 43.0325 135.113 59.5104L134.848 59.7817L135.209 59.8703C146.007 62.5278 156.781 67.4408 166.365 74.0787C170.763 77.1242 174.923 80.536 178.731 84.2181C182.073 87.4505 185.23 90.9662 188.282 94.3661C190.317 96.6324 192.42 98.9754 194.562 101.217C201.499 108.475 209.216 115.063 217.499 120.8C218.003 121.149 218.509 121.495 219.017 121.837L219.224 121.978L219.316 121.738Z" fill="url(#paint1_radial_18_123)"/>
<path d="M219.316 121.738C227.953 99.0327 236.144 82.6467 245.875 68.6048L246.002 68.4221L245.821 68.3C236.928 62.3009 233.502 58.7193 226.229 51.1099C224.091 48.8728 221.988 46.5309 219.955 44.2657C216.899 40.8614 213.738 37.3403 210.386 34.0992C206.562 30.401 202.386 26.9761 197.97 23.9177C188.345 17.2528 177.525 12.3182 166.681 9.64988L166.495 9.60449L166.44 9.7947C161.466 26.7708 151.218 43.0325 135.113 59.5104L134.848 59.7817L135.209 59.8703C146.007 62.5278 156.781 67.4408 166.365 74.0787C170.763 77.1242 174.923 80.536 178.731 84.2181C182.073 87.4505 185.23 90.9662 188.282 94.3661C190.317 96.6324 192.42 98.9754 194.562 101.217C201.499 108.475 209.216 115.063 217.499 120.8C218.003 121.149 218.509 121.495 219.017 121.837L219.224 121.978L219.316 121.738Z" fill="url(#paint2_radial_18_123)"/>
<path d="M219.316 121.738C227.953 99.0327 236.144 82.6467 245.875 68.6048L246.002 68.4221L245.821 68.3C236.928 62.3009 233.502 58.7193 226.229 51.1099C224.091 48.8728 221.988 46.5309 219.955 44.2657C216.899 40.8614 213.738 37.3403 210.386 34.0992C206.562 30.401 202.386 26.9761 197.97 23.9177C188.345 17.2528 177.525 12.3182 166.681 9.64988L166.495 9.60449L166.44 9.7947C161.466 26.7708 151.218 43.0325 135.113 59.5104L134.848 59.7817L135.209 59.8703C146.007 62.5278 156.781 67.4408 166.365 74.0787C170.763 77.1242 174.923 80.536 178.731 84.2181C182.073 87.4505 185.23 90.9662 188.282 94.3661C190.317 96.6324 192.42 98.9754 194.562 101.217C201.499 108.475 209.216 115.063 217.499 120.8C218.003 121.149 218.509 121.495 219.017 121.837L219.224 121.978L219.316 121.738Z" fill="url(#paint3_radial_18_123)"/>
<path opacity="0.5" d="M219.316 121.738C227.953 99.0327 236.144 82.6467 245.875 68.6048L246.002 68.4221L245.821 68.3C236.928 62.3009 233.502 58.7193 226.229 51.1099C224.091 48.8728 221.988 46.5309 219.955 44.2657C216.899 40.8614 213.738 37.3403 210.386 34.0992C206.562 30.401 202.386 26.9761 197.97 23.9177C188.345 17.2528 177.525 12.3182 166.681 9.64988L166.495 9.60449L166.44 9.7947C161.466 26.7708 151.218 43.0325 135.113 59.5104L134.848 59.7817L135.209 59.8703C146.007 62.5278 156.781 67.4408 166.365 74.0787C170.763 77.1242 174.923 80.536 178.731 84.2181C182.073 87.4505 185.23 90.9662 188.282 94.3661C190.317 96.6324 192.42 98.9754 194.562 101.217C201.499 108.475 209.216 115.063 217.499 120.8C218.003 121.149 218.509 121.495 219.017 121.837L219.224 121.978L219.316 121.738Z" fill="url(#paint4_radial_18_123)"/>
<path opacity="0.5" d="M219.316 121.738C227.953 99.0327 236.144 82.6467 245.875 68.6048L246.002 68.4221L245.821 68.3C236.928 62.3009 233.502 58.7193 226.229 51.1099C224.091 48.8728 221.988 46.5309 219.955 44.2657C216.899 40.8614 213.738 37.3403 210.386 34.0992C206.562 30.401 202.386 26.9761 197.97 23.9177C188.345 17.2528 177.525 12.3182 166.681 9.64988L166.495 9.60449L166.44 9.7947C161.466 26.7708 151.218 43.0325 135.113 59.5104L134.848 59.7817L135.209 59.8703C146.007 62.5278 156.781 67.4408 166.365 74.0787C170.763 77.1242 174.923 80.536 178.731 84.2181C182.073 87.4505 185.23 90.9662 188.282 94.3661C190.317 96.6324 192.42 98.9754 194.562 101.217C201.499 108.475 209.216 115.063 217.499 120.8C218.003 121.149 218.509 121.495 219.017 121.837L219.224 121.978L219.316 121.738Z" fill="url(#paint5_radial_18_123)"/>
<path d="M171.359 2.36134L85.9394 137.941C85.5219 138.604 84.6642 138.787 84.0324 138.35L83.9138 138.267C83.2819 137.83 83.1067 136.931 83.5241 136.268L168.943 0.688367C169.36 0.0258796 170.218 -0.157843 170.85 0.279853L170.968 0.361984C171.601 0.79968 171.776 1.69885 171.359 2.36134Z" fill="url(#paint6_linear_18_123)"/>
<path d="M166.423 10.1954L165.466 11.7139L163.05 10.042L164.007 8.52246L166.423 10.1954Z" fill="url(#paint7_linear_18_123)"/>
<path d="M166.214 10.7016L163.645 8.9227L164.395 7.73389L166.963 9.51169L166.214 10.7016Z" fill="url(#paint8_linear_18_123)"/>
<path d="M135.253 59.6691L134.296 61.1886L131.88 59.5156L132.837 57.9961L135.253 59.6691Z" fill="url(#paint9_linear_18_123)"/>
<path d="M135.044 60.1747L132.476 58.3969L133.224 57.207L135.793 58.9859L135.044 60.1747Z" fill="url(#paint10_linear_18_123)"/>
<path d="M30.853 121.738C22.2158 99.0327 14.0248 82.6467 4.2938 68.6048L4.16701 68.4221L4.34843 68.3C13.2424 62.3009 16.6678 58.7193 23.9413 51.1099C26.0803 48.8728 28.1822 46.5309 30.2149 44.2657C33.2713 40.8614 36.4318 37.3403 39.7841 34.0992C43.6074 30.401 47.7843 26.9761 52.2004 23.9177C61.8252 17.2528 72.6448 12.3182 83.489 9.64988L83.6746 9.60449L83.7303 9.7947C88.704 26.7708 98.9514 43.0325 115.057 59.5104L115.322 59.7817L114.961 59.8703C104.163 62.5278 93.3891 67.4408 83.8045 74.0787C79.407 77.1242 75.2466 80.536 71.4387 84.2181C68.0968 87.4505 64.9404 90.9662 61.8871 94.3661C59.8522 96.6324 57.7493 98.9754 55.6073 101.217C48.6698 108.475 40.9531 115.063 32.6704 120.8C32.1663 121.149 31.6602 121.495 31.152 121.837L30.9448 121.978L30.853 121.738Z" fill="white"/>
<path d="M30.9448 121.979L31.152 121.838C31.6551 121.499 32.1571 121.156 32.656 120.81C34.2899 119.679 35.932 118.492 37.539 117.281L37.6689 117.182L37.6081 117.027C36.6278 114.524 35.5908 112.029 34.5238 109.613L34.4342 109.411L34.6063 109.283C37.0319 107.479 39.2059 105.759 41.2521 104.023L41.3489 103.941L41.4005 104.06C42.454 106.477 43.4683 108.95 44.4167 111.412L44.5198 111.68L44.7332 111.498C47.0999 109.474 49.4193 107.363 51.6263 105.222L51.7294 105.123L51.6768 104.986C50.747 102.569 49.6924 100.085 48.542 97.605L48.4349 97.3726L48.6122 97.1943C50.545 95.249 52.4128 93.2626 54.3899 91.1606L55.8021 89.6616L55.8578 89.7697C57.0783 92.1462 58.2143 94.5411 59.2327 96.8863L59.3575 97.1738L59.5647 96.9446C60.3378 96.0909 61.1078 95.2338 61.8768 94.3768C63.6643 92.3861 65.5126 90.3273 67.3763 88.3485L67.5082 88.2091L67.3855 88.06C65.8939 86.2454 64.424 84.3714 63.0159 82.4888L62.8973 82.331L63.0355 82.1938C65.1394 80.0939 67.2691 78.0384 69.5431 75.9093L69.674 75.7872L69.7967 75.9223C71.3955 77.685 73.0571 79.372 74.7353 80.9369L74.8663 81.059L75.0013 80.9412C77.0413 79.1569 79.1967 77.4234 81.4099 75.7926L81.614 75.6413L81.4316 75.4619C79.7204 73.7824 78.0412 71.9917 76.4413 70.1382L76.3383 70.0183L76.4599 69.9232C78.6628 68.2124 80.9956 66.5783 83.3891 65.0707L83.5685 64.9572L83.7087 65.1247C85.3415 67.07 87.0455 68.9375 88.7721 70.6753L88.8824 70.7867L89.0143 70.7067C91.444 69.2412 93.9736 67.8622 96.5332 66.6086L96.8002 66.4778L96.5888 66.2627C94.8674 64.5098 93.1644 62.6207 91.5275 60.6494L91.4481 60.5532L91.5564 60.5003C94.1417 59.2218 96.8497 58.0341 99.602 56.9706L99.8463 56.8766L100.019 57.0819C101.684 59.0629 103.433 60.9715 105.215 62.7547L105.304 62.8444L105.422 62.8012C108.589 61.634 111.797 60.6483 114.956 59.8713L115.317 59.7827L115.052 59.5114C113.18 57.5964 111.367 55.6608 109.661 53.7598L109.578 53.6679L109.462 53.6992C106.299 54.5595 103.15 55.583 100.102 56.7404L99.8545 56.8344L99.6854 56.6302C97.932 54.5195 96.2147 52.2662 94.5798 49.9329L94.5076 49.8302L94.621 49.7859C97.4671 48.6695 100.419 47.6666 103.394 46.8053L103.698 46.7177L103.497 46.4638C101.734 44.2407 100.032 41.9582 98.4412 39.6789L98.3577 39.559L98.2217 39.599C95.4292 40.4279 92.6604 41.3811 89.9926 42.4305L89.7916 42.5094L89.6792 42.3202C88.3123 40.0118 86.9857 37.6039 85.7353 35.1626L85.6672 35.0296L85.8033 34.9767C88.2701 34.0148 90.8275 33.134 93.4056 32.3602L93.6644 32.2824L93.5232 32.0425C92.1192 29.6671 90.8183 27.2668 89.6555 24.9086L89.5792 24.7541L89.4194 24.8016C86.9784 25.5203 84.5436 26.3384 82.182 27.2333L82.0037 27.3003L81.9264 27.123C80.8502 24.6633 79.8256 22.1441 78.8813 19.6346L78.8215 19.4758L78.9762 19.4196C81.2677 18.5874 83.6293 17.8266 85.995 17.1576L86.2167 17.0949L86.1301 16.8723C85.223 14.5152 84.4148 12.1344 83.7293 9.79568L83.6736 9.60547L83.4881 9.65086C81.1275 10.2323 78.7236 10.9326 76.3434 11.7345L76.1486 11.8004L76.2125 12.0036C76.9588 14.3845 77.802 16.8377 78.7205 19.2953L78.7793 19.4542L78.6246 19.5114C75.9033 20.5111 73.2087 21.6383 70.6161 22.8617L70.4688 22.9309L70.411 22.7742C69.475 20.2388 68.6246 17.7261 67.8824 15.3085L67.8144 15.0848L67.6082 15.1777C64.9827 16.3665 62.3634 17.6991 59.8234 19.1353L59.675 19.2196L59.7265 19.3882C60.4883 21.8707 61.3635 24.4482 62.3283 27.0506L62.4015 27.2484L62.2252 27.3543C59.6832 28.8911 57.1927 30.5781 54.8352 32.3592L54.7342 32.4359L54.6878 32.3138C53.6776 29.6584 52.753 27.0052 51.9376 24.4266L51.8531 24.1607L51.6304 24.3174C49.1265 26.078 46.6866 27.9649 44.3806 29.9286L44.2703 30.0226L44.3167 30.1631C45.2187 32.8941 46.2289 35.6727 47.3195 38.4199L47.4154 38.662L47.2288 38.836C45.0414 40.8785 42.9818 42.8617 40.9325 44.8967L40.848 44.981L40.7964 44.8718C39.5667 42.2651 38.3771 39.6281 37.2586 37.0344L37.138 36.7556L36.9298 36.9706C34.5208 39.4693 32.1633 42.0933 29.8831 44.6308L29.4192 45.1474L29.4883 45.2825C30.6603 47.5737 31.9581 49.961 33.3477 52.3797L33.4652 52.585L31.8581 54.2926C30.3016 55.9472 28.8481 57.4926 27.3875 58.9948L27.2998 59.0856L27.2411 58.9732C25.9525 56.5264 24.7516 54.1099 23.6693 51.7907L23.5445 51.5227L23.3435 51.7334C20.7829 54.4104 18.6584 56.6172 16.5566 58.6263L16.4256 58.7517L16.5256 58.9051C17.8564 60.9347 19.2233 63.0735 20.5892 65.2609L20.6984 65.436L20.5479 65.57C18.4791 67.404 16.2978 69.1958 13.8816 71.0493L13.7517 71.1498L13.662 71.0071C12.3127 68.8576 10.9674 66.7642 9.66343 64.7854L9.54592 64.606L9.3779 64.7324C7.87393 65.865 6.24109 67.0225 4.34643 68.301L4.16501 68.4231L4.2918 68.6057C5.68445 70.6148 7.07194 72.7136 8.4151 74.8437L8.5285 75.0231L8.69857 74.9021C10.4376 73.67 12.091 72.4564 13.6115 71.2968L13.7424 71.1973L13.8311 71.34C15.2794 73.6517 16.7246 76.0185 18.1275 78.3734L18.2265 78.5398L18.076 78.6544C16.5349 79.8291 14.8598 81.0579 13.0981 82.3051L12.9394 82.4175L13.0373 82.5904C14.3454 84.9086 15.6639 87.3629 16.9565 89.8853L17.0627 90.0928L17.2493 89.962C19.113 88.649 20.8654 87.3694 22.458 86.1568L22.5817 86.0628L22.659 86.2011C24.0311 88.6414 25.367 91.0914 26.6298 93.482L26.7257 93.6635L26.5659 93.7846C24.8784 95.0598 23.0137 96.4118 21.0231 97.8027L20.8747 97.9065L20.953 98.074C22.0983 100.533 23.2497 103.103 24.3764 105.714L24.4743 105.942L24.8124 105.707C26.8844 104.272 28.8255 102.878 30.5799 101.563L30.6964 101.475L30.7613 101.609C32.0128 104.174 33.2034 106.73 34.3022 109.203L34.3919 109.405L34.2198 109.533C32.7168 110.645 31.0768 111.817 29.344 113.016C28.8997 113.323 28.4471 113.635 27.9843 113.951L27.842 114.048L27.908 114.213C28.8924 116.666 29.882 119.2 30.85 121.743L30.9448 121.979ZM41.4582 103.806L41.3613 103.888L41.3087 103.768C40.215 101.268 39.0234 98.6803 37.7669 96.0757L37.6668 95.8682L37.8369 95.7202C40.0254 93.8159 42.0994 91.862 44.3631 89.5719L44.4528 89.4822L44.5125 89.5957C45.931 92.2683 47.1659 94.7346 48.2895 97.1349L48.3977 97.3661L48.2204 97.5434C45.9207 99.8442 43.7714 101.834 41.4582 103.806ZM55.895 89.519L55.8114 89.6076L55.7558 89.4995C54.5477 87.1597 53.2303 84.7627 51.7273 82.1732L51.6088 81.9701L51.7685 81.8004C53.322 80.1566 55.4166 77.9573 57.8494 75.5116L57.9524 75.4079L58.0349 75.53C59.5884 77.8298 61.1707 80.0636 62.7376 82.1689L62.8561 82.3278L62.718 82.4661C60.0523 85.1355 57.7731 87.5283 55.895 89.519ZM66.2805 56.1179L66.4279 55.999C68.6617 54.2072 71.0337 52.4964 73.4726 50.9174L73.619 50.8223L73.7127 50.978C75.1497 53.3772 76.6589 55.7105 78.1989 57.9141L78.2896 58.0438L78.1577 58.1291C75.728 59.6908 73.3716 61.38 71.1563 63.1437L71.0223 63.2507L70.9203 63.1092C69.3606 60.9369 67.835 58.6403 66.3846 56.2843L66.2805 56.1179ZM83.4407 64.7475C81.714 62.6693 80.0266 60.4614 78.4257 58.1853L78.3339 58.0557L78.4659 57.9714C80.8708 56.4378 83.3891 54.9961 85.9507 53.6874L86.1383 53.5912L86.2631 53.7706C87.8928 56.1093 89.5937 58.355 91.3182 60.4462L91.3976 60.5424L91.2894 60.5965C88.7061 61.8836 86.1734 63.2983 83.7592 64.8005L83.5767 64.914L83.4407 64.7475ZM81.3213 46.346C78.738 47.6709 76.2001 49.1299 73.7777 50.6829L73.6303 50.7769L73.5386 50.6224C72.1634 48.3107 70.8213 45.8812 69.5482 43.4031L69.4616 43.2345L69.6162 43.1362C72.0346 41.6005 74.5787 40.1534 77.1763 38.8338L77.3361 38.7528L77.4206 38.9192C78.6772 41.3876 80.009 43.8181 81.378 46.1428L81.4563 46.2768L81.3213 46.346ZM58.3298 40.5457C60.6357 38.7473 63.0757 37.0387 65.5754 35.4749L65.7032 35.3949L65.7672 35.5408C66.8959 38.1032 68.0948 40.6321 69.3307 43.0562L69.4163 43.2248L69.2616 43.3242C66.764 44.927 64.3529 46.6518 62.0933 48.4545L61.9809 48.5442L61.9129 48.4145C60.646 45.9947 59.4142 43.4626 58.2504 40.8872L58.1576 40.6819L58.3298 40.5457ZM44.9568 52.7925C46.8865 50.8656 48.8358 48.9775 50.915 47.0203L51.0037 46.936L51.0573 47.0506C52.2613 49.6108 53.5426 52.1376 54.8651 54.5595L54.9734 54.7584L54.8115 54.9118C52.8024 56.8128 50.9057 58.6598 49.0152 60.5554L48.9235 60.6472L48.8585 60.5316C47.5143 58.1346 46.1825 55.6597 44.8971 53.1729L44.7868 52.9589L44.9568 52.7925ZM31.6973 66.6118C33.2395 65.0307 34.7671 63.4053 36.3855 61.6848L37.938 60.0366L38.0101 60.1523C39.4492 62.4737 40.9005 64.7627 42.386 67.0992L42.5066 67.2883L40.8665 69.0294C39.1636 70.8396 37.572 72.531 35.966 74.1737L35.8732 74.2688L35.8052 74.152C34.329 71.6242 32.9972 69.3406 31.652 66.9803L31.5365 66.7782L31.6973 66.6118ZM29.7171 80.2063C31.7118 78.4328 33.6363 76.5934 35.7722 74.4168L35.865 74.3217L36.0464 74.6308C37.3782 76.9101 38.7523 79.2628 40.0924 81.6048L40.2078 81.8069L40.047 81.9701C37.8606 84.1899 35.8763 86.0747 33.8012 87.9011L33.6992 87.9919L33.6343 87.8676C32.3736 85.4641 31.0386 82.9967 29.6645 80.5359L29.5584 80.3468L29.7171 80.2063ZM26.7689 93.67L26.9287 93.549C29.3471 91.7107 31.5231 89.9393 33.5848 88.1356L33.6879 88.0448L33.7528 88.168C35.0733 90.6926 36.3433 93.2107 37.5267 95.6532L37.6277 95.8607L37.4576 96.0077C35.4104 97.7736 33.2415 99.5157 30.8263 101.335L30.7108 101.422L30.6448 101.288C29.4584 98.8629 28.1863 96.361 26.8648 93.8516L26.7689 93.67ZM49.8729 83.7641C48.0339 85.7191 46.3052 87.5564 44.5497 89.3374L44.461 89.4271L44.4002 89.3136C43.2168 87.0895 41.8953 84.7011 40.3624 82.0144L40.247 81.8123L40.4078 81.648C42.0458 79.9772 43.6642 78.2556 45.3784 76.4335L47.1144 74.5897L47.1865 74.7054C48.8049 77.3078 50.1996 79.6141 51.4511 81.7582L51.5696 81.9603L49.8729 83.7641ZM42.6983 67.1306C44.2672 65.4706 46.3815 63.2496 48.8245 60.7942L48.9162 60.7024L48.9812 60.818C50.3491 63.2497 51.7593 65.6543 53.1736 67.9649L53.29 68.1551L53.1364 68.3096C50.7521 70.711 48.7183 72.8476 47.2133 74.4406L47.1205 74.5379L47.0484 74.4222C45.6362 72.1559 44.1961 69.8897 42.8035 67.6979L42.5457 67.2937L42.6983 67.1306ZM53.3323 68.1583L53.4859 68.0038C55.3775 66.1049 57.2804 64.2515 59.3029 62.3375L59.408 62.2381L59.4894 62.3645C60.9852 64.6913 62.5551 66.949 64.1539 69.0748L64.2683 69.2261L64.1323 69.3536C62.016 71.3497 60.0306 73.2788 58.0628 75.2522L57.9597 75.356L57.8772 75.2339C56.3897 73.0227 54.9002 70.7056 53.4498 68.3474L53.3323 68.1583ZM62.1191 59.6616C61.214 60.4959 60.3512 61.3033 59.5204 62.0868L59.4152 62.1862L59.3348 62.0608C57.8803 59.7837 56.464 57.3953 55.1249 54.9637L55.0156 54.7659L55.1785 54.6125C55.9671 53.8689 56.7825 53.107 57.6381 52.317C58.9771 51.0817 60.3976 49.8594 61.8593 48.6836L61.9706 48.5939L62.0397 48.7246C63.3478 51.2092 64.725 53.6376 66.1331 55.945L66.2362 56.1136L66.0888 56.2335C64.7095 57.351 63.3736 58.5042 62.1191 59.6616ZM18.4224 78.4317C20.8407 76.5761 23.0229 74.781 25.0939 72.9449L25.2031 72.8476L25.2784 72.9751C26.6937 75.3689 28.0833 77.7833 29.4089 80.1512L29.5151 80.3403L29.3553 80.4808C27.2885 82.304 25.1165 84.0818 22.7147 85.9169L22.5921 86.0109L22.5137 85.8726C21.1747 83.4939 19.78 81.0849 18.3698 78.7127L18.2708 78.5452L18.4224 78.4317ZM20.8932 65.3074C22.9467 63.4734 24.9537 61.5421 27.2081 59.2293L27.2957 59.1386L27.3545 59.251C28.5399 61.4956 29.8563 63.8894 31.3788 66.5686L31.4943 66.7718L31.3324 66.9371C29.2038 69.1094 27.2926 70.9412 25.3186 72.7006L25.2103 72.7979L25.1341 72.6704C23.7321 70.3025 22.29 67.9303 20.85 65.6175L20.7407 65.4425L20.8932 65.3074ZM37.872 59.8681C36.2804 57.2959 34.8919 54.9821 33.6281 52.7947L33.5095 52.5904L33.6693 52.4207C35.5836 50.3955 37.9225 47.9433 40.7562 45.1226L40.8408 45.0383L40.8923 45.1485C42.1015 47.7055 43.3611 50.2593 44.6362 52.7396L44.7466 52.9546L44.5785 53.1232C41.9994 55.7072 39.8233 57.993 38.0348 59.8875L37.9431 59.9848L37.872 59.8681ZM47.8184 38.3377C48.0875 38.0881 48.3565 37.8363 48.6348 37.5812C50.5171 35.8445 52.5313 34.1575 54.6208 32.5677L54.7208 32.491L54.7682 32.6142C55.7784 35.2544 56.8742 37.8957 58.0257 40.4657L58.1174 40.671L57.9463 40.8061C56.2671 42.1311 54.6415 43.5166 53.1158 44.9237C52.4211 45.5646 51.7562 46.186 51.1057 46.7977L51.0161 46.8809L50.9624 46.7674C49.7646 44.2072 48.6173 41.5659 47.5545 38.9149L47.4576 38.6739L47.8184 38.3377ZM62.62 27.1608C65.0868 25.6856 67.6721 24.3012 70.3059 23.0465L70.4522 22.9773L70.511 23.1351C71.4614 25.6932 72.4953 28.2621 73.5849 30.7716L73.6561 30.9358L73.4994 31.0136C70.8769 32.3127 68.303 33.7436 65.8476 35.2674L65.7187 35.3474L65.6548 35.2025C64.5436 32.6628 63.488 30.0594 62.517 27.4634L62.4427 27.2657L62.62 27.1608ZM85.4879 35.0642C82.7706 36.1341 80.0874 37.3327 77.5124 38.6263L77.3506 38.7074L77.2671 38.542C76.0455 36.1266 74.8704 33.6279 73.7715 31.1163L73.6993 30.952L73.856 30.8753C76.4207 29.6184 79.0978 28.4523 81.812 27.4116L81.9882 27.3435L82.0676 27.5229C83.1706 30.0226 84.3437 32.4975 85.5549 34.8773L85.6229 35.0113L85.4879 35.0642ZM94.3901 49.7124L94.4612 49.8151L94.3478 49.8594C91.6223 50.9369 88.9288 52.1462 86.3404 53.4528L86.1507 53.549L86.027 53.3707C84.4962 51.1552 83.0015 48.8187 81.5821 46.4248L81.5027 46.2908L81.6388 46.2217C84.1994 44.9205 86.8712 43.7133 89.5813 42.6315L89.7802 42.5526L89.8947 42.7439C91.3265 45.142 92.8387 47.4861 94.3901 49.7124ZM64.4261 69.3795L64.3116 69.2293L64.4477 69.1018C65.1549 68.4361 65.8816 67.7585 66.6423 67.056C67.9907 65.8121 69.4163 64.5854 70.8811 63.4085L71.0141 63.3015L71.1172 63.4442C72.7417 65.6899 74.4498 67.86 76.1919 69.8951L76.295 70.015L76.1734 70.1101C74.4158 71.487 72.7159 72.9308 71.1233 74.3995C70.677 74.8113 70.2409 75.2166 69.8131 75.6154L69.6822 75.7375L69.5606 75.6024C67.8082 73.6549 66.0805 71.5615 64.4261 69.3795Z" fill="#231F20"/>
<path d="M30.853 121.738C22.2158 99.0327 14.0248 82.6467 4.2938 68.6048L4.16701 68.4221L4.34843 68.3C13.2424 62.3009 16.6678 58.7193 23.9413 51.1099C26.0803 48.8728 28.1822 46.5309 30.2149 44.2657C33.2713 40.8614 36.4318 37.3403 39.7841 34.0992C43.6074 30.401 47.7843 26.9761 52.2004 23.9177C61.8252 17.2528 72.6448 12.3182 83.489 9.64988L83.6746 9.60449L83.7303 9.7947C88.704 26.7708 98.9514 43.0325 115.057 59.5104L115.322 59.7817L114.961 59.8703C104.163 62.5278 93.3891 67.4408 83.8045 74.0787C79.407 77.1242 75.2466 80.536 71.4387 84.2181C68.0968 87.4505 64.9404 90.9662 61.8871 94.3661C59.8522 96.6324 57.7493 98.9754 55.6073 101.217C48.6698 108.475 40.9531 115.063 32.6704 120.8C32.1663 121.149 31.6602 121.495 31.152 121.837L30.9448 121.978L30.853 121.738Z" fill="url(#paint11_radial_18_123)"/>
<path d="M30.853 121.738C22.2158 99.0327 14.0248 82.6467 4.2938 68.6048L4.16701 68.4221L4.34843 68.3C13.2424 62.3009 16.6678 58.7193 23.9413 51.1099C26.0803 48.8728 28.1822 46.5309 30.2149 44.2657C33.2713 40.8614 36.4318 37.3403 39.7841 34.0992C43.6074 30.401 47.7843 26.9761 52.2004 23.9177C61.8252 17.2528 72.6448 12.3182 83.489 9.64988L83.6746 9.60449L83.7303 9.7947C88.704 26.7708 98.9514 43.0325 115.057 59.5104L115.322 59.7817L114.961 59.8703C104.163 62.5278 93.3891 67.4408 83.8045 74.0787C79.407 77.1242 75.2466 80.536 71.4387 84.2181C68.0968 87.4505 64.9404 90.9662 61.8871 94.3661C59.8522 96.6324 57.7493 98.9754 55.6073 101.217C48.6698 108.475 40.9531 115.063 32.6704 120.8C32.1663 121.149 31.6602 121.495 31.152 121.837L30.9448 121.978L30.853 121.738Z" fill="url(#paint12_radial_18_123)"/>
<path d="M30.853 121.738C22.2158 99.0327 14.0248 82.6467 4.2938 68.6048L4.16701 68.4221L4.34843 68.3C13.2424 62.3009 16.6678 58.7193 23.9413 51.1099C26.0803 48.8728 28.1822 46.5309 30.2149 44.2657C33.2713 40.8614 36.4318 37.3403 39.7841 34.0992C43.6074 30.401 47.7843 26.9761 52.2004 23.9177C61.8252 17.2528 72.6448 12.3182 83.489 9.64988L83.6746 9.60449L83.7303 9.7947C88.704 26.7708 98.9514 43.0325 115.057 59.5104L115.322 59.7817L114.961 59.8703C104.163 62.5278 93.3891 67.4408 83.8045 74.0787C79.407 77.1242 75.2466 80.536 71.4387 84.2181C68.0968 87.4505 64.9404 90.9662 61.8871 94.3661C59.8522 96.6324 57.7493 98.9754 55.6073 101.217C48.6698 108.475 40.9531 115.063 32.6704 120.8C32.1663 121.149 31.6602 121.495 31.152 121.837L30.9448 121.978L30.853 121.738Z" fill="url(#paint13_radial_18_123)"/>
<path opacity="0.5" d="M30.853 121.738C22.2158 99.0327 14.0248 82.6467 4.2938 68.6048L4.16701 68.4221L4.34843 68.3C13.2424 62.3009 16.6678 58.7193 23.9413 51.1099C26.0803 48.8728 28.1822 46.5309 30.2149 44.2657C33.2713 40.8614 36.4318 37.3403 39.7841 34.0992C43.6074 30.401 47.7843 26.9761 52.2004 23.9177C61.8252 17.2528 72.6448 12.3182 83.489 9.64988L83.6746 9.60449L83.7303 9.7947C88.704 26.7708 98.9514 43.0325 115.057 59.5104L115.322 59.7817L114.961 59.8703C104.163 62.5278 93.3891 67.4408 83.8045 74.0787C79.407 77.1242 75.2466 80.536 71.4387 84.2181C68.0968 87.4505 64.9404 90.9662 61.8871 94.3661C59.8522 96.6324 57.7493 98.9754 55.6073 101.217C48.6698 108.475 40.9531 115.063 32.6704 120.8C32.1663 121.149 31.6602 121.495 31.152 121.837L30.9448 121.978L30.853 121.738Z" fill="url(#paint14_radial_18_123)"/>
<path opacity="0.5" d="M30.853 121.738C22.2158 99.0327 14.0248 82.6467 4.2938 68.6048L4.16701 68.4221L4.34843 68.3C13.2424 62.3009 16.6678 58.7193 23.9413 51.1099C26.0803 48.8728 28.1822 46.5309 30.2149 44.2657C33.2713 40.8614 36.4318 37.3403 39.7841 34.0992C43.6074 30.401 47.7843 26.9761 52.2004 23.9177C61.8252 17.2528 72.6448 12.3182 83.489 9.64988L83.6746 9.60449L83.7303 9.7947C88.704 26.7708 98.9514 43.0325 115.057 59.5104L115.322 59.7817L114.961 59.8703C104.163 62.5278 93.3891 67.4408 83.8045 74.0787C79.407 77.1242 75.2466 80.536 71.4387 84.2181C68.0968 87.4505 64.9404 90.9662 61.8871 94.3661C59.8522 96.6324 57.7493 98.9754 55.6073 101.217C48.6698 108.475 40.9531 115.063 32.6704 120.8C32.1663 121.149 31.6602 121.495 31.152 121.837L30.9448 121.978L30.853 121.738Z" fill="url(#paint15_radial_18_123)"/>
<path d="M78.8112 2.36134L164.231 137.941C164.648 138.604 165.506 138.787 166.138 138.35L166.256 138.267C166.888 137.83 167.063 136.931 166.646 136.268L81.2264 0.688367C80.809 0.0258796 79.9513 -0.157843 79.3194 0.279853L79.2009 0.361984C78.569 0.79968 78.3937 1.69885 78.8112 2.36134Z" fill="url(#paint16_linear_18_123)"/>
<path d="M83.7468 10.1954L84.7034 11.7139L87.1187 10.042L86.1621 8.52246L83.7468 10.1954Z" fill="url(#paint17_linear_18_123)"/>
<path d="M83.955 10.7016L86.5238 8.9227L85.7744 7.73389L83.2056 9.51169L83.955 10.7016Z" fill="url(#paint18_linear_18_123)"/>
<path d="M114.917 59.6691L115.874 61.1886L118.289 59.5156L117.332 57.9961L114.917 59.6691Z" fill="url(#paint19_linear_18_123)"/>
<path d="M115.125 60.1747L117.694 58.3969L116.945 57.207L114.376 58.9859L115.125 60.1747Z" fill="url(#paint20_linear_18_123)"/>
<defs>
<radialGradient id="paint0_radial_18_123" cx="0" cy="0" r="1" gradientUnits="userSpaceOnUse" gradientTransform="translate(125.085 138.588) scale(125.006 11.453)">
<stop stop-color="#4D4D4D"/>
<stop offset="0.2612" stop-color="#8B8B8B" stop-opacity="0.7388"/>
<stop offset="0.5053" stop-color="#BDBDBD" stop-opacity="0.4947"/>
<stop offset="0.7175" stop-color="#E1E1E1" stop-opacity="0.2825"/>
<stop offset="0.8896" stop-color="#F7F7F7" stop-opacity="0.1104"/>
<stop offset="1" stop-color="white" stop-opacity="0"/>
</radialGradient>
<radialGradient id="paint1_radial_18_123" cx="0" cy="0" r="1" gradientUnits="userSpaceOnUse" gradientTransform="translate(166.305 44.6137) rotate(121.915) scale(59.2751 11.8956)">
<stop stop-color="#5E5D5E"/>
<stop offset="0.2209" stop-color="#616061" stop-opacity="0.7791"/>
<stop offset="0.3787" stop-color="#6A696A" stop-opacity="0.6213"/>
<stop offset="0.5168" stop-color="#7A797A" stop-opacity="0.4832"/>
<stop offset="0.6437" stop-color="#908F90" stop-opacity="0.3563"/>
<stop offset="0.7628" stop-color="#ACACAC" stop-opacity="0.2372"/>
<stop offset="0.8762" stop-color="#CFCFCF" stop-opacity="0.1238"/>
<stop offset="0.9831" stop-color="#F8F8F8" stop-opacity="0.0169"/>
<stop offset="1" stop-color="white" stop-opacity="0"/>
</radialGradient>
<radialGradient id="paint2_radial_18_123" cx="0" cy="0" r="1" gradientUnits="userSpaceOnUse" gradientTransform="translate(204.284 69.9694) rotate(117.951) scale(73.9494 11.8942)">
<stop stop-color="#5E5D5E"/>
<stop offset="0.2209" stop-color="#616061" stop-opacity="0.7791"/>
<stop offset="0.3787" stop-color="#6A696A" stop-opacity="0.6213"/>
<stop offset="0.5168" stop-color="#7A797A" stop-opacity="0.4832"/>
<stop offset="0.6437" stop-color="#908F90" stop-opacity="0.3563"/>
<stop offset="0.7628" stop-color="#ACACAC" stop-opacity="0.2372"/>
<stop offset="0.8762" stop-color="#CFCFCF" stop-opacity="0.1238"/>
<stop offset="0.9831" stop-color="#F8F8F8" stop-opacity="0.0169"/>
<stop offset="1" stop-color="white" stop-opacity="0"/>
</radialGradient>
<radialGradient id="paint3_radial_18_123" cx="0" cy="0" r="1" gradientUnits="userSpaceOnUse" gradientTransform="translate(231.545 94.223) rotate(116.804) scale(74.0087 11.8838)">
<stop stop-color="#5E5D5E"/>
<stop offset="0.2209" stop-color="#616061" stop-opacity="0.7791"/>
<stop offset="0.3787" stop-color="#6A696A" stop-opacity="0.6213"/>
<stop offset="0.5168" stop-color="#7A797A" stop-opacity="0.4832"/>
<stop offset="0.6437" stop-color="#908F90" stop-opacity="0.3563"/>
<stop offset="0.7628" stop-color="#ACACAC" stop-opacity="0.2372"/>
<stop offset="0.8762" stop-color="#CFCFCF" stop-opacity="0.1238"/>
<stop offset="0.9831" stop-color="#F8F8F8" stop-opacity="0.0169"/>
<stop offset="1" stop-color="white" stop-opacity="0"/>
</radialGradient>
<radialGradient id="paint4_radial_18_123" cx="0" cy="0" r="1" gradientUnits="userSpaceOnUse" gradientTransform="translate(216.848 78.0609) rotate(117.018) scale(85.4644 10.3689)">
<stop stop-color="white"/>
<stop offset="0.0549" stop-color="white" stop-opacity="0.9451"/>
<stop offset="1" stop-color="white" stop-opacity="0"/>
</radialGradient>
<radialGradient id="paint5_radial_18_123" cx="0" cy="0" r="1" gradientUnits="userSpaceOnUse" gradientTransform="translate(188.324 54.8719) rotate(120.084) scale(85.276 10.3936)">
<stop stop-color="white"/>
<stop offset="0.0549" stop-color="white" stop-opacity="0.9451"/>
<stop offset="1" stop-color="white" stop-opacity="0"/>
</radialGradient>
<linearGradient id="paint6_linear_18_123" x1="126.231" y1="68.4772" x2="128.719" y2="70.0451" gradientUnits="userSpaceOnUse">
<stop stop-color="#A67C52"/>
<stop offset="0.221" stop-color="#A1774E"/>
<stop offset="0.477" stop-color="#936A41"/>
<stop offset="0.7494" stop-color="#7C532C"/>
<stop offset="1" stop-color="#603813"/>
</linearGradient>
<linearGradient id="paint7_linear_18_123" x1="164.232" y1="10.9189" x2="165.27" y2="9.41962" gradientUnits="userSpaceOnUse">
<stop offset="0.3593" stop-color="#A67C52" stop-opacity="0"/>
<stop offset="0.4405" stop-color="#8F663E" stop-opacity="0.1268"/>
<stop offset="0.5433" stop-color="#7A522B" stop-opacity="0.2872"/>
<stop offset="0.6582" stop-color="#6B431D" stop-opacity="0.4665"/>
<stop offset="0.7935" stop-color="#633B15" stop-opacity="0.6777"/>
<stop offset="1" stop-color="#603813"/>
</linearGradient>
<linearGradient id="paint8_linear_18_123" x1="164.02" y1="8.32809" x2="166.661" y2="9.99182" gradientUnits="userSpaceOnUse">
<stop stop-color="white"/>
<stop offset="0.1674" stop-color="#E0E0E0"/>
<stop offset="0.5317" stop-color="#909090"/>
<stop offset="0.8194" stop-color="#4D4D4D"/>
</linearGradient>
<linearGradient id="paint9_linear_18_123" x1="133.062" y1="60.3931" x2="134.1" y2="58.8938" gradientUnits="userSpaceOnUse">
<stop offset="0.3593" stop-color="#A67C52" stop-opacity="0"/>
<stop offset="0.4405" stop-color="#8F663E" stop-opacity="0.1268"/>
<stop offset="0.5433" stop-color="#7A522B" stop-opacity="0.2872"/>
<stop offset="0.6582" stop-color="#6B431D" stop-opacity="0.4665"/>
<stop offset="0.7935" stop-color="#633B15" stop-opacity="0.6777"/>
<stop offset="1" stop-color="#603813"/>
</linearGradient>
<linearGradient id="paint10_linear_18_123" x1="132.85" y1="57.8018" x2="135.491" y2="59.4655" gradientUnits="userSpaceOnUse">
<stop stop-color="white"/>
<stop offset="0.1674" stop-color="#E0E0E0"/>
<stop offset="0.5317" stop-color="#909090"/>
<stop offset="0.8194" stop-color="#4D4D4D"/>
</linearGradient>
<radialGradient id="paint11_radial_18_123" cx="0" cy="0" r="1" gradientUnits="userSpaceOnUse" gradientTransform="translate(83.7894 44.5684) rotate(58.0848) scale(59.2751 11.8956)">
<stop stop-color="#5E5D5E"/>
<stop offset="0.2209" stop-color="#616061" stop-opacity="0.7791"/>
<stop offset="0.3787" stop-color="#6A696A" stop-opacity="0.6213"/>
<stop offset="0.5168" stop-color="#7A797A" stop-opacity="0.4832"/>
<stop offset="0.6437" stop-color="#908F90" stop-opacity="0.3563"/>
<stop offset="0.7628" stop-color="#ACACAC" stop-opacity="0.2372"/>
<stop offset="0.8762" stop-color="#CFCFCF" stop-opacity="0.1238"/>
<stop offset="0.9831" stop-color="#F8F8F8" stop-opacity="0.0169"/>
<stop offset="1" stop-color="white" stop-opacity="0"/>
</radialGradient>
<radialGradient id="paint12_radial_18_123" cx="0" cy="0" r="1" gradientUnits="userSpaceOnUse" gradientTransform="translate(45.8924 69.915) rotate(62.049) scale(73.9494 11.8942)">
<stop stop-color="#5E5D5E"/>
<stop offset="0.2209" stop-color="#616061" stop-opacity="0.7791"/>
<stop offset="0.3787" stop-color="#6A696A" stop-opacity="0.6213"/>
<stop offset="0.5168" stop-color="#7A797A" stop-opacity="0.4832"/>
<stop offset="0.6437" stop-color="#908F90" stop-opacity="0.3563"/>
<stop offset="0.7628" stop-color="#ACACAC" stop-opacity="0.2372"/>
<stop offset="0.8762" stop-color="#CFCFCF" stop-opacity="0.1238"/>
<stop offset="0.9831" stop-color="#F8F8F8" stop-opacity="0.0169"/>
<stop offset="1" stop-color="white" stop-opacity="0"/>
</radialGradient>
<radialGradient id="paint13_radial_18_123" cx="0" cy="0" r="1" gradientUnits="userSpaceOnUse" gradientTransform="translate(18.6161 94.0748) rotate(63.1957) scale(74.0086 11.8838)">
<stop stop-color="#5E5D5E"/>
<stop offset="0.2209" stop-color="#616061" stop-opacity="0.7791"/>
<stop offset="0.3787" stop-color="#6A696A" stop-opacity="0.6213"/>
<stop offset="0.5168" stop-color="#7A797A" stop-opacity="0.4832"/>
<stop offset="0.6437" stop-color="#908F90" stop-opacity="0.3563"/>
<stop offset="0.7628" stop-color="#ACACAC" stop-opacity="0.2372"/>
<stop offset="0.8762" stop-color="#CFCFCF" stop-opacity="0.1238"/>
<stop offset="0.9831" stop-color="#F8F8F8" stop-opacity="0.0169"/>
<stop offset="1" stop-color="white" stop-opacity="0"/>
</radialGradient>
<radialGradient id="paint14_radial_18_123" cx="0" cy="0" r="1" gradientUnits="userSpaceOnUse" gradientTransform="translate(33.2334 78.0017) rotate(62.9818) scale(85.4643 10.3689)">
<stop stop-color="white"/>
<stop offset="0.0549" stop-color="white" stop-opacity="0.9451"/>
<stop offset="1" stop-color="white" stop-opacity="0"/>
</radialGradient>
<radialGradient id="paint15_radial_18_123" cx="0" cy="0" r="1" gradientUnits="userSpaceOnUse" gradientTransform="translate(61.8442 54.7771) rotate(59.9164) scale(85.2759 10.3936)">
<stop stop-color="white"/>
<stop offset="0.0549" stop-color="white" stop-opacity="0.9451"/>
<stop offset="1" stop-color="white" stop-opacity="0"/>
</radialGradient>
<linearGradient id="paint16_linear_18_123" x1="123.938" y1="68.4772" x2="121.45" y2="70.045" gradientUnits="userSpaceOnUse">
<stop stop-color="#A67C52"/>
<stop offset="0.221" stop-color="#A1774E"/>
<stop offset="0.477" stop-color="#936A41"/>
<stop offset="0.7494" stop-color="#7C532C"/>
<stop offset="1" stop-color="#603813"/>
</linearGradient>
<linearGradient id="paint17_linear_18_123" x1="85.9369" y1="10.919" x2="84.8987" y2="9.41976" gradientUnits="userSpaceOnUse">
<stop offset="0.3593" stop-color="#A67C52" stop-opacity="0"/>
<stop offset="0.4405" stop-color="#8F663E" stop-opacity="0.1268"/>
<stop offset="0.5433" stop-color="#7A522B" stop-opacity="0.2872"/>
<stop offset="0.6582" stop-color="#6B431D" stop-opacity="0.4665"/>
<stop offset="0.7935" stop-color="#633B15" stop-opacity="0.6777"/>
<stop offset="1" stop-color="#603813"/>
</linearGradient>
<linearGradient id="paint18_linear_18_123" x1="86.1491" y1="8.32817" x2="83.5082" y2="9.99185" gradientUnits="userSpaceOnUse">
<stop stop-color="white"/>
<stop offset="0.1674" stop-color="#E0E0E0"/>
<stop offset="0.5317" stop-color="#909090"/>
<stop offset="0.8194" stop-color="#4D4D4D"/>
</linearGradient>
<linearGradient id="paint19_linear_18_123" x1="117.107" y1="60.3932" x2="116.069" y2="58.8938" gradientUnits="userSpaceOnUse">
<stop offset="0.3593" stop-color="#A67C52" stop-opacity="0"/>
<stop offset="0.4405" stop-color="#8F663E" stop-opacity="0.1268"/>
<stop offset="0.5433" stop-color="#7A522B" stop-opacity="0.2872"/>
<stop offset="0.6582" stop-color="#6B431D" stop-opacity="0.4665"/>
<stop offset="0.7935" stop-color="#633B15" stop-opacity="0.6777"/>
<stop offset="1" stop-color="#603813"/>
</linearGradient>
<linearGradient id="paint20_linear_18_123" x1="117.319" y1="57.8018" x2="114.678" y2="59.4654" gradientUnits="userSpaceOnUse">
<stop stop-color="white"/>
<stop offset="0.1674" stop-color="#E0E0E0"/>
<stop offset="0.5317" stop-color="#909090"/>
<stop offset="0.8194" stop-color="#4D4D4D"/>
</linearGradient>
</defs>
</svg>
