<svg width="450" height="100" viewBox="0 0 450 100" fill="none" xmlns="http://www.w3.org/2000/svg">
<path d="M450 0H0V100H450V0Z" fill="#1A1A1A"/>
<path d="M450 8.26001H0V10.6628H450V8.26001Z" fill="#FFA800"/>
<path d="M450 87.9729H0V90.3757H450V87.9729Z" fill="#FFA800"/>
<path d="M10.0609 48.7974H0V51.2001H10.0609V48.7974Z" fill="white"/>
<path d="M419.47 51.2028H398.999V48.8H419.47V51.2028ZM378.527 51.2028H358.056V48.8H378.527V51.2028ZM337.587 51.2028H317.117V48.8H337.587V51.2028ZM296.646 51.2028H276.175V48.8H296.646V51.2028ZM255.706 51.2028H235.236V48.8H255.706V51.2028ZM214.765 51.2028H194.294V48.8H214.765V51.2028ZM173.825 51.2028H153.355V48.8H173.825V51.2028ZM132.884 51.2028H112.413V48.8H132.884V51.2028ZM91.9435 51.2028H71.474V48.8H91.9435V51.2028ZM51.003 51.2028H30.5319V48.8H51.003V51.2028Z" fill="white"/>
<path d="M450 48.7974H439.939V51.2001H450V48.7974Z" fill="white"/>
</svg>
