<?xml version="1.0" encoding="utf-8"?>
<!-- Generator: Adobe Illustrator 27.5.0, SVG Export Plug-In . SVG Version: 6.00 Build 0)  -->
<svg version="1.1" id="Layer_1" xmlns="http://www.w3.org/2000/svg" xmlns:xlink="http://www.w3.org/1999/xlink" x="0px" y="0px"
	 viewBox="0 0 360 288" style="enable-background:new 0 0 360 288;" xml:space="preserve">
<g>
	<rect style="fill:#FFFFFF;" width="360" height="288"/>
	<g>
		<rect x="37.142" y="136.247" style="fill:#1A1A1A;" width="287.33" height="37.748"/>
		<g>
			<rect x="37.142" y="139.365" style="fill:#FFA800;" width="287.33" height="0.907"/>
		</g>
		<g>
			<rect x="37.142" y="169.455" style="fill:#FFA800;" width="287.33" height="0.907"/>
		</g>
		<g>
			<g>
				<rect x="37.142" y="154.667" style="fill:#FFFFFF;" width="6.424" height="0.907"/>
			</g>
			<g>
				<path style="fill:#FFFFFF;" d="M304.978,155.575h-13.071v-0.907h13.071V155.575z M278.836,155.575h-13.071v-0.907h13.071
					V155.575z M252.695,155.575h-13.07v-0.907h13.07V155.575z M226.554,155.575h-13.071v-0.907h13.071V155.575z M200.413,155.575
					h-13.07v-0.907h13.07V155.575z M174.272,155.575h-13.071v-0.907h13.071V155.575z M148.131,155.575h-13.07v-0.907h13.07V155.575z
					 M121.99,155.575h-13.071v-0.907h13.071V155.575z M95.849,155.575h-13.07v-0.907h13.07V155.575z M69.708,155.575H56.637v-0.907
					h13.071V155.575z"/>
			</g>
			<g>
				<rect x="318.048" y="154.667" style="fill:#FFFFFF;" width="6.424" height="0.907"/>
			</g>
		</g>
	</g>
	<g>
		<g>
			<g>
				<path style="fill:#1A1A1A;" d="M112.616,264.969c-3.188-5.234-6.068-9.963-8.684-14.257c-2.386-3.917-4.57-7.503-6.578-10.8
					c-1.852-3.041-3.566-5.854-5.156-8.465c-2.859-4.695-5.359-8.798-7.562-12.414c-1.956-3.212-3.706-6.083-5.279-8.666
					c-1.422-2.335-2.715-4.457-3.894-6.393c-2.074-3.405-3.839-6.303-5.36-8.8c-1.097-1.801-2.078-3.411-2.969-4.875H46.578
					c-0.168,1.561-0.355,3.289-0.565,5.238c-0.284,2.632-0.616,5.707-1.008,9.347c-0.225,2.083-0.472,4.376-0.746,6.914
					c-0.305,2.824-0.646,5.984-1.03,9.546c-0.211,1.956-0.436,4.044-0.677,6.278c-0.258,2.397-0.536,4.974-0.836,7.754
					c-0.324,3.006-0.676,6.267-1.059,9.818c-0.418,3.881-0.878,8.139-1.384,12.833c-0.273,2.532-0.561,5.201-0.865,8.018
					c-0.25,2.32-0.512,4.749-0.786,7.289h80.089C115.925,270.401,114.226,267.613,112.616,264.969z"/>
				<g>
					<path style="fill:#FFA800;" d="M48.321,190.299c-0.073,1.553-0.154,3.271-0.245,5.207c-0.123,2.62-0.267,5.68-0.438,9.299
						c-0.097,2.07-0.205,4.348-0.323,6.868c-0.132,2.802-0.28,5.937-0.446,9.467c-0.091,1.937-0.188,4.005-0.293,6.217
						c-0.112,2.371-0.232,4.92-0.361,7.668c-0.14,2.969-0.292,6.189-0.456,9.693c-0.18,3.826-0.378,8.021-0.595,12.643
						c-0.225,4.787-0.475,10.089-0.752,15.973h1.97c0.175-5.962,0.333-11.326,0.476-16.164c0.135-4.6,0.258-8.777,0.371-12.588
						c0.103-3.49,0.197-6.698,0.284-9.657c0.081-2.738,0.155-5.279,0.225-7.643c0.065-2.205,0.126-4.267,0.183-6.2
						c0.104-3.521,0.196-6.648,0.278-9.445c0.074-2.515,0.141-4.789,0.202-6.855c0.106-3.613,0.196-6.669,0.273-9.285
						c0.057-1.932,0.107-3.648,0.153-5.198H48.321z"/>
				</g>
				<g>
					<path style="fill:#FFA800;" d="M106.157,265.876c-2.892-5.337-5.502-10.155-7.87-14.524c-2.158-3.982-4.132-7.626-5.945-10.972
						c-1.671-3.085-3.216-5.936-4.649-8.581c-2.575-4.752-4.823-8.901-6.803-12.556c-1.757-3.243-3.327-6.14-4.738-8.744
						c-1.275-2.353-2.433-4.49-3.489-6.44c-1.857-3.426-3.436-6.341-4.795-8.85c-0.983-1.815-1.862-3.436-2.66-4.909h-0.483
						c0.775,1.475,1.627,3.099,2.582,4.918c1.319,2.512,2.851,5.431,4.653,8.862c1.025,1.953,2.149,4.094,3.387,6.452
						c1.37,2.61,2.894,5.513,4.601,8.764c1.924,3.664,4.108,7.825,6.611,12.592c1.393,2.653,2.895,5.515,4.52,8.61
						c1.763,3.359,3.684,7.017,5.783,11.016c2.304,4.389,4.845,9.229,7.661,14.592c1.208,2.301,2.473,4.712,3.795,7.229h1.883
						C108.789,270.734,107.441,268.246,106.157,265.876z"/>
				</g>
				<g>
					<g>
						<path style="fill:#FFFFFF;" d="M61.874,207.802c-0.415-1.569-0.802-3.035-1.165-4.407c-0.238,0.007-0.476,0.013-0.715,0.02
							c0.34,1.375,0.702,2.843,1.091,4.415C61.349,207.821,61.612,207.812,61.874,207.802z"/>
						<path style="fill:#FFFFFF;" d="M77.27,273.334h1.924c-0.147-0.558-0.294-1.112-0.438-1.659
							c-1.17-4.427-2.25-8.512-3.249-12.293c-0.544,0.066-1.089,0.133-1.635,0.2c0.939,3.799,1.953,7.905,3.053,12.356
							C77.039,272.397,77.154,272.866,77.27,273.334z"/>
						<path style="fill:#FFFFFF;" d="M65.139,220.155c-0.66-2.498-1.266-4.792-1.825-6.905c-0.293,0.013-0.586,0.026-0.88,0.039
							c0.523,2.118,1.091,4.417,1.71,6.921C64.476,220.192,64.808,220.173,65.139,220.155z"/>
						<path style="fill:#FFFFFF;" d="M59.747,199.755c-0.284-1.076-0.553-2.093-0.808-3.056c-0.2,0.004-0.401,0.007-0.602,0.01
							c0.238,0.964,0.49,1.982,0.756,3.06C59.312,199.765,59.53,199.76,59.747,199.755z"/>
						<path style="fill:#FFFFFF;" d="M70.789,241.53c-1.212-4.585-2.292-8.672-3.261-12.338c-0.381,0.027-0.762,0.054-1.144,0.081
							c0.909,3.678,1.922,7.779,3.059,12.38C69.892,241.613,70.341,241.571,70.789,241.53z"/>
						<path style="fill:#FFFFFF;" d="M57.694,194.104c0.186-0.002,0.372-0.005,0.558-0.007c-0.207-0.784-0.404-1.53-0.593-2.243
							c-0.173,0.002-0.346,0.003-0.52,0.005C57.316,192.572,57.5,193.32,57.694,194.104z"/>
					</g>
				</g>
			</g>
		</g>
	</g>
	<g>
		<g>
			<g>
				<path style="fill:#1A1A1A;" d="M162.961,243.261c5.127,3.557,12.574,3.458,17.819-0.046c5.243-3.511,8.203-10.171,7.277-16.137
					c-0.899-5.751-5.561-10.635-11.002-11.707c-5.43-1.063-11.431,1.516-14.616,6.041c-7.71-5.946-15.371-11.854-22.983-17.725
					c10.398-13.961,29.232-21.546,45.947-17.95c16.64,3.601,30.596,18.763,32.997,36.252c2.451,18.012-6.861,37.711-22.616,47.655
					c-15.576,9.806-37.074,9.321-51.331-1.31C150.621,259.979,156.79,251.621,162.961,243.261z"/>
				<g>
					<path style="fill:#FFA800;" d="M146.426,265.662c13.288,9.866,33.28,10.276,47.744,1.142
						c14.622-9.256,23.252-27.548,20.972-44.267c-2.233-16.233-15.183-30.306-30.628-33.648
						c-15.514-3.337-32.994,3.711-42.629,16.673c-0.183-0.141-0.365-0.282-0.548-0.423c9.807-13.188,27.592-20.357,43.377-16.961
						c15.714,3.4,28.891,17.719,31.161,34.235c2.318,17.01-6.466,35.619-21.343,45.03c-14.715,9.285-35.046,8.859-48.552-1.179
						C146.129,266.064,146.278,265.863,146.426,265.662z"/>
				</g>
				<g>
					<path style="fill:#FFA800;" d="M161.179,245.675c6.011,4.229,14.802,4.173,21.033,0.064c6.244-4.129,9.811-12.029,8.746-19.147
						c-1.036-6.876-6.58-12.756-13.098-14.081c-6.518-1.317-13.768,1.741-17.653,7.181c-0.186-0.143-0.371-0.286-0.556-0.429
						c4.06-5.669,11.62-8.846,18.411-7.466c6.787,1.387,12.551,7.516,13.622,14.673c1.099,7.406-2.619,15.616-9.113,19.899
						c-6.477,4.261-15.605,4.305-21.836-0.092C160.883,246.077,161.031,245.876,161.179,245.675z"/>
				</g>
				<g>
					<g>
						<path style="fill:#FFFFFF;" d="M153.099,210.346c-0.682,0.76-1.327,1.553-1.93,2.376c-0.184-0.142-0.368-0.284-0.552-0.426
							c0.619-0.843,1.28-1.656,1.98-2.435C152.764,210.022,152.931,210.184,153.099,210.346z"/>
					</g>
					<g>
						<path style="fill:#FFFFFF;" d="M162.595,259.81c2.086,0.632,4.248,1.03,6.432,1.187c-0.032,0.247-0.063,0.494-0.095,0.742
							c-2.235-0.163-4.448-0.572-6.582-1.22C162.432,260.283,162.514,260.047,162.595,259.81z M175.615,260.748
							c2.191-0.323,4.354-0.886,6.438-1.67c0.072,0.235,0.143,0.469,0.215,0.704c-2.135,0.802-4.35,1.377-6.592,1.706
							C175.655,261.241,175.635,260.995,175.615,260.748z M188.044,256.069c1.892-1.212,3.66-2.623,5.267-4.2
							c0.163,0.179,0.326,0.358,0.489,0.537c-1.646,1.614-3.458,3.058-5.395,4.298C188.284,256.493,188.164,256.281,188.044,256.069
							z M197.612,246.681c1.249-1.865,2.304-3.856,3.143-5.927c0.225,0.09,0.449,0.181,0.674,0.271
							c-0.86,2.12-1.943,4.159-3.222,6.069C198.009,246.957,197.811,246.819,197.612,246.681z M202.605,234.372
							c0.389-2.165,0.551-4.361,0.482-6.537c0.245-0.014,0.49-0.029,0.735-0.043c0.071,2.229-0.096,4.479-0.495,6.696
							C203.085,234.45,202.845,234.411,202.605,234.372z M202.194,221.449c-0.52-2.064-1.262-4.062-2.208-5.944
							c0.221-0.115,0.442-0.231,0.663-0.346c0.969,1.928,1.728,3.975,2.261,6.09C202.67,221.316,202.432,221.382,202.194,221.449z
							 M196.58,210.272c-1.314-1.596-2.804-3.039-4.43-4.294c0.157-0.194,0.315-0.389,0.472-0.583
							c1.666,1.286,3.192,2.765,4.538,4.401C196.967,209.955,196.773,210.113,196.58,210.272z M186.911,202.806
							c-1.854-0.855-3.804-1.501-5.801-1.925c0.067-0.238,0.133-0.475,0.2-0.712c2.046,0.435,4.045,1.098,5.944,1.974
							C187.14,202.363,187.025,202.585,186.911,202.806z M175.016,200.273c-2.051,0.02-4.104,0.263-6.111,0.718
							c-0.035-0.238-0.069-0.476-0.103-0.713c2.057-0.467,4.161-0.715,6.263-0.734C175.049,199.787,175.033,200.03,175.016,200.273z
							 M163.049,202.987c-1.882,0.869-3.676,1.934-5.346,3.169c-0.128-0.196-0.257-0.392-0.385-0.588
							c1.712-1.266,3.552-2.357,5.481-3.246C162.882,202.543,162.965,202.765,163.049,202.987z"/>
					</g>
					<g>
						<path style="fill:#FFFFFF;" d="M153.928,255.499c0.863,0.629,1.761,1.21,2.688,1.739c-0.128,0.215-0.256,0.43-0.383,0.645
							c-0.948-0.542-1.867-1.138-2.75-1.782C153.631,255.9,153.78,255.699,153.928,255.499z"/>
					</g>
				</g>
			</g>
		</g>
	</g>
	<g>
		<g>
			<g>
				<path style="fill:#1A1A1A;" d="M261.927,97.34c2.774,6.6,6.568,13.674,11.507,21.113c1.013,1.525,2.091,3.072,3.202,4.628
					h51.217c-3.248-2.268-6.335-4.551-9.248-6.839c-6.783-5.328-12.613-10.645-17.521-15.846c-4.452-4.72-8.133-9.333-11.072-13.767
					c-2.659-4.014-4.714-7.888-6.185-11.558c-1.335-3.336-2.195-6.527-2.597-9.502c-0.369-2.739-0.353-5.332,0.014-7.699
					c0.676-4.356,2.65-8.157,5.323-11.083c5.487-5.997,14.054-9.39,17.391-15.483c2.581-4.727,0.475-10.573-3.837-13.954
					c-3.892-0.129-8.11-0.47-12.667-0.741c3.431,2.487,4.774,7.004,2.408,10.196c-1.5,2.019-4.024,3.775-7.178,5.318
					c-3.681,1.799-7.875,3.552-11.655,6.283c-3.881,2.806-7.42,6.466-10.078,10.992c-2.867,4.888-4.823,11.068-5.162,18.206
					c-0.188,4,0.114,8.38,0.995,13.066C257.755,85.825,259.436,91.41,261.927,97.34z"/>
				<g>
					<path style="fill:#FFA800;" d="M264.676,97.566c2.956,6.506,6.934,13.456,12.049,20.739c1.106,1.575,2.281,3.169,3.494,4.775
						h1.059c-1.244-1.618-2.447-3.226-3.58-4.813c-5.166-7.238-9.197-14.151-12.207-20.63c-2.703-5.822-4.595-11.324-5.764-16.422
						c-1.061-4.629-1.535-8.97-1.505-12.947c0.056-7.077,1.763-13.248,4.443-18.137c2.479-4.519,5.883-8.191,9.668-10.999
						c3.708-2.748,7.951-4.467,11.715-6.284c3.243-1.567,5.828-3.423,7.365-5.533c2.433-3.348,1.046-8.026-2.463-10.616
						c-0.111-0.007-0.222-0.014-0.334-0.021c3.491,2.567,4.868,7.208,2.45,10.521c-1.528,2.088-4.099,3.921-7.321,5.481
						c-3.746,1.812-7.98,3.538-11.707,6.283c-3.808,2.807-7.244,6.477-9.764,10.997c-2.723,4.889-4.487,11.062-4.608,18.153
						c-0.066,3.982,0.369,8.332,1.388,12.974C260.177,86.199,262.021,91.72,264.676,97.566z"/>
				</g>
				<g>
					<path style="fill:#FFA800;" d="M279.728,74.147c1.26,3.73,3.101,7.687,5.549,11.804c2.707,4.551,6.161,9.312,10.401,14.209
						c4.684,5.409,10.317,10.973,16.939,16.589c2.489,2.11,5.123,4.222,7.881,6.331h1.432c-2.845-2.137-5.559-4.28-8.125-6.422
						c-6.657-5.559-12.331-11.075-17.061-16.444c-4.283-4.862-7.784-9.594-10.537-14.123c-2.49-4.097-4.374-8.039-5.677-11.757
						c-1.185-3.384-1.895-6.609-2.157-9.604c-0.241-2.765-0.102-5.37,0.374-7.741c0.881-4.377,3.018-8.154,5.818-11.038
						c2.818-2.899,6.494-5.016,10.056-7.397c3.43-2.294,6.327-4.797,7.952-7.594c2.654-4.579,0.669-10.343-3.541-13.652
						c-0.092-0.004-0.184-0.008-0.276-0.012c4.185,3.29,6.141,9.031,3.474,13.573c-1.637,2.782-4.548,5.267-8.004,7.536
						c-3.592,2.357-7.296,4.447-10.141,7.333c-2.831,2.875-5.008,6.647-5.94,11.029c-0.503,2.372-0.673,4.98-0.464,7.751
						C277.909,67.518,278.581,70.752,279.728,74.147z"/>
				</g>
				<g>
					<g>
						<path style="fill:#FFFFFF;" d="M297.135,19.918c0.478,0.678,0.865,1.398,1.131,2.146c-0.109-0.018-0.218-0.036-0.328-0.054
							c-0.264-0.743-0.647-1.458-1.123-2.131C296.923,19.892,297.029,19.905,297.135,19.918z M298.692,24.365
							c0.015,0.796-0.107,1.615-0.363,2.421c-0.112-0.03-0.223-0.061-0.335-0.092c0.256-0.798,0.379-1.611,0.365-2.401
							C298.47,24.317,298.581,24.341,298.692,24.365z M297.101,29.277c-0.578,0.86-1.303,1.696-2.154,2.496
							c-0.108-0.045-0.216-0.091-0.324-0.137c0.846-0.792,1.569-1.62,2.145-2.472C296.879,29.202,296.99,29.24,297.101,29.277z
							 M291.843,34.189c-1.221,0.801-2.565,1.54-3.991,2.235c-0.102-0.061-0.202-0.122-0.302-0.183
							c1.427-0.686,2.767-1.419,3.984-2.212C291.636,34.083,291.739,34.136,291.843,34.189z M283.528,38.52
							c-1.383,0.733-2.713,1.55-3.97,2.463c-0.115-0.071-0.228-0.141-0.341-0.212c1.266-0.911,2.603-1.727,3.993-2.457
							C283.315,38.383,283.421,38.452,283.528,38.52z M276.001,44.023c-1.116,1.125-2.15,2.36-3.074,3.7
							c-0.139-0.071-0.277-0.142-0.414-0.213c0.939-1.341,1.986-2.576,3.115-3.7C275.751,43.881,275.875,43.952,276.001,44.023z
							 M270.45,52.175c-0.721,1.647-1.303,3.424-1.718,5.313c-0.174-0.07-0.347-0.139-0.52-0.209
							c0.436-1.891,1.037-3.67,1.776-5.317C270.14,52.034,270.295,52.104,270.45,52.175z M267.994,63.797
							c-0.053,2.349,0.121,4.844,0.542,7.456c-0.223-0.063-0.445-0.126-0.666-0.188c-0.395-2.618-0.542-5.118-0.464-7.47
							C267.601,63.662,267.797,63.729,267.994,63.797z M270.76,80.031c1.116,3.281,2.587,6.718,4.434,10.279
							c-0.287-0.042-0.573-0.085-0.859-0.128c-1.813-3.576-3.249-7.025-4.332-10.316C270.255,79.92,270.507,79.975,270.76,80.031z
							 M282.516,102.252c3.129,4.438,6.801,9.02,11.047,13.703c-0.36,0.009-0.719,0.017-1.078,0.026
							c-4.211-4.718-7.847-9.331-10.937-13.796C281.869,102.207,282.192,102.23,282.516,102.252z"/>
					</g>
					<g>
						<path style="fill:#FFFFFF;" d="M294.314,17.05c0.374,0.29,0.73,0.589,1.067,0.899c-0.103-0.008-0.206-0.017-0.31-0.025
							c-0.335-0.308-0.69-0.605-1.062-0.893C294.111,17.037,294.213,17.043,294.314,17.05z"/>
					</g>
				</g>
			</g>
		</g>
	</g>
	<g>
		<g>
			<g>
				<path style="fill:#1A1A1A;" d="M151.556,121.537h70.519c-1.893-2.288-3.652-4.516-5.26-6.69
					c-2.987-4.041-5.448-7.898-7.286-11.584c-1.705-3.419-2.876-6.71-3.484-9.834c-1.108-5.706-0.246-11.021,1.725-15.645
					c1.852-4.34,4.587-8.164,7.12-11.698c4.412-6.157,7.568-11.836,5.255-16.246c-2.399-4.555-8.963-7.972-15.231-11.293
					c-5.669-3.004-10.623-5.589-11.147-8.265c-0.419-2.173,2.911-4.099,6.08-5.722c2.901-1.486,5.382-3.087,4.688-4.412
					c-0.869-1.648-4.315-2.778-7.754-4.052c-5.473-0.261-10.999-0.524-16.578-0.789c2.97,1.264,6.051,2.51,6.136,4.033
					c0.079,1.521-3.346,2.905-7.167,4.385c-4.181,1.619-8.598,3.282-9.34,5.715c-0.731,2.421,3.137,5.301,7.62,8.331
					c4.97,3.358,10.252,7.078,10.492,11.47c0.123,2.313-1.186,4.864-3.432,7.399c-2.609,2.942-6.348,5.936-10.507,9.276
					c-4.552,3.656-9.454,7.585-13.774,12.16c-4.505,4.773-8.275,10.274-10.155,16.464c-0.992,3.271-1.487,6.777-1.455,10.463
					c0.035,3.906,0.656,8.059,1.771,12.436C150.732,118.78,151.125,120.148,151.556,121.537z"/>
				<g>
					<path style="fill:#FFA800;" d="M156.172,117.212c0.419,1.415,0.897,2.858,1.417,4.325h1.748
						c-0.547-1.489-1.051-2.954-1.493-4.39c-1.337-4.338-2.176-8.458-2.42-12.339c-0.229-3.655,0.071-7.138,0.88-10.392
						c1.527-6.137,4.968-11.619,9.184-16.373c4.038-4.55,8.694-8.467,13.016-12.109c3.951-3.328,7.507-6.316,9.939-9.246
						c2.1-2.532,3.263-5.085,3.021-7.381c-0.472-4.418-5.908-8.097-11.022-11.451c-4.615-3.026-8.617-5.872-8.012-8.324
						c0.602-2.408,4.911-4.096,8.981-5.715c3.72-1.48,7.05-2.889,6.895-4.388c-0.166-1.542-3.292-2.77-6.313-4.035
						c-0.134-0.006-0.269-0.013-0.403-0.019c3.01,1.265,6.126,2.497,6.274,4.035c0.139,1.504-3.213,2.907-6.956,4.387
						c-4.095,1.619-8.428,3.302-9.062,5.715c-0.634,2.445,3.339,5.298,7.924,8.325c5.082,3.355,10.484,7.043,10.903,11.456
						c0.215,2.3-0.98,4.853-3.113,7.385c-2.472,2.933-6.07,5.922-10.067,9.253c-4.374,3.645-9.085,7.564-13.186,12.12
						c-4.28,4.758-7.795,10.245-9.401,16.393c-0.85,3.258-1.193,6.746-1.008,10.408
						C154.094,108.739,154.884,112.866,156.172,117.212z"/>
				</g>
				<g>
					<path style="fill:#FFA800;" d="M201.678,38.455c6.118,3.326,12.543,6.77,14.688,11.315c2.093,4.455-1.439,10.122-6.243,16.296
						c-2.76,3.548-5.742,7.382-7.869,11.751c-2.256,4.639-3.447,9.978-2.662,15.739c0.429,3.141,1.419,6.457,2.941,9.906
						c1.64,3.712,3.902,7.603,6.686,11.681c1.42,2.079,2.98,4.21,4.656,6.394h1.645c-1.719-2.205-3.318-4.355-4.775-6.453
						c-2.825-4.07-5.128-7.955-6.807-11.661c-1.559-3.443-2.585-6.754-3.051-9.892c-0.85-5.75,0.275-11.085,2.473-15.72
						c2.072-4.363,5.004-8.196,7.718-11.741c4.725-6.171,8.182-11.84,6.044-16.286c-2.196-4.547-8.648-7.986-14.797-11.31
						c-5.559-3.006-10.424-5.615-10.821-8.271c-0.323-2.198,3.12-4.099,6.383-5.722c2.987-1.485,5.563-3.069,4.919-4.409
						c-0.793-1.641-4.207-2.777-7.602-4.05c-0.131-0.006-0.263-0.012-0.394-0.019c3.384,1.273,6.79,2.411,7.564,4.049
						c0.631,1.345-1.969,2.924-4.977,4.409c-3.287,1.622-6.757,3.517-6.459,5.721C191.304,32.833,196.146,35.449,201.678,38.455z"/>
				</g>
				<g>
					<g>
						<path style="fill:#FFFFFF;" d="M193.66,17.868c0.845,0.469,1.535,0.964,1.881,1.5c-0.144-0.007-0.289-0.013-0.433-0.019
							c-0.34-0.536-1.026-1.031-1.866-1.5C193.382,17.855,193.521,17.862,193.66,17.868z M195.483,20.897
							c-0.397,0.554-1.152,1.07-2.078,1.577c-0.157-0.007-0.315-0.013-0.472-0.02c0.933-0.507,1.695-1.023,2.1-1.577
							C195.182,20.884,195.333,20.89,195.483,20.897z M189.865,24.149c-1.329,0.59-2.671,1.182-3.907,1.846
							c-0.175-0.007-0.349-0.014-0.524-0.02c1.245-0.664,2.596-1.257,3.934-1.846C189.534,24.135,189.699,24.142,189.865,24.149z
							 M183.03,28.091c-0.647,0.724-0.951,1.581-0.763,2.415c-0.194-0.007-0.388-0.014-0.583-0.02
							c-0.178-0.835,0.137-1.691,0.793-2.415C182.661,28.078,182.846,28.085,183.03,28.091z M184.27,33.285
							c1.197,1.052,2.762,2.084,4.518,3.161c-0.214-0.006-0.429-0.013-0.644-0.019c-1.746-1.078-3.301-2.11-4.487-3.162
							C183.862,33.272,184.066,33.278,184.27,33.285z M194.724,39.997c2.042,1.251,4.014,2.544,5.707,3.956
							c-0.238-0.006-0.476-0.011-0.715-0.017c-1.679-1.413-3.639-2.707-5.669-3.958C194.273,39.985,194.498,39.991,194.724,39.997z
							 M204.191,48.372c0.762,1.555,0.95,3.279,0.519,5.003c-0.273-0.004-0.546-0.008-0.818-0.013
							c0.451-1.724,0.284-3.449-0.462-5.006C203.684,48.362,203.938,48.368,204.191,48.372z M201.528,59.166
							c-1.718,2.19-3.907,4.443-6.26,6.87c-0.327-0.001-0.655-0.003-0.983-0.004c2.386-2.429,4.604-4.684,6.351-6.875
							C200.934,59.16,201.231,59.162,201.528,59.166z M187.684,74.374c-2.518,3.133-4.761,6.555-6.261,10.295
							c-0.41,0.005-0.819,0.01-1.229,0.015c1.548-3.746,3.835-7.17,6.395-10.306C186.954,74.376,187.319,74.375,187.684,74.374z
							 M179.463,97.546c0.385,5.026,2.055,10.496,4.806,16.326c-0.523,0.019-1.047,0.039-1.572,0.058
							c-2.688-5.841-4.296-11.321-4.622-16.352C178.539,97.567,179.001,97.557,179.463,97.546z"/>
					</g>
					<g>
						<path style="fill:#FFFFFF;" d="M188.749,15.714c0.579,0.229,1.161,0.459,1.737,0.694c-0.135-0.006-0.27-0.013-0.404-0.019
							c-0.574-0.235-1.154-0.465-1.731-0.694C188.483,15.701,188.616,15.708,188.749,15.714z"/>
					</g>
				</g>
			</g>
		</g>
	</g>
	<g>
		<g>
			<g>
				<path style="fill:#1A1A1A;" d="M31.451,29.024c3.437,2.401,8.42,4.705,14.134,7.402c6.303,2.975,13.013,6.102,19.083,9.993
					c6.004,3.852,11.24,8.541,13.345,14.174c1.107,2.971,1.389,6.334,0.757,9.916c-0.71,4.009-2.553,8.45-5.365,13.307
					c-1.569,2.709-3.446,5.569-5.608,8.602c-2.337,3.277-5.014,6.764-8.012,10.497c-3.252,4.049-6.892,8.4-10.907,13.109
					c-1.377,1.615-2.817,3.292-4.287,4.999h57.588c1.129-2.81,2.202-5.506,3.202-8.073c1.685-4.327,3.185-8.342,4.461-12.087
					c1.185-3.478,2.18-6.735,2.953-9.795c0.721-2.859,1.251-5.558,1.561-8.105c0.566-4.662,0.38-8.912-0.632-12.678
					c-0.944-3.507-2.644-6.722-4.908-9.556c-4.459-5.575-11.251-10.019-18.596-13.809c-7.363-3.798-15.087-6.894-22.352-9.831
					c-6.6-2.668-12.368-4.967-16.674-7.334c-3.311-1.822-5.545-3.749-5.31-5.358c0.494-3.295,8.449-4.851,15.385-6.463
					c-4.441-0.222-8.924-0.447-13.451-0.673c-4.024,0.789-8.134,1.575-11.926,2.652c-3.407,0.969-6.379,2.109-7.44,3.744
					C27.516,25.104,28.853,27.208,31.451,29.024z"/>
				<g>
					<path style="fill:#FFA800;" d="M33.113,29.086c3.513,2.398,8.563,4.702,14.353,7.396c6.387,2.972,13.183,6.096,19.367,9.98
						c6.12,3.846,11.495,8.51,13.805,14.143c1.21,2.958,1.619,6.309,1.123,9.885c-0.555,3.988-2.218,8.413-4.831,13.253
						c-1.456,2.695-3.212,5.542-5.245,8.559c-2.196,3.258-4.721,6.725-7.554,10.435c-3.072,4.023-6.516,8.344-10.317,13.018
						c-1.382,1.699-2.831,3.467-4.31,5.267h1.425c1.481-1.828,2.931-3.622,4.313-5.345c3.74-4.665,7.127-8.978,10.148-12.993
						c2.786-3.704,5.267-7.165,7.422-10.418c1.995-3.013,3.717-5.855,5.14-8.546c2.555-4.834,4.167-9.255,4.677-13.237
						c0.456-3.574,0.01-6.922-1.229-9.876c-2.369-5.633-7.785-10.29-13.938-14.135c-6.216-3.882-13.038-7.005-19.449-9.976
						c-5.813-2.694-10.882-4.997-14.416-7.395c-2.676-1.816-4.119-3.905-3.255-5.367c2.152-3.618,10.943-4.81,18.929-6.404
						c-0.109-0.006-0.218-0.011-0.327-0.016c-8.016,1.593-16.828,2.779-19.028,6.402C29.035,25.177,30.455,27.269,33.113,29.086z"/>
				</g>
				<g>
					<path style="fill:#FFA800;" d="M48.862,29.668c4.206,2.371,9.883,4.67,16.381,7.342c7.154,2.942,14.761,6.041,21.978,9.851
						c7.19,3.798,13.808,8.264,17.999,13.852c2.134,2.848,3.677,6.08,4.441,9.598c0.822,3.793,0.78,8.067-0.038,12.751
						c-0.449,2.566-1.127,5.283-2.009,8.162c-0.944,3.085-2.125,6.368-3.508,9.875c-1.491,3.779-3.224,7.833-5.162,12.202
						c-1.092,2.463-2.255,5.038-3.477,7.723h1.346c1.204-2.71,2.351-5.309,3.425-7.793c1.887-4.361,3.572-8.407,5.02-12.179
						c1.343-3.501,2.486-6.779,3.396-9.859c0.849-2.875,1.498-5.588,1.918-8.15c0.767-4.679,0.763-8.948-0.097-12.736
						c-0.8-3.515-2.375-6.744-4.535-9.589c-4.245-5.585-10.898-10.047-18.119-13.844c-7.246-3.807-14.876-6.906-22.053-9.847
						c-6.519-2.671-12.214-4.971-16.44-7.341c-3.244-1.821-5.402-3.766-5.096-5.359c0.656-3.34,8.711-4.847,15.757-6.457
						c-0.107-0.005-0.213-0.011-0.32-0.016c-7.074,1.609-15.154,3.104-15.85,6.455C43.495,25.897,45.634,27.848,48.862,29.668z"/>
				</g>
				<g>
					<g>
						<path style="fill:#FFFFFF;" d="M74.59,121.023c0.518-0.833,1.032-1.66,1.534-2.472c-0.469,0.027-0.939,0.055-1.409,0.083
							c-0.494,0.784-1,1.584-1.509,2.389H74.59z"/>
					</g>
					<g>
						<path style="fill:#FFFFFF;" d="M48.663,18.959c-1.353,0.324-2.675,0.663-3.94,1.036c-0.121-0.006-0.242-0.011-0.363-0.017
							c1.271-0.372,2.598-0.712,3.957-1.035C48.432,18.948,48.547,18.953,48.663,18.959z M41.312,21.167
							c-0.975,0.403-1.841,0.841-2.527,1.337c-0.133-0.006-0.266-0.012-0.399-0.018c0.693-0.496,1.565-0.934,2.545-1.337
							C41.058,21.155,41.185,21.161,41.312,21.167z M37.458,24.032c-0.211,0.542-0.166,1.153,0.121,1.742
							c-0.146-0.006-0.292-0.012-0.439-0.018c-0.28-0.589-0.319-1.201-0.101-1.742C37.179,24.02,37.319,24.026,37.458,24.032z
							 M39.296,27.75c0.896,0.742,2.028,1.478,3.342,2.229c-0.16-0.006-0.32-0.012-0.48-0.017c-1.307-0.751-2.432-1.487-3.321-2.229
							C38.99,27.738,39.143,27.744,39.296,27.75z M47.503,32.476c1.914,0.908,3.978,1.829,6.16,2.785
							c-0.174-0.005-0.349-0.011-0.524-0.016c-2.175-0.956-4.231-1.878-6.137-2.786C47.169,32.465,47.336,32.471,47.503,32.476z
							 M60.776,38.359c2.515,1.102,5.074,2.241,7.636,3.446c-0.192-0.005-0.383-0.009-0.575-0.014
							c-2.553-1.205-5.103-2.345-7.609-3.447C60.411,38.348,60.594,38.353,60.776,38.359z M76.082,45.653
							c2.502,1.358,4.92,2.792,7.181,4.337c-0.214-0.003-0.428-0.007-0.642-0.01c-2.248-1.545-4.654-2.981-7.145-4.339
							C75.678,45.645,75.88,45.649,76.082,45.653z M89.429,54.94c1.826,1.769,3.409,3.688,4.633,5.75
							c-0.247-0.001-0.493-0.002-0.74-0.003c-1.203-2.063-2.769-3.984-4.578-5.754C88.972,54.936,89.201,54.938,89.429,54.94z
							 M96.659,67.518c0.485,2.568,0.504,5.358,0.068,8.323c-0.299,0.004-0.599,0.007-0.899,0.011
							c0.469-2.967,0.48-5.76,0.022-8.331C96.12,67.52,96.39,67.519,96.659,67.518z M93.754,86.305
							c-1.643,4.155-3.873,8.68-6.604,13.646c-0.393,0.015-0.786,0.031-1.179,0.046c2.79-4.974,5.074-9.506,6.765-13.668
							C93.076,86.321,93.415,86.313,93.754,86.305z"/>
					</g>
					<g>
						<path style="fill:#FFFFFF;" d="M54.752,17.607c-0.653,0.139-1.313,0.28-1.979,0.424c-0.11-0.006-0.22-0.011-0.331-0.016
							c0.668-0.144,1.331-0.285,1.986-0.424C54.537,17.597,54.644,17.602,54.752,17.607z"/>
					</g>
				</g>
			</g>
		</g>
	</g>
	<g>
		<g>
			<g>
				<path style="fill:#1A1A1A;" d="M313.392,193.585c-0.915,0.864-1.891,1.787-2.953,2.79c-2.039,1.926-4.425,4.182-7.257,6.857
					c-1.623,1.534-3.413,3.226-5.398,5.1c-2.211,2.09-4.692,4.434-7.493,7.081c-3.189,3.014-6.852,6.475-11.103,10.492
					c-2.392,2.261-4.993,4.718-7.832,7.401c-3.11,2.939-6.532,6.173-10.317,9.749c-4.207,3.975-8.911,8.421-14.207,13.425
					c-2.906,2.746-6.006,5.675-9.322,8.809c-2.57,2.428-5.283,4.992-8.142,7.693h75.372c1.067-3.411,2.069-6.612,3.003-9.597
					c1.026-3.28,1.982-6.333,2.873-9.182c1.615-5.162,3.04-9.715,4.306-13.76c1.133-3.619,2.151-6.875,3.073-9.82
					c0.838-2.677,1.603-5.121,2.303-7.36c0.645-2.06,1.24-3.962,1.79-5.722c0.987-3.156,1.847-5.904,2.603-8.318
					c0.669-2.138,1.266-4.045,1.801-5.756c0.921-2.944,1.685-5.386,2.33-7.445c0.272-0.869,0.525-1.678,0.762-2.436H313.392z"/>
				<g>
					<path style="fill:#FFA800;" d="M314.624,193.585c-0.858,0.857-1.773,1.77-2.767,2.763c-1.94,1.937-4.213,4.206-6.913,6.902
						c-1.549,1.547-3.26,3.255-5.157,5.149c-2.117,2.113-4.493,4.486-7.18,7.169c-3.063,3.059-6.588,6.577-10.685,10.669
						c-2.31,2.306-4.824,4.816-7.571,7.559c-3.014,3.009-6.336,6.326-10.015,9.999c-4.098,4.091-8.69,8.676-13.871,13.849
						c-2.848,2.844-5.892,5.883-9.151,9.137c-1.979,1.976-4.053,4.047-6.208,6.199h1.684c1.962-1.993,3.852-3.911,5.664-5.751
						c3.242-3.291,6.267-6.363,9.097-9.237c5.145-5.224,9.702-9.851,13.766-13.977c3.647-3.703,6.938-7.044,9.922-10.074
						c2.719-2.761,5.207-5.287,7.491-7.606c4.052-4.114,7.534-7.65,10.56-10.722c2.653-2.694,4.999-5.075,7.087-7.196
						c1.871-1.9,3.558-3.612,5.085-5.163c2.661-2.702,4.9-4.975,6.811-6.915c0.974-0.989,1.872-1.9,2.713-2.755H314.624z"/>
				</g>
				<g>
					<path style="fill:#FFA800;" d="M327.482,193.585c-0.316,0.771-0.654,1.595-1.017,2.481c-0.837,2.042-1.828,4.46-3.02,7.369
						c-0.692,1.688-1.461,3.566-2.323,5.668c-0.972,2.37-2.075,5.063-3.34,8.148c-0.704,1.718-1.463,3.57-2.285,5.575
						c-0.892,2.176-1.863,4.545-2.925,7.136c-1.166,2.844-2.452,5.982-3.877,9.459c-1.589,3.877-3.371,8.225-5.385,13.138
						c-1.108,2.703-2.292,5.593-3.562,8.691c-1.364,3.328-2.834,6.914-4.422,10.789c-0.127,0.31-0.257,0.627-0.386,0.941h1.941
						c0.051-0.13,0.103-0.264,0.153-0.393c1.533-3.924,2.952-7.555,4.267-10.923c1.224-3.133,2.365-6.055,3.432-8.786
						c1.938-4.96,3.652-9.349,5.18-13.258c1.369-3.505,2.604-6.665,3.723-9.53c1.019-2.608,1.95-4.992,2.805-7.18
						c0.787-2.015,1.515-3.878,2.189-5.604c1.211-3.099,2.267-5.803,3.196-8.182c0.824-2.11,1.56-3.993,2.221-5.686
						c1.139-2.916,2.085-5.339,2.885-7.384c0.345-0.882,0.666-1.704,0.966-2.472H327.482z"/>
				</g>
				<g>
					<g>
						<path style="fill:#FFFFFF;" d="M266.279,272.98c1.525-2.2,2.987-4.309,4.386-6.326c3.343-4.822,6.363-9.177,9.103-13.13
							c-0.414-0.106-0.826-0.211-1.236-0.316c-2.783,3.913-5.847,8.222-9.237,12.989c-1.533,2.155-3.142,4.418-4.824,6.783H266.279z
							"/>
						<path style="fill:#FFFFFF;" d="M299.953,224.408c-0.292-0.03-0.584-0.061-0.875-0.091c-2.347,3.3-5.009,7.044-8.055,11.326
							c0.341,0.054,0.683,0.109,1.027,0.164C295.04,231.496,297.652,227.728,299.953,224.408z"/>
						<path style="fill:#FFFFFF;" d="M315.119,202.533c-0.182-0.001-0.364-0.003-0.546-0.004c-0.782,1.1-1.622,2.281-2.527,3.554
							c0.201,0.004,0.402,0.009,0.603,0.013C313.534,204.82,314.355,203.636,315.119,202.533z"/>
						<path style="fill:#FFFFFF;" d="M309.529,210.596c-0.225-0.009-0.449-0.018-0.673-0.028c-1.258,1.768-2.635,3.706-4.152,5.838
							c0.253,0.017,0.507,0.034,0.761,0.051C306.95,214.316,308.299,212.371,309.529,210.596z"/>
						<path style="fill:#FFFFFF;" d="M318.783,197.248c-0.153,0.002-0.306,0.005-0.459,0.007c-0.533,0.749-1.098,1.544-1.699,2.389
							c0.166-0.001,0.332-0.002,0.499-0.003C317.711,198.795,318.263,197.999,318.783,197.248z"/>
					</g>
				</g>
			</g>
		</g>
	</g>
</g>
</svg>
