<svg>
	<symbol id="apple" xmlns="http://www.w3.org/2000/svg" viewBox="0 0 512 512" xml:space="preserve">
		<path d="M256 0C114.6 0 0 114.6 0 256s114.6 256 256 256 256-114.6 256-256S397.4 0 256 0zm159.8 415.7c-20.8 20.8-44.9 37.1-71.8 48.4-27.8 11.8-57.4 17.7-88 17.7-30.5 0-60.1-6-88-17.7-26.9-11.4-51.1-27.7-71.8-48.4-20.8-20.8-37.1-44.9-48.4-71.8C36 316.1 30 286.5 30 256s6-60.1 17.7-88c11.4-26.9 27.7-51.1 48.4-71.8 20.9-20.8 45-37.1 71.9-48.5C195.9 36 225.5 30 256 30s60.1 6 88 17.7c26.9 11.4 51.1 27.7 71.8 48.4 20.8 20.8 37.1 44.9 48.4 71.8 11.8 27.8 17.7 57.4 17.7 88 0 30.5-6 60.1-17.7 88-11.4 26.9-27.7 51.1-48.4 71.8z"/><path d="M358.6 206.9c-13.2-16.5-31.7-26-49.2-26-23.1 0-32.9 11-48.9 11-16.6 0-29.1-11-49.1-11-19.7 0-40.6 11.9-53.8 32.3-18.7 28.7-15.5 82.6 14.7 128.6 10.8 16.4 25.2 34.9 44.1 35.1 16.8.2 21.6-10.7 44.3-10.8 22.7-.1 27 11 43.8 10.8 18.9-.2 34.1-20.7 44.9-37.1 7.7-11.7 10.6-17.7 16.6-31-43.7-16.5-50.7-78.2-7.4-101.9z"/><path d="M291.8 162.6c8.4-10.8 14.8-26 12.5-41.6-13.7.9-29.8 9.7-39.1 21.1-8.5 10.3-15.5 25.6-12.8 40.5 14.9.5 30.4-8.5 39.4-20z"/>
	</symbol>


	<symbol id="facebook" viewBox="0 0 24 24" fill="none" xmlns="http://www.w3.org/2000/svg">
		<path fill-rule="evenodd" clip-rule="evenodd" d="M20 1a3 3 0 0 1 3 3v16a3 3 0 0 1-3 3H4a3 3 0 0 1-3-3V4a3 3 0 0 1 3-3h16zm0 2a1 1 0 0 1 1 1v16a1 1 0 0 1-1 1h-5v-7h2.076a1 1 0 0 0 .949-.684l.443-1.329a.75.75 0 0 0-.712-.987H15V9c0-.5.5-1 1-1h2a1 1 0 0 0 1-1v-.686a.71.71 0 0 0-.519-.695C17.171 5.273 16 5.273 16 5.273c-2.5 0-4 1.727-4 3.227V11h-2a1 1 0 0 0-1 1v1a1 1 0 0 0 1 1h2v7H4a1 1 0 0 1-1-1V4a1 1 0 0 1 1-1h16z" />
	</symbol>

	<symbol id="vscode" viewBox="0 0 16 16" fill="none" xmlns="http://www.w3.org/2000/svg">
		<path d="M11.573.275a1.203 1.203 0 0 0-.191.073c-.039.021-1.383 1.172-2.986 2.558C6.792 4.291 5.462 5.424 5.44 5.424c-.022 0-.664-.468-1.427-1.04-.762-.571-1.428-1.057-1.48-1.078-.15-.063-.468-.05-.613.024C1.754 3.416.189 4.975.094 5.15a.741.741 0 0 0 .04.766c.041.057.575.557 1.185 1.11.611.553 1.107 1.015 1.102 1.026-.004.012-.495.442-1.091.957-.596.514-1.122.981-1.168 1.036a.746.746 0 0 0-.069.804c.096.175 1.659 1.734 1.827 1.821.166.087.497.089.653.005.059-.031.7-.502 1.424-1.046l1.318-.988.109.1 2.73 2.473c1.846 1.671 2.666 2.396 2.772 2.453l.15.08h1.348l1.631-.814c1.5-.748 1.64-.823 1.748-.942.213-.237.197.241.197-5.738 0-5.821.009-5.468-.151-5.699-.058-.084-.41-.331-1.634-1.148-.857-.572-1.613-1.065-1.68-1.095-.1-.045-.187-.056-.482-.063-.237-.005-.401.004-.48.027m1.699 2.305 1.233.82.001 4.82.001 4.82-1.205.6-1.204.6h-.569L8.66 11.644c-1.578-1.428-2.912-2.616-2.963-2.641-.199-.094-.5-.101-.661-.014-.034.018-.651.475-1.372 1.015-.721.541-1.322.983-1.335.983-.03 0-.477-.448-.461-.462.673-.577 2.078-1.794 2.182-1.891.086-.081.169-.192.21-.28.057-.127.065-.174.054-.343-.01-.158-.028-.223-.091-.324-.053-.086-.454-.466-1.229-1.167l-1.15-1.04.231-.233a1.83 1.83 0 0 1 .256-.234c.013 0 .644.465 1.4 1.033 1.496 1.123 1.537 1.148 1.81 1.116a.968.968 0 0 0 .253-.069c.062-.029.503-.39.979-.802L7.96 5.265a5929.2 5929.2 0 0 0 2.187-1.89 191.687 191.687 0 0 1 1.879-1.614c.008-.001.568.368 1.246.819M11.64 4.257a1.5 1.5 0 0 0-.16.051c-.059.021-1.079.738-2.267 1.593C6.867 7.59 6.92 7.547 6.851 7.854a.556.556 0 0 0 0 .292c.068.307.017.264 2.362 1.953 1.188.855 2.214 1.576 2.28 1.601.347.133.743-.029.929-.38l.071-.133V4.813l-.071-.133a.76.76 0 0 0-.369-.356c-.127-.056-.324-.088-.413-.067m-.66 4.5-.007.757-1.046-.75A41.313 41.313 0 0 1 8.881 8c0-.007.471-.351 1.046-.764l1.046-.75.007.757a95.51 95.51 0 0 1 0 1.514" fill-rule="evenodd"/>
	</symbol>

	<symbol id="youtube"  viewBox="0 0 512 512" xml:space="preserve">
		<path d="M34.354.5h45.959l29.604 91.096h2.863L141.013.5h46.353l-53.107 133.338v94.589H88.641V138.08L34.354.5zm157.839 98.157c0-13.374 5.495-24.003 16.493-31.938 10.984-7.934 25.749-11.901 44.3-11.901 16.893 0 30.728 4.192 41.506 12.55 10.805 8.358 16.193 19.112 16.193 32.287v89.2c0 14.771-5.301 26.373-15.868 34.782-10.579 8.408-25.151 12.625-43.684 12.625-17.859 0-32.143-4.342-42.866-13.024-10.709-8.683-16.074-20.36-16.074-35.057V98.657zm42.012 92.767c0 4.766 1.44 8.409 4.354 11.029 2.907 2.595 7.055 3.867 12.451 3.867 5.532 0 9.93-1.297 13.18-3.942 3.256-2.669 4.891-6.313 4.891-10.954V97.359c0-3.768-1.672-6.812-4.99-9.132-3.318-2.321-7.679-3.494-13.081-3.494-4.972 0-9.027 1.173-12.133 3.494-3.119 2.32-4.672 5.364-4.672 9.132v94.065zM459.992 57.588v172.711h-40.883v-19.063c-7.547 7.037-15.381 12.375-23.541 16.069-8.146 3.643-16.068 5.489-23.729 5.489-9.455 0-16.592-2.57-21.383-7.71-4.791-5.141-7.186-12.85-7.186-23.13V57.588h40.895v132.39c0 4.117.861 7.061 2.57 8.907 1.723 1.822 4.492 2.745 8.322 2.745 3.018 0 6.824-1.223 11.4-3.643 4.604-2.42 8.82-5.514 12.65-9.282V57.588h40.885zM421.68 363.262c-2.008-2.221-5.203-3.368-9.594-3.368-4.59 0-7.883 1.147-9.879 3.368-1.996 2.245-2.994 5.963-2.994 11.153v10.754h25.473v-10.754c0-5.19-.998-8.908-3.006-11.153zm-120.825 80.966c2.195.898 4.516 1.322 6.961 1.322 3.543 0 6.113-.849 7.785-2.595 1.67-1.722 2.494-4.591 2.494-8.533v-62.178c0-4.191-1.023-7.36-3.068-9.531-2.059-2.171-5.064-3.244-8.957-3.244-2.059 0-4.092.399-6.102 1.198-2.008.823-3.991 2.096-5.95 3.792v75.402c2.346 2.046 4.628 3.493 6.837 4.367zm189.641-131.641c0-29.941-30.754-54.219-68.654-54.219-54.068-1.822-109.396-2.62-165.842-2.521-56.427-.1-111.756.698-165.843 2.521-37.881 0-68.633 24.277-68.633 54.219-2.277 23.678-3.263 47.381-3.175 71.085-.087 23.703.898 47.406 3.175 71.11 0 29.916 30.752 54.192 68.633 54.192 54.087 1.797 109.416 2.596 165.843 2.521 56.446.075 111.774-.724 165.842-2.521 37.9 0 68.654-24.276 68.654-54.192 2.27-23.704 3.254-47.407 3.154-71.11.1-23.704-.884-47.407-3.154-71.085zM121.251 463.465v1.797H88.778V321.644H55.182V295.497h99.672V321.644h-33.603v141.821zM236.768 341.33v123.932h-28.831v-13.698c-5.327 5.064-10.848 8.882-16.592 11.527-5.757 2.619-11.334 3.942-16.748 3.942-6.662 0-11.684-1.847-15.065-5.515-3.387-3.692-5.078-9.231-5.078-16.617V339.558h28.844v94.988c0 2.92.599 5.065 1.802 6.363 1.217 1.322 3.175 1.971 5.876 1.971 2.127 0 4.803-.873 8.047-2.595 3.231-1.747 6.2-3.967 8.914-6.662V339.558h28.831v1.772zm111.007 29.517v68.74c0 8.808-2.258 15.544-6.773 20.235-4.518 4.641-11.055 6.986-19.588 6.986-5.639 0-10.652-.898-15.07-2.695-4.428-1.821-8.532-4.616-12.325-8.384v9.532h-29.105V295.496h29.105v54.068c3.893-3.793 8.009-6.662 12.376-8.608 4.379-1.971 8.809-2.969 13.273-2.969 9.107 0 16.094 2.645 20.896 7.935 4.803 5.289 7.211 12.999 7.211 23.13v1.795zm106.59 3.793v31.564h-55.152v21.581c0 6.513.947 11.029 2.844 13.549 1.908 2.521 5.152 3.793 9.742 3.793 4.779 0 8.135-1.073 10.043-3.219 1.896-2.121 2.844-6.837 2.844-14.123v-8.607h29.68V430.28c0 12.7-3.605 22.257-10.84 28.694-7.225 6.438-18.016 9.631-32.375 9.631-12.912 0-23.066-3.418-30.49-10.229-7.41-6.812-11.127-16.193-11.127-28.096v-57.411c0-10.754 4.078-19.512 12.213-26.299 8.146-6.762 18.689-10.155 31.588-10.155 13.199 0 23.328 3.144 30.416 9.406 7.061 6.264 10.615 15.296 10.615 27.048v1.771z"/>

	</symbol>


</svg>