<svg width="172" height="92" viewBox="0 0 172 92" fill="none" xmlns="http://www.w3.org/2000/svg">
<path d="M56.2274 11.3499C55.8414 11.573 55.4504 11.7873 55.0594 12.0016C57.6674 11.8959 60.2755 11.7912 62.8845 11.6846C63.9385 11.6415 64.9924 11.573 66.0474 11.5153C68.3414 11.39 70.6354 11.2638 72.9294 11.1385C76.1424 10.9624 79.3534 10.7373 82.5654 10.5289C85.8534 10.3146 89.1384 10.0797 92.4244 9.84683C93.9014 9.7431 95.3794 9.63448 96.8564 9.52684C98.3734 9.41724 99.8964 9.33502 101.411 9.20389C101.725 9.15203 102.041 9.09625 102.357 9.08059C102.441 9.07667 102.529 9.07375 102.619 9.07375C102.871 9.07375 103.136 9.09331 103.359 9.15692C103.755 9.27141 104.175 9.40745 104.457 9.72451C104.611 9.89673 104.762 10.0729 104.879 10.2715C104.924 10.3478 104.963 10.4271 104.997 10.5074C105.028 10.5015 105.06 10.4966 105.091 10.4907C106.004 10.3244 106.916 10.156 107.828 9.98772C108.257 9.90846 108.684 9.82626 109.11 9.74308C109.59 9.64914 110.069 9.56107 110.553 9.49062C111.079 9.41429 111.607 9.37614 112.136 9.33308C112.546 9.29981 112.999 9.52097 113.281 9.79693C113.289 9.80475 113.296 9.81256 113.304 9.81941C114.574 9.48768 115.833 9.11779 117.097 8.76648C119.648 8.058 122.175 7.26144 124.675 6.39541C127.201 5.52056 129.699 4.58212 132.199 3.6378C132.327 3.5742 132.455 3.50472 132.586 3.43719C132.146 3.46655 131.705 3.49101 131.265 3.52232C129.906 3.6192 128.546 3.71217 127.187 3.80611C126.658 3.8433 126.13 3.87069 125.601 3.90005C125.398 3.91081 125.195 3.92255 124.991 3.93332C124.237 3.91962 123.483 3.92061 122.731 3.94507C122.082 3.94605 121.478 4.10653 120.917 4.42554C120.144 4.86884 119.558 5.59299 119.295 6.43064C118.115 6.4326 116.936 6.44238 115.755 6.47663C113.189 6.55296 110.623 6.63025 108.055 6.7056C106.726 6.74474 105.398 6.82499 104.071 6.89251C96.3034 7.28394 88.5394 7.71549 80.7734 8.13627C76.6144 8.36232 72.4564 8.60305 68.2974 8.81149C66.1384 8.92011 63.9774 9.03168 61.8184 9.14226C61.0024 9.18433 60.1874 9.22543 59.3724 9.2724C59.3564 9.28512 59.3404 9.29785 59.3234 9.31057C58.3384 10.0641 57.3034 10.7285 56.2274 11.3499Z" fill="#FFF0A5"/>
<path d="M86.0934 20.9349C86.7974 20.9359 87.5024 20.9457 88.2064 20.9702C88.7454 20.9888 89.2884 21.0054 89.8254 21.0504C90.1014 21.0739 90.3765 21.1003 90.6525 21.1267C92.3835 20.8557 94.1145 20.5846 95.8455 20.3145C97.6335 20.0346 99.4214 19.7528 101.208 19.473C99.5954 19.5131 97.9824 19.5639 96.3704 19.605C95.0574 19.6403 93.7464 19.6736 92.4344 19.7068C91.4624 19.7313 90.4914 19.8076 89.5204 19.8585C88.7734 19.8976 88.0264 19.9368 87.2794 19.9759C86.7634 20.1795 86.1854 20.2294 85.6354 20.1893C85.3274 20.1668 85.0214 20.1374 84.7144 20.111C84.3214 20.1315 83.9274 20.1521 83.5344 20.1726C82.4984 20.2274 81.4574 20.2617 80.4224 20.337C79.9314 20.3723 79.4414 20.4084 78.9504 20.4437C79.8544 20.5102 80.7595 20.5758 81.6635 20.6433C83.1395 20.7549 84.6164 20.841 86.0934 20.9349Z" fill="#FFF0A5"/>
<path d="M117.883 19.4925C117.906 19.4094 117.95 19.3379 118.002 19.2714C116.52 19.287 115.037 19.3017 113.555 19.3144C113.324 19.3526 113.092 19.3917 112.86 19.4289C110.318 19.8419 107.776 20.2558 105.234 20.6698C105.373 20.6561 105.512 20.6424 105.651 20.6277C106.188 20.5699 106.728 20.5014 107.27 20.4691C107.539 20.4515 107.81 20.4319 108.081 20.4437C108.353 20.4554 108.624 20.4721 108.896 20.4858C109.073 20.4946 109.24 20.5494 109.378 20.6394C110.396 20.5582 111.416 20.4907 112.435 20.4231C113.588 20.3449 114.739 20.2676 115.891 20.1893C116.427 20.1531 116.965 20.1061 117.503 20.0816C117.599 20.0767 117.695 20.0718 117.791 20.0679C117.795 19.8712 117.803 19.6775 117.883 19.4925Z" fill="#FFF0A5"/>
<path d="M136.409 11.2895C136.406 11.2806 136.402 11.2727 136.398 11.2647C136.402 11.2727 136.405 11.2806 136.409 11.2895Z" fill="#FFF0A5"/>
<path d="M67.4895 23.9392C69.4095 23.7748 71.3285 23.6084 73.2485 23.4421C70.9725 23.4597 68.6965 23.4753 66.4205 23.4949C64.7805 23.6515 63.1405 23.8081 61.4995 23.9636C60.4245 24.0664 59.3525 24.1819 58.2805 24.3013C58.3265 24.3179 58.3715 24.3355 58.4165 24.3619C58.4375 24.3736 58.4525 24.3932 58.4725 24.4069C59.0985 24.4138 59.7245 24.4216 60.3505 24.4285C60.3715 24.4285 60.3925 24.4284 60.4125 24.4294C62.7725 24.2866 65.1325 24.1427 67.4895 23.9392Z" fill="#FFF0A5"/>
<path d="M122.555 15.4951C122.146 15.5421 121.729 15.5665 121.318 15.6017C120.344 15.6839 119.37 15.7661 118.396 15.8483C117.347 15.9354 116.297 16.0499 115.247 16.0988C113.519 16.1791 111.791 16.2603 110.063 16.3406C109.167 16.3826 108.272 16.4237 107.377 16.4658C106.991 16.4844 106.602 16.5157 106.216 16.5196C103.474 16.5529 100.732 16.5793 97.9905 16.5989C96.3025 16.8778 94.6145 17.1508 92.9255 17.4248C92.3795 17.5119 91.8345 17.6009 91.2875 17.69C90.7625 17.7742 90.2295 17.8221 89.7005 17.8867C89.2625 17.9396 88.8235 17.9924 88.3855 18.0452C88.4205 18.2586 88.4405 18.468 88.4205 18.6735C89.4295 18.6216 90.4385 18.5697 91.4475 18.5169C93.9485 18.3877 96.4575 18.3652 98.9605 18.3026C100.437 18.2654 101.912 18.2282 103.388 18.191C104.397 18.1646 105.408 18.1695 106.417 18.1597C107.499 18.149 108.58 18.1392 109.661 18.1294C110.317 18.0237 110.974 17.92 111.63 17.8133C110.957 17.8074 110.284 17.8025 109.612 17.7957C112.458 17.4023 115.296 16.9453 118.136 16.5108C118.162 16.5872 118.193 16.6625 118.222 16.7388C118.763 16.6498 119.305 16.5617 119.846 16.4727C120.972 16.2887 122.101 16.1106 123.224 15.9159C124.369 15.7162 125.514 15.5166 126.659 15.317C126.771 15.2084 126.883 15.0978 127.013 15.0097C127.026 14.999 127.041 14.9921 127.054 14.9823C127.04 14.9843 127.027 14.9862 127.013 14.9872C125.531 15.1858 124.041 15.3297 122.555 15.4951Z" fill="#FFF0A5"/>
<path d="M121.979 19.2401C122.03 19.2333 122.081 19.2264 122.132 19.2205C121.901 19.2234 121.67 19.2283 121.439 19.2313C121.331 19.2608 121.223 19.2913 121.114 19.3178C121.002 19.3453 120.889 19.3719 120.777 19.3994C120.795 19.3975 120.814 19.3945 120.832 19.3926C121.215 19.3414 121.597 19.2903 121.979 19.2401Z" fill="#FFF0A5"/>
<path d="M133.912 19.3526C133.438 19.3027 132.966 19.2782 132.492 19.2812C132.236 19.4025 131.98 19.5229 131.722 19.6413C131.889 19.6286 132.056 19.6119 132.224 19.5924C132.787 19.518 133.35 19.4358 133.912 19.3526Z" fill="#FFF0A5"/>
<path d="M101.2 45.408C100.993 45.4354 100.786 45.4638 100.579 45.4922C99.9915 45.6223 99.4034 45.7525 98.8154 45.8836C97.1854 46.2437 95.5555 46.6058 93.9265 46.9659C93.6595 47.0236 93.3974 47.0961 93.1334 47.1636C92.3704 47.3573 91.6075 47.5501 90.8455 47.7429C88.9355 48.2273 87.0244 48.7097 85.1124 49.1941C82.5894 49.8321 80.0774 50.521 77.5654 51.2021C78.0864 51.1023 78.6074 51.0035 79.1284 50.9037C79.7624 50.7823 80.3974 50.6483 81.0334 50.5406C84.2444 49.9956 87.4565 49.4701 90.6685 48.9338C91.1295 48.8555 91.5934 48.7929 92.0554 48.7234C93.1614 48.5551 94.2684 48.3887 95.3734 48.2214C96.0974 48.1128 96.8234 48.0052 97.5464 47.8936C98.4524 47.7566 99.3464 47.5423 100.255 47.4229C100.775 47.3524 101.312 47.2585 101.838 47.279C102.365 47.2996 102.881 47.3975 103.403 47.4757C103.341 47.0726 103.273 46.6694 103.215 46.2662C103.167 45.8934 103.128 45.5186 103.086 45.1448C103.031 45.1536 102.977 45.1663 102.922 45.1741C102.348 45.2593 101.774 45.3337 101.2 45.408Z" fill="#FFF0A5"/>
<path d="M86.3044 33.3452C87.6684 33.1661 89.0335 32.9939 90.3975 32.8236C89.8745 32.8334 89.3514 32.8442 88.8284 32.8539C88.4304 32.9322 88.0314 33.0105 87.6334 33.0878C87.1914 33.173 86.7474 33.2591 86.3044 33.3452Z" fill="#FFF0A5"/>
<path d="M136.471 15.7329C136.491 15.7632 136.513 15.7916 136.534 15.8209C136.738 15.7319 136.942 15.6409 137.146 15.5508C136.904 15.587 136.663 15.6223 136.421 15.6585C136.438 15.683 136.454 15.7084 136.471 15.7329Z" fill="#FFF0A5"/>
<path d="M30.2395 45.8298C30.2325 45.8454 30.2255 45.8601 30.2185 45.8758C30.1085 46.1302 29.9995 46.3856 29.8895 46.639C30.0055 46.3699 30.1225 46.0989 30.2395 45.8298Z" fill="#FFF0A5"/>
<path d="M66.6295 31.6033C66.4285 31.5886 66.2544 31.5348 66.1074 31.3919C66.1014 31.3861 66.0965 31.3782 66.0905 31.3714C65.2675 31.5133 64.4444 31.6532 63.6224 31.7961C64.4054 31.7452 65.1874 31.708 65.9714 31.6659C66.2604 31.6513 66.5485 31.6356 66.8375 31.62C66.7675 31.616 66.6985 31.6092 66.6295 31.6033Z" fill="#FFF0A5"/>
<path d="M133.028 16.1449C132.989 16.1507 132.95 16.1556 132.911 16.1615C132.003 16.3817 131.097 16.6058 130.192 16.8347C129.145 17.0999 128.092 17.3495 127.049 17.6294C126.503 17.7761 125.957 17.92 125.411 18.0668C127.49 18.058 129.569 18.0462 131.648 18.0247C132.791 17.5031 133.934 16.9805 135.081 16.4629C135.183 16.4169 135.286 16.3729 135.388 16.3278C135.329 16.1625 135.269 15.9981 135.211 15.8327C134.482 15.9374 133.756 16.0421 133.028 16.1449Z" fill="#FFF0A5"/>
<path d="M94.5365 30.5542C96.3985 30.1873 98.2605 29.8242 100.122 29.4582C100.995 29.287 101.869 29.1197 102.742 28.9533C100.935 29.0747 99.1265 29.197 97.3195 29.3183C95.8475 29.4181 94.3755 29.5522 92.9045 29.6706C91.2095 29.8066 89.5155 29.9397 87.8195 30.0767C86.3795 30.1941 84.9405 30.336 83.4995 30.4672C81.4875 30.6472 79.4765 30.8292 77.4645 31.0103C76.8885 31.0621 76.3135 31.1189 75.7385 31.1766C78.7955 31.0533 81.8505 30.9134 84.9075 30.8253C88.1165 30.7323 91.3255 30.6384 94.5365 30.5542Z" fill="#FFF0A5"/>
<path d="M90.9235 38.1343C89.0445 38.2664 87.1675 38.3975 85.2885 38.5296C84.1295 38.6099 82.9694 38.6705 81.8124 38.784C79.8464 38.9749 77.8804 39.1657 75.9144 39.3575C75.5344 39.3947 75.1544 39.4319 74.7744 39.4691C74.2584 39.6139 73.7414 39.7577 73.2234 39.9035C72.9964 39.9671 72.7695 40.0327 72.5435 40.1012C72.9305 40.0875 73.3154 40.0425 73.7014 40.0004C74.1594 39.9505 74.6125 39.929 75.0745 39.9133C76.2565 39.8713 77.4375 39.7832 78.6165 39.6755C79.7165 39.5747 80.8124 39.4642 81.9094 39.3311C83.7074 39.1109 85.5034 38.8849 87.3024 38.6725C87.2574 38.6794 87.2114 38.6842 87.1664 38.6911C87.6964 38.6187 88.2274 38.5463 88.7584 38.4748C89.6664 38.3515 90.5744 38.2292 91.4824 38.1049C91.2954 38.1118 91.1095 38.1206 90.9235 38.1343Z" fill="#FFF0A5"/>
<path d="M91.8154 44.2513C92.4274 43.9792 93.0385 43.7043 93.6505 43.4312C93.8185 43.3559 93.9864 43.2806 94.1544 43.2052C93.8464 43.2727 93.5385 43.3403 93.2285 43.4009C92.9725 43.4518 92.7174 43.5027 92.4614 43.5526C91.5624 43.7297 90.6624 43.9078 89.7634 44.085C88.1604 44.401 86.5624 44.7308 84.9614 45.0537C83.7964 45.2886 82.6304 45.5244 81.4634 45.7553C80.3244 45.9814 79.1794 46.1957 78.0244 46.3327C76.8794 46.4697 75.7254 46.4883 74.5764 46.5627C74.4004 46.5734 74.2214 46.459 74.1354 46.3151C74.0864 46.2329 74.0635 46.1233 74.0695 46.0186C72.4735 46.4658 70.8785 46.913 69.2825 47.3602C68.5975 47.553 67.9165 47.7506 67.2335 47.9454C67.1075 47.9816 66.9815 48.0178 66.8555 48.053C67.3115 48.0266 67.7655 47.9885 68.2155 47.9483C68.9555 47.8828 69.6915 47.8055 70.4315 47.7409C70.5605 47.7291 70.6834 47.7193 70.8094 47.7047C71.7284 47.5921 72.6514 47.4806 73.5724 47.367C75.6084 47.1204 77.6445 46.8719 79.6815 46.6234C80.5875 46.5001 81.4924 46.3758 82.3984 46.2525C84.7674 45.9286 87.1354 45.6008 89.5034 45.2739C90.2744 44.9363 91.0454 44.5938 91.8154 44.2513Z" fill="#FFF0A5"/>
<path d="M165.909 37.5941C165.754 37.0705 165.586 36.549 165.323 36.0636C165.1 35.6526 164.831 35.2759 164.567 34.8893C164.384 34.6232 164.19 34.3638 164.003 34.0996C163.626 33.5741 163.249 33.0496 162.867 32.529C161.99 31.3371 161.109 30.1501 160.221 28.966C159.345 27.7986 158.468 26.6292 157.609 25.4491C157.552 24.8962 157.492 24.3452 157.388 23.7953C157.317 23.4146 157.149 23.0457 156.998 22.6895C156.785 22.1865 156.566 21.6953 156.313 21.2119C155.869 20.3566 155.354 19.5336 154.885 18.6901C154.18 17.4209 153.476 16.1507 152.771 14.8825C152.357 14.1378 152 13.3872 151.641 12.6132C151.148 11.5485 150.653 10.4858 150.161 9.4201C149.78 8.46013 149.398 7.50014 149.016 6.54114C148.844 6.10763 148.668 5.67903 148.528 5.2328C148.45 4.98033 148.383 4.72297 148.308 4.46855C148.168 3.99394 147.953 3.54281 147.75 3.09267C147.61 2.78344 147.258 2.31666 147.047 2.11997C146.727 1.82151 146.368 1.57785 145.997 1.34886C145.58 1.0915 145.088 0.969177 144.594 0.969177C144.083 0.969177 143.571 1.10031 143.138 1.34886C142.712 1.59546 142.374 1.92621 142.122 2.34308C142.027 2.56326 141.931 2.78443 141.836 3.0046C141.782 3.2013 141.756 3.39799 141.745 3.59468C141.626 3.54771 141.504 3.50464 141.38 3.47137C140.771 3.30697 140.188 3.17096 139.549 3.12692C139.388 3.11616 139.228 3.11126 139.068 3.11126C138.848 3.11126 138.629 3.11909 138.408 3.13084C138.069 3.14845 137.728 3.15627 137.388 3.16802C136.783 3.19052 136.179 3.21205 135.576 3.2463C135.197 3.26783 134.82 3.29622 134.442 3.31872C134.461 3.32851 134.48 3.33438 134.5 3.34612C134.757 3.49291 134.923 3.69155 135.078 3.93521C135.242 4.19258 135.301 4.48909 135.274 4.77972C135.812 4.62217 136.352 4.46072 136.898 4.34622C137.279 4.265 137.647 4.28946 137.989 4.48615C138.307 4.66621 138.543 4.96761 138.64 5.315C138.655 5.36686 138.659 5.42069 138.667 5.47451C139.41 5.27097 140.152 5.06449 140.896 4.86584C141.065 4.82082 141.235 4.7993 141.404 4.7993C142.269 4.7993 143.081 5.36393 143.32 6.21332C143.604 7.22321 142.978 8.30747 141.943 8.5844C140.721 8.91027 139.508 9.2645 138.283 9.57471C138.011 9.64321 137.737 9.70681 137.464 9.77238C137.562 9.95145 137.664 10.1286 137.765 10.3067C137.885 10.519 138.018 10.749 138.094 10.9829C138.143 11.1336 138.216 11.3606 138.198 11.5191C138.187 11.6454 138.171 11.7706 138.151 11.8959C138.112 11.9977 138.062 12.0935 138.01 12.1894C138.146 12.1591 138.284 12.1298 138.421 12.0994C140.165 11.7119 141.909 11.3313 143.656 10.9565C143.7 10.9477 143.743 10.9428 143.786 10.9428C144.023 10.9428 144.243 11.0798 144.31 11.3195C144.383 11.5818 144.221 11.8988 143.938 11.9595C142.238 12.3235 140.54 12.6954 138.843 13.0731C138.485 13.1533 138.126 13.2306 137.768 13.308C137.812 13.4166 137.852 13.5262 137.898 13.6348C137.82 13.533 137.739 13.4332 137.661 13.3315C137.219 13.4274 136.778 13.5242 136.338 13.627C136.492 13.6221 136.645 13.625 136.805 13.6309C137.155 13.6456 137.459 13.853 137.573 14.1603C138.746 13.9607 139.918 13.7552 141.089 13.5507C141.283 13.5174 141.457 13.5193 141.633 13.6191C141.783 13.7062 141.917 13.8608 141.956 14.0321C141.989 14.1759 142.011 14.3129 142.01 14.4597C142.007 14.6506 141.934 14.7876 141.823 14.9383C141.659 15.1604 141.431 15.361 141.182 15.4882C140.568 15.8043 139.896 15.9648 139.25 16.2036C138.626 16.4727 138.006 16.7496 137.386 17.0295C137.52 17.2144 137.654 17.3994 137.789 17.5833C137.313 17.6293 136.838 17.6812 136.37 17.7692C136.319 17.7007 136.268 17.6313 136.218 17.5628C135.94 17.69 135.661 17.8172 135.383 17.9444C135.155 18.0491 134.928 18.1529 134.7 18.2566C134.918 18.2957 135.136 18.3427 135.343 18.419C135.66 18.5335 135.991 18.6529 136.261 18.8565C136.333 18.9103 136.408 18.9641 136.481 19.0189C136.603 19.0052 136.724 18.9925 136.846 18.9797C137.106 18.9533 137.383 19.1422 137.508 19.3506C137.641 19.5738 137.655 19.8859 137.508 20.108C137.464 20.1746 137.421 20.2431 137.378 20.3116C137.407 20.4956 137.414 20.6707 137.396 20.8664C137.353 21.344 137.164 21.8225 136.839 22.1846C136.799 22.2296 136.758 22.2736 136.716 22.3167C137.027 22.2325 137.337 22.1474 137.648 22.0632C138.499 21.8303 139.351 21.5965 140.201 21.3626C140.469 21.2892 140.737 21.2158 141.005 21.1424C141.664 20.9506 142.322 20.7598 142.982 20.5719C143.327 20.474 143.699 20.6873 143.794 21.022C143.893 21.3743 143.673 21.7041 143.333 21.8156C142.288 22.1572 141.227 22.4439 140.169 22.7423C139.699 22.8744 139.23 23.0065 138.76 23.1387C138.056 23.3481 137.352 23.5585 136.649 23.7718C135.929 23.99 135.209 24.2053 134.49 24.4274C134.456 24.4548 134.422 24.4813 134.388 24.5077C135.068 24.3609 135.745 24.2024 136.422 24.0438C136.944 23.9215 137.468 23.7992 137.99 23.6769C138.932 23.4557 139.874 23.2307 140.815 23.0027C141.299 22.8539 141.768 22.6553 142.26 22.5329C142.553 22.4605 142.862 22.3862 143.166 22.3744C143.339 22.3666 143.476 22.3627 143.643 22.3999C143.948 22.4684 144.161 22.7697 144.161 23.0672C144.161 23.3696 143.947 23.6563 143.643 23.7327C143.256 23.8305 142.87 23.9274 142.484 24.0252C142.665 24.356 142.849 24.6848 143.033 25.0146C142.837 24.905 142.642 24.7934 142.443 24.6887C142.162 24.541 141.882 24.3922 141.602 24.2435C141.209 24.3404 140.816 24.4382 140.422 24.5302L140.417 24.5312C139.962 24.6505 139.508 24.769 139.052 24.8884C138.251 25.0978 137.45 25.3081 136.649 25.5136C134.469 26.0734 132.292 26.6478 130.094 27.14C129.782 27.2105 129.499 27.0931 129.325 26.8318C129.229 26.6879 129.207 26.549 129.19 26.3826C129.189 26.3699 129.188 26.3582 129.188 26.3454C129.139 26.3004 129.098 26.2505 129.062 26.1987C128.979 26.0744 128.918 25.9432 128.885 25.8062C128.532 25.8806 128.17 25.9188 127.815 25.8542C127.59 25.8121 127.348 25.7534 127.179 25.5919C127.096 25.5205 127.024 25.4403 126.963 25.3512C126.911 25.2465 126.857 25.1428 126.805 25.0381C126.635 24.7044 126.704 24.2797 127.058 24.0859C127.582 23.8012 128.097 23.4929 128.635 23.2395C128.977 23.078 129.318 22.9165 129.659 22.757C130.107 22.5457 130.556 22.3362 131.003 22.1249C131.742 21.7765 132.482 21.4281 133.221 21.0798C133.32 21.0328 133.419 20.9858 133.518 20.9379C133.018 21.0142 132.516 21.0905 132.013 21.1414C131.588 21.1835 131.163 21.2158 130.735 21.1845C130.386 21.159 130.037 21.1267 129.688 21.1013C129.476 21.0846 129.292 21.0289 129.138 20.8782C128.999 20.7441 128.899 20.5347 128.911 20.34C128.926 20.0914 128.931 19.8556 129.016 19.6188C129.021 19.6051 129.026 19.5923 129.031 19.5796C128.696 19.6227 128.362 19.6657 128.026 19.7078C126.831 19.8595 125.634 20.0112 124.44 20.1638C124.205 20.1961 123.97 20.2274 123.735 20.2597C123.757 20.3214 123.773 20.3869 123.773 20.4545C123.773 20.613 123.706 20.7695 123.591 20.8821C123.466 21.0063 123.324 21.0406 123.154 21.0592C122.479 21.1336 121.803 21.2217 121.125 21.2774C117.89 21.5407 114.654 21.7951 111.417 22.0417C110.956 22.0769 110.496 22.1121 110.034 22.1474C110.225 22.1386 110.414 22.1288 110.604 22.12C111.42 22.0808 112.238 22.0759 113.055 22.0554C113.473 22.0446 113.856 22.3451 113.966 22.7336C114.032 22.9713 113.998 23.2316 113.87 23.445C113.786 23.5839 113.672 23.6935 113.531 23.7757C113.264 23.8902 113.003 24.0204 112.731 24.1212C112.484 24.2112 112.227 24.2748 111.971 24.3325C111.442 24.4509 110.91 24.5439 110.372 24.6173C109.343 24.7562 108.309 24.8551 107.279 24.9862C105.879 25.1751 104.483 25.3864 103.086 25.588C101.416 25.8278 99.7455 26.0685 98.0775 26.3073C96.8875 26.4795 95.6995 26.6733 94.5105 26.8572C92.3745 27.187 90.2375 27.5168 88.1015 27.8475C84.9705 28.3319 81.8465 28.8564 78.7185 29.3643C78.3385 29.426 77.9585 29.4886 77.5795 29.5512C78.4435 29.47 79.3085 29.3898 80.1715 29.3105C83.3425 29.0159 86.5115 28.7097 89.6855 28.4425C91.8735 28.2595 94.0605 28.0765 96.2485 27.8935C97.4515 27.7927 98.6535 27.7105 99.8565 27.6274C101.429 27.5168 103.001 27.3945 104.573 27.3005C105.631 27.2359 106.691 27.1743 107.75 27.1107C109.008 27.0353 110.264 26.9884 111.523 26.9492C111.788 26.9414 112.045 27.096 112.177 27.3162C112.323 27.5608 112.295 27.8192 112.177 28.0648C112.119 28.1842 112.075 28.2723 111.982 28.377C111.927 28.4474 111.86 28.5032 111.781 28.5492C111.653 28.6421 111.521 28.7145 111.375 28.7781C111.064 28.9122 110.75 28.9944 110.414 29.0443C109.777 29.1392 109.131 29.1441 108.492 29.2146C108.192 29.2596 107.895 29.3183 107.596 29.3712C105.783 29.698 103.969 30.0249 102.156 30.3546C102.332 30.3498 102.508 30.3458 102.683 30.3409C103.172 30.3292 103.663 30.3116 104.153 30.291C104.671 30.2695 105.191 30.2441 105.709 30.2539C106.18 30.2617 106.645 30.3077 107.115 30.3478C107.449 30.3771 107.734 30.4593 107.979 30.6971C108.207 30.9202 108.336 31.2275 108.336 31.5436C108.336 32.0711 107.964 32.5594 107.44 32.6954C106.85 32.849 106.265 33.0164 105.674 33.1631C105.403 33.2307 105.133 33.306 104.859 33.354C104.577 33.4039 104.295 33.4538 104.013 33.5027C102.861 33.7082 101.709 33.9127 100.558 34.1172C99.3385 34.3335 98.1185 34.5546 96.8945 34.7464C94.8505 35.0655 92.8075 35.3845 90.7635 35.7045C92.1315 35.6027 93.5035 35.542 94.8735 35.4637C98.2615 35.267 101.655 35.0841 105.049 35.0479C105.618 35.043 106.134 35.4354 106.284 35.9687C106.344 36.1908 106.344 36.413 106.284 36.6341C106.224 36.8465 106.115 37.0304 105.955 37.188C105.765 37.4082 105.577 37.6274 105.318 37.7771C105.123 37.8906 104.926 37.9914 104.722 38.0834C104.205 38.3202 103.658 38.5012 103.104 38.6304C102.253 38.8291 101.39 38.9788 100.544 39.1911C100.368 39.2352 100.192 39.2782 100.016 39.3232C99.0925 39.5561 98.1675 39.789 97.2445 40.0209C95.6405 40.4241 94.0335 40.8214 92.4325 41.2305C89.2685 42.0397 86.0995 42.8373 82.9325 43.6368C81.5925 43.9754 80.2595 44.3482 78.9265 44.7083C78.6745 44.7817 78.4225 44.8561 78.1705 44.9304C77.6805 45.0743 77.1755 45.176 76.6805 45.3052C76.6415 45.315 76.6025 45.3258 76.5635 45.3365C76.4015 45.3806 76.2405 45.4275 76.0825 45.4814C76.8215 45.4422 77.5595 45.3953 78.2935 45.2984C79.8185 45.0831 81.3245 44.7631 82.8325 44.4617C83.3605 44.355 83.8875 44.2513 84.4155 44.1456C86.0355 43.8178 87.6545 43.4851 89.2765 43.1641C90.3015 42.9625 91.3255 42.759 92.3515 42.5574C92.7335 42.4821 93.1175 42.4077 93.4975 42.3245C94.0705 42.1992 94.6425 42.0613 95.2225 41.9752C95.4935 41.936 95.7685 41.892 96.0425 41.8822C96.3295 41.8724 96.6155 41.8753 96.9015 41.8685C97.1285 41.8636 97.3345 42.0241 97.3935 42.2354C97.4525 42.4449 97.3595 42.6924 97.1595 42.7991C96.5065 43.1445 95.8665 43.5281 95.1915 43.8305C94.8255 43.993 94.4615 44.1574 94.0965 44.3198C93.7535 44.4734 93.4105 44.6261 93.0685 44.7797C94.2345 44.6163 95.3995 44.4539 96.5635 44.2816C97.5305 44.1388 98.4975 43.9969 99.4655 43.853C99.7995 43.7786 100.134 43.7053 100.468 43.6309C101.266 43.4538 102.075 43.3373 102.886 43.2267C102.856 42.8882 102.822 42.5496 102.796 42.21C102.844 42.3676 102.892 42.5261 102.94 42.6846C102.992 42.8568 103.054 43.0261 103.114 43.1954C103.481 43.1465 103.847 43.0966 104.214 43.0437C104.475 43.0066 104.699 43.0007 104.937 43.1367C105.146 43.2561 105.303 43.4538 105.367 43.6828C105.499 44.1525 105.209 44.6926 104.713 44.8101C104.403 44.8825 104.094 44.952 103.784 45.0156C104.18 46.0851 104.575 47.1547 104.972 48.2243C105.306 49.1265 105.66 50.018 106.023 50.9065C106.308 51.7931 106.692 52.6562 107.109 53.489C107.488 54.1163 107.999 54.6143 108.638 54.9842C109.623 55.5479 110.822 55.7016 111.922 55.405C112.987 55.1183 113.911 54.4206 114.469 53.488C114.612 53.1563 114.755 52.8245 114.898 52.4928C115.101 51.753 115.101 51.0152 114.898 50.2764C114.365 48.9856 113.828 47.6968 113.336 46.3905C113.05 45.633 112.765 44.8756 112.479 44.1182C112.297 43.5644 112.124 43.0066 111.966 42.4458C111.815 41.9076 111.669 41.3694 111.531 40.8292C112.592 43.3089 113.741 45.7485 115.073 48.1079C115.998 49.747 117.056 51.3117 117.958 52.9635C118.462 53.8902 119.042 54.7308 119.744 55.5323C120.137 55.9824 120.685 56.3454 121.179 56.6674C122.141 57.2966 123.287 57.1958 124.351 57.006C125.233 56.8484 126.073 56.1145 126.51 55.3815C127.175 54.2689 127.138 52.9283 126.51 51.8117C125.603 50.2 124.748 48.5639 123.89 46.9267C122.903 45.0439 121.955 43.1416 121.096 41.1992C120.454 39.6696 119.873 38.1117 119.344 36.5392C121.822 39.9172 124.526 43.1602 127.643 45.9785C128.571 46.8181 129.526 47.6244 130.524 48.3809C131.152 48.8564 131.783 49.3242 132.44 49.7607C132.984 50.1227 133.552 50.4476 134.102 50.8009C134.56 51.0925 135.02 51.3753 135.503 51.6248C136.09 51.9292 136.727 52.1992 137.38 52.3284C137.773 52.4047 138.217 52.4644 138.63 52.4537C139.353 52.4351 139.786 52.2893 140.429 51.9967C141.221 51.6366 141.901 50.8469 142.279 50.0953C142.639 49.38 142.689 49.1099 142.783 48.3173C142.838 47.8544 142.772 47.4189 142.68 46.9531C142.566 46.367 142.352 45.8062 142.18 45.2338C141.851 44.1368 141.413 43.0457 140.94 41.9937C140.963 41.8391 140.977 41.6826 140.977 41.5221C141.086 40.7294 140.852 39.9309 140.477 39.2302C140.287 38.876 140.045 38.5619 139.839 38.2184C139.587 37.7976 139.33 37.3808 139.076 36.9609C138.658 36.272 138.235 35.5861 137.813 34.8991C137.544 34.4607 137.276 34.0233 137.007 33.5859C136.315 32.1533 135.616 30.7236 134.917 29.2939C134.506 28.4542 134.094 27.6137 133.683 26.7741L133.687 26.776C134.137 27.6049 134.587 28.4327 135.036 29.2626C135.975 30.9917 136.858 32.7502 137.802 34.4773C138.405 35.5802 139.055 36.6566 139.685 37.7448C140.382 38.9514 141.149 40.0934 142.063 41.1561C142.794 42.0084 143.642 42.8979 144.667 43.4039C145.415 43.7728 146.234 43.9254 147.06 43.7415C147.765 43.5859 148.516 43.2238 148.976 42.667C149.098 42.5124 149.218 42.3587 149.341 42.2041C149.466 41.9702 149.565 41.7256 149.635 41.4692C149.781 40.9888 149.714 40.5171 149.635 40.0356C149.547 39.4994 149.368 38.9788 149.164 38.4738C148.884 37.7839 148.542 37.1215 148.185 36.4668C148.209 36.4805 148.234 36.4952 148.258 36.5089C148.878 36.867 149.531 37.1459 150.203 37.3984C150.768 37.6107 151.382 37.6792 151.984 37.6371C152.923 38.1666 153.87 38.6803 154.823 39.1833C155.425 39.5004 156.033 39.8057 156.643 40.1061C157.267 40.4114 157.863 40.7549 158.469 41.0896C159.133 41.4565 159.859 41.7638 160.591 41.9634C161.057 42.0906 161.556 42.117 162.039 42.1503C162.828 42.2051 163.59 41.8264 164.276 41.5191C164.809 41.2099 165.235 40.794 165.552 40.2705C166.027 39.4798 166.175 38.4816 165.909 37.5941ZM125.805 34.994C124.288 33.0398 122.855 31.025 121.425 29.0091C120.972 28.3672 120.516 27.7262 120.063 27.0862C119.647 26.4991 119.248 25.9031 118.833 25.317C120.07 25.224 121.307 25.1281 122.542 25.0224C123.6 26.7878 124.714 28.5218 125.883 30.2157C126.709 31.4125 127.533 32.6093 128.359 33.807C128.77 34.403 129.183 34.997 129.583 35.5968C129.846 36.0323 130.109 36.4687 130.372 36.9042C130.612 37.3005 130.857 37.6949 131.106 38.0873C131.283 38.4151 131.451 38.7469 131.61 39.0854C131.939 39.9427 132.182 40.8253 132.425 41.7109C132.454 41.8166 132.48 41.9233 132.507 42.03C130.054 39.9006 127.829 37.5168 125.805 34.994ZM136.362 48.3202C136.367 48.284 136.372 48.2468 136.377 48.2106C136.377 48.2125 136.378 48.2135 136.378 48.2155C136.374 48.2507 136.369 48.285 136.362 48.3202Z" fill="#FFF0A5"/>
<path d="M64.4105 46.7193C65.9385 46.2564 67.4485 45.7417 68.9765 45.2798C70.6715 44.767 72.3655 44.2591 74.0595 43.7444C74.5375 43.5996 75.0225 43.4743 75.5045 43.3383C76.5735 43.0379 77.6445 42.7384 78.7135 42.437C79.9665 42.0857 81.2145 41.7158 82.4735 41.3851C85.2595 40.6541 88.0445 39.9172 90.8315 39.1911C89.4885 39.3761 88.1455 39.5659 86.8005 39.7313C84.8685 39.9681 82.9345 40.2049 81.0015 40.4417C80.3035 40.5269 79.5995 40.5885 78.9005 40.656C77.7215 40.7686 76.5425 40.8713 75.3585 40.9212C74.8405 40.9428 74.3265 40.9545 73.8105 41.0142C73.3765 41.0641 72.9395 41.1267 72.5005 41.1365C72.0645 41.1463 71.6235 41.115 71.2195 40.9398C71.0385 40.8606 70.8755 40.7568 70.7565 40.5983C70.6565 40.4652 70.6325 40.3086 70.6145 40.1511C70.6125 40.1393 70.6105 40.1286 70.6075 40.1168C70.5935 40.0415 70.5925 39.9681 70.6025 39.8996C67.8105 40.2255 65.0195 40.5484 62.2295 40.886C61.0455 41.0641 59.8865 41.3724 58.6975 41.524C58.0885 41.6004 57.4925 41.6307 56.8815 41.5563C56.5505 41.5142 56.1615 41.4859 55.8685 41.3127C55.6745 41.1982 55.5015 41.0641 55.3315 40.9203C55.0235 40.6609 54.9285 40.1834 55.0315 39.8145C55.1315 39.4592 55.4545 39.0893 55.8425 39.0208C59.5685 38.3642 63.3025 37.7497 67.0355 37.1322C70.0645 36.6302 73.0925 36.1165 76.1255 35.635C76.2805 35.6105 76.4365 35.5861 76.5925 35.5606C76.3125 35.5763 76.0335 35.5919 75.7545 35.6115C75.4765 35.6321 75.2445 35.3698 75.2445 35.1125C75.2445 34.8747 75.4035 34.7103 75.6185 34.631C76.1035 34.4509 76.5765 34.2611 77.0805 34.1388C77.6095 34.0106 78.1445 33.9098 78.6805 33.8109C79.1105 33.7317 79.5405 33.6466 79.9695 33.5565C80.8765 33.3657 81.7835 33.1798 82.6905 32.9899C82.1585 33.0046 81.6255 33.0134 81.0935 33.03C79.0225 33.0946 76.9495 33.1592 74.8765 33.2228C73.7785 33.2581 72.6805 33.3129 71.5805 33.3618C69.5615 33.4518 67.5425 33.5409 65.5235 33.6309C64.1865 33.6916 62.8505 33.7845 61.5125 33.8608C60.3115 33.9303 59.1015 33.9871 57.8995 33.9176C57.3775 33.8863 56.8425 33.8609 56.3315 33.7493C55.8465 33.6446 55.3695 33.5086 54.8865 33.3941C54.4725 33.2972 54.1815 32.895 54.1815 32.4879C54.1815 32.0799 54.4725 31.6767 54.8865 31.5798C55.9255 31.3391 56.9595 31.0778 58.0075 30.8791C58.7975 30.7294 59.5885 30.5807 60.3795 30.431C61.2785 30.2597 62.1785 30.0885 63.0805 29.9251C64.8515 29.6051 66.6235 29.2792 68.3955 28.9631C68.3905 28.9367 68.3855 28.9112 68.3795 28.8858C68.6035 28.8721 68.8275 28.8604 69.0515 28.8467C69.4335 28.7791 69.8155 28.7087 70.1975 28.6422C73.3255 28.1059 76.4525 27.5647 79.5805 27.0295C80.9175 26.8005 82.2545 26.5725 83.5915 26.3435C83.0645 26.3503 82.5385 26.3582 82.0115 26.365C79.0645 26.4042 76.1185 26.4678 73.1715 26.4766C71.0835 26.4844 68.9965 26.4913 66.9065 26.4991C65.8425 26.503 64.7805 26.5108 63.7155 26.4913C61.7335 26.4541 59.7515 26.4159 57.7695 26.3797C57.5975 26.3905 57.4265 26.4012 57.2545 26.413C57.1445 26.4208 57.0375 26.4002 56.9365 26.3621C56.4315 26.3513 55.9265 26.3396 55.4215 26.3249C54.2765 26.2897 53.1205 26.2985 51.9815 26.1664C51.7215 26.1351 51.4625 26.1076 51.2035 26.0665C50.9505 26.0264 50.6785 26.001 50.4325 25.9276C49.9925 25.7974 49.5845 25.5968 49.1635 25.4178C48.9545 25.3287 48.7935 25.0792 48.7365 24.8747C48.6925 24.7132 48.6925 24.5517 48.7365 24.3922C48.8175 24.1025 49.0745 23.8168 49.3855 23.7561C49.5865 23.718 49.7865 23.6798 49.9865 23.6436C46.6995 23.671 43.4125 23.6964 40.1275 23.7209C34.4095 23.763 28.6935 23.7914 22.9775 23.806C20.2295 23.8139 17.4825 23.8139 14.7345 23.8227C14.5495 24.0879 14.3685 24.354 14.1915 24.6202C13.6805 25.3952 13.2185 26.2006 12.7515 27.0021C12.2125 27.9249 11.6795 28.8476 11.1765 29.789C10.1005 31.8019 9.13449 33.8628 8.23349 35.956C7.85849 36.8279 7.52849 37.7154 7.26349 38.6235C7.03649 39.3995 6.9325 40.2225 6.8385 41.0191C6.7905 41.435 6.78249 41.8303 6.82449 42.2462C6.87649 42.6239 6.92849 43.0036 6.97949 43.3813C7.18749 44.1045 7.56051 44.7327 8.10251 45.2661C8.91651 46.0636 10.0345 46.5167 11.1885 46.5167C12.3405 46.5167 13.4595 46.0636 14.2725 45.2661C14.5005 44.9784 14.7275 44.6887 14.9555 44.401C15.3505 43.7356 15.5475 43.0173 15.5505 42.2462C15.5305 42.0524 15.5215 41.8626 15.5215 41.6737C15.8055 41.8235 16.1065 41.9428 16.4195 42.027C17.4565 42.3069 18.5805 42.1914 19.5345 41.7158C19.5285 41.7745 19.5225 41.8342 19.5175 41.8929C19.4225 42.8598 19.3825 43.8295 19.4005 44.8003C19.4225 46.0029 19.7245 47.2007 19.9115 48.3877C20.1245 49.1324 20.5105 49.7792 21.0675 50.3282C21.8565 51.1003 23.1025 51.6992 24.2465 51.617C24.7985 51.5779 25.3555 51.5367 25.8885 51.3831C26.7285 51.1424 27.4095 50.7245 28.0105 50.1051C28.7255 49.3712 28.8905 48.9024 29.2735 47.9787C29.2955 47.9248 29.3175 47.872 29.3385 47.8182C29.6345 47.1733 29.9285 46.5284 30.2125 45.8787C30.6175 44.9422 31.0225 44.0057 31.4245 43.0672C31.4655 43.5673 31.5655 44.0713 31.6905 44.5527C31.9095 45.3923 32.4895 46.1771 33.1075 46.7731C34.2115 47.8358 35.8215 48.2674 37.3215 47.8622C38.7815 47.4698 39.9415 46.3278 40.3465 44.9021C40.8625 43.0946 41.3275 41.2755 41.8025 39.4583C41.7765 40.4681 41.7495 41.478 41.7225 42.4879C41.6855 43.8393 41.5965 45.1995 41.6355 46.5529C41.6645 47.5089 41.8075 48.4777 42.0255 49.4093C42.1455 49.9153 42.3975 50.3762 42.6095 50.8498C42.6875 50.9829 42.7775 51.1111 42.8765 51.2304C42.9285 51.297 42.9805 51.3626 43.0325 51.4291C43.0745 51.4878 43.1175 51.5456 43.1605 51.6043C43.3705 51.8704 43.5815 52.1366 43.7915 52.4047C44.2955 52.894 44.8895 53.2336 45.5745 53.4205C46.2895 53.6084 47.0055 53.6084 47.7215 53.4205C48.4045 53.2336 48.9995 52.895 49.5025 52.4047C50.0435 51.7217 50.6635 51.0856 51.0475 50.3008C51.4485 49.4808 51.7265 48.6441 51.9695 47.7712C52.0315 47.5511 52.0975 47.3318 52.1665 47.1126C52.1735 49.2772 52.1845 51.4408 52.1985 53.6054C52.2105 55.4412 52.2935 57.2721 52.3625 59.106C52.3655 59.7704 52.5355 60.3889 52.8765 60.9633C53.3685 61.7863 54.1835 62.4028 55.1235 62.6553C55.7905 62.8304 56.4565 62.8304 57.1245 62.6553C58.0125 62.4155 58.9495 61.7902 59.3715 60.9633C59.6315 60.4574 59.8785 59.9368 60.0095 59.3839C60.1715 58.693 60.2155 57.962 60.2555 57.2535C60.2785 56.8465 60.3245 56.4443 60.3685 56.0382C60.4555 55.2514 60.5405 54.4646 60.6265 53.6759C60.7945 52.1445 60.9535 50.613 61.1175 49.0815C61.3485 46.9199 61.5945 44.7592 61.8605 42.6014C62.0185 44.267 62.1745 45.9325 62.3355 47.597C62.6205 47.4307 62.9055 47.2702 63.2155 47.142C63.6105 46.9786 64.0085 46.8416 64.4105 46.7193ZM20.7725 45.4324C20.8835 45.1741 20.9955 44.9158 21.1065 44.6574C21.1105 44.6515 21.1155 44.6467 21.1195 44.6408C21.0025 44.9021 20.8875 45.1663 20.7725 45.4324Z" fill="#FFF0A5"/>
<path d="M99.4075 50.933C98.6255 51.1992 97.8444 51.4644 97.0624 51.7296C95.5384 52.2472 94.0194 52.7845 92.4894 53.2816C90.7394 53.8501 88.9914 54.4196 87.2424 54.9892C86.0264 55.3845 84.8094 55.7818 83.5934 56.1791C82.5834 56.5099 81.5734 56.8406 80.5624 57.1714C80.3194 57.2507 80.0754 57.3407 79.8284 57.4082C79.5434 57.4865 79.2534 57.5471 78.9634 57.6078C79.0364 57.6049 79.1094 57.601 79.1824 57.5971C79.8414 57.5628 80.4944 57.5041 81.1484 57.4239C83.3884 57.1215 85.6174 56.7203 87.8474 56.3484C88.4284 56.2515 89.0114 56.1537 89.5934 56.0549C90.7064 55.8689 91.8214 55.6986 92.9374 55.5333C93.0664 55.5 93.1954 55.5 93.3254 55.5333C93.4494 55.5665 93.5565 55.6272 93.6475 55.7163C93.7795 55.8454 93.8684 56.0362 93.8604 56.2202C93.8494 56.4981 93.8495 56.778 93.6995 57.0275C93.5555 57.2692 93.2944 57.4816 93.0604 57.6372C92.5764 57.9543 92.0225 58.1607 91.4675 58.3212C90.8725 58.4934 90.2744 58.6471 89.6934 58.8604C89.5434 58.9152 89.3934 58.971 89.2444 59.0258C87.9124 59.5151 86.5805 60.0053 85.2495 60.4946C84.1625 60.8939 83.0764 61.2922 81.9894 61.6904C81.1254 62.0075 80.2584 62.3245 79.3984 62.6553C79.4284 62.6768 79.4554 62.7003 79.4794 62.7238C79.6224 62.8628 79.7034 63.0545 79.7034 63.2522C79.7034 63.4499 79.6224 63.6407 79.4794 63.7806C79.3274 63.9313 79.1485 63.9822 78.9395 63.9998C78.4625 64.04 77.9854 64.0713 77.5084 64.0928C77.2264 64.1046 76.9295 64.1584 76.6525 64.1036C76.4565 64.0634 76.3025 64.0214 76.1505 63.8844C76.0585 63.7992 75.9864 63.7014 75.9114 63.6035C75.7354 63.3706 75.7964 62.9293 76.0244 62.7483C76.3284 62.5075 76.6274 62.2805 76.9814 62.1132C77.2944 61.9654 77.6105 61.8255 77.9315 61.6924C78.3755 61.5064 78.8245 61.3332 79.2755 61.161C79.9265 60.9105 80.5794 60.662 81.2324 60.4114C82.3094 59.9985 83.3984 59.61 84.4814 59.2107C85.4864 58.8408 86.4924 58.4719 87.4984 58.104C88.0054 57.918 88.5115 57.7311 89.0175 57.5462C88.2975 57.6675 87.5784 57.7918 86.8594 57.9131C85.7734 58.0961 84.6874 58.2762 83.6024 58.4562C82.4854 58.6402 81.3644 58.8291 80.2354 58.9367C79.0984 59.0453 77.9584 59.0669 76.8184 59.1275C76.5214 59.1422 76.1505 58.8976 76.1055 58.5952C76.0675 58.3427 76.0165 58.0952 75.9915 57.8407C75.9775 57.7086 76.0504 57.4229 76.1324 57.3162C76.2324 57.1871 76.3274 57.0638 76.4454 56.9493C76.5554 56.8446 76.7234 56.7261 76.8604 56.6576C77.1874 56.4932 77.5324 56.3621 77.8884 56.2701C78.2704 56.1723 78.6595 56.095 79.0405 55.9932C79.7745 55.7945 80.4905 55.5156 81.2075 55.2681C84.5105 54.13 87.8194 53.0125 91.1304 51.8959C92.2864 51.5055 93.4384 51.1023 94.5894 50.7021C95.5864 50.3557 96.5844 50.0093 97.5814 49.6609C97.2924 49.703 97.0025 49.745 96.7125 49.7861C95.3945 49.977 94.0775 50.1668 92.7595 50.3576C91.2505 50.5758 89.7484 50.8185 88.2444 51.0641C86.1994 51.3978 84.1544 51.7315 82.1104 52.0662C81.0634 52.2365 80.0244 52.4439 78.9824 52.6416C76.9414 53.0291 74.9004 53.4166 72.8594 53.8022C72.6744 53.8374 72.4875 53.8736 72.3015 53.9088C71.5235 54.0556 70.7715 54.2905 70.0145 54.5126C69.4895 54.6672 68.9604 54.8277 68.4214 54.9265C67.9884 55.0058 67.5405 55.0871 67.1005 55.0851C66.6755 55.0851 66.2604 55.0391 65.8484 54.9422C65.4864 54.8571 65.2345 54.5674 64.9785 54.3286C64.7545 54.1192 64.6735 53.7836 64.7545 53.4959C64.8385 53.1945 65.0704 52.9939 65.3644 52.897C66.5454 52.5056 67.7174 52.0926 68.9144 51.7521C69.7704 51.5084 70.6285 51.2648 71.4865 51.0221C72.5695 50.7158 73.6525 50.4016 74.7385 50.1051C76.5185 49.6198 78.2994 49.1344 80.0804 48.6471C80.8884 48.4269 81.6965 48.1969 82.5065 47.9787C81.0105 48.1793 79.5134 48.376 78.0154 48.559C75.8874 48.8203 73.7604 49.0806 71.6324 49.3419C70.7724 49.4466 69.9114 49.5317 69.0494 49.6178C67.8534 49.7362 66.6514 49.8585 65.4484 49.8439C64.9134 49.837 64.3755 49.8282 63.8455 49.746C63.4015 49.6785 62.9664 49.5728 62.5294 49.4759C62.6534 50.7109 62.7805 51.9449 62.9185 53.1788C63.2275 55.9492 63.5384 58.7215 63.8474 61.4918C63.9624 62.533 64.0964 63.5712 64.2134 64.6105C64.4104 66.3455 64.6035 68.0864 64.9395 69.8018C65.0765 70.5093 65.2584 71.2129 65.5024 71.893C65.8334 72.8089 66.3134 73.6417 66.7534 74.5048C67.1414 75.1448 67.6624 75.6566 68.3174 76.0343C68.9964 76.4208 69.7294 76.6136 70.5164 76.6165C71.3024 76.6136 72.0354 76.4199 72.7144 76.0343C73.0084 75.8122 73.3024 75.591 73.5964 75.3689C74.1364 74.8365 74.5104 74.2093 74.7164 73.4871C74.8104 72.988 74.8984 72.4889 74.9824 71.9889C75.1664 73.2219 75.3674 74.452 75.5934 75.6771C76.0784 78.3183 76.6764 80.9428 77.4774 83.5106C77.7974 84.538 78.0204 85.59 78.4254 86.5921C78.7364 87.3573 79.0394 88.1294 79.5344 88.8007C79.8254 89.196 80.1864 89.7372 80.6124 90.065C80.9504 90.4252 81.3424 90.7011 81.7874 90.8939C81.9604 90.9702 82.1344 91.0446 82.3094 91.118C83.0294 91.5104 83.8034 91.7071 84.6324 91.709C85.4914 91.7061 86.2914 91.4957 87.0334 91.0739C88.4294 90.2734 89.4645 88.6715 89.3895 87.054C89.1985 82.9371 88.8054 78.8271 88.3754 74.7259C88.3214 74.2083 88.2675 73.6916 88.2125 73.1739C88.6835 73.5145 89.2184 73.7718 89.7784 73.9235C90.6164 74.1437 91.4565 74.1437 92.2955 73.9235C93.0965 73.7033 93.7934 73.306 94.3834 72.7316C94.7074 72.3236 95.2614 71.7609 95.4554 71.3773C95.7124 70.8645 95.9814 70.3566 96.0934 69.7939C96.2174 69.1618 96.2925 68.6373 96.2515 68.0266C96.2335 67.7468 96.1855 67.4689 96.1635 67.187C96.1235 66.6762 96.1095 66.1605 96.0825 65.6487C96.0355 64.7553 95.9795 63.8629 95.9235 62.9684C95.8015 61.0416 95.6824 59.1168 95.5624 57.189C95.6114 57.3779 95.6614 57.5658 95.7184 57.7536C95.9434 58.5032 96.2654 59.2538 96.6874 59.9173C97.1364 60.6257 97.6794 61.2256 98.4174 61.6591C98.8354 61.9038 99.2995 62.0584 99.7545 62.2277C100.532 62.4322 101.31 62.4322 102.088 62.2277C102.832 62.0231 103.478 61.6552 104.025 61.1219C104.569 60.5866 104.946 59.9544 105.155 59.2264C105.364 58.4651 105.364 57.7037 105.155 56.9424C104.609 54.3551 104.104 51.755 103.668 49.1462C102.636 49.5855 101.615 50.0484 100.579 50.476C100.189 50.6365 99.8045 50.798 99.4075 50.933Z" fill="#FFF0A5"/>
<path d="M36.4335 22.0661C40.1705 22.0632 43.9076 22.0622 47.6446 22.0593C53.9836 22.0554 60.3225 22.0123 66.6625 21.98C66.6665 21.98 66.6715 21.98 66.6755 21.98C66.7825 21.9712 66.8905 21.9624 66.9975 21.9546C67.8145 21.8929 68.6315 21.8313 69.4475 21.7686C67.9525 21.661 66.4576 21.5494 64.9626 21.4438C64.0876 21.5034 63.2115 21.5592 62.3355 21.6003C61.3565 21.6444 60.3795 21.662 59.4015 21.6894C58.3965 21.7158 57.3865 21.7726 56.3835 21.7099C55.9405 21.6816 55.4986 21.6424 55.0616 21.569C54.8526 21.5328 54.6445 21.4996 54.4455 21.4252C54.2525 21.3537 54.0626 21.2804 53.8686 21.2109C53.6346 21.1267 53.4495 20.9643 53.3795 20.7412C52.3165 20.6795 51.2546 20.6179 50.1916 20.5562C49.8496 20.5357 49.5045 20.4994 49.1625 20.4955C48.7875 20.4926 48.4135 20.4887 48.0395 20.4857C43.9985 20.4485 39.9605 20.4114 35.9195 20.3752C35.5745 20.3713 35.2195 20.3468 34.8745 20.3644C34.5085 20.3849 34.1436 20.3996 33.7776 20.4173C31.7206 20.5141 29.6625 20.612 27.6065 20.7089C25.7115 20.7979 23.8155 20.8879 21.9205 20.976C21.1025 21.0151 20.2915 21.1081 19.4785 21.1903C18.5385 21.2852 17.5975 21.3792 16.6575 21.4731C16.5445 21.5866 16.4295 21.6992 16.3215 21.8166C16.2825 21.8587 16.2465 21.9047 16.2075 21.9477C19.6555 21.979 23.1035 22.0074 26.5505 22.0231C29.8445 22.0378 33.1405 22.0681 36.4335 22.0661Z" fill="#FFF0A5"/>
<path d="M134.724 10.4065C132.501 10.9075 130.274 11.386 128.037 11.8225C128.484 11.7941 128.933 11.7696 129.38 11.751C130.36 11.7089 131.332 11.7256 132.312 11.75C132.531 11.7549 132.738 11.8185 132.917 11.9242C133.068 11.9007 133.22 11.8782 133.372 11.8528C133.83 11.7774 134.286 11.7021 134.742 11.6268C135.294 11.5348 135.855 11.4614 136.39 11.295C136.313 11.1678 136.231 11.0484 136.143 10.9271C136.002 10.7607 135.853 10.5934 135.737 10.4114C135.695 10.3438 135.662 10.2724 135.628 10.202C135.326 10.2695 135.025 10.3389 134.724 10.4065Z" fill="#FFF0A5"/>
<path d="M20.4984 18.8653C19.9484 18.5492 19.5714 17.9484 19.5714 17.3074C19.5714 16.8357 19.7655 16.3768 20.1075 16.0421C20.3355 15.8219 20.6034 15.6673 20.9144 15.5822C21.0764 15.5607 21.2384 15.5401 21.3994 15.5186C23.2674 15.3307 25.1385 15.1693 27.0085 15.0058C27.3015 14.7592 27.6775 14.6095 28.0815 14.6271C28.9505 14.6643 29.8184 14.7015 30.6874 14.7377C30.8224 14.7299 30.9564 14.7211 31.0914 14.7132C31.1704 14.7083 31.2505 14.7025 31.3295 14.6976C31.2155 14.6565 31.1014 14.6144 30.9874 14.5723C30.9594 14.5703 30.9315 14.5674 30.9025 14.5655C30.9245 14.5655 30.9455 14.5655 30.9675 14.5655C30.9465 14.5576 30.9244 14.5498 30.9034 14.542C30.6534 14.449 30.4505 14.3277 30.3115 14.0957C30.1765 13.8716 30.1414 13.5986 30.2114 13.3462C30.3314 12.9224 30.7255 12.6455 31.1685 12.6338C34.6635 12.5467 38.1584 12.4635 41.6544 12.3921C44.1834 12.3412 46.7135 12.3069 49.2415 12.2267C49.8895 11.8313 50.5354 11.4311 51.1824 11.0348C51.8924 10.5993 52.6044 10.1639 53.3134 9.72449C52.9884 9.74993 52.6625 9.77535 52.3375 9.80177C51.5525 9.86342 50.7704 9.92117 49.9904 10.0141C48.4424 10.1981 46.8954 10.3821 45.3474 10.567C44.6784 10.6463 44.0105 10.7295 43.3425 10.8146C42.3595 10.9379 41.3774 11.0671 40.3994 11.2324C39.5564 11.3734 38.7294 11.5857 37.8964 11.7755C37.7984 11.7981 37.7035 11.8264 37.6115 11.8617C36.2125 11.9008 34.8134 11.939 33.4144 11.9772C31.7224 12.0231 30.0334 12.0818 28.3414 12.122C25.4044 12.1924 22.4454 12.3324 19.5714 12.9704C18.6654 13.171 17.5954 13.3765 16.9844 14.13C16.6714 14.5165 16.5844 14.9775 16.6494 15.4618C16.7074 15.8895 16.8994 16.3983 17.3324 16.6038C17.5304 16.6978 17.7175 16.7751 17.9305 16.8348C18.2385 16.9219 18.5684 16.9414 18.8804 17.0178C18.9524 17.0354 19.0244 17.0569 19.0964 17.0794C18.9854 17.7311 19.0644 18.3868 19.2914 18.9866C19.6934 18.9465 20.0964 18.9064 20.4984 18.8653ZM18.3804 15.5059C18.3824 15.4853 18.3854 15.4657 18.3884 15.4462V15.4472C18.3854 15.4657 18.3824 15.4853 18.3804 15.5059ZM18.5054 15.2935C18.7834 15.2015 19.0644 15.1438 19.3554 15.0988C19.6524 15.0616 19.9495 15.0244 20.2455 14.9862C20.0365 15.179 19.8495 15.3953 19.6895 15.6282C19.5845 15.593 19.4795 15.5567 19.3745 15.5215C19.0895 15.4256 18.7944 15.3689 18.5054 15.2935Z" fill="#FFF0A5"/>
<path d="M96.0435 24.861C96.5435 24.7798 97.0435 24.6995 97.5435 24.6252C98.1965 24.5273 98.8485 24.4295 99.5005 24.3316C98.2935 24.3893 97.0865 24.4461 95.8805 24.5038C95.9565 24.6095 96.0105 24.7318 96.0435 24.861Z" fill="#FFF0A5"/>
<path d="M130.517 23.9254C130.939 23.8266 131.364 23.7395 131.785 23.6338C132.611 23.4273 133.434 23.2111 134.255 22.9889C134.458 22.8147 134.656 22.6356 134.847 22.4478C135.072 22.2276 135.288 21.9947 135.518 21.7784C135.597 21.7041 135.674 21.6297 135.75 21.5533C135.725 21.5651 135.7 21.5758 135.674 21.5866C135.204 21.7882 134.73 21.982 134.267 22.1973C133.513 22.5447 132.759 22.893 132.006 23.2394C131.513 23.4684 131.018 23.6954 130.524 23.9215C130.521 23.9225 130.519 23.9244 130.517 23.9254Z" fill="#FFF0A5"/>
<path d="M105.369 43.6847C105.304 43.4557 105.148 43.2581 104.939 43.1387C104.701 43.0027 104.479 43.0085 104.217 43.0457C103.85 43.0986 103.483 43.1475 103.116 43.1974C103.04 43.2072 102.965 43.218 102.889 43.2287C102.078 43.3393 101.269 43.4557 100.47 43.6329C100.136 43.7072 99.8025 43.7806 99.4685 43.855C98.5005 43.9988 97.5335 44.1407 96.5665 44.2836C95.4015 44.4558 94.2364 44.6183 93.0714 44.7817C93.4144 44.629 93.7565 44.4754 94.0995 44.3218C94.4655 44.1593 94.8295 43.9949 95.1945 43.8325C95.8695 43.5301 96.5094 43.1465 97.1624 42.8011C97.3614 42.6944 97.4555 42.4468 97.3965 42.2374C97.3375 42.0261 97.1314 41.8646 96.9044 41.8705C96.6184 41.8773 96.3325 41.8744 96.0455 41.8841C95.7705 41.8939 95.4955 41.938 95.2255 41.9771C94.6455 42.0632 94.0735 42.2022 93.5005 42.3265C93.1195 42.4096 92.7365 42.484 92.3545 42.5594C91.3295 42.7609 90.3054 42.9645 89.2794 43.1661C87.6574 43.488 86.0385 43.8198 84.4185 44.1476C83.8905 44.2533 83.3625 44.357 82.8355 44.4637C81.3275 44.766 79.8215 45.085 78.2965 45.3003C77.5625 45.3972 76.8245 45.4442 76.0855 45.4833C76.2445 45.4295 76.4055 45.3825 76.5665 45.3385C76.6055 45.3277 76.6444 45.318 76.6834 45.3072C77.1784 45.178 77.6825 45.0763 78.1735 44.9324C78.4255 44.858 78.6775 44.7836 78.9295 44.7103C80.2635 44.3511 81.5955 43.9773 82.9355 43.6387C86.1025 42.8402 89.2715 42.0427 92.4355 41.2324C94.0365 40.8234 95.6435 40.4271 97.2475 40.0229C98.1715 39.79 99.0965 39.5581 100.02 39.3252C100.196 39.2812 100.371 39.2381 100.547 39.1931C101.394 38.9807 102.255 38.831 103.106 38.6324C103.66 38.5032 104.208 38.3212 104.725 38.0853C104.93 37.9924 105.126 37.8916 105.321 37.7791C105.581 37.6293 105.768 37.4101 105.957 37.19C106.116 37.0324 106.226 36.8484 106.287 36.6361C106.347 36.4139 106.347 36.1918 106.287 35.9707C106.137 35.4364 105.62 35.044 105.051 35.0498C101.658 35.086 98.2645 35.269 94.8765 35.4657C93.5065 35.544 92.1344 35.6047 90.7664 35.7064C92.8104 35.3874 94.8535 35.0684 96.8975 34.7484C98.1225 34.5556 99.3415 34.3355 100.561 34.1192C101.713 33.9147 102.865 33.7102 104.016 33.5047C104.298 33.4548 104.579 33.4048 104.861 33.3559C105.136 33.308 105.407 33.2326 105.677 33.1651C106.268 33.0183 106.852 32.85 107.442 32.6973C107.966 32.5613 108.338 32.073 108.338 31.5456C108.338 31.2295 108.209 30.9232 107.981 30.6991C107.736 30.4613 107.452 30.3791 107.118 30.3498C106.648 30.3096 106.183 30.2636 105.712 30.2558C105.194 30.246 104.673 30.2715 104.155 30.293C103.664 30.3135 103.175 30.3311 102.686 30.3429C102.51 30.3478 102.334 30.3517 102.159 30.3566C103.972 30.0268 105.785 29.7 107.599 29.3731C107.898 29.3203 108.195 29.2616 108.495 29.2166C109.134 29.1461 109.779 29.1412 110.416 29.0463C110.751 28.9964 111.066 28.9142 111.377 28.7801C111.523 28.7165 111.656 28.6441 111.784 28.5511C111.862 28.5051 111.93 28.4494 111.985 28.3789C112.079 28.2742 112.123 28.1861 112.18 28.0667C112.298 27.8211 112.326 27.5628 112.18 27.3182C112.048 27.098 111.791 26.9424 111.526 26.9512C110.267 26.9903 109.009 27.0373 107.752 27.1126C106.692 27.1762 105.634 27.2379 104.576 27.3025C103.004 27.3964 101.431 27.5188 99.8595 27.6293C98.6565 27.7125 97.4545 27.7947 96.2515 27.8955C94.0635 28.0785 91.8764 28.2615 89.6884 28.4445C86.5144 28.7107 83.3455 29.017 80.1745 29.3125C79.3115 29.3927 78.4465 29.473 77.5825 29.5532C77.9625 29.4906 78.3415 29.4279 78.7215 29.3663C81.8495 28.8574 84.9735 28.3329 88.1045 27.8495C90.2405 27.5188 92.3775 27.189 94.5135 26.8592C95.7025 26.6752 96.8895 26.4815 98.0805 26.3092C99.7495 26.0695 101.419 25.8288 103.088 25.59C104.485 25.3884 105.881 25.1761 107.281 24.9882C108.31 24.857 109.345 24.7582 110.374 24.6192C110.911 24.5449 111.445 24.4519 111.974 24.3345C112.23 24.2768 112.485 24.2131 112.733 24.1231C113.005 24.0223 113.268 23.8922 113.534 23.7777C113.676 23.6955 113.788 23.5849 113.872 23.4469C114 23.2326 114.034 22.9733 113.968 22.7355C113.858 22.347 113.476 22.0466 113.058 22.0574C112.242 22.0779 111.424 22.0828 110.607 22.122C110.417 22.1308 110.226 22.1405 110.036 22.1493C110.497 22.1141 110.959 22.0789 111.421 22.0437C114.658 21.7971 117.892 21.5436 121.128 21.2794C121.806 21.2246 122.483 21.1355 123.158 21.0612C123.328 21.0426 123.469 21.0074 123.594 20.8841C123.709 20.7715 123.775 20.6149 123.775 20.4564C123.775 20.3889 123.761 20.3243 123.738 20.2617C123.973 20.2294 124.208 20.1981 124.443 20.1658C125.637 20.0131 126.833 19.8614 128.028 19.7098C128.363 19.6677 128.699 19.6246 129.034 19.5816C129.029 19.5943 129.025 19.607 129.02 19.6207C128.935 19.8575 128.928 20.0934 128.913 20.3419C128.901 20.5367 129.002 20.7451 129.141 20.8801C129.295 21.0308 129.479 21.0876 129.691 21.1033C130.04 21.1287 130.389 21.161 130.738 21.1864C131.165 21.2177 131.59 21.1855 132.015 21.1434C132.518 21.0925 133.021 21.0162 133.52 20.9398C133.421 20.9868 133.322 21.0347 133.223 21.0817C132.484 21.4301 131.744 21.7785 131.005 22.1268C130.558 22.3382 130.11 22.5476 129.662 22.759C129.321 22.9195 128.979 23.08 128.637 23.2414C128.098 23.4939 127.584 23.8021 127.061 24.0879C126.706 24.2816 126.636 24.7064 126.807 25.04C126.859 25.1448 126.913 25.2485 126.965 25.3532C127.026 25.4422 127.098 25.5225 127.181 25.5939C127.35 25.7554 127.592 25.8141 127.817 25.8562C128.172 25.9207 128.535 25.8826 128.888 25.8082C128.92 25.9452 128.981 26.0764 129.065 26.2006C129.1 26.2525 129.142 26.3024 129.19 26.3474C129.19 26.3601 129.191 26.3729 129.192 26.3846C129.208 26.551 129.23 26.6899 129.327 26.8337C129.5 27.095 129.785 27.2115 130.097 27.142C132.295 26.6498 134.472 26.0754 136.652 25.5156C137.453 25.3101 138.253 25.0997 139.054 24.8903C139.51 24.7719 139.966 24.6525 140.421 24.5331L140.424 24.5322C140.818 24.4402 141.211 24.3423 141.604 24.2454C141.898 24.173 142.192 24.1016 142.486 24.0272C142.873 23.9294 143.26 23.8325 143.646 23.7346C143.95 23.6583 144.164 23.3716 144.164 23.0692C144.164 22.7717 143.951 22.4703 143.646 22.4018C143.478 22.3646 143.341 22.3685 143.168 22.3764C142.864 22.3881 142.555 22.4625 142.262 22.5349C141.769 22.6572 141.301 22.8559 140.817 23.0046C139.876 23.2326 138.934 23.4577 137.992 23.6788C137.47 23.8012 136.947 23.9235 136.425 24.0458C135.749 24.2043 135.071 24.3629 134.391 24.5096C134.425 24.4832 134.459 24.4558 134.493 24.4294C135.212 24.2082 135.931 23.992 136.652 23.7738C137.355 23.5614 138.058 23.35 138.762 23.1406C139.232 23.0085 139.702 22.8764 140.172 22.7443C141.23 22.4459 142.291 22.1591 143.336 21.8176C143.677 21.7061 143.895 21.3763 143.796 21.024C143.701 20.6893 143.33 20.475 142.985 20.5739C142.325 20.7627 141.666 20.9525 141.007 21.1443C140.739 21.2177 140.471 21.2911 140.203 21.3645C139.352 21.5984 138.501 21.8323 137.651 22.0652C137.34 22.1493 137.03 22.2345 136.719 22.3186C136.76 22.2746 136.801 22.2306 136.842 22.1865C137.166 21.8245 137.356 21.3459 137.399 20.8684C137.417 20.6727 137.409 20.4975 137.38 20.3135C137.424 20.245 137.466 20.1766 137.51 20.11C137.657 19.8879 137.643 19.5757 137.51 19.3526C137.385 19.1442 137.109 18.9543 136.849 18.9817C136.727 18.9944 136.605 19.0072 136.483 19.0209C136.41 18.9651 136.335 18.9122 136.264 18.8584C135.993 18.6558 135.662 18.5355 135.345 18.421C135.137 18.3456 134.92 18.2987 134.702 18.2585C134.93 18.1548 135.158 18.0511 135.386 17.9464C135.664 17.8192 135.942 17.692 136.22 17.5647C136.61 17.3866 136.999 17.2076 137.389 17.0305C138.008 16.7506 138.629 16.4726 139.253 16.2045C139.898 15.9648 140.569 15.8053 141.184 15.4892C141.433 15.361 141.661 15.1614 141.825 14.9392C141.936 14.7885 142.01 14.6515 142.013 14.4607C142.014 14.3139 141.992 14.1769 141.959 14.0331C141.92 13.8628 141.786 13.7072 141.636 13.6201C141.46 13.5203 141.285 13.5183 141.092 13.5516C139.92 13.7571 138.748 13.9617 137.576 14.1613C137.462 13.854 137.158 13.6465 136.808 13.6319C136.648 13.625 136.495 13.6221 136.34 13.628C136.78 13.5262 137.222 13.4293 137.664 13.3324C137.699 13.3246 137.735 13.3168 137.77 13.3089C138.129 13.2307 138.488 13.1534 138.845 13.0741C140.542 12.6964 142.241 12.3245 143.941 11.9605C144.224 11.8998 144.385 11.5827 144.312 11.3205C144.245 11.0807 144.026 10.9438 143.789 10.9438C143.746 10.9438 143.702 10.9486 143.658 10.9574C141.911 11.3332 140.167 11.7129 138.423 12.1004C138.287 12.1307 138.15 12.1601 138.013 12.1904C138.065 12.0955 138.116 11.9987 138.154 11.8969C138.173 11.7716 138.19 11.6464 138.201 11.5201C138.219 11.3616 138.146 11.1346 138.097 10.9839C138.021 10.75 137.887 10.52 137.767 10.3077C137.667 10.1296 137.564 9.95245 137.466 9.77337C137.739 9.70781 138.013 9.6442 138.285 9.5757C139.511 9.26648 140.725 8.91126 141.946 8.5854C142.981 8.30846 143.606 7.2242 143.322 6.21432C143.083 5.36492 142.273 4.80028 141.408 4.80028C141.239 4.80028 141.068 4.82182 140.899 4.86683C140.154 5.06548 139.413 5.27195 138.671 5.4755C138.663 5.42265 138.657 5.36884 138.642 5.31599C138.544 4.9686 138.308 4.66818 137.991 4.48715C137.649 4.29045 137.28 4.26696 136.9 4.34721C136.355 4.4617 135.815 4.62415 135.277 4.78072C135.304 4.49106 135.244 4.19357 135.08 3.93621C134.925 3.69254 134.76 3.49389 134.503 3.3471C134.484 3.33536 134.464 3.32949 134.444 3.3197C134.18 3.18466 133.912 3.15434 133.615 3.13966C133.594 3.13868 133.574 3.13867 133.553 3.13867C133.21 3.13867 132.892 3.28155 132.585 3.4391C132.454 3.50662 132.325 3.5761 132.198 3.63971C129.698 4.58403 127.199 5.52248 124.674 6.39732C122.174 7.26336 119.646 8.05989 117.096 8.76837C115.832 9.11968 114.573 9.4896 113.303 9.82133C113.296 9.8135 113.288 9.80567 113.28 9.79882C112.998 9.52286 112.545 9.3017 112.135 9.33497C111.606 9.37803 111.078 9.41523 110.552 9.49253C110.068 9.56397 109.589 9.65106 109.109 9.745C108.683 9.82818 108.255 9.91038 107.827 9.98964C106.916 10.158 106.003 10.3263 105.09 10.4926C105.059 10.4985 105.027 10.5034 104.996 10.5093C104.962 10.429 104.923 10.3498 104.878 10.2734C104.761 10.0748 104.61 9.89862 104.456 9.7264C104.174 9.40934 103.754 9.27333 103.358 9.15884C103.135 9.09523 102.87 9.07567 102.618 9.07567C102.528 9.07567 102.44 9.07859 102.356 9.08251C102.041 9.09816 101.725 9.15395 101.41 9.20581C99.8955 9.33694 98.3725 9.41913 96.8555 9.52873C95.3775 9.63637 93.9005 9.74499 92.4235 9.84872C89.1375 10.0816 85.8525 10.3165 82.5645 10.5308C79.3525 10.7392 76.1415 10.9643 72.9285 11.1404C70.6345 11.2657 68.3405 11.3919 66.0465 11.5172C64.9925 11.5749 63.9385 11.6434 62.8835 11.6865C60.2745 11.7932 57.6664 11.8978 55.0584 12.0035C55.4484 11.7882 55.8395 11.5749 56.2265 11.3518C57.3025 10.7304 58.3375 10.066 59.3235 9.31443C59.3395 9.30171 59.3555 9.28898 59.3725 9.27626C60.3105 8.55799 61.2335 7.82211 62.1715 7.10384C62.4765 6.87681 62.7865 6.65468 63.1095 6.45114C63.8465 5.99023 64.1435 5.06059 63.6865 4.2973C63.3965 3.81291 62.8295 3.51249 62.2655 3.51249C61.9945 3.51249 61.7244 3.58099 61.4854 3.73267C60.6074 4.28556 59.8005 4.95881 58.9935 5.60663C58.2415 6.20845 57.5205 6.84451 56.7605 7.43655C55.6495 8.2517 54.4864 8.99735 53.3134 9.72541C52.6044 10.1648 51.8925 10.6003 51.1825 11.0357C50.5355 11.433 49.8905 11.8323 49.2415 12.2276C46.7135 12.3079 44.1835 12.3421 41.6545 12.393C38.1595 12.4644 34.6645 12.5476 31.1685 12.6347C30.7255 12.6465 30.3315 12.9244 30.2115 13.3471C30.1415 13.5986 30.1775 13.8716 30.3115 14.0967C30.4505 14.3296 30.6535 14.4509 30.9035 14.5429C30.9245 14.5507 30.9465 14.5586 30.9675 14.5664C30.9745 14.5694 30.9805 14.5713 30.9865 14.5733C31.1005 14.6153 31.2145 14.6574 31.3285 14.6985C31.2495 14.7034 31.1695 14.7083 31.0905 14.7142C30.9555 14.722 30.8205 14.7308 30.6865 14.7386C29.8175 14.7024 28.9495 14.6652 28.0805 14.6281C27.6755 14.6104 27.3005 14.7592 27.0075 15.0068C25.1375 15.1712 23.2665 15.3326 21.3985 15.5195C21.2375 15.5411 21.0755 15.5616 20.9135 15.5831C20.6025 15.6683 20.3345 15.8229 20.1065 16.0431C19.7645 16.3777 19.5705 16.8367 19.5705 17.3084C19.5705 17.9493 19.9475 18.5502 20.4975 18.8662C20.0955 18.9073 19.6925 18.9475 19.2895 18.9876C17.8375 19.1344 16.3855 19.2811 14.9345 19.4269C13.1335 19.609 11.3325 19.79 9.53348 19.972C8.78748 20.0474 8.04748 20.1511 7.30548 20.2617C5.13548 20.5846 2.98046 20.9878 0.815463 21.3401C0.444463 21.4007 0.133486 21.7638 0.038486 22.1004C-0.059514 22.4488 0.0274662 22.9156 0.324466 23.1592C0.648466 23.4254 0.953463 23.7209 1.37146 23.8423C1.82946 23.9773 2.29647 24.0351 2.77347 24.0566C3.25547 24.0781 3.74348 24.0194 4.22348 23.9705C4.70848 23.9225 5.19346 23.8687 5.68146 23.8638C6.34446 23.8589 7.00548 23.857 7.66648 23.854C9.34448 23.8442 11.0225 23.8374 12.7015 23.8286C13.3805 23.8247 14.0595 23.8246 14.7385 23.8227C17.4865 23.8139 20.2335 23.8129 22.9815 23.8061C28.6975 23.7914 34.4135 23.763 40.1315 23.7209C43.4175 23.6964 46.7045 23.671 49.9905 23.6436C49.7895 23.6798 49.5895 23.718 49.3895 23.7562C49.0785 23.8168 48.8215 24.1035 48.7405 24.3922C48.6965 24.5517 48.6965 24.7132 48.7405 24.8747C48.7985 25.0792 48.9595 25.3297 49.1675 25.4178C49.5885 25.5968 49.9965 25.7974 50.4365 25.9276C50.6825 26 50.9545 26.0254 51.2075 26.0665C51.4655 26.1067 51.7254 26.1351 51.9854 26.1664C53.1244 26.2985 54.2804 26.2897 55.4254 26.3249C55.9304 26.3396 56.4355 26.3513 56.9405 26.3621C57.0415 26.4002 57.1495 26.4208 57.2585 26.413C57.4305 26.4012 57.6015 26.3914 57.7735 26.3797C59.7555 26.4159 61.7385 26.4541 63.7195 26.4913C64.7845 26.5118 65.8475 26.503 66.9105 26.4991C68.9995 26.4913 71.0874 26.4844 73.1754 26.4766C76.1224 26.4668 79.0685 26.4042 82.0155 26.365C82.5425 26.3582 83.0685 26.3504 83.5955 26.3435C82.2585 26.5725 80.9214 26.8005 79.5844 27.0295C76.4564 27.5647 73.3294 28.1049 70.2014 28.6422C69.8194 28.7077 69.4375 28.7791 69.0555 28.8467C68.8365 28.8858 68.6175 28.9249 68.3985 28.9641C66.6265 29.2802 64.8555 29.606 63.0835 29.926C62.1815 30.0885 61.2815 30.2607 60.3825 30.4319C59.5905 30.5817 58.8005 30.7304 58.0105 30.8801C56.9615 31.0788 55.9285 31.3401 54.8895 31.5808C54.4755 31.6777 54.1845 32.0809 54.1845 32.4889C54.1845 32.896 54.4755 33.2982 54.8895 33.3951C55.3715 33.5096 55.8484 33.6456 56.3344 33.7503C56.8454 33.8619 57.3805 33.8873 57.9025 33.9186C59.1055 33.9891 60.3145 33.9323 61.5155 33.8618C62.8525 33.7855 64.1885 33.6926 65.5265 33.6319C67.5455 33.5419 69.5645 33.4528 71.5835 33.3628C72.6835 33.3148 73.7815 33.259 74.8795 33.2238C76.9525 33.1602 79.0245 33.0956 81.0965 33.031C81.6285 33.0144 82.1615 33.0056 82.6935 32.9909C81.7865 33.1808 80.8784 33.3667 79.9724 33.5575C79.5434 33.6475 79.1134 33.7327 78.6834 33.8119C78.1474 33.9117 77.6125 34.0125 77.0835 34.1397C76.5795 34.2621 76.1065 34.4519 75.6215 34.632C75.4075 34.7113 75.2475 34.8756 75.2475 35.1134C75.2475 35.3698 75.4795 35.6321 75.7575 35.6125C76.0365 35.5929 76.3155 35.5773 76.5955 35.5616C76.4405 35.5861 76.2844 35.6106 76.1284 35.636C73.0954 36.1175 70.0675 36.6312 67.0385 37.1332C63.3055 37.7507 59.5715 38.3652 55.8455 39.0218C55.4575 39.0903 55.1345 39.4602 55.0345 39.8155C54.9315 40.1844 55.0264 40.6619 55.3344 40.9213C55.5044 41.0651 55.6785 41.1992 55.8715 41.3137C56.1645 41.4869 56.5535 41.5152 56.8845 41.5573C57.4945 41.6317 58.0915 41.6013 58.7005 41.525C59.8895 41.3733 61.0485 41.0651 62.2325 40.887C65.0225 40.5494 67.8135 40.2265 70.6055 39.9006C70.5955 39.9691 70.5954 40.0425 70.6104 40.1178C70.6124 40.1286 70.6155 40.1403 70.6175 40.1521C70.6355 40.3106 70.6585 40.4672 70.7595 40.5993C70.8795 40.7578 71.0414 40.8616 71.2224 40.9408C71.6264 41.116 72.0674 41.1463 72.5034 41.1375C72.9414 41.1277 73.3784 41.0651 73.8134 41.0152C74.3284 40.9565 74.8425 40.9437 75.3615 40.9222C76.5445 40.8723 77.7245 40.7705 78.9035 40.657C79.6035 40.5895 80.3065 40.5279 81.0045 40.4427C82.9365 40.2059 84.8705 39.9691 86.8035 39.7323C88.1485 39.5669 89.4914 39.3771 90.8344 39.1921C88.0474 39.9182 85.2635 40.6541 82.4765 41.3861C81.2175 41.7168 79.9695 42.0867 78.7165 42.438C77.6475 42.7394 76.5765 43.0389 75.5075 43.3393C75.0265 43.4753 74.5415 43.6006 74.0625 43.7454C72.3695 44.2601 70.6745 44.769 68.9795 45.2808C67.4515 45.7417 65.9425 46.2574 64.4135 46.7203C64.0105 46.8426 63.6135 46.9796 63.2245 47.141C62.9155 47.2692 62.6305 47.4297 62.3445 47.5961C62.2495 47.6509 62.1544 47.7076 62.0584 47.7624C61.7754 47.9249 61.5974 48.2263 61.5974 48.5482C61.5974 48.9347 61.8775 49.3418 62.2795 49.425C62.3635 49.4426 62.4475 49.4612 62.5305 49.4798C62.9675 49.5757 63.4025 49.6814 63.8465 49.7499C64.3755 49.8321 64.9145 49.8409 65.4495 49.8477C66.6525 49.8624 67.8544 49.7401 69.0504 49.6217C69.9124 49.5356 70.7725 49.4504 71.6335 49.3457C73.7615 49.0845 75.8884 48.8242 78.0164 48.5629C79.5144 48.3789 81.0115 48.1832 82.5075 47.9826C81.6975 48.1998 80.8905 48.4308 80.0815 48.651C78.3005 49.1383 76.5185 49.6236 74.7395 50.109C73.6535 50.4065 72.5705 50.7197 71.4875 51.026C70.6295 51.2696 69.7725 51.5123 68.9155 51.756C67.7185 52.0965 66.5454 52.5094 65.3654 52.9009C65.0714 52.9978 64.8395 53.1984 64.7555 53.4998C64.6745 53.7875 64.7555 54.1221 64.9795 54.3325C65.2355 54.5703 65.4875 54.861 65.8495 54.9461C66.2615 55.043 66.6765 55.089 67.1015 55.089C67.5415 55.09 67.9895 55.0097 68.4225 54.9304C68.9615 54.8306 69.4905 54.6711 70.0155 54.5165C70.7725 54.2944 71.5245 54.0595 72.3025 53.9127C72.4885 53.8775 72.6744 53.8413 72.8604 53.8061C74.9014 53.4205 76.9425 53.033 78.9835 52.6455C80.0255 52.4478 81.0645 52.2403 82.1115 52.0701C84.1555 51.7354 86.2005 51.4017 88.2455 51.068C89.7495 50.8234 91.2515 50.5797 92.7605 50.3615C94.0785 50.1707 95.3955 49.9808 96.7135 49.79C97.0035 49.7489 97.2935 49.7068 97.5825 49.6648C96.5855 50.0122 95.5875 50.3595 94.5905 50.706C93.4385 51.1072 92.2865 51.5103 91.1315 51.8998C87.8205 53.0164 84.5105 54.1339 81.2085 55.272C80.4905 55.5195 79.7745 55.7974 79.0415 55.9971C78.6605 56.0988 78.2715 56.1762 77.8895 56.274C77.5335 56.365 77.1885 56.4971 76.8615 56.6615C76.7235 56.73 76.5564 56.8484 76.4464 56.9532C76.3284 57.0676 76.2335 57.1909 76.1335 57.3201C76.0515 57.4268 75.9785 57.7125 75.9925 57.8446C76.0175 58.099 76.0685 58.3466 76.1065 58.5991C76.1515 58.9015 76.5235 59.1461 76.8195 59.1314C77.9585 59.0708 79.0995 59.0493 80.2365 58.9406C81.3665 58.833 82.4865 58.6451 83.6035 58.4601C84.6895 58.2801 85.7754 58.1 86.8604 57.917C87.5794 57.7957 88.2985 57.6714 89.0185 57.5501C88.5125 57.735 88.0065 57.9219 87.4995 58.1079C86.4935 58.4768 85.4875 58.8447 84.4825 59.2146C83.3995 59.6139 82.3105 60.0024 81.2335 60.4153C80.5805 60.6658 79.9275 60.9144 79.2765 61.1649C78.8255 61.3371 78.3765 61.5103 77.9325 61.6963C77.6125 61.8293 77.2965 61.9693 76.9825 62.117C76.6295 62.2844 76.3295 62.5114 76.0255 62.7522C75.7975 62.9332 75.7364 63.3745 75.9124 63.6074C75.9884 63.7053 76.0595 63.8041 76.1515 63.8883C76.3025 64.0253 76.4565 64.0674 76.6535 64.1075C76.9315 64.1623 77.2285 64.1084 77.5095 64.0967C77.9865 64.0752 78.4635 64.0439 78.9405 64.0037C79.1495 63.9861 79.3285 63.9352 79.4805 63.7845C79.6235 63.6446 79.7045 63.4538 79.7045 63.2561C79.7045 63.0584 79.6235 62.8657 79.4805 62.7277C79.4565 62.7042 79.4294 62.6807 79.3994 62.6592C80.2594 62.3294 81.1254 62.0124 81.9904 61.6943C83.0774 61.296 84.1635 60.8978 85.2505 60.4985C86.5825 60.0092 87.9145 59.5189 89.2455 59.0297C89.3955 58.9749 89.5455 58.9191 89.6945 58.8643C90.2755 58.65 90.8735 58.4973 91.4685 58.3251C92.0235 58.1636 92.5775 57.9581 93.0615 57.6411C93.2955 57.4865 93.5565 57.2741 93.7005 57.0314C93.8505 56.7829 93.8505 56.503 93.8615 56.2241C93.8695 56.0402 93.7805 55.8483 93.6485 55.7201C93.5575 55.6311 93.4504 55.5704 93.3264 55.5371C93.1974 55.5039 93.0684 55.5039 92.9384 55.5371C91.8224 55.7025 90.7075 55.8738 89.5945 56.0587C89.0135 56.1566 88.4305 56.2554 87.8485 56.3523C85.6195 56.7242 83.3904 57.1254 81.1494 57.4277C80.4954 57.507 79.8424 57.5667 79.1834 57.601C79.1104 57.6049 79.0374 57.6078 78.9644 57.6117C79.2544 57.5511 79.5445 57.4904 79.8295 57.4121C80.0765 57.3446 80.3204 57.2545 80.5634 57.1753C81.5734 56.8445 82.5835 56.5138 83.5945 56.183C84.8105 55.7847 86.0275 55.3884 87.2435 54.9931C88.9935 54.4226 90.7414 53.854 92.4904 53.2855C94.0204 52.7874 95.5394 52.2511 97.0634 51.7334C97.8454 51.4683 98.6265 51.204 99.4085 50.9369C99.8055 50.8028 100.19 50.6414 100.578 50.4819C101.614 50.0542 102.635 49.5914 103.667 49.152C103.958 49.0287 104.129 48.6559 104.129 48.3642C104.128 48.1998 104.086 48.0472 104.001 47.9043C103.891 47.7203 103.67 47.5178 103.444 47.4865C103.43 47.4845 103.416 47.4826 103.402 47.4796C102.88 47.4013 102.365 47.3044 101.837 47.2829C101.311 47.2624 100.773 47.3573 100.254 47.4268C99.3455 47.5461 98.4515 47.7605 97.5455 47.8975C96.8225 48.009 96.0965 48.1167 95.3725 48.2253C94.2675 48.3916 93.1615 48.559 92.0545 48.7273C91.5925 48.7958 91.1284 48.8594 90.6674 48.9377C87.4555 49.4739 84.2435 50.0004 81.0325 50.5445C80.3965 50.6521 79.7615 50.7862 79.1275 50.9075C78.6065 51.0074 78.0855 51.1072 77.5645 51.206C80.0765 50.5249 82.5885 49.836 85.1115 49.198C87.0235 48.7136 88.9335 48.2311 90.8445 47.7468C91.6075 47.553 92.3705 47.3602 93.1325 47.1675C93.3965 47.0999 93.6584 47.0275 93.9254 46.9698C95.5544 46.6097 97.1845 46.2476 98.8145 45.8875C99.4035 45.7573 99.9905 45.6262 100.578 45.4961C100.785 45.4677 100.992 45.4403 101.199 45.4119C101.773 45.3375 102.347 45.2631 102.919 45.178C102.974 45.1702 103.028 45.1575 103.083 45.1487C103.318 45.1105 103.553 45.0694 103.786 45.0224C104.096 44.9588 104.405 44.8893 104.714 44.8169C105.211 44.6946 105.501 44.1544 105.369 43.6847ZM60.3495 24.4275C59.7235 24.4206 59.0975 24.4138 58.4715 24.4059C58.4515 24.3922 58.4365 24.3727 58.4155 24.3609C58.3705 24.3355 58.3245 24.3179 58.2795 24.3002C59.3525 24.1818 60.4234 24.0654 61.4984 23.9626C63.1394 23.807 64.7805 23.6505 66.4195 23.4939C68.6955 23.4743 70.9715 23.4587 73.2475 23.4411C71.3285 23.6074 69.4085 23.7728 67.4885 23.9382C65.1315 24.1417 62.7715 24.2865 60.4105 24.4275C60.3905 24.4275 60.3705 24.4275 60.3495 24.4275ZM80.4225 20.339C81.4575 20.2636 82.4975 20.2304 83.5345 20.1746C83.9275 20.154 84.3214 20.1335 84.7144 20.1129C85.0204 20.1394 85.3275 20.1697 85.6355 20.1912C86.1855 20.2313 86.7634 20.1814 87.2794 19.9779C88.0264 19.9388 88.7735 19.8996 89.5205 19.8605C90.4905 19.8096 91.4625 19.7323 92.4345 19.7088C93.7475 19.6755 95.0585 19.6413 96.3705 19.607C97.9825 19.5649 99.5955 19.515 101.208 19.4749C99.4205 19.7558 97.6335 20.0366 95.8455 20.3165C94.1145 20.5876 92.3835 20.8586 90.6525 21.1287C90.3765 21.1013 90.1015 21.0749 89.8255 21.0524C89.2885 21.0064 88.7455 20.9907 88.2065 20.9721C87.5025 20.9477 86.7975 20.9379 86.0935 20.9369C84.6165 20.8429 83.1395 20.7568 81.6635 20.6472C80.7595 20.5797 79.8545 20.5141 78.9505 20.4476C79.4415 20.4104 79.9325 20.3752 80.4225 20.339ZM121.115 19.3164C121.224 19.29 121.332 19.2596 121.44 19.2303C121.671 19.2273 121.902 19.2225 122.133 19.2195C122.082 19.2264 122.031 19.2332 121.98 19.2391C121.598 19.289 121.216 19.3399 120.834 19.3898C120.816 19.3917 120.797 19.3947 120.779 19.3966C120.89 19.3702 121.002 19.3438 121.115 19.3164ZM127.011 15.0087C126.881 15.0968 126.77 15.2083 126.658 15.316C125.513 15.5156 124.367 15.7152 123.222 15.9149C122.099 16.1096 120.971 16.2877 119.845 16.4717C119.304 16.5607 118.762 16.6488 118.221 16.7379C116.667 16.9923 115.114 17.2477 113.56 17.5021C112.917 17.6078 112.273 17.7076 111.63 17.8123C110.974 17.919 110.317 18.0227 109.661 18.1284C108.579 18.1382 107.497 18.148 106.416 18.1587C105.407 18.1685 104.397 18.1627 103.388 18.1901C101.912 18.2282 100.436 18.2644 98.9605 18.3016C96.4575 18.3633 93.9495 18.3867 91.4475 18.5159C90.4385 18.5678 89.4295 18.6196 88.4205 18.6725C88.4405 18.467 88.4205 18.2576 88.3855 18.0442C88.8235 17.9914 89.2625 17.9386 89.7005 17.8857C90.2295 17.8211 90.7624 17.7741 91.2874 17.689C91.8344 17.6 92.3804 17.5119 92.9254 17.4238C94.6144 17.1508 96.3034 16.8768 97.9904 16.5979C100.732 16.5783 103.473 16.5519 106.215 16.5187C106.601 16.5147 106.99 16.4834 107.376 16.4648C108.271 16.4228 109.167 16.3816 110.063 16.3396C111.791 16.2593 113.518 16.1781 115.246 16.0979C116.296 16.0499 117.346 15.9354 118.395 15.8474C119.369 15.7652 120.344 15.683 121.318 15.6008C121.729 15.5655 122.144 15.542 122.554 15.4941C124.04 15.3287 125.53 15.1848 127.011 14.9852C127.025 14.9833 127.038 14.9813 127.052 14.9804C127.039 14.9911 127.024 14.998 127.011 15.0087ZM136.409 11.2892C136.405 11.2804 136.402 11.2726 136.398 11.2647C136.402 11.2716 136.406 11.2804 136.409 11.2892ZM135.737 10.4114C135.853 10.5934 136.001 10.7617 136.142 10.9271C136.23 11.0485 136.312 11.1678 136.389 11.295C135.854 11.4614 135.293 11.5348 134.741 11.6268C134.285 11.7021 133.828 11.7775 133.371 11.8528C133.22 11.8773 133.068 11.8998 132.916 11.9243C132.737 11.8186 132.53 11.7559 132.311 11.7501C131.331 11.7256 130.359 11.71 129.379 11.7511C128.932 11.7696 128.484 11.7941 128.037 11.8225C130.273 11.3851 132.5 10.9066 134.723 10.4065C135.024 10.339 135.325 10.2695 135.626 10.201C135.661 10.2725 135.695 10.3429 135.737 10.4114ZM97.5435 24.6251C97.0435 24.6995 96.5435 24.7807 96.0435 24.861C96.0095 24.7318 95.9565 24.6095 95.8805 24.5028C97.0875 24.4451 98.2935 24.3883 99.5005 24.3306C98.8485 24.4284 98.1965 24.5263 97.5435 24.6251ZM115.89 20.1893C114.738 20.2676 113.587 20.3449 112.433 20.4231C111.414 20.4907 110.394 20.5582 109.376 20.6394C109.238 20.5494 109.072 20.4946 108.895 20.4858C108.623 20.4721 108.351 20.4564 108.079 20.4437C107.808 20.4319 107.537 20.4515 107.268 20.4691C106.726 20.5014 106.188 20.5699 105.65 20.6277C105.511 20.6424 105.372 20.6561 105.233 20.6698C107.775 20.2558 110.317 19.8419 112.859 19.4289C113.09 19.3917 113.322 19.3516 113.553 19.3144C115.036 19.3017 116.518 19.288 118 19.2714C117.948 19.3379 117.906 19.4094 117.882 19.4925C117.802 19.6775 117.792 19.8712 117.788 20.067C117.692 20.0718 117.596 20.0767 117.5 20.0806C116.964 20.1051 116.427 20.1531 115.89 20.1893ZM131.722 19.6422C131.979 19.5238 132.236 19.4035 132.492 19.2821C132.966 19.2782 133.438 19.3027 133.912 19.3536C133.35 19.4358 132.787 19.518 132.225 19.5943C132.056 19.6129 131.889 19.6295 131.722 19.6422ZM132.007 23.2404C132.76 22.893 133.512 22.5447 134.267 22.1983C134.73 21.983 135.204 21.7892 135.674 21.5876C135.699 21.5769 135.725 21.5651 135.75 21.5544C135.674 21.6297 135.596 21.7051 135.518 21.7795C135.289 21.9957 135.073 22.2286 134.847 22.4488C134.656 22.6367 134.458 22.8158 134.255 22.9899C133.434 23.2121 132.611 23.4283 131.785 23.6348C131.364 23.7405 130.939 23.8266 130.517 23.9264C130.519 23.9255 130.522 23.9245 130.524 23.9235C131.017 23.6955 131.513 23.4684 132.007 23.2404ZM137.145 15.5508C136.941 15.6409 136.737 15.7319 136.533 15.8209C136.15 15.9892 135.767 16.1576 135.386 16.3278C135.284 16.3728 135.182 16.4169 135.08 16.4629C133.934 16.9805 132.791 17.5021 131.647 18.0247C129.568 18.0462 127.489 18.0579 125.41 18.0668C125.956 17.9209 126.503 17.7761 127.048 17.6293C128.091 17.3495 129.143 17.0989 130.19 16.8347C131.095 16.6048 132.001 16.3807 132.909 16.1615C132.948 16.1556 132.987 16.1507 133.026 16.1449C133.754 16.0411 134.482 15.9374 135.209 15.8336C135.427 15.8023 135.645 15.771 135.863 15.7407C136.048 15.7143 136.234 15.6859 136.419 15.6585C136.661 15.6233 136.903 15.588 137.145 15.5508ZM16.2075 21.9478C14.8975 21.936 13.5875 21.9252 12.2775 21.9115C12.4715 21.892 12.6665 21.8724 12.8605 21.8528C14.1265 21.7266 15.3915 21.5994 16.6575 21.4722C17.5975 21.3782 18.5385 21.2843 19.4785 21.1894C20.2925 21.1072 21.1025 21.0142 21.9205 20.975C23.8155 20.886 25.7115 20.796 27.6065 20.7079C29.6625 20.611 31.7205 20.5132 33.7775 20.4163C34.1435 20.3987 34.5085 20.384 34.8745 20.3634C35.2195 20.3458 35.5745 20.3703 35.9195 20.3742C39.9605 20.4104 43.9985 20.4466 48.0395 20.4848C48.4135 20.4877 48.7874 20.4916 49.1624 20.4946C49.5044 20.4985 49.8495 20.5347 50.1915 20.5553C51.2545 20.6169 52.3165 20.6786 53.3795 20.7402C53.4495 20.9633 53.6345 21.1258 53.8685 21.2099C54.0625 21.2784 54.2535 21.3528 54.4455 21.4242C54.6445 21.4986 54.8525 21.5319 55.0615 21.5681C55.4985 21.6424 55.9415 21.6806 56.3835 21.709C57.3865 21.7726 58.3965 21.7158 59.4015 21.6884C60.3805 21.662 61.3575 21.6444 62.3355 21.5994C63.2115 21.5583 64.0875 21.5025 64.9625 21.4428C66.4575 21.5495 67.9525 21.66 69.4475 21.7677C68.6305 21.8293 67.8135 21.892 66.9975 21.9536C66.8905 21.9614 66.7824 21.9703 66.6754 21.9791C66.6714 21.9791 66.6664 21.9791 66.6624 21.9791C60.3224 22.0114 53.9835 22.0544 47.6445 22.0583C43.9075 22.0613 40.1704 22.0623 36.4334 22.0652C33.1404 22.0681 29.8445 22.0368 26.5505 22.0221C23.1025 22.0074 19.6545 21.9791 16.2075 21.9478ZM63.6215 31.7971C64.4435 31.6542 65.2664 31.5133 66.0894 31.3723C66.0954 31.3792 66.1005 31.3861 66.1065 31.3929C66.2535 31.5358 66.4284 31.5896 66.6284 31.6043C66.6974 31.6092 66.7665 31.616 66.8355 31.6219C66.5465 31.6375 66.2585 31.6532 65.9695 31.6679C65.1865 31.709 64.4045 31.7462 63.6215 31.7971ZM75.7385 31.1767C76.3135 31.1189 76.8894 31.0621 77.4644 31.0103C79.4764 30.8292 81.4875 30.6472 83.4995 30.4672C84.9395 30.337 86.3785 30.1942 87.8195 30.0767C89.5155 29.9397 91.2104 29.8067 92.9044 29.6706C94.3754 29.5522 95.8475 29.4181 97.3195 29.3183C99.1265 29.197 100.935 29.0747 102.742 28.9533C101.868 29.1207 100.995 29.288 100.122 29.4583C98.2605 29.8243 96.3985 30.1873 94.5365 30.5543C91.3265 30.6384 88.1175 30.7324 84.9075 30.8253C81.8505 30.9134 78.7955 31.0534 75.7385 31.1767ZM90.3985 32.8226C89.0335 32.9929 87.6685 33.1651 86.3055 33.3442C86.7485 33.2581 87.1915 33.172 87.6355 33.0868C88.0335 33.0095 88.4325 32.9312 88.8305 32.8529C89.3525 32.8431 89.8755 32.8324 90.3985 32.8226ZM87.1674 38.6891C87.2124 38.6823 87.2585 38.6774 87.3035 38.6705C85.5045 38.8829 83.7085 39.1089 81.9105 39.3291C80.8135 39.4622 79.7165 39.5728 78.6175 39.6736C77.4385 39.7812 76.2575 39.8703 75.0755 39.9114C74.6135 39.927 74.1605 39.9485 73.7025 39.9984C73.3165 40.0405 72.9315 40.0855 72.5445 40.0992C72.7705 40.0317 72.9965 39.9652 73.2245 39.9016C73.7415 39.7567 74.2595 39.6119 74.7755 39.4671C75.1555 39.4299 75.5355 39.3927 75.9155 39.3555C77.8805 39.1647 79.8474 38.9739 81.8134 38.7821C82.9704 38.6686 84.1305 38.6089 85.2895 38.5277C87.1685 38.3956 89.0455 38.2644 90.9245 38.1323C91.1105 38.1196 91.2975 38.1098 91.4835 38.101C90.5755 38.2243 89.6675 38.3466 88.7595 38.4709C88.2285 38.5433 87.6974 38.6167 87.1674 38.6891ZM82.3975 46.2535C81.4915 46.3768 80.5855 46.501 79.6805 46.6243C77.6435 46.8729 75.6064 47.1215 73.5714 47.3681C72.6504 47.4806 71.7284 47.5921 70.8084 47.7057C70.6824 47.7203 70.5595 47.7301 70.4305 47.7419C69.6915 47.8065 68.9544 47.8828 68.2144 47.9493C67.7644 47.9894 67.3095 48.0276 66.8545 48.054C66.9805 48.0188 67.1065 47.9826 67.2325 47.9464C67.9155 47.7517 68.5975 47.554 69.2815 47.3612C70.8775 46.914 72.4725 46.4668 74.0685 46.0196C74.0625 46.1243 74.0865 46.2339 74.1345 46.3161C74.2205 46.46 74.3995 46.5744 74.5755 46.5637C75.7245 46.4893 76.8795 46.4707 78.0235 46.3337C79.1785 46.1967 80.3225 45.9824 81.4625 45.7563C82.6295 45.5254 83.7945 45.2896 84.9605 45.0547C86.5615 44.7318 88.1605 44.402 89.7625 44.0859C90.6615 43.9088 91.5615 43.7307 92.4605 43.5536C92.7165 43.5037 92.9714 43.4528 93.2274 43.4019C93.5374 43.3412 93.8455 43.2727 94.1535 43.2062C93.9855 43.2816 93.8174 43.3569 93.6494 43.4322C93.0374 43.7053 92.4265 43.9812 91.8145 44.2523C91.0445 44.5938 90.2735 44.9363 89.5025 45.2749C87.1355 45.6017 84.7665 45.9295 82.3975 46.2535Z" fill="#FFD933"/>
<path d="M31.1476 18.1088C30.9806 18.0129 30.7896 17.964 30.5986 17.964C30.5026 17.964 30.4065 17.9767 30.3135 18.0012C30.0645 18.0687 29.7775 18.2517 29.6665 18.4885C29.2325 19.4162 28.8475 20.3625 28.4615 21.3087C28.0105 22.4175 27.5595 23.5242 27.1095 24.632C27.0615 24.7494 27.0545 24.8883 27.0745 25.0244C26.7825 25.725 26.4906 26.4257 26.1986 27.1263C25.1016 29.6471 24.0245 32.1777 22.8735 34.6741C21.5925 37.4532 20.3035 40.2265 18.9795 42.986C18.4465 44.0977 17.8916 45.2025 17.4096 46.3376C17.1606 46.8357 16.8445 47.3367 16.9075 47.9141C16.9085 48.1881 16.9786 48.4445 17.1196 48.6803C17.2196 48.8163 17.3245 48.9494 17.4315 49.0796C17.6925 49.335 18.0225 49.4818 18.3685 49.5894C18.8205 49.7303 19.3676 49.607 19.7756 49.3966C19.9636 49.2997 20.1345 49.1843 20.3155 49.0776C20.6235 48.8976 20.9205 48.7155 21.2115 48.5139C21.5835 48.2556 21.8645 47.9679 21.9895 47.5236C22.1095 47.096 22.0475 46.6302 21.8195 46.2486C21.6035 45.8894 21.2526 45.6184 20.8446 45.498C20.8866 45.3933 20.9295 45.2886 20.9725 45.1839C21.2085 44.6016 21.4345 44.0155 21.6815 43.4381C22.1615 42.3235 22.6395 41.207 23.1185 40.0924C24.2995 37.3808 25.4816 34.6701 26.6296 31.9468C27.2196 30.5464 27.8295 29.1529 28.3995 27.7448C29.0485 26.1419 29.6966 24.538 30.3456 22.9351C30.4526 22.669 30.5585 22.4008 30.6645 22.1337C30.8435 21.6845 31.0206 21.2354 31.1896 20.7823C31.3706 20.2949 31.5136 19.8047 31.6476 19.3027C31.7676 18.8447 31.5706 18.3505 31.1476 18.1088Z" fill="#2C2C2C"/>
<path d="M56.1644 33.8247C55.9204 33.2532 55.6974 32.6788 55.5214 32.0828C55.3664 31.5583 55.2314 31.0191 55.1254 30.4829C55.0234 29.9593 54.9014 29.4358 54.8204 28.9084C54.7674 28.4426 54.7154 27.9787 54.6024 27.5227C54.4984 27.098 54.0694 26.7996 53.6304 26.7996C53.0554 26.7996 52.6564 27.2487 52.6224 27.785C52.5864 28.3457 52.5294 28.9093 52.5274 29.472C52.5274 29.8243 52.5264 30.1766 52.5264 30.5289C52.5254 31.4125 52.5234 32.2952 52.5224 33.1788C52.5194 34.5214 52.5884 35.866 52.6254 37.2086C52.6954 39.794 52.8054 42.3754 52.8704 44.9608C52.9484 48.057 52.9914 51.1542 53.0134 54.2504C53.0204 55.0802 53.7174 55.773 54.5694 55.773C55.3834 55.773 56.1724 55.0802 56.1254 54.2504C55.9774 51.573 55.8254 48.8937 55.6374 46.2173C55.5454 44.9099 55.4614 43.6026 55.3594 42.2952C55.2524 40.9115 55.1204 39.5258 55.0374 38.1402C54.9824 37.2164 54.9264 36.2936 54.8714 35.3699C55.1044 35.7848 55.7204 35.8865 56.1154 35.6595C56.3214 35.5411 56.4754 35.3464 56.5404 35.1203C56.6104 34.8718 56.5564 34.6506 56.4474 34.4246C56.3484 34.2259 56.2544 34.0273 56.1644 33.8247Z" fill="#2C2C2C"/>
<path d="M85.6454 67.2633C85.1354 64.4607 84.6145 61.66 84.1475 58.8496C83.8795 57.2301 83.6104 55.6105 83.3404 53.992C83.1124 52.6171 82.9174 51.2373 82.7054 49.8585C82.4954 48.5003 82.2834 47.14 82.0704 45.7818C81.9044 44.7318 81.7394 43.6828 81.5734 42.6337C81.3604 41.2823 81.0384 39.9495 80.7534 38.6108C80.7044 38.3808 80.5154 38.1675 80.3124 38.0511C80.1584 37.963 80.0114 37.9337 79.8564 37.9337C79.7664 37.9337 79.6744 37.9434 79.5754 37.9571C79.1894 38.01 78.8514 38.1988 78.6504 38.5355C78.4564 38.8604 78.4284 39.2498 78.3904 39.6197C78.3554 39.7988 78.3104 39.9749 78.2704 40.1521C78.1664 40.6071 78.4064 41.0759 78.8804 41.204C79.0004 41.2363 79.1264 41.2412 79.2474 41.2216C79.3044 41.5808 79.3595 41.9399 79.4105 42.3C79.6125 43.8198 79.7695 45.3453 79.9495 46.866C80.0785 47.9689 80.2064 49.0707 80.3324 50.1736C80.4904 51.5573 80.6264 52.9469 80.8094 54.3286C81.0254 55.955 81.2394 57.5804 81.4554 59.2068C82.1604 64.5272 83.0184 69.8292 83.9174 75.1203C84.4134 78.0442 84.9024 80.9682 85.4744 83.8785C85.5544 84.2836 85.8975 84.6643 86.2515 84.8658C86.6415 85.089 87.1175 85.1496 87.5535 85.0332C87.9755 84.9187 88.3414 84.6427 88.5624 84.2728C88.6184 84.1407 88.6764 84.0096 88.7334 83.8785C88.8134 83.5849 88.8134 83.2923 88.7334 82.9987C87.8104 77.734 86.6014 72.5222 85.6454 67.2633Z" fill="#2C2C2C"/>
<path d="M116.815 48.2625C116.214 45.7045 115.704 43.125 115.171 40.5533C114.848 38.9935 114.553 37.4288 114.245 35.866C113.981 34.5244 113.722 33.1769 113.495 31.8284C113.491 31.7961 113.486 31.7638 113.481 31.7306C113.471 31.6709 113.459 31.6112 113.448 31.5515C113.375 31.1493 112.924 30.8665 112.531 30.8665C112.28 30.8665 112.035 30.9663 111.856 31.1395C111.694 31.298 111.551 31.5671 111.576 31.8C111.654 32.5075 111.789 33.2091 111.904 33.9118C112.01 34.5517 112.116 35.1917 112.222 35.8307C112.451 37.2272 112.708 38.6177 112.95 40.0112C113.351 42.3187 113.751 44.6281 114.153 46.9365C114.421 48.4817 114.686 50.0268 114.976 51.5681C115.285 53.2238 115.585 54.8825 115.977 56.5206C116.149 57.2389 116.972 57.6558 117.677 57.465C118.407 57.2683 118.833 56.5138 118.641 55.8024C117.963 53.308 117.406 50.7774 116.815 48.2625Z" fill="#2C2C2C"/>
<path d="M125.935 37.5207C125.436 36.2398 124.936 34.9607 124.404 33.6925C123.909 32.5114 123.376 31.3547 122.727 30.247C122.04 29.0766 121.251 27.9708 120.378 26.9267C120.165 26.6723 119.758 26.5431 119.435 26.5431C119.082 26.5431 118.74 26.683 118.489 26.9267C118.24 27.1713 118.099 27.506 118.099 27.8524C118.099 28.2262 118.256 28.4963 118.489 28.7762C118.611 28.921 118.732 29.0668 118.854 29.2126C119.977 30.7098 120.915 32.3333 121.664 34.0389C122.356 35.6702 122.979 37.3269 123.625 38.9748C124.22 40.4946 124.774 42.0495 125.521 43.5046C125.773 43.9929 126.425 44.2102 126.943 44.0712C127.258 43.9861 127.53 43.7806 127.695 43.5046C127.852 43.2424 127.938 42.848 127.823 42.5554C127.169 40.8879 126.587 39.1911 125.935 37.5207Z" fill="#2C2C2C"/>
<path d="M149.567 35.3473C149.498 35.314 149.431 35.2778 149.366 35.2387C148.674 34.6428 148.077 33.9333 147.449 33.2728C147.016 32.8167 146.579 32.3617 146.147 31.9037C145.295 30.9976 144.444 30.0904 143.591 29.1843C142.722 28.2615 141.898 27.2947 141.052 26.3513C139.798 24.953 138.555 23.5448 137.315 22.1337C137.011 21.7893 136.475 21.6102 136.023 21.6102C135.541 21.6102 135.072 21.8 134.731 22.1337C134.39 22.4684 134.196 22.9263 134.196 23.398C134.196 23.901 134.405 24.2924 134.731 24.6623C135.971 26.0744 137.212 27.4825 138.464 28.8839C139.318 29.8389 140.149 30.8156 141.026 31.7491C141.874 32.6533 142.711 33.5673 143.571 34.4578C144.066 34.9686 144.559 35.4804 145.053 35.9912C145.348 36.2965 145.651 36.595 145.955 36.8934C146.242 37.1763 146.546 37.4385 146.861 37.692C147.051 37.8456 147.249 37.9875 147.455 38.1196C147.65 38.2498 148.002 38.3466 148.241 38.424C148.97 38.6569 149.808 38.2791 150.185 37.6509C150.646 36.8758 150.389 35.7857 149.567 35.3473Z" fill="#2C2C2C"/>
<path d="M162.114 24.2141C158.689 21.4594 155.257 18.7136 151.831 15.9619C151.622 15.8033 151.412 15.6458 151.203 15.4872C150.719 15.2132 150.196 15.0743 149.635 15.0714C148.815 15.0714 148.02 15.3943 147.44 15.9619C146.861 16.5294 146.531 17.3084 146.531 18.1098C146.531 18.8467 146.836 19.7734 147.44 20.2587C150.866 23.0105 154.278 25.7828 157.729 28.5051C160.574 30.751 163.441 32.9743 166.274 35.2357C166.476 35.3874 166.678 35.5401 166.878 35.6918C167.344 35.9569 167.846 36.0881 168.383 36.091C169.17 36.091 169.934 35.7808 170.49 35.2357C171.594 34.1554 171.698 32.1748 170.49 31.1091C167.78 28.7214 164.932 26.4805 162.114 24.2141Z" fill="#2C2C2C"/>
<path d="M88.9445 64.8433C88.8045 64.3178 88.6655 63.7904 88.5405 63.262C88.3815 62.5926 88.2225 61.9233 88.0645 61.2539C88.0165 61.0494 87.9804 60.841 87.9384 60.6355C87.8494 60.1961 87.7595 59.7548 87.6695 59.3134C87.6095 59.0111 87.5474 58.7097 87.4854 58.4073C87.4664 58.3133 87.4425 58.2194 87.4295 58.1235C87.3595 57.6714 87.2905 57.2212 87.2205 56.7691C87.0575 55.7094 86.8925 54.6505 86.7315 53.5898C86.5815 52.2335 86.4435 50.8772 86.2985 49.5219C86.1995 48.5834 86.0925 47.6459 86.0165 46.7055C85.7995 44.0438 85.5735 41.3831 85.3855 38.7195C85.3155 37.7311 85.2454 36.7427 85.1754 35.7534C85.1564 35.4696 85.1325 35.1888 85.1325 34.905C85.1335 34.4617 85.1735 34.0204 85.1285 33.5771C85.1095 33.3931 85.0725 33.213 85.0085 33.0379C84.9745 32.9439 84.9275 32.8539 84.8775 32.7678C84.8295 32.6875 84.7335 32.6317 84.6525 32.5916C84.6055 32.5681 84.5574 32.5574 84.5114 32.5574C84.3654 32.5574 84.2415 32.668 84.2275 32.8294C84.1295 34.0477 84.0194 35.2641 83.8994 36.4814C83.8854 36.6312 84.0395 36.7574 84.1815 36.7574C84.3465 36.7574 84.4485 36.6312 84.4635 36.4814C84.5035 36.0773 84.5415 35.6731 84.5795 35.27C84.5805 35.2964 84.5824 35.3238 84.5844 35.3512C84.5984 35.544 84.6115 35.7358 84.6255 35.9295C84.6855 36.7858 84.7465 37.643 84.8065 38.4993C84.8765 39.4847 84.9485 40.4691 85.0035 41.4565C85.0975 43.1563 85.1915 44.857 85.2865 46.5568C85.3375 47.4757 85.4044 48.3916 85.4724 49.3085C85.5764 50.7392 85.6815 52.1718 85.7855 53.6025C85.7935 53.7238 85.8115 53.8442 85.8255 53.9656C85.8655 54.3257 85.9035 54.6877 85.9435 55.0478C86.0395 55.9178 86.1345 56.7868 86.2305 57.6557C86.3665 58.8975 86.5645 60.1305 86.7435 61.3665C86.9175 62.577 87.1375 63.7806 87.3525 64.9843C87.5055 65.8454 87.6745 66.7016 87.8625 67.5559C87.9625 68.0168 88.5055 68.2791 88.9495 68.1597C89.4115 68.0354 89.6995 67.5491 89.5675 67.094C89.3475 66.3474 89.1455 65.5949 88.9445 64.8433Z" fill="#2C2C2C"/>
<path d="M103.662 45.8024C103.433 44.5928 103.239 43.3775 103.031 42.164C102.848 41.0906 102.672 40.0161 102.496 38.9416C102.018 36.0079 101.505 33.08 100.979 30.1541C100.932 29.8967 100.706 29.652 100.484 29.5258C100.319 29.4309 100.13 29.382 99.9414 29.382C99.8454 29.382 99.7504 29.3947 99.6574 29.4191C99.3884 29.4916 99.1554 29.6667 99.0154 29.9016C98.8584 30.1638 98.8544 30.4232 98.9074 30.7128C99.4114 33.5301 99.9024 36.3514 100.35 39.1794C100.718 41.5143 101.067 43.854 101.472 46.183C101.937 48.8555 102.376 51.5348 102.901 54.1965C102.959 54.4842 103.202 54.7543 103.452 54.8982C103.73 55.0567 104.066 55.0998 104.377 55.0166C105.028 54.8404 105.358 54.1965 105.214 53.5722C104.621 50.9986 104.153 48.3975 103.662 45.8024Z" fill="#2C2C2C"/>
<path d="M69.7945 36.2966C69.6925 35.3953 69.5915 34.494 69.4895 33.5928C69.3765 32.6015 69.2595 31.6112 69.1415 30.6209C69.1185 30.4222 69.0755 30.2588 68.9255 30.111C68.7885 29.9769 68.5985 29.8997 68.4045 29.8997C68.2095 29.8997 68.0195 29.976 67.8825 30.111C67.7585 30.2333 67.6465 30.4418 67.6665 30.6209C68.0855 34.087 68.4885 37.553 68.8335 41.026C68.9105 41.8088 68.9885 42.5917 69.0535 43.3745C69.0695 43.5605 69.1195 43.72 69.2565 43.856C69.3865 43.9822 69.5645 44.0556 69.7485 44.0556C70.1085 44.0556 70.4685 43.7464 70.4435 43.3745C70.3365 41.8274 70.1895 40.2813 70.0365 38.7381C69.9565 37.9239 69.8865 37.1088 69.7945 36.2966Z" fill="#2C2C2C"/>
<path d="M46.2884 23.9196C46.1854 23.8608 46.0675 23.8305 45.9495 23.8305C45.8895 23.8305 45.8294 23.8384 45.7714 23.854C45.6204 23.8941 45.4344 24.0086 45.3704 24.1554C44.4774 26.184 43.5824 28.2116 42.6834 30.2372C42.1144 31.5162 41.5554 32.7991 40.9774 34.0742C39.7224 36.8445 38.4664 39.6168 37.2014 42.3832C36.8714 43.1064 36.5394 43.8305 36.2014 44.5507C36.1244 44.7151 36.0845 44.8678 36.1345 45.0488C36.1815 45.2103 36.2914 45.3503 36.4384 45.4344C36.5924 45.5215 36.7774 45.546 36.9484 45.5C37.0994 45.4579 37.2745 45.3483 37.3425 45.2025C38.6245 42.487 39.8554 39.747 41.0974 37.0148C42.3784 34.1946 43.6344 31.3636 44.8924 28.5326C45.4424 27.2966 45.9834 26.0568 46.5294 24.8179C46.6054 24.6486 46.6494 24.4979 46.5964 24.312C46.5504 24.1485 46.4374 24.0057 46.2884 23.9196Z" fill="#2C2C2C"/>
</svg>
