<svg xmlns="http://www.w3.org/2000/svg" width="16" height="11" fill="none"><path fill="#B0B8BC" fill-rule="evenodd" d="M13.456.092c.959.054 1.43.196 1.864.968.452.771.68 2.099.68 4.438v.008c0 2.328-.228 3.666-.679 4.429-.434.772-.905.912-1.864.977-.959.055-3.368.088-5.455.088-2.091 0-4.501-.033-5.459-.089-.957-.065-1.428-.205-1.866-.977C.23 9.171 0 7.833 0 5.505v-.008C0 3.159.23 1.831.677 1.06c.438-.773.91-.914 1.867-.969C3.501.027 5.911 0 8.002 0c2.087 0 4.496.027 5.454.092ZM11 5.5l-5-3v6l5-3Z" clip-rule="evenodd"/></svg>